<svg width="528" height="528" viewBox="0 0 528 528" fill="none" xmlns="http://www.w3.org/2000/svg">
<rect width="528" height="528" fill="white"/>
<path fill-rule="evenodd" clip-rule="evenodd" d="M198.656 104.065C199.188 101.78 199.708 99.4928 200.216 97.2032C196.372 102.305 192.156 107.271 187.446 112.082C186.975 112.563 186.483 113.071 185.972 113.598L185.971 113.599L185.97 113.599L185.97 113.6C182.716 116.959 178.674 121.131 174.181 124.451C168.737 128.474 161.825 131.905 153.207 131.937C148.766 131.954 144.194 131.385 139.333 129.158C127.123 123.566 117.906 111.508 116.449 97.8752C115.862 92.3837 119.84 87.472 125.333 86.9048C130.827 86.3376 135.756 90.3296 136.343 95.8212C137.007 102.031 141.487 108.182 147.616 110.989C149.064 111.652 150.545 111.954 153.061 111.945C156.066 111.934 158.926 110.817 162.249 108.361C165.314 106.096 168.084 103.249 171.425 99.8141L171.426 99.8133L171.427 99.8123C171.974 99.249 172.538 98.6699 173.12 98.075C186.733 84.1715 195.867 68.501 204.8 50.2641C205.724 48.3784 206.714 46.582 207.582 45.0109L207.643 44.9004C208.521 43.3103 209.275 41.9457 209.959 40.5741C209.959 40.5754 209.958 40.5754 209.959 40.574C209.96 40.5718 209.962 40.566 209.966 40.5562L209.966 40.5557C210.002 40.4692 210.162 40.083 210.476 39.2089C210.567 38.9554 210.685 38.6208 210.815 38.254L210.815 38.2529L210.816 38.2515L210.817 38.2481C211.054 37.5764 211.329 36.7978 211.546 36.2118L211.583 36.1115C211.833 35.4321 212.507 33.5996 213.472 32.1533C213.734 31.7615 214.554 30.552 216.001 29.4826C217.521 28.36 221.827 26.0707 226.747 28.6647C230.364 30.5715 231.471 33.8568 231.682 34.4831L231.688 34.5009C232.055 35.5881 232.176 36.5338 232.227 37.0078C232.533 39.8675 232.046 42.4533 231.734 43.9447C231.53 44.9171 231.394 45.4941 231.295 45.9149L231.295 45.9151L231.295 45.9153C231.178 46.4084 231.112 46.6873 231.048 47.1373C229.656 56.8307 227.356 66.9587 225.181 76.5318C224.093 81.3212 223.037 85.9716 222.141 90.3593C221.977 91.1642 221.812 91.9689 221.644 92.7734C225.12 91.9657 228.519 91.465 231.666 91.1973C244.59 90.0981 255.943 94.0368 264.561 102.996C267.307 101.642 269.779 100.44 272.116 99.3031C280.685 95.1345 287.428 91.8548 299.165 85.2765C321.533 72.74 339.174 60.4589 351.698 50.6953C364.481 40.7303 371.424 33.7875 372.831 32.0125C376.263 27.6854 382.553 26.9596 386.88 30.3915C391.207 33.8234 391.933 40.1133 388.501 44.4405C385.537 48.1783 377.008 56.3241 363.995 66.4687C350.723 76.8146 332.244 89.6638 308.943 102.723C296.746 109.559 289.244 113.212 280.302 117.567L280.302 117.567L280.289 117.573C278.856 118.271 277.386 118.987 275.853 119.737C276.758 121.427 277.627 123.133 278.463 124.85C295.156 115.838 313.855 110.371 333.137 110.493C344.793 110.567 357.213 113.309 367.937 118.827C380.922 125.508 390.954 138.566 396.923 150.056C407.839 171.068 407.359 197.561 403.119 219.466C407.552 220.141 411.128 223.758 411.563 228.424C412.076 233.923 408.035 238.797 402.536 239.31C400.697 239.482 399.153 239.633 397.841 239.77C395.264 247.72 392.172 255.571 388.885 263.064C388.637 263.845 388.351 264.695 388.056 265.554C387.052 268.484 385.431 273.018 383.175 279.325L383.171 279.337C382.563 281.036 381.91 282.863 381.21 284.823C378.513 292.374 377.22 297.916 376.601 301.414C376.292 303.164 376.15 304.406 376.086 305.137C376.054 305.502 376.041 305.74 376.036 305.85L376.035 305.889V306.654L375.889 307.497L375.889 307.497L375.888 307.499L375.886 307.516L375.871 307.6C375.858 307.678 375.838 307.799 375.811 307.963C375.757 308.289 375.677 308.78 375.577 309.417C375.378 310.692 375.099 312.549 374.788 314.837C374.165 319.425 373.421 325.692 372.927 332.452C372.43 339.246 372.201 346.344 372.553 352.646C372.92 359.214 373.873 363.84 375.071 366.369C377.436 371.36 375.308 377.323 370.317 379.688C365.326 382.053 359.363 379.925 356.998 374.934C354.088 368.795 352.987 360.98 352.584 353.762C352.166 346.279 352.45 338.246 352.98 330.993C353.082 329.601 353.193 328.231 353.312 326.89C351.547 328.855 349.61 330.986 347.541 333.214C343.369 338.047 339.106 342.555 335.749 345.438C335.579 345.584 335.408 345.729 335.238 345.875C325.335 355.539 313.47 365.72 302.528 370.636C288.734 376.835 267.229 386.31 246.862 387.496C236.466 388.101 225.536 386.616 215.875 380.75C206.051 374.785 198.689 364.989 194.314 351.173C187.333 329.132 187.862 308.829 189.515 290.525C191.269 271.113 197.904 235.002 202.872 217.298C203.178 216.206 203.655 215.207 204.264 214.323C205.251 211.288 206.324 208.319 207.445 205.422C210.648 197.15 214.802 189.228 219.718 181.948C229.486 167.483 241.194 152.458 255.158 140.729C257.213 139.004 259.324 137.33 261.486 135.714C260.367 133.317 259.194 130.969 257.957 128.686C249.373 132.96 240.59 136.988 230.542 139.902C227.99 140.642 225.169 141.319 222.772 141.816C220.808 142.224 217.958 142.768 215.989 142.768C216.088 142.768 213.057 142.962 209.291 142.636C206.767 151.377 204.065 160.065 201.184 168.682C190.827 199.669 179.671 232.238 162.762 261.838C162.485 262.323 162.155 262.928 161.779 263.617C160.266 266.388 158.004 270.532 155.383 273.868C151.942 278.248 146.182 283.57 137.481 283.808C131.959 283.959 127.344 279.608 127.173 274.089C127.003 268.57 131.341 263.974 136.863 263.823L136.867 263.823C136.934 263.825 137.776 263.847 139.629 261.489C141.125 259.584 142.256 257.523 143.643 254.997L143.643 254.997L143.643 254.997L143.643 254.996C144.173 254.031 144.739 252.998 145.378 251.881C161.178 224.221 171.791 193.446 182.205 162.289C185.376 152.803 188.325 143.227 191.051 133.584C189.47 131.227 188.416 128.373 188.207 125.059C188.191 124.79 188.184 124.524 188.189 124.259C188.188 124.213 188.188 124.167 188.188 124.121C188.188 119.208 189.944 115.116 191.069 113.196C192.506 110.746 195.184 107.5 196.827 105.819C197.42 105.211 198.031 104.627 198.656 104.065ZM210.233 285.017C209.904 287.657 209.634 290.113 209.434 292.324C207.864 309.702 207.595 326.868 213.38 345.135C216.467 354.881 220.98 360.264 225.728 363.325C225.978 361.496 226.396 359.676 226.875 357.957C228.137 353.435 230.154 348.485 232.259 343.893C236.497 334.645 241.691 325.561 243.933 321.767C246.893 316.758 250.064 311.909 253.418 307.218C244.92 307.454 235.943 305.988 228.362 301.39C221.095 296.982 214.986 291.547 210.233 285.017ZM332.614 319.899C329.774 322.952 326.695 326.173 323.467 329.393C322.895 329.963 322.322 330.529 321.749 331.091C308.869 341.99 296.115 349.56 276.886 357.051C276.24 357.235 275.606 357.418 274.983 357.596C263.297 360.951 255.513 363.186 246.576 361.879C247.467 359.093 248.812 355.779 250.441 352.225C254.257 343.898 259.05 335.497 261.151 331.942C268.676 319.209 277.806 307.494 288.009 296.798C288.116 296.691 288.22 296.582 288.322 296.471C291.199 293.467 294.161 290.543 297.196 287.7C299.478 291.877 302.251 296.017 305.762 300.684C313.8 311.37 326.776 312.97 334.224 312.97C335.736 312.97 337.205 312.834 338.62 312.593C337.702 313.763 336.745 314.955 335.762 316.153C334.705 317.441 333.649 318.696 332.614 319.899ZM371.878 252.022C371.491 252.499 371.225 252.903 371.116 253.07C370.241 254.408 368.697 257.436 366.973 260.82C366.713 261.329 366.449 261.847 366.183 262.367C366.066 262.597 365.946 262.831 365.825 263.069C365.65 263.279 365.468 263.497 365.28 263.723C363.273 266.136 360.558 269.378 357.718 272.713C354.869 276.058 351.935 279.448 349.478 282.171C348.246 283.537 347.182 284.681 346.337 285.546C345.696 286.203 345.339 286.533 345.212 286.651C345.146 286.712 345.142 286.716 345.193 286.677C344.588 287.132 343.995 287.65 343.646 287.955C343.521 288.064 343.405 288.166 343.292 288.266C342.997 288.524 342.727 288.761 342.409 289.032C341.577 289.743 340.712 290.43 339.773 291.044C337.869 292.287 336.051 292.97 334.224 292.97C328.386 292.97 323.878 291.498 321.745 288.661C317.581 283.126 314.95 278.921 312.987 274.586C331.445 261.064 352.205 251.597 374.57 245.439C373.702 247.652 372.802 249.849 371.878 252.022ZM268.021 156.044C268.396 155.729 268.773 155.416 269.152 155.106C271.766 163.482 274.044 175.584 276.114 189.346C277.642 199.513 278.992 210.101 280.286 220.253L280.287 220.254C280.915 225.181 281.53 230.004 282.145 234.627C283.634 245.8 286.296 257.072 289.476 267.749C287.642 269.329 285.831 270.952 284.044 272.617C280.918 275.53 277.851 278.531 274.856 281.622C269.418 284.351 262.638 286.39 255.974 287.031C248.636 287.737 242.628 286.651 238.734 284.289C228.371 278.004 221.942 269.339 219.618 256.977C216.902 242.536 220.226 227.805 226.096 212.643C228.754 205.778 232.21 199.187 236.293 193.141C245.623 179.324 256.118 166.042 268.021 156.044ZM301.97 231.986C302.964 239.444 304.569 247.083 306.564 254.64C326.147 241.314 347.729 231.96 370.495 225.82C374.495 224.741 377.173 223.934 379.211 223.303C379.602 223.182 379.988 223.061 380.369 222.941C380.923 222.768 381.468 222.598 382.005 222.433C387.171 201.279 388.144 176.54 379.175 159.276C374.192 149.684 366.636 140.649 358.787 136.611C351.102 132.657 341.816 130.549 333.01 130.493C316.929 130.391 300.849 135.182 286.257 143.387C286.562 144.218 286.861 145.048 287.155 145.875C290.845 156.26 293.61 171.197 295.891 186.372C297.453 196.756 298.856 207.758 300.166 218.034L300.167 218.039C300.786 222.898 301.385 227.594 301.97 231.986ZM214.691 122.793L214.875 122.788C215.167 122.781 215.44 122.773 215.694 122.77C215.777 122.76 215.963 122.737 216.274 122.688C216.891 122.591 217.726 122.437 218.711 122.233C220.689 121.823 222.998 121.265 224.971 120.693C231.883 118.689 238.153 116.041 244.743 112.883C241.479 111.311 237.727 110.754 233.361 111.125C227.207 111.649 221.164 113.247 216.424 115.864C215.859 118.177 215.281 120.486 214.691 122.793ZM245.481 366.866C245.481 366.866 245.48 366.866 245.48 366.864C245.479 366.858 245.478 366.836 245.478 366.796C245.482 366.841 245.482 366.865 245.481 366.866Z" fill="#001E28"/>
<path d="M200.216 97.2032L200.704 97.3115L199.816 96.9024L200.216 97.2032ZM198.656 104.065L198.99 104.437L199.107 104.332L199.143 104.179L198.656 104.065ZM187.446 112.082L187.088 111.732L187.088 111.732L187.446 112.082ZM185.972 113.598L186.325 113.952L186.331 113.946L185.972 113.598ZM185.971 113.599L185.618 113.245L185.612 113.251L185.971 113.599ZM185.97 113.599L186.324 113.953L186.33 113.947L185.97 113.599ZM185.97 113.6L185.617 113.246L185.611 113.252L185.97 113.6ZM174.181 124.451L173.884 124.049L173.884 124.049L174.181 124.451ZM153.207 131.937L153.209 132.437L153.209 132.437L153.207 131.937ZM139.333 129.158L139.125 129.613L139.125 129.613L139.333 129.158ZM116.449 97.8752L116.946 97.8221L116.946 97.8221L116.449 97.8752ZM125.333 86.9048L125.385 87.4022L125.385 87.4022L125.333 86.9048ZM136.343 95.8212L135.846 95.8743L135.846 95.8743L136.343 95.8212ZM147.616 110.989L147.824 110.534L147.824 110.534L147.616 110.989ZM153.061 111.945L153.063 112.445L153.063 112.445L153.061 111.945ZM162.249 108.361L161.952 107.959L161.952 107.959L162.249 108.361ZM171.425 99.8141L171.783 100.163L171.783 100.163L171.425 99.8141ZM171.426 99.8133L171.068 99.4638L171.067 99.4647L171.426 99.8133ZM171.427 99.8123L171.784 100.162L171.785 100.161L171.427 99.8123ZM173.12 98.075L173.477 98.4248L173.477 98.4248L173.12 98.075ZM204.8 50.2641L204.351 50.0441L204.351 50.0441L204.8 50.2641ZM207.582 45.0109L208.02 45.2526L208.02 45.2526L207.582 45.0109ZM207.643 44.9004L207.206 44.6586L207.206 44.6586L207.643 44.9004ZM209.959 40.5741L210.407 40.7973L209.512 40.35L209.959 40.5741ZM209.959 40.574L209.492 40.3955L209.492 40.3966L209.959 40.574ZM209.966 40.5562L209.505 40.3631L209.504 40.3656L209.966 40.5562ZM209.966 40.5557L210.428 40.7489L210.429 40.7464L209.966 40.5557ZM210.476 39.2089L210.946 39.3781L210.946 39.3781L210.476 39.2089ZM210.815 38.254L210.344 38.0839L210.343 38.0875L210.815 38.254ZM210.815 38.2529L211.285 38.423L211.287 38.4192L210.815 38.2529ZM210.816 38.2515L211.287 38.4178L211.287 38.4172L210.816 38.2515ZM210.817 38.2481L210.345 38.0817L210.345 38.0824L210.817 38.2481ZM211.546 36.2118L212.015 36.3854L212.015 36.3847L211.546 36.2118ZM211.583 36.1115L212.052 36.2845L212.052 36.2842L211.583 36.1115ZM213.472 32.1533L213.888 32.4309L213.888 32.4309L213.472 32.1533ZM216.001 29.4826L215.704 29.0804L215.704 29.0804L216.001 29.4826ZM226.747 28.6647L226.981 28.2224L226.981 28.2224L226.747 28.6647ZM231.682 34.4831L231.208 34.6427L231.208 34.6428L231.682 34.4831ZM231.688 34.5009L231.214 34.6606L231.214 34.6607L231.688 34.5009ZM232.227 37.0078L232.724 36.9547L232.724 36.9547L232.227 37.0078ZM231.734 43.9447L231.244 43.8422L231.244 43.8422L231.734 43.9447ZM231.295 45.9149L230.808 45.8001L230.805 45.8127L230.803 45.8255L231.295 45.9149ZM231.295 45.9151L231.778 46.0413L231.783 46.023L231.787 46.0045L231.295 45.9151ZM231.295 45.9153L230.811 45.7891L230.808 45.8005L231.295 45.9153ZM231.048 47.1373L231.543 47.2084L231.543 47.2084L231.048 47.1373ZM225.181 76.5318L225.669 76.6426L225.669 76.6426L225.181 76.5318ZM222.141 90.3593L222.631 90.4592L222.631 90.4592L222.141 90.3593ZM221.644 92.7734L221.155 92.6717L220.996 93.4375L221.757 93.2604L221.644 92.7734ZM231.666 91.1973L231.709 91.6955L231.666 91.1973ZM264.561 102.996L264.201 103.342L264.454 103.606L264.782 103.444L264.561 102.996ZM272.116 99.3031L271.897 98.8535L271.897 98.8535L272.116 99.3031ZM299.165 85.2765L299.409 85.7126L299.409 85.7126L299.165 85.2765ZM351.698 50.6953L352.006 51.0896L352.006 51.0896L351.698 50.6953ZM372.831 32.0125L372.44 31.7018L372.44 31.7018L372.831 32.0125ZM386.88 30.3915L386.57 30.7833L386.57 30.7833L386.88 30.3915ZM388.501 44.4405L388.893 44.7511L388.893 44.7511L388.501 44.4405ZM363.995 66.4687L364.302 66.863L364.302 66.863L363.995 66.4687ZM308.943 102.723L309.188 103.159L309.188 103.159L308.943 102.723ZM280.302 117.567L280.083 117.117L280.079 117.119L280.302 117.567ZM280.302 117.567L280.521 118.016L280.525 118.014L280.302 117.567ZM280.289 117.573L280.508 118.023L280.508 118.023L280.289 117.573ZM275.853 119.737L275.633 119.288L275.168 119.516L275.412 119.973L275.853 119.737ZM278.463 124.85L278.013 125.069L278.242 125.538L278.701 125.29L278.463 124.85ZM333.137 110.493L333.134 110.993L333.134 110.993L333.137 110.493ZM367.937 118.827L368.166 118.382L368.166 118.382L367.937 118.827ZM396.923 150.056L397.367 149.825L397.367 149.825L396.923 150.056ZM403.119 219.466L402.628 219.371L402.529 219.882L403.044 219.96L403.119 219.466ZM411.563 228.424L412.061 228.378L412.061 228.378L411.563 228.424ZM402.536 239.31L402.489 238.812L402.489 238.812L402.536 239.31ZM397.841 239.77L397.789 239.273L397.466 239.307L397.365 239.616L397.841 239.77ZM388.885 263.064L388.427 262.863L388.416 262.888L388.408 262.913L388.885 263.064ZM388.056 265.554L387.583 265.392L387.583 265.392L388.056 265.554ZM383.175 279.325L382.704 279.157L382.704 279.158L383.175 279.325ZM383.171 279.337L383.642 279.505L383.642 279.504L383.171 279.337ZM381.21 284.823L381.681 284.991L381.681 284.991L381.21 284.823ZM376.601 301.414L376.109 301.327L376.109 301.327L376.601 301.414ZM376.086 305.137L375.588 305.093L375.588 305.093L376.086 305.137ZM376.036 305.85L375.537 305.828L375.537 305.829L376.036 305.85ZM376.035 305.889L375.535 305.869L375.535 305.879V305.889H376.035ZM376.035 306.654L376.527 306.739L376.535 306.696V306.654H376.035ZM375.889 307.497L376.378 307.6L376.38 307.591L376.381 307.582L375.889 307.497ZM375.889 307.497L375.399 307.394L375.397 307.405L375.395 307.415L375.889 307.497ZM375.888 307.499L376.381 307.584L376.382 307.581L375.888 307.499ZM375.886 307.516L375.393 307.431L375.393 307.432L375.886 307.516ZM375.871 307.6L375.378 307.516L375.378 307.516L375.871 307.6ZM375.811 307.963L376.304 308.044L376.304 308.044L375.811 307.963ZM375.577 309.417L376.071 309.494L376.071 309.494L375.577 309.417ZM374.788 314.837L374.293 314.77L374.293 314.77L374.788 314.837ZM372.927 332.452L373.426 332.488L373.426 332.488L372.927 332.452ZM372.553 352.646L372.054 352.674L372.054 352.674L372.553 352.646ZM375.071 366.369L374.619 366.583L374.619 366.583L375.071 366.369ZM356.998 374.934L356.546 375.148L356.546 375.148L356.998 374.934ZM352.584 353.762L353.083 353.734L353.083 353.734L352.584 353.762ZM352.98 330.993L353.479 331.03L353.479 331.03L352.98 330.993ZM353.312 326.89L353.81 326.934L353.941 325.441L352.94 326.556L353.312 326.89ZM347.541 333.214L347.175 332.874L347.168 332.881L347.163 332.888L347.541 333.214ZM335.749 345.438L335.423 345.058L335.423 345.058L335.749 345.438ZM335.238 345.875L334.914 345.494L334.901 345.505L334.889 345.517L335.238 345.875ZM302.528 370.636L302.733 371.092L302.733 371.092L302.528 370.636ZM246.862 387.496L246.833 386.997L246.833 386.997L246.862 387.496ZM215.875 380.75L215.616 381.178L215.616 381.178L215.875 380.75ZM194.314 351.173L194.79 351.022L194.79 351.022L194.314 351.173ZM189.515 290.525L190.013 290.57L190.013 290.57L189.515 290.525ZM202.872 217.298L203.353 217.434L203.353 217.434L202.872 217.298ZM204.264 214.323L204.676 214.607L204.717 214.547L204.74 214.477L204.264 214.323ZM207.445 205.422L207.911 205.603L207.911 205.603L207.445 205.422ZM219.718 181.948L219.303 181.669L219.303 181.669L219.718 181.948ZM255.158 140.729L254.837 140.346L254.837 140.346L255.158 140.729ZM261.486 135.714L261.785 136.114L262.111 135.871L261.939 135.502L261.486 135.714ZM257.957 128.686L258.397 128.448L258.167 128.023L257.734 128.238L257.957 128.686ZM230.542 139.902L230.681 140.382L230.542 139.902ZM222.772 141.816L222.67 141.327L222.67 141.327L222.772 141.816ZM209.291 142.636L209.334 142.138L208.925 142.102L208.811 142.497L209.291 142.636ZM201.184 168.682L200.71 168.523L200.71 168.523L201.184 168.682ZM162.762 261.838L162.328 261.59L162.328 261.59L162.762 261.838ZM161.779 263.617L161.34 263.377L161.34 263.377L161.779 263.617ZM155.383 273.868L155.776 274.177L155.776 274.177L155.383 273.868ZM137.481 283.808L137.495 284.308L137.495 284.308L137.481 283.808ZM127.173 274.089L126.674 274.105L126.674 274.105L127.173 274.089ZM136.863 263.823L136.87 263.323L136.86 263.323L136.85 263.323L136.863 263.823ZM136.867 263.823L136.88 263.323L136.873 263.323L136.867 263.823ZM139.629 261.489L140.023 261.797L140.023 261.797L139.629 261.489ZM143.643 254.997L144.081 255.238L144.085 255.229L144.09 255.221L143.643 254.997ZM143.643 254.997L144.09 255.221L144.094 255.213L144.097 255.205L143.643 254.997ZM143.643 254.997L143.207 254.752L143.197 254.77L143.188 254.788L143.643 254.997ZM143.643 254.996L144.079 255.241L144.081 255.237L143.643 254.996ZM145.378 251.881L144.944 251.633L144.944 251.633L145.378 251.881ZM182.205 162.289L182.679 162.447L182.679 162.447L182.205 162.289ZM191.051 133.584L191.533 133.72L191.596 133.497L191.467 133.305L191.051 133.584ZM188.207 125.059L187.708 125.09L187.708 125.09L188.207 125.059ZM188.189 124.259L188.689 124.267L188.689 124.26L188.689 124.253L188.189 124.259ZM191.069 113.196L191.501 113.449L191.501 113.449L191.069 113.196ZM196.827 105.819L197.185 106.168L197.185 106.168L196.827 105.819ZM210.233 285.017L210.637 284.723L209.893 283.701L209.736 284.955L210.233 285.017ZM209.434 292.324L208.936 292.279L208.936 292.279L209.434 292.324ZM213.38 345.135L213.857 344.984L213.857 344.984L213.38 345.135ZM225.728 363.325L225.457 363.745L226.117 364.17L226.223 363.392L225.728 363.325ZM226.875 357.957L226.394 357.823L226.394 357.823L226.875 357.957ZM232.259 343.893L231.805 343.684L231.805 343.684L232.259 343.893ZM243.933 321.767L243.502 321.513L243.502 321.513L243.933 321.767ZM253.418 307.218L253.825 307.509L254.41 306.69L253.405 306.718L253.418 307.218ZM228.362 301.39L228.102 301.817L228.102 301.817L228.362 301.39ZM323.467 329.393L323.114 329.039L323.114 329.039L323.467 329.393ZM332.614 319.899L332.98 320.24L332.986 320.233L332.992 320.225L332.614 319.899ZM321.749 331.091L322.072 331.473L322.086 331.461L322.099 331.448L321.749 331.091ZM276.886 357.051L277.024 357.531L277.046 357.525L277.068 357.516L276.886 357.051ZM274.983 357.596L275.121 358.077L275.121 358.077L274.983 357.596ZM246.576 361.879L246.1 361.727L245.92 362.288L246.504 362.374L246.576 361.879ZM250.441 352.225L249.986 352.017L249.986 352.017L250.441 352.225ZM261.151 331.942L261.582 332.196L261.582 332.196L261.151 331.942ZM288.009 296.798L287.655 296.445L287.647 296.453L288.009 296.798ZM288.322 296.471L287.961 296.125L287.953 296.134L288.322 296.471ZM297.196 287.7L297.635 287.46L297.325 286.894L296.854 287.335L297.196 287.7ZM305.762 300.684L306.161 300.383L306.161 300.383L305.762 300.684ZM338.62 312.593L339.013 312.902L339.813 311.883L338.536 312.1L338.62 312.593ZM335.762 316.153L335.376 315.835L335.376 315.835L335.762 316.153ZM371.116 253.07L370.698 252.796L370.698 252.796L371.116 253.07ZM371.878 252.022L372.266 252.337L372.31 252.283L372.338 252.218L371.878 252.022ZM366.973 260.82L367.418 261.047L367.418 261.047L366.973 260.82ZM366.183 262.367L366.628 262.595L366.628 262.595L366.183 262.367ZM365.825 263.069L366.209 263.388L366.244 263.346L366.27 263.297L365.825 263.069ZM365.28 263.723L364.896 263.403L364.896 263.403L365.28 263.723ZM357.718 272.713L357.337 272.389L357.337 272.389L357.718 272.713ZM349.478 282.171L349.106 281.836L349.106 281.836L349.478 282.171ZM346.337 285.546L345.979 285.197L345.979 285.197L346.337 285.546ZM345.212 286.651L345.552 287.017L345.552 287.017L345.212 286.651ZM345.193 286.677L345.493 287.077L344.893 286.278L345.193 286.677ZM343.646 287.955L343.317 287.579L343.317 287.579L343.646 287.955ZM343.292 288.266L343.621 288.642L343.621 288.642L343.292 288.266ZM342.409 289.032L342.085 288.652L342.085 288.652L342.409 289.032ZM339.773 291.044L339.5 290.625L339.5 290.625L339.773 291.044ZM321.745 288.661L322.144 288.361L322.144 288.361L321.745 288.661ZM312.987 274.586L312.691 274.182L312.364 274.422L312.531 274.792L312.987 274.586ZM374.57 245.439L375.035 245.621L375.4 244.692L374.437 244.957L374.57 245.439ZM269.152 155.106L269.629 154.957L269.408 154.249L268.835 154.719L269.152 155.106ZM268.021 156.044L267.7 155.661L267.7 155.661L268.021 156.044ZM276.114 189.346L275.619 189.42L275.619 189.42L276.114 189.346ZM280.286 220.253L279.79 220.316L279.791 220.318L280.286 220.253ZM280.287 220.254L280.783 220.191L280.782 220.19L280.287 220.254ZM282.145 234.627L282.641 234.561L282.641 234.561L282.145 234.627ZM289.476 267.749L289.802 268.127L290.047 267.916L289.955 267.606L289.476 267.749ZM284.044 272.617L283.703 272.252L283.703 272.252L284.044 272.617ZM274.856 281.622L275.08 282.069L275.156 282.031L275.215 281.97L274.856 281.622ZM255.974 287.031L255.927 286.534L255.927 286.534L255.974 287.031ZM238.734 284.289L238.474 284.717L238.474 284.717L238.734 284.289ZM219.618 256.977L219.126 257.069L219.126 257.069L219.618 256.977ZM226.096 212.643L225.63 212.463L225.63 212.463L226.096 212.643ZM236.293 193.141L235.878 192.861L235.878 192.861L236.293 193.141ZM306.564 254.64L306.08 254.768L306.26 255.451L306.845 255.054L306.564 254.64ZM301.97 231.986L302.466 231.92L302.466 231.92L301.97 231.986ZM370.495 225.82L370.365 225.337L370.365 225.337L370.495 225.82ZM379.211 223.303L379.063 222.825L379.063 222.825L379.211 223.303ZM380.369 222.941L380.22 222.464L380.22 222.464L380.369 222.941ZM382.005 222.433L382.152 222.911L382.424 222.828L382.491 222.552L382.005 222.433ZM379.175 159.276L378.731 159.507L378.731 159.507L379.175 159.276ZM358.787 136.611L359.016 136.167L359.016 136.167L358.787 136.611ZM333.01 130.493L333.013 129.993L333.013 129.993L333.01 130.493ZM286.257 143.387L286.012 142.951L285.641 143.159L285.788 143.559L286.257 143.387ZM287.155 145.875L286.684 146.042L286.684 146.042L287.155 145.875ZM295.891 186.372L295.397 186.447L295.397 186.447L295.891 186.372ZM300.166 218.034L299.67 218.097L299.67 218.098L300.166 218.034ZM300.167 218.039L300.663 217.976L300.663 217.975L300.167 218.039ZM214.875 122.788L214.888 123.288L214.888 123.288L214.875 122.788ZM214.691 122.793L214.207 122.669L214.043 123.31L214.704 123.293L214.691 122.793ZM215.694 122.77L215.701 123.27L215.727 123.27L215.753 123.266L215.694 122.77ZM216.274 122.688L216.351 123.182L216.351 123.182L216.274 122.688ZM218.711 122.233L218.61 121.743L218.61 121.743L218.711 122.233ZM224.971 120.693L225.111 121.173L225.111 121.173L224.971 120.693ZM244.743 112.883L244.959 113.334L245.898 112.885L244.96 112.433L244.743 112.883ZM233.361 111.125L233.404 111.624L233.404 111.624L233.361 111.125ZM216.424 115.864L216.183 115.427L215.991 115.533L215.939 115.746L216.424 115.864ZM245.48 366.864L245.974 366.784L245.973 366.782L245.48 366.864ZM245.481 366.866L245.775 367.27L245.776 367.27L245.481 366.866ZM245.478 366.796L245.976 366.753L244.978 366.796H245.478ZM199.728 97.095C199.22 99.3828 198.701 101.669 198.169 103.952L199.143 104.179C199.676 101.892 200.196 99.6028 200.704 97.3115L199.728 97.095ZM187.803 112.432C192.529 107.604 196.759 102.622 200.615 97.5041L199.816 96.9024C195.985 101.989 191.782 106.938 187.088 111.732L187.803 112.432ZM186.331 113.946C186.842 113.418 187.333 112.912 187.803 112.432L187.088 111.732C186.616 112.214 186.123 112.723 185.612 113.251L186.331 113.946ZM186.325 113.952L186.325 113.952L185.618 113.245L185.618 113.245L186.325 113.952ZM186.33 113.947L186.33 113.947L185.612 113.251L185.611 113.252L186.33 113.947ZM186.324 113.953L186.324 113.953L185.617 113.246L185.617 113.246L186.324 113.953ZM174.478 124.853C179.01 121.505 183.079 117.302 186.329 113.947L185.611 113.252C182.353 116.615 178.338 120.758 173.884 124.049L174.478 124.853ZM153.209 132.437C161.967 132.405 168.981 128.915 174.478 124.853L173.884 124.049C168.493 128.033 161.682 131.406 153.205 131.437L153.209 132.437ZM139.125 129.613C144.071 131.878 148.72 132.454 153.209 132.437L153.205 131.437C148.812 131.454 144.318 130.891 139.541 128.704L139.125 129.613ZM115.952 97.9284C117.429 111.747 126.764 123.952 139.125 129.613L139.541 128.704C127.482 123.181 118.384 111.269 116.946 97.8221L115.952 97.9284ZM125.282 86.4075C119.513 87.0031 115.335 92.1615 115.952 97.9284L116.946 97.8221C116.389 92.6058 120.166 87.941 125.385 87.4022L125.282 86.4075ZM136.84 95.7681C136.224 90.0026 131.05 85.812 125.282 86.4075L125.385 87.4022C130.604 86.8633 135.288 90.6566 135.846 95.8743L136.84 95.7681ZM147.824 110.534C141.847 107.797 137.484 101.793 136.84 95.7681L135.846 95.8743C136.53 102.269 141.128 108.567 147.408 111.443L147.824 110.534ZM153.059 111.445C150.591 111.454 149.187 111.158 147.824 110.534L147.408 111.443C148.94 112.145 150.499 112.455 153.063 112.445L153.059 111.445ZM161.952 107.959C158.682 110.375 155.924 111.434 153.059 111.445L153.063 112.445C156.207 112.433 159.169 111.259 162.546 108.764L161.952 107.959ZM171.066 99.4655C167.718 102.908 164.978 105.723 161.952 107.959L162.546 108.764C165.65 106.47 168.449 103.59 171.783 100.163L171.066 99.4655ZM171.067 99.4647L171.066 99.4655L171.783 100.163L171.784 100.162L171.067 99.4647ZM171.069 99.4628L171.068 99.4638L171.783 100.163L171.784 100.162L171.069 99.4628ZM172.763 97.7252C172.18 98.3208 171.616 98.9004 171.068 99.4636L171.785 100.161C172.333 99.5975 172.896 99.019 173.477 98.4248L172.763 97.7252ZM204.351 50.0441C195.426 68.2633 186.32 83.8781 172.763 97.7252L173.477 98.4248C187.145 84.465 196.307 68.7387 205.249 50.484L204.351 50.0441ZM207.145 44.7691C206.277 46.3393 205.281 48.1459 204.351 50.0441L205.249 50.484C206.167 48.6109 207.152 46.8247 208.02 45.2526L207.145 44.7691ZM207.206 44.6586L207.145 44.7691L208.02 45.2526L208.081 45.1421L207.206 44.6586ZM209.512 40.351C208.833 41.7114 208.085 43.0666 207.206 44.6586L208.081 45.1421C208.958 43.5541 209.717 42.18 210.407 40.7973L209.512 40.351ZM209.492 40.3966C209.491 40.3985 209.487 40.4079 209.483 40.42C209.482 40.4236 209.476 40.4423 209.471 40.4666C209.469 40.4748 209.461 40.5106 209.459 40.5573C209.458 40.5776 209.457 40.635 209.476 40.7052C209.492 40.7656 209.557 40.9518 209.771 41.0386C209.979 41.1228 210.151 41.04 210.199 41.0133C210.26 40.9802 210.299 40.9422 210.313 40.9282C210.344 40.8963 210.365 40.8672 210.369 40.8603C210.383 40.8401 210.393 40.8233 210.395 40.82C210.401 40.809 210.405 40.8001 210.406 40.7983L209.512 40.35C209.513 40.3488 209.517 40.3403 209.523 40.3297C209.525 40.3265 209.534 40.3098 209.548 40.2897C209.553 40.2828 209.573 40.2537 209.605 40.2219C209.619 40.2078 209.658 40.1699 209.718 40.1368C209.767 40.1101 209.938 40.0273 210.146 40.1115C210.361 40.1983 210.425 40.3845 210.441 40.4449C210.46 40.5151 210.459 40.5725 210.458 40.5928C210.457 40.6394 210.449 40.6752 210.447 40.6833C210.441 40.7076 210.435 40.7262 210.434 40.7296C210.43 40.7413 210.427 40.7503 210.426 40.7515L209.492 40.3966ZM209.504 40.3656C209.502 40.3703 209.496 40.3853 209.492 40.3955L210.426 40.7526C210.425 40.7547 210.425 40.7564 210.424 40.7571C210.424 40.7579 210.424 40.7584 210.424 40.7586C210.424 40.7588 210.424 40.7585 210.424 40.7574C210.425 40.7552 210.426 40.752 210.428 40.7469L209.504 40.3656ZM209.505 40.3625L209.505 40.3631L210.427 40.7494L210.428 40.7489L209.505 40.3625ZM210.005 39.0398C209.694 39.9066 209.537 40.2856 209.504 40.365L210.429 40.7464C210.467 40.6528 210.629 40.2594 210.946 39.3781L210.005 39.0398ZM210.343 38.0875C210.213 38.4549 210.096 38.7879 210.005 39.0398L210.946 39.3781C211.038 39.1229 211.157 38.7867 211.286 38.4204L210.343 38.0875ZM210.345 38.0828L210.344 38.0839L211.285 38.424L211.285 38.423L210.345 38.0828ZM210.344 38.0851L210.343 38.0866L211.287 38.4192L211.287 38.4178L210.344 38.0851ZM210.345 38.0824L210.344 38.0857L211.287 38.4172L211.288 38.4139L210.345 38.0824ZM211.077 36.0381C210.858 36.6285 210.582 37.4112 210.345 38.0817L211.288 38.4146C211.526 37.7417 211.799 36.9671 212.015 36.3854L211.077 36.0381ZM211.114 35.9386L211.077 36.0388L212.015 36.3847L212.052 36.2845L211.114 35.9386ZM213.056 31.8758C212.054 33.3779 211.362 35.264 211.113 35.9389L212.052 36.2842C212.304 35.6002 212.96 33.8212 213.888 32.4309L213.056 31.8758ZM215.704 29.0804C214.187 30.2012 213.329 31.4677 213.056 31.8758L213.888 32.4309C214.139 32.0554 214.92 30.9027 216.298 29.8848L215.704 29.0804ZM226.981 28.2224C221.81 25.4968 217.289 27.9096 215.704 29.0804L216.298 29.8848C217.753 28.8104 221.843 26.6446 226.514 29.107L226.981 28.2224ZM232.156 34.3234C231.935 33.6688 230.775 30.223 226.981 28.2224L226.514 29.107C229.953 30.92 231.007 34.0449 231.208 34.6427L232.156 34.3234ZM232.162 34.3411L232.156 34.3233L231.208 34.6428L231.214 34.6606L232.162 34.3411ZM232.724 36.9547C232.672 36.4645 232.545 35.4778 232.162 34.3411L231.214 34.6607C231.564 35.6983 231.681 36.6032 231.73 37.061L232.724 36.9547ZM232.223 44.0471C232.537 42.5452 233.038 39.8958 232.724 36.9547L231.73 37.061C232.027 39.8393 231.554 42.3614 231.244 43.8422L232.223 44.0471ZM231.781 46.0298C231.881 45.607 232.018 45.0255 232.223 44.0471L231.244 43.8422C231.042 44.8088 230.907 45.3812 230.808 45.8001L231.781 46.0298ZM231.787 46.0045L231.787 46.0044L230.803 45.8255L230.803 45.8256L231.787 46.0045ZM231.778 46.0415L231.778 46.0413L230.811 45.7889L230.811 45.7891L231.778 46.0415ZM231.543 47.2084C231.604 46.7826 231.665 46.5229 231.781 46.0301L230.808 45.8005C230.691 46.2939 230.621 46.592 230.553 47.0663L231.543 47.2084ZM225.669 76.6426C227.842 67.0734 230.148 56.9253 231.543 47.2084L230.553 47.0663C229.165 56.7361 226.869 66.8441 224.693 76.4211L225.669 76.6426ZM222.631 90.4592C223.525 86.078 224.58 81.4331 225.669 76.6426L224.693 76.4211C223.606 81.2092 222.548 85.8653 221.652 90.2593L222.631 90.4592ZM222.134 92.8751C222.301 92.07 222.467 91.2647 222.631 90.4592L221.652 90.2593C221.487 91.0636 221.322 91.8677 221.155 92.6717L222.134 92.8751ZM231.624 90.6991C228.455 90.9686 225.032 91.4728 221.531 92.2864L221.757 93.2604C225.208 92.4586 228.584 91.9613 231.709 91.6955L231.624 90.6991ZM264.921 102.649C256.19 93.572 244.684 89.5883 231.624 90.6991L231.709 91.6955C244.496 90.6079 255.696 94.5016 264.201 103.342L264.921 102.649ZM271.897 98.8535C269.561 99.9899 267.087 101.193 264.34 102.547L264.782 103.444C267.527 102.091 269.998 100.889 272.334 99.7527L271.897 98.8535ZM298.92 84.8403C287.196 91.4115 280.464 94.6863 271.897 98.8535L272.334 99.7527C280.907 95.5827 287.659 92.298 299.409 85.7126L298.92 84.8403ZM351.391 50.301C338.885 60.05 321.265 72.3169 298.92 84.8403L299.409 85.7126C321.801 73.1631 339.463 60.8678 352.006 51.0896L351.391 50.301ZM372.44 31.7018C371.071 33.4276 364.168 40.3404 351.391 50.301L352.006 51.0896C364.794 41.1203 371.776 34.1473 373.223 32.3232L372.44 31.7018ZM387.191 29.9998C382.648 26.3963 376.043 27.1583 372.44 31.7018L373.223 32.3232C376.483 28.2124 382.459 27.523 386.57 30.7833L387.191 29.9998ZM388.893 44.7511C392.497 40.2077 391.734 33.6032 387.191 29.9998L386.57 30.7833C390.68 34.0436 391.37 40.019 388.11 44.1298L388.893 44.7511ZM364.302 66.863C377.321 56.7139 385.89 48.538 388.893 44.7511L388.11 44.1298C385.184 47.8186 376.694 55.9344 363.687 66.0743L364.302 66.863ZM309.188 103.159C332.512 90.0869 351.012 77.2235 364.302 66.863L363.687 66.0743C350.435 76.4057 331.976 89.2407 308.699 102.287L309.188 103.159ZM280.521 118.016C289.465 113.661 296.978 110.002 309.188 103.159L308.699 102.287C296.515 109.116 289.023 112.764 280.083 117.117L280.521 118.016ZM280.525 118.014L280.526 118.014L280.079 117.119L280.078 117.12L280.525 118.014ZM280.508 118.023L280.521 118.016L280.083 117.118L280.07 117.124L280.508 118.023ZM276.073 120.186C277.605 119.436 279.075 118.721 280.508 118.023L280.07 117.124C278.637 117.822 277.166 118.538 275.633 119.288L276.073 120.186ZM278.913 124.631C278.074 122.909 277.202 121.197 276.294 119.501L275.412 119.973C276.314 121.657 277.18 123.358 278.013 125.069L278.913 124.631ZM333.14 109.993C313.762 109.871 294.98 115.365 278.225 124.41L278.701 125.29C295.332 116.311 313.949 110.872 333.134 110.993L333.14 109.993ZM368.166 118.382C357.366 112.826 344.868 110.068 333.14 109.993L333.134 110.993C344.719 111.067 357.06 113.793 367.709 119.272L368.166 118.382ZM397.367 149.825C391.373 138.288 381.279 125.129 368.166 118.382L367.709 119.272C380.565 125.886 390.535 138.844 396.479 150.286L397.367 149.825ZM403.61 219.561C407.859 197.611 408.359 170.984 397.367 149.825L396.479 150.286C407.319 171.152 406.86 197.511 402.628 219.371L403.61 219.561ZM412.061 228.378C411.604 223.478 407.849 219.68 403.195 218.972L403.044 219.96C407.255 220.602 410.652 224.038 411.065 228.471L412.061 228.378ZM402.582 239.808C408.356 239.269 412.6 234.152 412.061 228.378L411.065 228.471C411.553 233.695 407.713 238.325 402.489 238.812L402.582 239.808ZM397.893 240.268C399.202 240.131 400.744 239.98 402.582 239.808L402.489 238.812C400.649 238.984 399.103 239.136 397.789 239.273L397.893 240.268ZM389.343 263.265C392.635 255.76 395.733 247.893 398.317 239.924L397.365 239.616C394.794 247.546 391.709 255.381 388.427 262.863L389.343 263.265ZM388.408 262.913C388.163 263.689 387.877 264.533 387.583 265.392L388.529 265.716C388.824 264.856 389.112 264.002 389.362 263.215L388.408 262.913ZM387.583 265.392C386.581 268.317 384.96 272.848 382.704 279.157L383.646 279.493C385.901 273.189 387.524 268.65 388.529 265.716L387.583 265.392ZM382.704 279.158L382.7 279.17L383.642 279.504L383.647 279.492L382.704 279.158ZM382.7 279.169C382.093 280.868 381.439 282.695 380.739 284.654L381.681 284.991C382.381 283.032 383.034 281.204 383.642 279.505L382.7 279.169ZM380.739 284.654C378.033 292.231 376.733 297.8 376.109 301.327L377.094 301.501C377.708 298.032 378.993 292.517 381.681 284.991L380.739 284.654ZM376.109 301.327C375.797 303.091 375.654 304.348 375.588 305.093L376.584 305.18C376.647 304.465 376.787 303.237 377.094 301.501L376.109 301.327ZM375.588 305.093C375.555 305.465 375.542 305.71 375.537 305.828L376.536 305.871C376.54 305.769 376.553 305.538 376.584 305.18L375.588 305.093ZM375.537 305.829L375.535 305.869L376.534 305.91L376.536 305.87L375.537 305.829ZM375.535 305.889V306.654H376.535V305.889H375.535ZM375.542 306.568L375.396 307.412L376.381 307.582L376.527 306.739L375.542 306.568ZM375.4 307.394L375.399 307.394L376.378 307.6L376.378 307.6L375.4 307.394ZM375.395 307.415L375.395 307.417L376.382 307.581L376.382 307.58L375.395 307.415ZM375.396 307.414L375.393 307.431L376.378 307.601L376.381 307.584L375.396 307.414ZM375.393 307.432L375.378 307.516L376.364 307.683L376.378 307.599L375.393 307.432ZM375.378 307.516C375.365 307.595 375.344 307.717 375.317 307.881L376.304 308.044C376.331 307.882 376.351 307.761 376.364 307.683L375.378 307.516ZM375.317 307.881C375.263 308.209 375.183 308.701 375.083 309.34L376.071 309.494C376.171 308.859 376.25 308.369 376.304 308.044L375.317 307.881ZM375.083 309.34C374.883 310.618 374.604 312.478 374.293 314.77L375.284 314.904C375.594 312.62 375.872 310.767 376.071 309.494L375.083 309.34ZM374.293 314.77C373.669 319.364 372.923 325.642 372.428 332.415L373.426 332.488C373.919 325.741 374.662 319.485 375.284 314.904L374.293 314.77ZM372.428 332.415C371.931 339.221 371.7 346.342 372.054 352.674L373.052 352.618C372.702 346.345 372.93 339.271 373.426 332.488L372.428 332.415ZM372.054 352.674C372.422 359.258 373.378 363.964 374.619 366.583L375.523 366.155C374.368 363.717 373.418 359.171 373.052 352.618L372.054 352.674ZM374.619 366.583C376.866 371.325 374.844 376.99 370.103 379.236L370.531 380.14C375.772 377.657 378.006 371.395 375.523 366.155L374.619 366.583ZM370.103 379.236C365.362 381.483 359.697 379.461 357.45 374.72L356.546 375.148C359.03 380.389 365.291 382.624 370.531 380.14L370.103 379.236ZM357.45 374.72C354.583 368.671 353.486 360.935 353.083 353.734L352.085 353.79C352.489 361.024 353.594 368.919 356.546 375.148L357.45 374.72ZM353.083 353.734C352.667 346.281 352.949 338.271 353.479 331.03L352.482 330.957C351.95 338.221 351.665 346.277 352.085 353.79L353.083 353.734ZM353.479 331.03C353.58 329.64 353.692 328.272 353.81 326.934L352.814 326.846C352.695 328.189 352.584 329.562 352.482 330.957L353.479 331.03ZM352.94 326.556C351.176 328.519 349.241 330.648 347.175 332.874L347.907 333.555C349.978 331.324 351.917 329.191 353.684 327.224L352.94 326.556ZM336.075 345.817C339.46 342.91 343.742 338.379 347.919 333.541L347.163 332.888C342.995 337.714 338.752 342.2 335.423 345.058L336.075 345.817ZM335.563 346.255C335.733 346.109 335.904 345.963 336.075 345.817L335.423 345.058C335.253 345.204 335.084 345.349 334.914 345.494L335.563 346.255ZM334.889 345.517C324.989 355.177 313.178 365.303 302.323 370.18L302.733 371.092C313.762 366.137 325.681 355.9 335.587 346.232L334.889 345.517ZM302.323 370.18C288.516 376.384 267.093 385.817 246.833 386.997L246.891 387.995C267.364 386.803 288.951 377.285 302.733 371.092L302.323 370.18ZM246.833 386.997C236.5 387.598 225.682 386.12 216.135 380.323L215.616 381.178C225.391 387.113 236.431 388.604 246.891 387.995L246.833 386.997ZM216.135 380.323C206.433 374.432 199.136 364.746 194.79 351.022L193.837 351.324C198.242 365.232 205.67 375.138 215.616 381.178L216.135 380.323ZM194.79 351.022C187.839 329.076 188.362 308.85 190.013 290.57L189.017 290.48C187.362 308.807 186.826 329.189 193.837 351.324L194.79 351.022ZM190.013 290.57C191.764 271.188 198.394 235.107 203.353 217.434L202.39 217.163C197.414 234.897 190.774 271.038 189.017 290.48L190.013 290.57ZM203.353 217.434C203.644 216.395 204.097 215.446 204.676 214.607L203.853 214.039C203.212 214.968 202.712 216.017 202.39 217.163L203.353 217.434ZM206.979 205.242C205.855 208.145 204.779 211.123 203.789 214.168L204.74 214.477C205.723 211.453 206.793 208.492 207.911 205.603L206.979 205.242ZM219.303 181.669C214.367 188.979 210.195 196.934 206.979 205.242L207.911 205.603C211.1 197.366 215.237 189.477 220.132 182.228L219.303 181.669ZM254.837 140.346C240.821 152.118 229.083 167.187 219.303 181.669L220.132 182.228C229.889 167.779 241.567 152.798 255.48 141.112L254.837 140.346ZM261.187 135.313C259.017 136.935 256.899 138.615 254.837 140.346L255.48 141.112C257.528 139.392 259.631 137.724 261.785 136.114L261.187 135.313ZM257.518 128.924C258.749 131.198 259.918 133.536 261.033 135.925L261.939 135.502C260.817 133.097 259.638 130.741 258.397 128.448L257.518 128.924ZM230.681 140.382C240.773 137.455 249.587 133.412 258.18 129.134L257.734 128.238C249.159 132.508 240.407 136.52 230.402 139.421L230.681 140.382ZM222.873 142.306C225.281 141.807 228.114 141.126 230.681 140.382L230.402 139.421C227.865 140.157 225.057 140.832 222.67 141.327L222.873 142.306ZM215.989 143.268C218.018 143.268 220.919 142.711 222.873 142.306L222.67 141.327C220.698 141.736 217.898 142.268 215.989 142.268V143.268ZM209.248 143.134C211.15 143.299 212.865 143.332 214.092 143.324C214.706 143.32 215.199 143.306 215.534 143.293C215.701 143.286 215.829 143.28 215.913 143.275C215.955 143.272 215.988 143.27 216.01 143.268C216.017 143.268 216.034 143.267 216.049 143.265C216.053 143.264 216.066 143.263 216.082 143.26C216.087 143.259 216.113 143.254 216.144 143.244C216.163 143.238 216.217 143.214 216.251 143.195C216.325 143.141 216.479 142.881 216.482 142.668C216.415 142.503 216.237 142.332 216.173 142.302C216.143 142.291 216.095 142.279 216.078 142.275C216.049 142.27 216.026 142.269 216.021 142.269C216.005 142.268 215.993 142.268 215.989 142.268V143.268C215.988 143.268 215.976 143.268 215.961 143.267C215.956 143.267 215.934 143.265 215.905 143.26C215.888 143.257 215.84 143.244 215.81 143.234C215.747 143.204 215.568 143.033 215.502 142.868C215.505 142.655 215.659 142.395 215.732 142.341C215.766 142.322 215.82 142.298 215.84 142.292C215.87 142.282 215.895 142.277 215.9 142.276C215.916 142.274 215.928 142.272 215.93 142.272C215.939 142.271 215.944 142.271 215.934 142.271C215.921 142.272 215.895 142.274 215.855 142.276C215.778 142.281 215.656 142.287 215.494 142.293C215.17 142.306 214.688 142.32 214.086 142.324C212.881 142.332 211.198 142.299 209.334 142.138L209.248 143.134ZM201.659 168.84C204.541 160.217 207.246 151.523 209.772 142.775L208.811 142.497C206.289 151.232 203.588 159.913 200.71 168.523L201.659 168.84ZM163.197 262.086C180.133 232.438 191.302 199.824 201.659 168.84L200.71 168.523C190.351 199.515 179.209 232.039 162.328 261.59L163.197 262.086ZM162.218 263.857C162.595 263.166 162.922 262.566 163.197 262.086L162.328 261.59C162.048 262.08 161.715 262.689 161.34 263.377L162.218 263.857ZM155.776 274.177C158.427 270.803 160.709 266.621 162.218 263.857L161.34 263.377C159.824 266.154 157.581 270.261 154.99 273.559L155.776 274.177ZM137.495 284.308C146.414 284.064 152.297 278.606 155.776 274.177L154.99 273.559C151.586 277.891 145.95 283.076 137.468 283.308L137.495 284.308ZM126.674 274.105C126.853 279.899 131.698 284.466 137.495 284.308L137.468 283.308C132.221 283.452 127.835 279.317 127.673 274.074L126.674 274.105ZM136.85 263.323C131.051 263.482 126.494 268.309 126.674 274.105L127.673 274.074C127.511 268.832 131.631 264.466 136.877 264.323L136.85 263.323ZM136.873 263.323L136.87 263.323L136.857 264.323L136.86 264.323L136.873 263.323ZM139.236 261.18C138.33 262.333 137.696 262.872 137.308 263.12C137.116 263.243 136.99 263.292 136.925 263.311C136.893 263.32 136.875 263.323 136.871 263.323C136.869 263.323 136.87 263.323 136.873 263.323C136.877 263.323 136.881 263.323 136.88 263.323L136.853 264.323C137.163 264.331 138.14 264.194 140.023 261.797L139.236 261.18ZM143.204 254.757C141.814 257.29 140.702 259.314 139.236 261.18L140.023 261.797C141.548 259.855 142.699 257.757 144.081 255.238L143.204 254.757ZM143.195 254.773L143.195 254.774L144.09 255.221L144.09 255.221L143.195 254.773ZM143.188 254.788L143.188 254.789L144.097 255.205L144.097 255.205L143.188 254.788ZM143.207 254.751L143.207 254.752L144.079 255.242L144.079 255.241L143.207 254.751ZM144.944 251.633C144.303 252.755 143.734 253.791 143.205 254.756L144.081 255.237C144.611 254.272 145.176 253.242 145.812 252.129L144.944 251.633ZM181.731 162.13C171.315 193.291 160.716 224.021 144.944 251.633L145.812 252.129C161.64 224.42 172.267 193.6 182.679 162.447L181.731 162.13ZM190.57 133.448C187.846 143.084 184.899 152.652 181.731 162.13L182.679 162.447C185.852 152.954 188.804 143.371 191.533 133.72L190.57 133.448ZM187.708 125.09C187.923 128.495 189.007 131.433 190.636 133.862L191.467 133.305C189.934 131.02 188.91 128.251 188.706 125.027L187.708 125.09ZM187.689 124.251C187.684 124.529 187.691 124.809 187.708 125.09L188.706 125.027C188.69 124.772 188.685 124.519 188.689 124.267L187.689 124.251ZM187.688 124.121C187.688 124.169 187.688 124.218 187.689 124.266L188.689 124.253C188.688 124.209 188.688 124.165 188.688 124.121H187.688ZM190.638 112.943C189.48 114.918 187.688 119.097 187.688 124.121H188.688C188.688 119.319 190.407 115.314 191.501 113.449L190.638 112.943ZM196.47 105.469C194.808 107.17 192.101 110.448 190.638 112.943L191.501 113.449C192.911 111.044 195.56 107.831 197.185 106.168L196.47 105.469ZM198.322 103.693C197.689 104.262 197.071 104.854 196.47 105.469L197.185 106.168C197.77 105.569 198.373 104.992 198.99 104.437L198.322 103.693ZM209.736 284.955C209.407 287.599 209.137 290.062 208.936 292.279L209.932 292.369C210.131 290.165 210.401 287.714 210.729 285.079L209.736 284.955ZM208.936 292.279C207.364 309.68 207.088 326.924 212.903 345.286L213.857 344.984C208.101 326.811 208.364 309.724 209.932 292.369L208.936 292.279ZM212.903 345.286C216.018 355.121 220.594 360.609 225.457 363.745L225.999 362.904C221.367 359.918 216.915 354.641 213.857 344.984L212.903 345.286ZM226.394 357.823C225.91 359.556 225.487 361.399 225.232 363.257L226.223 363.392C226.47 361.592 226.881 359.796 227.357 358.092L226.394 357.823ZM231.805 343.684C229.695 348.287 227.666 353.264 226.394 357.823L227.357 358.092C228.608 353.606 230.614 348.684 232.714 344.101L231.805 343.684ZM243.502 321.513C241.257 325.313 236.053 334.414 231.805 343.684L232.714 344.101C236.941 334.877 242.125 325.809 244.363 322.021L243.502 321.513ZM253.012 306.927C249.65 311.629 246.47 316.491 243.502 321.513L244.363 322.021C247.316 317.026 250.479 312.189 253.825 307.509L253.012 306.927ZM228.102 301.817C235.792 306.481 244.873 307.956 253.432 307.718L253.405 306.718C244.966 306.953 236.094 305.495 228.621 300.962L228.102 301.817ZM209.828 285.312C214.625 291.9 220.786 297.379 228.102 301.817L228.621 300.962C221.405 296.585 215.347 291.193 210.637 284.723L209.828 285.312ZM323.82 329.747C327.054 326.522 330.137 323.296 332.98 320.24L332.247 319.559C329.412 322.608 326.337 325.824 323.114 329.039L323.82 329.747ZM322.099 331.448C322.673 330.886 323.247 330.318 323.82 329.747L323.114 329.039C322.543 329.608 321.971 330.173 321.399 330.734L322.099 331.448ZM277.068 357.516C296.342 350.008 309.144 342.412 322.072 331.473L321.426 330.709C308.593 341.569 295.888 349.111 276.705 356.585L277.068 357.516ZM275.121 358.077C275.744 357.898 276.378 357.716 277.024 357.531L276.749 356.57C276.102 356.755 275.468 356.937 274.845 357.116L275.121 358.077ZM246.504 362.374C255.566 363.699 263.458 361.425 275.121 358.077L274.845 357.116C263.136 360.477 255.459 362.673 246.648 361.384L246.504 362.374ZM249.986 352.017C248.353 355.581 246.999 358.914 246.1 361.727L247.052 362.031C247.935 359.271 249.271 355.978 250.895 352.434L249.986 352.017ZM260.721 331.687C258.616 335.249 253.813 343.667 249.986 352.017L250.895 352.434C254.701 344.13 259.484 335.745 261.582 332.196L260.721 331.687ZM287.647 296.453C277.421 307.173 268.267 318.918 260.721 331.687L261.582 332.196C269.084 319.5 278.191 307.815 288.371 297.144L287.647 296.453ZM287.953 296.134C287.856 296.24 287.757 296.343 287.655 296.445L288.362 297.152C288.475 297.04 288.584 296.925 288.691 296.808L287.953 296.134ZM296.854 287.335C293.813 290.184 290.845 293.114 287.961 296.125L288.683 296.817C291.554 293.819 294.51 290.902 297.538 288.065L296.854 287.335ZM306.161 300.383C302.66 295.728 299.901 291.609 297.635 287.46L296.757 287.94C299.054 292.144 301.842 296.305 305.362 300.984L306.161 300.383ZM334.224 312.47C326.815 312.47 314.051 310.873 306.161 300.383L305.362 300.984C313.548 311.867 326.737 313.47 334.224 313.47V312.47ZM338.536 312.1C337.147 312.337 335.706 312.47 334.224 312.47V313.47C335.766 313.47 337.263 313.331 338.704 313.086L338.536 312.1ZM336.149 316.47C337.134 315.27 338.093 314.075 339.013 312.902L338.227 312.284C337.311 313.452 336.356 314.641 335.376 315.835L336.149 316.47ZM332.992 320.225C334.031 319.019 335.089 317.761 336.149 316.47L335.376 315.835C334.321 317.121 333.268 318.373 332.235 319.573L332.992 320.225ZM371.535 253.344C371.641 253.182 371.895 252.794 372.266 252.337L371.49 251.707C371.086 252.204 370.81 252.625 370.698 252.796L371.535 253.344ZM367.418 261.047C369.151 257.647 370.679 254.652 371.535 253.344L370.698 252.796C369.804 254.163 368.244 257.226 366.527 260.593L367.418 261.047ZM366.628 262.595C366.895 262.074 367.158 261.556 367.418 261.047L366.527 260.593C366.267 261.102 366.004 261.619 365.738 262.14L366.628 262.595ZM366.27 263.297C366.391 263.059 366.511 262.825 366.628 262.595L365.738 262.14C365.62 262.37 365.501 262.604 365.379 262.841L366.27 263.297ZM365.44 262.749C365.265 262.96 365.084 263.178 364.896 263.403L365.665 264.043C365.853 263.817 366.034 263.599 366.209 263.388L365.44 262.749ZM364.896 263.403C362.889 265.815 360.176 269.056 357.337 272.389L358.098 273.037C360.94 269.701 363.656 266.456 365.665 264.043L364.896 263.403ZM357.337 272.389C354.489 275.733 351.559 279.118 349.106 281.836L349.849 282.506C352.31 279.777 355.248 276.384 358.098 273.037L357.337 272.389ZM349.106 281.836C347.877 283.199 346.818 284.338 345.979 285.197L346.694 285.896C347.546 285.024 348.615 283.874 349.849 282.506L349.106 281.836ZM345.979 285.197C345.345 285.846 344.995 286.17 344.872 286.284L345.552 287.017C345.684 286.895 346.046 286.559 346.694 285.896L345.979 285.197ZM344.873 286.284C344.857 286.298 344.842 286.312 344.831 286.322C344.826 286.327 344.819 286.334 344.812 286.34C344.809 286.344 344.803 286.349 344.797 286.356C344.794 286.359 344.778 286.376 344.761 286.399C344.755 286.406 344.729 286.44 344.705 286.49C344.695 286.512 344.668 286.573 344.66 286.657C344.652 286.746 344.664 286.931 344.825 287.075C344.967 287.202 345.125 287.204 345.178 287.202C345.242 287.199 345.29 287.185 345.31 287.179C345.353 287.165 345.385 287.148 345.393 287.144C345.416 287.132 345.433 287.12 345.438 287.117C345.445 287.113 345.451 287.108 345.454 287.106C345.467 287.097 345.483 287.085 345.493 287.077L344.893 286.278C344.878 286.289 344.875 286.291 344.876 286.29C344.877 286.289 344.88 286.287 344.885 286.284C344.888 286.282 344.903 286.272 344.925 286.26C344.933 286.256 344.964 286.239 345.007 286.226C345.027 286.219 345.075 286.205 345.139 286.203C345.191 286.201 345.35 286.203 345.491 286.329C345.652 286.473 345.664 286.658 345.656 286.747C345.649 286.831 345.621 286.892 345.611 286.914C345.588 286.963 345.562 286.997 345.557 287.004C345.54 287.026 345.525 287.041 345.524 287.043C345.519 287.048 345.516 287.051 345.515 287.052C345.513 287.054 345.513 287.053 345.517 287.05C345.524 287.043 345.535 287.033 345.552 287.017L344.873 286.284ZM344.893 286.278C344.271 286.744 343.665 287.274 343.317 287.579L343.975 288.332C344.326 288.025 344.905 287.519 345.493 287.077L344.893 286.278ZM343.317 287.579C343.192 287.688 343.075 287.791 342.962 287.89L343.621 288.642C343.735 288.542 343.851 288.44 343.975 288.332L343.317 287.579ZM342.962 287.89C342.667 288.148 342.4 288.383 342.085 288.652L342.734 289.413C343.055 289.139 343.327 288.9 343.621 288.642L342.962 287.89ZM342.085 288.652C341.261 289.355 340.414 290.028 339.5 290.625L340.046 291.462C341.01 290.833 341.893 290.13 342.734 289.413L342.085 288.652ZM339.5 290.625C337.644 291.837 335.921 292.47 334.224 292.47V293.47C336.18 293.47 338.093 292.738 340.046 291.462L339.5 290.625ZM334.224 292.47C328.429 292.47 324.132 291.003 322.144 288.361L321.345 288.962C323.625 291.993 328.342 293.47 334.224 293.47V292.47ZM322.144 288.361C317.993 282.842 315.385 278.669 313.442 274.379L312.531 274.792C314.515 279.172 317.169 283.411 321.345 288.962L322.144 288.361ZM313.282 274.989C331.685 261.507 352.389 252.065 374.702 245.921L374.437 244.957C352.022 251.128 331.205 260.62 312.691 274.182L313.282 274.989ZM374.104 245.256C373.238 247.465 372.34 249.657 371.418 251.827L372.338 252.218C373.264 250.04 374.165 247.839 375.035 245.621L374.104 245.256ZM268.835 154.719C268.455 155.031 268.076 155.345 267.7 155.661L268.343 156.427C268.716 156.113 269.092 155.802 269.469 155.493L268.835 154.719ZM276.608 189.272C274.538 175.507 272.256 163.373 269.629 154.957L268.675 155.255C271.277 163.592 273.55 175.661 275.619 189.42L276.608 189.272ZM280.782 220.19C279.488 210.039 278.138 199.445 276.608 189.272L275.619 189.42C277.147 199.581 278.496 210.164 279.79 220.316L280.782 220.19ZM280.782 220.19L280.782 220.189L279.791 220.318L279.791 220.319L280.782 220.19ZM282.641 234.561C282.025 229.94 281.411 225.118 280.783 220.191L279.791 220.317C280.419 225.244 281.034 230.069 281.65 234.693L282.641 234.561ZM289.955 267.606C286.781 256.948 284.125 245.702 282.641 234.561L281.65 234.693C283.143 245.899 285.812 257.197 288.997 267.891L289.955 267.606ZM284.384 272.983C286.167 271.322 287.974 269.704 289.802 268.127L289.149 267.37C287.311 268.955 285.495 270.582 283.703 272.252L284.384 272.983ZM275.215 281.97C278.204 278.885 281.265 275.89 284.384 272.983L283.703 272.252C280.571 275.17 277.498 278.177 274.497 281.274L275.215 281.97ZM256.022 287.529C262.749 286.882 269.588 284.825 275.08 282.069L274.632 281.175C269.247 283.877 262.528 285.898 255.927 286.534L256.022 287.529ZM238.474 284.717C242.494 287.155 248.624 288.241 256.022 287.529L255.927 286.534C248.649 287.234 242.762 286.148 238.993 283.862L238.474 284.717ZM219.126 257.069C221.478 269.579 227.998 278.362 238.474 284.717L238.993 283.862C228.745 277.646 222.405 269.098 220.109 256.884L219.126 257.069ZM225.63 212.463C219.746 227.659 216.386 242.493 219.126 257.069L220.109 256.884C217.419 242.578 220.705 227.952 226.562 212.824L225.63 212.463ZM235.878 192.861C231.774 198.938 228.301 205.563 225.63 212.463L226.562 212.824C229.206 205.994 232.645 199.436 236.707 193.421L235.878 192.861ZM267.7 155.661C255.745 165.702 245.22 179.028 235.878 192.861L236.707 193.421C246.027 179.62 256.491 166.381 268.343 156.427L267.7 155.661ZM307.047 254.513C305.057 246.971 303.456 239.353 302.466 231.92L301.475 232.052C302.472 239.535 304.081 247.195 306.08 254.768L307.047 254.513ZM370.365 225.337C347.552 231.49 325.917 240.865 306.282 254.227L306.845 255.054C326.376 241.763 347.906 232.43 370.625 226.303L370.365 225.337ZM379.063 222.825C377.029 223.455 374.358 224.26 370.365 225.337L370.625 226.303C374.633 225.222 377.316 224.413 379.359 223.78L379.063 222.825ZM380.22 222.464C379.838 222.584 379.453 222.704 379.063 222.825L379.359 223.78C379.751 223.659 380.137 223.538 380.519 223.419L380.22 222.464ZM381.859 221.955C381.32 222.12 380.774 222.291 380.22 222.464L380.519 223.419C381.073 223.245 381.616 223.075 382.152 222.911L381.859 221.955ZM378.731 159.507C387.617 176.609 386.675 201.201 381.52 222.315L382.491 222.552C387.666 201.357 388.672 176.471 379.619 159.046L378.731 159.507ZM358.559 137.056C366.279 141.028 373.773 149.962 378.731 159.507L379.619 159.046C374.611 149.406 366.993 140.271 359.016 136.167L358.559 137.056ZM333.007 130.993C341.742 131.048 350.949 133.141 358.559 137.056L359.016 136.167C351.255 132.173 341.891 130.049 333.013 129.993L333.007 130.993ZM286.502 143.822C301.031 135.653 317.027 130.892 333.007 130.993L333.013 129.993C316.831 129.89 300.666 134.712 286.012 142.951L286.502 143.822ZM287.626 145.707C287.332 144.879 287.032 144.048 286.727 143.214L285.788 143.559C286.092 144.389 286.391 145.217 286.684 146.042L287.626 145.707ZM296.386 186.298C294.104 171.123 291.334 156.143 287.626 145.707L286.684 146.042C290.356 156.377 293.115 171.27 295.397 186.447L296.386 186.298ZM300.662 217.971C299.352 207.696 297.948 196.688 296.386 186.298L295.397 186.447C296.957 196.824 298.36 207.82 299.67 218.097L300.662 217.971ZM300.663 217.975L300.662 217.97L299.67 218.098L299.671 218.103L300.663 217.975ZM302.466 231.92C301.881 227.53 301.282 222.835 300.663 217.976L299.671 218.102C300.29 222.961 300.889 227.658 301.475 232.052L302.466 231.92ZM214.862 122.289L214.678 122.293L214.704 123.293L214.888 123.288L214.862 122.289ZM215.687 122.27C215.43 122.274 215.153 122.281 214.862 122.289L214.888 123.288C215.18 123.28 215.451 123.273 215.701 123.27L215.687 122.27ZM216.196 122.194C215.892 122.242 215.712 122.264 215.634 122.274L215.753 123.266C215.843 123.256 216.034 123.232 216.351 123.182L216.196 122.194ZM218.61 121.743C217.63 121.947 216.804 122.098 216.196 122.194L216.351 123.182C216.979 123.083 217.822 122.928 218.813 122.723L218.61 121.743ZM224.832 120.213C222.873 120.781 220.577 121.335 218.61 121.743L218.813 122.723C220.801 122.31 223.123 121.75 225.111 121.173L224.832 120.213ZM244.527 112.433C237.95 115.583 231.708 118.219 224.832 120.213L225.111 121.173C232.059 119.158 238.356 116.498 244.959 113.334L244.527 112.433ZM233.404 111.624C237.702 111.258 241.36 111.809 244.526 113.334L244.96 112.433C241.598 110.813 237.752 110.25 233.319 110.627L233.404 111.624ZM216.666 116.302C221.33 113.727 227.301 112.143 233.404 111.624L233.319 110.627C227.113 111.155 220.998 112.767 216.183 115.427L216.666 116.302ZM215.176 122.917C215.766 120.609 216.344 118.297 216.91 115.983L215.939 115.746C215.374 118.056 214.796 120.364 214.207 122.669L215.176 122.917ZM244.987 366.945C244.988 366.951 244.993 366.987 245.008 367.03C245.012 367.04 245.036 367.115 245.099 367.189C245.132 367.228 245.214 367.313 245.354 367.35C245.521 367.394 245.674 367.344 245.775 367.27L245.187 366.462C245.288 366.388 245.44 366.339 245.607 366.382C245.747 366.419 245.829 366.504 245.862 366.543C245.925 366.617 245.949 366.692 245.953 366.702C245.967 366.744 245.973 366.779 245.974 366.784L244.987 366.945ZM244.978 366.796C244.978 366.828 244.978 366.893 244.987 366.947L245.973 366.782C245.975 366.789 245.975 366.795 245.976 366.799C245.976 366.803 245.977 366.807 245.977 366.809C245.978 366.814 245.978 366.818 245.978 366.82C245.978 366.823 245.978 366.825 245.978 366.823C245.978 366.82 245.978 366.811 245.978 366.796H244.978ZM245.776 367.27C245.892 367.185 245.936 367.074 245.943 367.057C245.958 367.021 245.965 366.991 245.968 366.977C245.975 366.948 245.978 366.925 245.978 366.916C245.98 366.896 245.981 366.88 245.981 366.874C245.981 366.858 245.981 366.843 245.981 366.832C245.98 366.81 245.979 366.783 245.976 366.753L244.98 366.838C244.98 366.846 244.981 366.852 244.981 366.856C244.981 366.858 244.981 366.86 244.981 366.861C244.981 366.862 244.981 366.863 244.981 366.863C244.981 366.863 244.981 366.862 244.981 366.86C244.981 366.858 244.981 366.854 244.981 366.849C244.981 366.845 244.982 366.832 244.984 366.813C244.984 366.806 244.987 366.783 244.993 366.754C244.997 366.741 245.004 366.711 245.019 366.675C245.027 366.656 245.04 366.627 245.061 366.594C245.081 366.563 245.12 366.51 245.186 366.462L245.776 367.27Z" fill="#001E28"/>
<path d="M121.312 437.906V411.906C121.312 410.76 121.833 410.188 122.875 410.188H125.75C126.792 410.188 127.312 410.76 127.312 411.906V436.969C127.312 442.802 128.135 446.615 129.781 448.406C131.448 450.177 134.156 451.062 137.906 451.062C141.656 451.062 144.354 450.177 146 448.406C147.667 446.615 148.5 442.802 148.5 436.969V411.906C148.5 410.76 149.021 410.188 150.062 410.188H152.938C153.979 410.188 154.5 410.76 154.5 411.906V437.906C154.5 444.51 152.979 449.167 149.938 451.875C146.917 454.583 142.906 455.938 137.906 455.938C132.906 455.938 128.885 454.583 125.844 451.875C122.823 449.167 121.312 444.51 121.312 437.906ZM166.688 455C165.646 455 165.125 454.427 165.125 453.281V411.906C165.125 410.76 165.646 410.188 166.688 410.188H169.562C170.604 410.188 171.125 410.76 171.125 411.906V453.281C171.125 454.427 170.604 455 169.562 455H166.688ZM204.625 455C203.583 455 203.062 454.427 203.062 453.281V411.906C203.062 410.76 203.583 410.188 204.625 410.188H216.156C224.99 410.188 231.125 412.146 234.562 416.062C238.021 419.958 239.75 425.448 239.75 432.531C239.75 439.615 238.021 445.135 234.562 449.094C231.125 453.031 224.99 455 216.156 455H204.625ZM209.062 449.875H215.875C222.75 449.875 227.375 448.417 229.75 445.5C232.146 442.583 233.344 438.26 233.344 432.531C233.344 426.802 232.146 422.49 229.75 419.594C227.375 416.698 222.75 415.25 215.875 415.25H209.062V449.875ZM245.281 438.594C245.281 433.427 246.573 429.312 249.156 426.25C251.74 423.188 255.438 421.656 260.25 421.656C264.25 421.656 267.562 423.062 270.188 425.875C272.833 428.667 274.156 433.135 274.156 439.281C274.156 440.219 273.729 440.688 272.875 440.688H251.094C251.448 444.708 252.531 447.51 254.344 449.094C256.156 450.656 258.208 451.438 260.5 451.438C262.917 451.438 264.771 451.031 266.062 450.219C267.354 449.406 268.302 448.604 268.906 447.812C269.573 446.938 270.219 446.771 270.844 447.312L272.688 448.906C273.167 449.323 273.167 449.896 272.688 450.625C272.292 451.229 271.156 452.198 269.281 453.531C267.427 454.865 264.5 455.531 260.5 455.531C255.292 455.531 251.448 454 248.969 450.938C246.51 447.875 245.281 443.76 245.281 438.594ZM250.969 436.625H268.625C268.542 433.708 267.792 431.156 266.375 428.969C264.958 426.76 262.875 425.656 260.125 425.656C257.708 425.656 255.656 426.469 253.969 428.094C252.281 429.698 251.281 432.542 250.969 436.625ZM280.094 451.938C279.448 451.333 279.312 450.771 279.688 450.25L281.094 448.281C281.552 447.656 282.229 447.688 283.125 448.375C284.354 449.312 285.719 450.062 287.219 450.625C288.74 451.188 290.469 451.469 292.406 451.469C293.552 451.469 294.573 451.333 295.469 451.062C296.365 450.771 297.146 450.24 297.812 449.469C298.5 448.698 298.844 447.667 298.844 446.375C298.844 445.625 298.677 444.917 298.344 444.25C298.031 443.583 297.531 443.052 296.844 442.656C296.177 442.24 295.521 441.917 294.875 441.688C293.812 441.292 292.75 440.969 291.688 440.719C290.646 440.448 289.271 440.042 287.562 439.5C286.417 439.146 285.333 438.646 284.312 438C283.292 437.333 282.396 436.438 281.625 435.312C280.875 434.188 280.5 432.635 280.5 430.656C280.5 428.635 281.115 426.896 282.344 425.438C283.573 423.979 285.115 422.99 286.969 422.469C288.823 421.927 290.625 421.656 292.375 421.656C294.958 421.656 297.031 421.958 298.594 422.562C300.177 423.146 301.542 423.844 302.688 424.656C303.354 425.135 303.448 425.688 302.969 426.312L301.562 428.188C301.125 428.792 300.448 428.771 299.531 428.125C298.76 427.583 297.667 427.073 296.25 426.594C294.833 426.115 293.594 425.875 292.531 425.875C291.219 425.875 290.094 426.021 289.156 426.312C288.219 426.604 287.458 427.104 286.875 427.812C286.292 428.521 286 429.354 286 430.312C286 431.042 286.115 431.698 286.344 432.281C286.573 432.844 287 433.365 287.625 433.844C288.25 434.323 289.125 434.708 290.25 435C292 435.458 293.594 435.875 295.031 436.25C296.49 436.625 297.802 437.083 298.969 437.625C300.49 438.333 301.656 439.115 302.469 439.969C303.302 440.823 303.875 441.75 304.188 442.75C304.5 443.729 304.656 444.823 304.656 446.031C304.656 448.26 303.99 450.146 302.656 451.688C301.344 453.229 299.875 454.26 298.25 454.781C296.625 455.281 294.667 455.531 292.375 455.531C289.271 455.531 286.604 455.094 284.375 454.219C282.167 453.323 280.74 452.562 280.094 451.938ZM312.281 455C311.344 455 310.875 454.531 310.875 453.594V423.594C310.875 422.656 311.344 422.188 312.281 422.188H314.969C315.906 422.188 316.375 422.656 316.375 423.594V453.594C316.375 454.531 315.906 455 314.969 455H312.281ZM312.281 416.25C311.344 416.25 310.875 415.781 310.875 414.844V412.156C310.875 411.219 311.344 410.75 312.281 410.75H314.969C315.906 410.75 316.375 411.219 316.375 412.156V414.844C316.375 415.781 315.906 416.25 314.969 416.25H312.281ZM323.469 438.594C323.469 434.115 324.552 430.177 326.719 426.781C328.885 423.365 332.052 421.656 336.219 421.656C338.615 421.656 340.531 422.052 341.969 422.844C343.406 423.635 344.698 424.719 345.844 426.094H345.906L346.094 423.594C346.156 422.656 346.562 422.188 347.312 422.188H349.938C350.875 422.188 351.344 422.656 351.344 423.594V455.25C351.344 459.25 350.417 462.375 348.562 464.625C346.729 466.896 343.094 468.031 337.656 468.031C334.01 468.031 331.281 467.615 329.469 466.781C327.656 465.969 326.365 465.104 325.594 464.188C325.031 463.5 325 462.917 325.5 462.438L327.219 460.75C327.698 460.292 328.365 460.438 329.219 461.188C330.323 462.188 331.385 462.896 332.406 463.312C333.427 463.75 335.188 463.969 337.688 463.969C340.521 463.969 342.583 463.365 343.875 462.156C345.188 460.948 345.844 458.448 345.844 454.656V452.781C345.844 452.135 345.865 451.5 345.906 450.875H345.844C344.76 452.312 343.479 453.448 342 454.281C340.542 455.115 338.615 455.531 336.219 455.531C332.052 455.531 328.885 453.833 326.719 450.438C324.552 447.021 323.469 443.073 323.469 438.594ZM329.281 438.594C329.281 442.427 329.938 445.531 331.25 447.906C332.583 450.281 334.833 451.469 338 451.469C340.25 451.469 342.115 450.708 343.594 449.188C345.094 447.646 345.844 445.312 345.844 442.188V435C345.844 431.875 345.094 429.552 343.594 428.031C342.115 426.49 340.25 425.719 338 425.719C334.833 425.719 332.583 426.906 331.25 429.281C329.938 431.656 329.281 434.76 329.281 438.594ZM361.656 455C360.719 455 360.25 454.531 360.25 453.594V423.594C360.25 422.656 360.719 422.188 361.656 422.188H364.281C365.219 422.188 365.688 422.656 365.688 423.594V426.094H365.812C367.167 424.594 368.625 423.479 370.188 422.75C371.75 422.021 373.698 421.656 376.031 421.656C379.823 421.656 382.542 422.729 384.188 424.875C385.854 427 386.688 429.917 386.688 433.625V453.594C386.688 454.531 386.219 455 385.281 455H382.594C381.656 455 381.188 454.531 381.188 453.594V435.125C381.188 431.042 380.51 428.458 379.156 427.375C377.802 426.271 376.083 425.719 374 425.719C371.292 425.719 369.24 426.531 367.844 428.156C366.448 429.76 365.75 432.521 365.75 436.438V453.594C365.75 454.531 365.281 455 364.344 455H361.656Z" fill="#001F28"/>
</svg>
