<svg width="528" height="528" viewBox="0 0 528 528" fill="none" xmlns="http://www.w3.org/2000/svg">
<rect width="528" height="528" fill="white"/>
<path fill-rule="evenodd" clip-rule="evenodd" d="M87.9459 174.351C88.2567 172.828 88.5778 171.322 88.9046 169.828C84.2524 177.445 78.913 184.692 72.2418 191.505C71.8715 191.884 71.4903 192.277 71.0985 192.681L71.0981 192.681C68.6305 195.227 65.7442 198.204 62.5382 200.573C58.7003 203.409 54.0007 205.703 48.2127 205.725C45.107 205.737 42.0508 205.341 38.8171 203.86C30.3787 199.995 24.0272 191.649 23.0287 182.307C22.7352 179.562 24.7241 177.106 27.4709 176.822C30.2177 176.539 32.6824 178.535 32.9758 181.28C33.5776 186.911 37.5609 192.303 42.9587 194.775C44.4854 195.474 45.9965 195.737 48.14 195.729C51.1212 195.718 53.7946 194.581 56.5719 192.528C59.0644 190.687 61.3143 188.372 63.8246 185.789L63.8253 185.789C64.2355 185.367 64.6527 184.937 65.079 184.502C75.6289 173.726 82.6619 161.621 89.4467 147.771C90.1124 146.412 90.8306 145.108 91.4882 143.917L91.5465 143.812L91.5466 143.812C92.1993 142.63 92.7909 141.559 93.3311 140.476C93.3993 140.339 93.5627 139.937 93.8377 139.172C93.9177 138.95 94.0126 138.681 94.1131 138.396L94.1143 138.393L94.1144 138.392C94.2875 137.902 94.4774 137.364 94.6368 136.933L94.6523 136.891C94.8507 136.355 95.2676 135.228 95.8219 134.398C95.9678 134.179 96.3919 133.558 97.1286 133.014C97.9013 132.443 100.066 131.296 102.537 132.598C104.36 133.559 104.921 135.222 105.031 135.55L105.034 135.557C105.225 136.123 105.291 136.627 105.321 136.905C105.507 138.646 105.214 140.271 104.988 141.348C104.869 141.92 104.773 142.333 104.694 142.672L104.694 142.674L104.694 142.674L104.694 142.674L104.693 142.674C104.581 143.157 104.504 143.49 104.443 143.917C103.407 151.135 101.714 158.581 100.087 165.74L100.087 165.74L100.087 165.74C99.259 169.384 98.4477 172.954 97.7483 176.381C97.3052 178.553 96.8477 180.723 96.3758 182.891C100.319 181.552 104.352 180.82 107.991 180.512C117.608 179.699 125.872 182.827 131.971 189.957C134.708 188.607 137.087 187.455 139.311 186.379C145.819 183.228 150.995 180.723 159.9 175.757C176.879 166.29 190.282 157.009 199.816 149.614C209.481 142.119 214.914 136.761 216.171 135.184C217.893 133.025 221.038 132.67 223.198 134.391C225.357 136.113 225.712 139.258 223.991 141.418C221.952 143.975 215.724 149.932 205.945 157.516C196.037 165.201 182.215 174.764 164.77 184.491C155.636 189.584 150.08 192.276 143.386 195.518L143.385 195.519C141.568 196.399 139.666 197.32 137.587 198.341C139.058 200.911 140.411 203.553 141.662 206.227C154.521 198.762 169.084 194.192 184.065 194.288C192.489 194.341 201.45 196.339 209.145 200.321C218.275 205.047 225.515 214.426 229.883 222.884C238.247 239.078 237.366 260.058 233.657 276.932C234.141 276.885 234.649 276.836 235.184 276.786C237.934 276.528 240.372 278.548 240.63 281.297C240.888 284.046 238.868 286.484 236.119 286.742C233.895 286.951 232.221 287.122 230.909 287.275C228.493 295.07 225.382 302.776 222.104 309.963C221.358 312.108 220.314 315.045 218.961 318.849L218.959 318.855C218.502 320.139 218.01 321.522 217.483 323.007C215.413 328.833 214.406 333.153 213.916 335.939C213.671 337.332 213.555 338.343 213.5 338.969C213.473 339.282 213.46 339.499 213.455 339.62C213.453 339.672 213.452 339.706 213.452 339.722V340.118L213.379 340.538L213.379 340.538L213.379 340.539L213.379 340.541L213.376 340.556L213.365 340.624C213.354 340.686 213.339 340.781 213.318 340.907C213.276 341.16 213.215 341.538 213.139 342.026C212.987 343.003 212.776 344.421 212.54 346.166C212.068 349.662 211.503 354.445 211.127 359.612C210.75 364.796 210.571 370.271 210.844 375.177C211.124 380.216 211.858 384.115 212.974 386.485C214.152 388.982 213.081 391.962 210.583 393.139C208.085 394.316 205.106 393.246 203.929 390.748C201.964 386.579 201.157 381.093 200.859 375.732C200.554 370.239 200.76 364.299 201.154 358.887C201.442 354.921 201.835 351.186 202.217 348.045C201.934 348.367 201.632 348.711 201.311 349.077C200.1 350.458 198.628 352.136 196.954 354.008C196.556 354.507 196.155 355.004 195.754 355.495C191.839 360.293 187.52 365.064 184.41 367.75C183.298 368.711 182.186 369.642 181.072 370.545C174.287 376.968 166.709 383.156 159.796 386.28C151.259 390.138 139.985 393.525 128.561 394.64C126.471 394.912 124.339 395.054 122.136 395.015C120.908 395.037 119.684 395.028 118.468 394.986C103.832 394.487 89.0169 389.128 82.209 373.659C76.1992 360.004 74.9686 341.864 76.2195 327.939C77.4905 313.792 81.6497 298.906 85.1339 286.436C85.2802 285.912 85.4253 285.393 85.5689 284.878C85.7386 284.27 86.0139 283.719 86.3693 283.241C87.5123 276.753 89.4891 270.497 91.7694 264.573C94.1114 258.488 97.1505 252.658 100.746 247.301C108.047 236.426 116.711 225.266 126.966 216.601C128.972 214.906 131.049 213.281 133.189 211.734C131.795 208.66 130.283 205.669 128.625 202.817C121.469 206.411 114.407 209.783 106.213 212.147C104.364 212.681 102.303 213.174 100.55 213.535C99.0124 213.852 97.1304 214.196 95.9579 214.196C96.3166 214.196 94.4594 214.249 93.3464 214.227C92.0602 214.202 90.3867 214.101 88.6296 213.784C86.585 220.969 84.38 228.106 82.0155 235.18C74.1935 258.582 65.8451 282.927 53.2287 305.013C52.9835 305.442 52.707 305.948 52.4017 306.507L52.4007 306.509L52.3992 306.511L52.3987 306.512C51.2508 308.612 49.6966 311.455 47.8685 313.782C45.4681 316.837 41.7487 320.164 36.2876 320.314C33.5264 320.389 31.2189 318.214 31.1336 315.454C31.0482 312.695 33.2174 310.397 35.9785 310.321C37.1038 310.291 38.3622 309.666 39.9916 307.592C41.2578 305.981 42.2464 304.179 43.3325 302.199L43.3328 302.198C43.7163 301.499 44.112 300.778 44.5364 300.035C56.5989 278.918 64.6755 255.47 72.5259 231.983C75.0755 224.355 77.4365 216.651 79.6072 208.89C78.463 207.381 77.6922 205.501 77.5501 203.259C77.5408 203.112 77.5379 202.966 77.5413 202.821C77.5405 202.785 77.5401 202.748 77.5401 202.711C77.5401 199.576 78.683 196.938 79.3694 195.773C80.3189 194.162 82.1946 191.889 83.3386 190.724C83.749 190.306 84.1718 189.904 84.6059 189.516C85.7986 184.475 86.9121 179.418 87.9459 174.351ZM88.5992 313.286C87.5037 318.514 86.637 323.74 86.1794 328.834C85.0122 341.826 86.2825 358.09 91.3617 369.631C94.2569 376.209 99.3191 380.409 105.83 382.733C105.997 381.789 106.223 380.836 106.483 379.899C107.381 376.664 108.837 373.055 110.399 369.627C113.537 362.74 117.397 355.946 119.067 353.102C122.224 347.729 125.709 342.597 129.459 337.706C128.695 337.815 127.931 337.908 127.167 337.981C120.131 338.663 112.559 337.848 106.468 334.132C98.1983 329.087 92.0726 322.218 88.5992 313.286ZM127.401 384.705C125.562 384.88 123.726 384.988 121.909 385.018C119.913 384.957 117.88 384.693 115.733 384.177C115.826 383.706 115.953 383.171 116.119 382.573C116.814 380.069 118.027 377.003 119.499 373.773C122.427 367.345 126.089 360.892 127.69 358.167C133.478 348.314 140.492 339.27 148.31 331.031C148.364 330.977 148.416 330.922 148.467 330.866C150.797 328.418 153.198 326.04 155.658 323.734C156.447 322.995 157.243 322.267 158.046 321.552C159.923 325.485 162.319 329.205 165.658 333.62C170.97 340.646 179.673 341.827 185.075 341.827C189.572 341.827 193.235 340.177 195.87 338.505C194.305 340.999 191.955 344.228 189.311 347.553C186.176 351.057 182.383 355.183 178.276 359.303C177.016 360.567 175.742 361.813 174.464 363.027C165.367 370.347 155.972 375.695 142.515 380.96C141.93 381.128 141.356 381.294 140.792 381.457L140.792 381.457C135.739 382.919 131.499 384.145 127.401 384.705ZM215.607 299.906C215.289 300.158 215.08 300.384 214.993 300.479C214.67 300.833 214.442 301.179 214.35 301.321C213.776 302.204 212.695 304.334 211.373 306.942C211.182 307.318 210.986 307.705 210.785 308.099C210.587 308.489 210.381 308.894 210.167 309.314C208.682 311.088 206.745 313.387 204.724 315.748C202.57 318.264 200.341 320.826 198.465 322.894C197.526 323.93 196.699 324.816 196.03 325.498C195.695 325.839 195.418 326.11 195.2 326.313C194.997 326.502 194.896 326.584 194.879 326.598C194.876 326.6 194.876 326.601 194.877 326.6C194.312 327.022 193.752 327.497 193.177 327.983L193.177 327.984L193.177 327.984C191.008 329.82 188.638 331.827 185.075 331.827C180.464 331.827 175.989 330.704 173.634 327.589C169.912 322.666 167.709 319.019 166.064 314.96C180.817 303.789 197.51 296.105 215.489 291.228C217.017 290.813 218.309 290.447 219.424 290.121C218.248 293.426 216.96 296.7 215.607 299.906ZM133.42 224.24C134.619 223.227 135.842 222.244 137.088 221.293C137.325 221.933 137.558 222.574 137.787 223.216C140.116 229.739 142.061 239.846 143.786 251.255C144.942 258.905 145.966 266.896 146.943 274.524L146.943 274.525C147.416 278.212 147.877 281.813 148.338 285.251C149.524 294.107 151.722 303.081 154.337 311.534C152.466 313.11 150.627 314.744 148.82 316.438C146.394 318.712 144.017 321.057 141.7 323.473C137.258 325.783 131.688 327.497 126.203 328.028C120.377 328.592 115.243 327.772 111.676 325.596C103.297 320.483 97.9878 313.312 96.093 303.174C93.9168 291.531 96.6131 279.828 101.102 268.165C103.174 262.781 105.867 257.615 109.049 252.875C116.133 242.323 124.193 232.036 133.42 224.24ZM158.249 283.924C159.18 290.872 160.802 297.997 162.802 304.939C177.992 294.015 194.914 286.448 212.871 281.577C215.92 280.749 217.967 280.129 219.525 279.643C219.837 279.546 220.14 279.451 220.434 279.358C221.343 279.072 222.176 278.81 222.986 278.582C227.238 262.018 228.389 241.783 220.998 227.472C217.116 219.957 211.109 212.598 204.548 209.202C198.377 206.009 190.99 204.332 184.001 204.287C170.665 204.202 157.415 208.427 145.596 215.514C146.155 216.966 146.691 218.414 147.204 219.853C149.896 227.39 151.952 238.375 153.673 249.76C154.846 257.52 155.897 265.718 156.882 273.408V273.408L156.882 273.409L156.884 273.424L156.885 273.432C157.353 277.077 157.805 280.608 158.249 283.924ZM91.2867 204.079C92.8657 204.277 94.3233 204.236 95.284 204.209C95.536 204.202 95.7538 204.196 95.9307 204.196C95.9146 204.196 95.9062 204.196 95.9062 204.195C95.9062 204.195 95.9072 204.195 95.9092 204.194C95.9122 204.194 95.9175 204.193 95.9251 204.192C95.9308 204.192 95.9377 204.191 95.946 204.19C96.0239 204.181 96.2204 204.159 96.5704 204.105C97.0879 204.024 97.7591 203.9 98.5296 203.741C100.074 203.423 101.88 202.989 103.441 202.539C110.189 200.592 116.133 197.865 122.61 194.643C118.937 191.34 114.394 190.006 108.835 190.477C103.369 190.939 97.7493 192.482 93.5236 195.253C92.8046 198.201 92.0589 201.143 91.2867 204.079Z" fill="#022B37"/>
<path d="M256.312 199.906V173.906C256.312 172.76 256.833 172.188 257.875 172.188H260.75C261.792 172.188 262.312 172.76 262.312 173.906V198.969C262.312 204.802 263.135 208.615 264.781 210.406C266.448 212.177 269.156 213.062 272.906 213.062C276.656 213.062 279.354 212.177 281 210.406C282.667 208.615 283.5 204.802 283.5 198.969V173.906C283.5 172.76 284.021 172.188 285.062 172.188H287.938C288.979 172.188 289.5 172.76 289.5 173.906V199.906C289.5 206.51 287.979 211.167 284.938 213.875C281.917 216.583 277.906 217.938 272.906 217.938C267.906 217.938 263.885 216.583 260.844 213.875C257.823 211.167 256.312 206.51 256.312 199.906ZM297.969 213.938C297.323 213.333 297.188 212.771 297.562 212.25L298.969 210.281C299.427 209.656 300.104 209.688 301 210.375C302.229 211.312 303.594 212.062 305.094 212.625C306.615 213.188 308.344 213.469 310.281 213.469C311.427 213.469 312.448 213.333 313.344 213.062C314.24 212.771 315.021 212.24 315.688 211.469C316.375 210.698 316.719 209.667 316.719 208.375C316.719 207.625 316.552 206.917 316.219 206.25C315.906 205.583 315.406 205.052 314.719 204.656C314.052 204.24 313.396 203.917 312.75 203.688C311.688 203.292 310.625 202.969 309.562 202.719C308.521 202.448 307.146 202.042 305.438 201.5C304.292 201.146 303.208 200.646 302.188 200C301.167 199.333 300.271 198.438 299.5 197.312C298.75 196.188 298.375 194.635 298.375 192.656C298.375 190.635 298.99 188.896 300.219 187.438C301.448 185.979 302.99 184.99 304.844 184.469C306.698 183.927 308.5 183.656 310.25 183.656C312.833 183.656 314.906 183.958 316.469 184.562C318.052 185.146 319.417 185.844 320.562 186.656C321.229 187.135 321.323 187.688 320.844 188.312L319.438 190.188C319 190.792 318.323 190.771 317.406 190.125C316.635 189.583 315.542 189.073 314.125 188.594C312.708 188.115 311.469 187.875 310.406 187.875C309.094 187.875 307.969 188.021 307.031 188.312C306.094 188.604 305.333 189.104 304.75 189.812C304.167 190.521 303.875 191.354 303.875 192.312C303.875 193.042 303.99 193.698 304.219 194.281C304.448 194.844 304.875 195.365 305.5 195.844C306.125 196.323 307 196.708 308.125 197C309.875 197.458 311.469 197.875 312.906 198.25C314.365 198.625 315.677 199.083 316.844 199.625C318.365 200.333 319.531 201.115 320.344 201.969C321.177 202.823 321.75 203.75 322.062 204.75C322.375 205.729 322.531 206.823 322.531 208.031C322.531 210.26 321.865 212.146 320.531 213.688C319.219 215.229 317.75 216.26 316.125 216.781C314.5 217.281 312.542 217.531 310.25 217.531C307.146 217.531 304.479 217.094 302.25 216.219C300.042 215.323 298.615 214.562 297.969 213.938ZM326.969 200.594C326.969 195.427 328.26 191.312 330.844 188.25C333.427 185.188 337.125 183.656 341.938 183.656C345.938 183.656 349.25 185.062 351.875 187.875C354.521 190.667 355.844 195.135 355.844 201.281C355.844 202.219 355.417 202.688 354.562 202.688H332.781C333.135 206.708 334.219 209.51 336.031 211.094C337.844 212.656 339.896 213.438 342.188 213.438C344.604 213.438 346.458 213.031 347.75 212.219C349.042 211.406 349.99 210.604 350.594 209.812C351.26 208.938 351.906 208.771 352.531 209.312L354.375 210.906C354.854 211.323 354.854 211.896 354.375 212.625C353.979 213.229 352.844 214.198 350.969 215.531C349.115 216.865 346.188 217.531 342.188 217.531C336.979 217.531 333.135 216 330.656 212.938C328.198 209.875 326.969 205.76 326.969 200.594ZM332.656 198.625H350.312C350.229 195.708 349.479 193.156 348.062 190.969C346.646 188.76 344.562 187.656 341.812 187.656C339.396 187.656 337.344 188.469 335.656 190.094C333.969 191.698 332.969 194.542 332.656 198.625ZM364.469 217C363.531 217 363.062 216.531 363.062 215.594V185.594C363.062 184.656 363.531 184.188 364.469 184.188H367.094C368.031 184.188 368.5 184.656 368.5 185.594V189.344H368.625C369.625 187.469 370.802 186.052 372.156 185.094C373.51 184.135 375.198 183.656 377.219 183.656C378.552 183.656 379.49 183.771 380.031 184C380.51 184.188 380.688 184.5 380.562 184.938L379.844 187.5C379.74 187.875 379.469 188.021 379.031 187.938C378.302 187.792 377.615 187.719 376.969 187.719C374.531 187.719 372.521 188.823 370.938 191.031C369.354 193.219 368.562 196.208 368.562 200V215.594C368.562 216.531 368.094 217 367.156 217H364.469Z" fill="#001F28"/>
<path d="M258.875 291C257.833 291 257.312 290.427 257.312 289.281V247.906C257.312 246.76 257.833 246.188 258.875 246.188H261.75C262.792 246.188 263.312 246.76 263.312 247.906V289.281C263.312 290.427 262.792 291 261.75 291H258.875ZM274.469 291C273.531 291 273.062 290.531 273.062 289.594V259.594C273.062 258.656 273.531 258.188 274.469 258.188H277.094C278.031 258.188 278.5 258.656 278.5 259.594V262.094H278.625C279.979 260.594 281.438 259.479 283 258.75C284.562 258.021 286.51 257.656 288.844 257.656C292.635 257.656 295.354 258.729 297 260.875C298.667 263 299.5 265.917 299.5 269.625V289.594C299.5 290.531 299.031 291 298.094 291H295.406C294.469 291 294 290.531 294 289.594V271.125C294 267.042 293.323 264.458 291.969 263.375C290.615 262.271 288.896 261.719 286.812 261.719C284.104 261.719 282.052 262.531 280.656 264.156C279.26 265.76 278.562 268.521 278.562 272.438V289.594C278.562 290.531 278.094 291 277.156 291H274.469ZM306.719 262.312C305.781 262.312 305.312 261.948 305.312 261.219V259.281C305.312 258.552 305.781 258.188 306.719 258.188H310.406V255.375C310.406 254.958 310.51 254.562 310.719 254.188L312.906 250.219C313.302 249.49 313.625 249.125 313.875 249.125H314.969C315.594 249.125 315.906 249.49 315.906 250.219V258.188H322.562C323.5 258.188 323.969 258.552 323.969 259.281V261.219C323.969 261.948 323.5 262.312 322.562 262.312H315.906V282.219C315.906 284.406 316.229 285.833 316.875 286.5C317.542 287.146 318.333 287.469 319.25 287.469C319.958 287.469 320.802 287.26 321.781 286.844C322.781 286.427 323.469 286.073 323.844 285.781C324.219 285.49 324.51 285.583 324.719 286.062L325.75 288.469C325.917 288.885 325.792 289.219 325.375 289.469C324.562 289.948 323.375 290.417 321.812 290.875C320.25 291.312 318.688 291.531 317.125 291.531C314.958 291.531 313.292 290.75 312.125 289.188C310.979 287.625 310.406 285.417 310.406 282.562V262.312H306.719ZM330.219 274.594C330.219 269.427 331.51 265.312 334.094 262.25C336.677 259.188 340.375 257.656 345.188 257.656C349.188 257.656 352.5 259.062 355.125 261.875C357.771 264.667 359.094 269.135 359.094 275.281C359.094 276.219 358.667 276.688 357.812 276.688H336.031C336.385 280.708 337.469 283.51 339.281 285.094C341.094 286.656 343.146 287.438 345.438 287.438C347.854 287.438 349.708 287.031 351 286.219C352.292 285.406 353.24 284.604 353.844 283.812C354.51 282.938 355.156 282.771 355.781 283.312L357.625 284.906C358.104 285.323 358.104 285.896 357.625 286.625C357.229 287.229 356.094 288.198 354.219 289.531C352.365 290.865 349.438 291.531 345.438 291.531C340.229 291.531 336.385 290 333.906 286.938C331.448 283.875 330.219 279.76 330.219 274.594ZM335.906 272.625H353.562C353.479 269.708 352.729 267.156 351.312 264.969C349.896 262.76 347.812 261.656 345.062 261.656C342.646 261.656 340.594 262.469 338.906 264.094C337.219 265.698 336.219 268.542 335.906 272.625ZM367.719 291C366.781 291 366.312 290.531 366.312 289.594V259.594C366.312 258.656 366.781 258.188 367.719 258.188H370.344C371.281 258.188 371.75 258.656 371.75 259.594V263.344H371.875C372.875 261.469 374.052 260.052 375.406 259.094C376.76 258.135 378.448 257.656 380.469 257.656C381.802 257.656 382.74 257.771 383.281 258C383.76 258.188 383.938 258.5 383.812 258.938L383.094 261.5C382.99 261.875 382.719 262.021 382.281 261.938C381.552 261.792 380.865 261.719 380.219 261.719C377.781 261.719 375.771 262.823 374.188 265.031C372.604 267.219 371.812 270.208 371.812 274V289.594C371.812 290.531 371.344 291 370.406 291H367.719ZM387.25 262.312C386.312 262.312 385.844 261.948 385.844 261.219V259.281C385.844 258.552 386.312 258.188 387.25 258.188H390.594V253.531C390.594 250.052 391.531 247.656 393.406 246.344C395.281 245.01 397.427 244.344 399.844 244.344C401.281 244.344 402.438 244.417 403.312 244.562C404.208 244.708 405.26 245.031 406.469 245.531C406.927 245.719 407.062 246.052 406.875 246.531L405.906 249C405.74 249.417 405.375 249.5 404.812 249.25C404.354 249.042 403.792 248.854 403.125 248.688C402.458 248.5 401.74 248.406 400.969 248.406C399.24 248.406 397.99 248.823 397.219 249.656C396.469 250.49 396.094 252.083 396.094 254.438V258.188H401.812C402.75 258.188 403.219 258.552 403.219 259.281V261.219C403.219 261.948 402.75 262.312 401.812 262.312H396.094V289.594C396.094 290.531 395.625 291 394.688 291H392C391.062 291 390.594 290.531 390.594 289.594V262.312H387.25ZM407.469 282.25C407.469 278.542 409.198 275.823 412.656 274.094C416.135 272.365 421.323 271.354 428.219 271.062V268.938C428.219 266.979 427.771 265.292 426.875 263.875C426 262.438 424.25 261.719 421.625 261.719C419.958 261.719 418.625 261.885 417.625 262.219C416.625 262.531 415.708 262.958 414.875 263.5C414.062 264.021 413.281 264.698 412.531 265.531C411.969 266.156 411.438 266.188 410.938 265.625L409.312 263.75C408.854 263.229 409.01 262.604 409.781 261.875C410.885 260.833 411.958 260.052 413 259.531C414.042 259.01 415.333 258.573 416.875 258.219C418.438 257.844 420.021 257.656 421.625 257.656C425.979 257.656 429.083 258.781 430.938 261.031C432.792 263.26 433.719 266.323 433.719 270.219V289.594C433.719 290.531 433.25 291 432.312 291H429.5C428.688 291 428.281 290.531 428.281 289.594V288.062H428.219C426.573 289.354 424.958 290.26 423.375 290.781C421.812 291.281 420.062 291.531 418.125 291.531C414.708 291.531 412.073 290.719 410.219 289.094C408.385 287.448 407.469 285.167 407.469 282.25ZM413.156 282.375C413.156 283.667 413.427 284.708 413.969 285.5C414.51 286.271 415.26 286.771 416.219 287C417.177 287.208 418.177 287.312 419.219 287.312C420.823 287.312 422.344 287.156 423.781 286.844C425.219 286.531 426.698 285.708 428.219 284.375V275.156C424.01 275.469 421.01 275.854 419.219 276.312C417.427 276.75 415.969 277.521 414.844 278.625C413.719 279.708 413.156 280.958 413.156 282.375ZM440.844 274.594C440.844 269.698 442.052 265.656 444.469 262.469C446.906 259.26 450.625 257.656 455.625 257.656C459 257.656 461.573 258.26 463.344 259.469C465.135 260.656 466.427 261.875 467.219 263.125C467.656 263.812 467.562 264.365 466.938 264.781L464.969 266.062C464.344 266.5 463.719 266.219 463.094 265.219C462.49 264.26 461.635 263.438 460.531 262.75C459.448 262.062 457.812 261.719 455.625 261.719C452.771 261.719 450.562 262.771 449 264.875C447.438 266.979 446.656 270.219 446.656 274.594C446.656 278.969 447.438 282.208 449 284.312C450.562 286.417 452.771 287.469 455.625 287.469C457.938 287.469 459.708 287.031 460.938 286.156C462.167 285.26 463.062 284.292 463.625 283.25C464.167 282.271 464.781 281.99 465.469 282.406L467.562 283.656C468.188 284.031 468.281 284.594 467.844 285.344C467.323 286.24 466.135 287.5 464.281 289.125C462.448 290.729 459.562 291.531 455.625 291.531C450.625 291.531 446.906 289.938 444.469 286.75C442.052 283.542 440.844 279.49 440.844 274.594ZM472.906 274.594C472.906 269.427 474.198 265.312 476.781 262.25C479.365 259.188 483.062 257.656 487.875 257.656C491.875 257.656 495.188 259.062 497.812 261.875C500.458 264.667 501.781 269.135 501.781 275.281C501.781 276.219 501.354 276.688 500.5 276.688H478.719C479.073 280.708 480.156 283.51 481.969 285.094C483.781 286.656 485.833 287.438 488.125 287.438C490.542 287.438 492.396 287.031 493.688 286.219C494.979 285.406 495.927 284.604 496.531 283.812C497.198 282.938 497.844 282.771 498.469 283.312L500.312 284.906C500.792 285.323 500.792 285.896 500.312 286.625C499.917 287.229 498.781 288.198 496.906 289.531C495.052 290.865 492.125 291.531 488.125 291.531C482.917 291.531 479.073 290 476.594 286.938C474.135 283.875 472.906 279.76 472.906 274.594ZM478.594 272.625H496.25C496.167 269.708 495.417 267.156 494 264.969C492.583 262.76 490.5 261.656 487.75 261.656C485.333 261.656 483.281 262.469 481.594 264.094C479.906 265.698 478.906 268.542 478.594 272.625Z" fill="#001F28"/>
<path d="M258.875 365C257.833 365 257.312 364.427 257.312 363.281V321.906C257.312 320.76 257.833 320.188 258.875 320.188H270.406C279.24 320.188 285.375 322.146 288.812 326.062C292.271 329.958 294 335.448 294 342.531C294 349.615 292.271 355.135 288.812 359.094C285.375 363.031 279.24 365 270.406 365H258.875ZM263.312 359.875H270.125C277 359.875 281.625 358.417 284 355.5C286.396 352.583 287.594 348.26 287.594 342.531C287.594 336.802 286.396 332.49 284 329.594C281.625 326.698 277 325.25 270.125 325.25H263.312V359.875ZM299.531 348.594C299.531 343.427 300.823 339.312 303.406 336.25C305.99 333.188 309.688 331.656 314.5 331.656C318.5 331.656 321.812 333.062 324.438 335.875C327.083 338.667 328.406 343.135 328.406 349.281C328.406 350.219 327.979 350.688 327.125 350.688H305.344C305.698 354.708 306.781 357.51 308.594 359.094C310.406 360.656 312.458 361.438 314.75 361.438C317.167 361.438 319.021 361.031 320.312 360.219C321.604 359.406 322.552 358.604 323.156 357.812C323.823 356.938 324.469 356.771 325.094 357.312L326.938 358.906C327.417 359.323 327.417 359.896 326.938 360.625C326.542 361.229 325.406 362.198 323.531 363.531C321.677 364.865 318.75 365.531 314.75 365.531C309.542 365.531 305.698 364 303.219 360.938C300.76 357.875 299.531 353.76 299.531 348.594ZM305.219 346.625H322.875C322.792 343.708 322.042 341.156 320.625 338.969C319.208 336.76 317.125 335.656 314.375 335.656C311.958 335.656 309.906 336.469 308.219 338.094C306.531 339.698 305.531 342.542 305.219 346.625ZM334.344 361.938C333.698 361.333 333.562 360.771 333.938 360.25L335.344 358.281C335.802 357.656 336.479 357.688 337.375 358.375C338.604 359.312 339.969 360.062 341.469 360.625C342.99 361.188 344.719 361.469 346.656 361.469C347.802 361.469 348.823 361.333 349.719 361.062C350.615 360.771 351.396 360.24 352.062 359.469C352.75 358.698 353.094 357.667 353.094 356.375C353.094 355.625 352.927 354.917 352.594 354.25C352.281 353.583 351.781 353.052 351.094 352.656C350.427 352.24 349.771 351.917 349.125 351.688C348.062 351.292 347 350.969 345.938 350.719C344.896 350.448 343.521 350.042 341.812 349.5C340.667 349.146 339.583 348.646 338.562 348C337.542 347.333 336.646 346.438 335.875 345.312C335.125 344.188 334.75 342.635 334.75 340.656C334.75 338.635 335.365 336.896 336.594 335.438C337.823 333.979 339.365 332.99 341.219 332.469C343.073 331.927 344.875 331.656 346.625 331.656C349.208 331.656 351.281 331.958 352.844 332.562C354.427 333.146 355.792 333.844 356.938 334.656C357.604 335.135 357.698 335.688 357.219 336.312L355.812 338.188C355.375 338.792 354.698 338.771 353.781 338.125C353.01 337.583 351.917 337.073 350.5 336.594C349.083 336.115 347.844 335.875 346.781 335.875C345.469 335.875 344.344 336.021 343.406 336.312C342.469 336.604 341.708 337.104 341.125 337.812C340.542 338.521 340.25 339.354 340.25 340.312C340.25 341.042 340.365 341.698 340.594 342.281C340.823 342.844 341.25 343.365 341.875 343.844C342.5 344.323 343.375 344.708 344.5 345C346.25 345.458 347.844 345.875 349.281 346.25C350.74 346.625 352.052 347.083 353.219 347.625C354.74 348.333 355.906 349.115 356.719 349.969C357.552 350.823 358.125 351.75 358.438 352.75C358.75 353.729 358.906 354.823 358.906 356.031C358.906 358.26 358.24 360.146 356.906 361.688C355.594 363.229 354.125 364.26 352.5 364.781C350.875 365.281 348.917 365.531 346.625 365.531C343.521 365.531 340.854 365.094 338.625 364.219C336.417 363.323 334.99 362.562 334.344 361.938ZM366.531 365C365.594 365 365.125 364.531 365.125 363.594V333.594C365.125 332.656 365.594 332.188 366.531 332.188H369.219C370.156 332.188 370.625 332.656 370.625 333.594V363.594C370.625 364.531 370.156 365 369.219 365H366.531ZM366.531 326.25C365.594 326.25 365.125 325.781 365.125 324.844V322.156C365.125 321.219 365.594 320.75 366.531 320.75H369.219C370.156 320.75 370.625 321.219 370.625 322.156V324.844C370.625 325.781 370.156 326.25 369.219 326.25H366.531ZM377.719 348.594C377.719 344.115 378.802 340.177 380.969 336.781C383.135 333.365 386.302 331.656 390.469 331.656C392.865 331.656 394.781 332.052 396.219 332.844C397.656 333.635 398.948 334.719 400.094 336.094H400.156L400.344 333.594C400.406 332.656 400.812 332.188 401.562 332.188H404.188C405.125 332.188 405.594 332.656 405.594 333.594V365.25C405.594 369.25 404.667 372.375 402.812 374.625C400.979 376.896 397.344 378.031 391.906 378.031C388.26 378.031 385.531 377.615 383.719 376.781C381.906 375.969 380.615 375.104 379.844 374.188C379.281 373.5 379.25 372.917 379.75 372.438L381.469 370.75C381.948 370.292 382.615 370.438 383.469 371.188C384.573 372.188 385.635 372.896 386.656 373.312C387.677 373.75 389.438 373.969 391.938 373.969C394.771 373.969 396.833 373.365 398.125 372.156C399.438 370.948 400.094 368.448 400.094 364.656V362.781C400.094 362.135 400.115 361.5 400.156 360.875H400.094C399.01 362.312 397.729 363.448 396.25 364.281C394.792 365.115 392.865 365.531 390.469 365.531C386.302 365.531 383.135 363.833 380.969 360.438C378.802 357.021 377.719 353.073 377.719 348.594ZM383.531 348.594C383.531 352.427 384.188 355.531 385.5 357.906C386.833 360.281 389.083 361.469 392.25 361.469C394.5 361.469 396.365 360.708 397.844 359.188C399.344 357.646 400.094 355.312 400.094 352.188V345C400.094 341.875 399.344 339.552 397.844 338.031C396.365 336.49 394.5 335.719 392.25 335.719C389.083 335.719 386.833 336.906 385.5 339.281C384.188 341.656 383.531 344.76 383.531 348.594ZM415.906 365C414.969 365 414.5 364.531 414.5 363.594V333.594C414.5 332.656 414.969 332.188 415.906 332.188H418.531C419.469 332.188 419.938 332.656 419.938 333.594V336.094H420.062C421.417 334.594 422.875 333.479 424.438 332.75C426 332.021 427.948 331.656 430.281 331.656C434.073 331.656 436.792 332.729 438.438 334.875C440.104 337 440.938 339.917 440.938 343.625V363.594C440.938 364.531 440.469 365 439.531 365H436.844C435.906 365 435.438 364.531 435.438 363.594V345.125C435.438 341.042 434.76 338.458 433.406 337.375C432.052 336.271 430.333 335.719 428.25 335.719C425.542 335.719 423.49 336.531 422.094 338.156C420.698 339.76 420 342.521 420 346.438V363.594C420 364.531 419.531 365 418.594 365H415.906Z" fill="#001F28"/>
</svg>
