<svg width="528" height="528" viewBox="0 0 528 528" fill="none" xmlns="http://www.w3.org/2000/svg">
<rect width="528" height="528" fill="white"/>
<path fill-rule="evenodd" clip-rule="evenodd" d="M159.222 137.394C169.505 126.891 178.008 115.816 185.473 104.249C185.355 104.819 185.237 105.391 185.12 105.965C183.424 114.278 181.607 122.576 179.669 130.85C178.607 131.764 177.58 132.725 176.592 133.736C174.521 135.856 171.132 139.979 169.39 142.95C168.103 145.146 166 150.032 166 155.853C166 155.885 166 155.916 166 155.947C166.001 155.98 166.001 156.014 166.002 156.047C165.996 156.327 166.002 156.61 166.02 156.895C166.296 161.283 167.853 164.946 170.149 167.852C166.366 181.331 162.258 194.714 157.828 207.966C143.913 249.599 129.63 291.052 108.316 328.365C107.539 329.725 106.824 331.029 106.136 332.282C104.228 335.761 102.537 338.843 100.355 341.62C97.555 345.184 95.6051 345.982 94.1048 346.024C88.5825 346.175 84.2442 350.771 84.4149 356.29C84.5856 361.808 89.2007 366.16 94.7229 366.009C104.895 365.73 111.767 359.526 116.109 354C119.415 349.792 122.237 344.627 124.27 340.907C124.803 339.932 125.282 339.055 125.701 338.321C148.123 299.07 162.949 255.823 176.808 214.36C180.942 201.99 184.802 189.512 188.385 176.951C190.915 177.307 193.267 177.434 195.147 177.471C197.083 177.51 200.592 177.415 199.803 177.415C202.026 177.415 205.487 176.773 208.188 176.213C211.322 175.563 215.008 174.677 218.323 173.716C232.588 169.579 244.928 163.725 257.3 157.495C260.026 162.287 262.529 167.297 264.847 172.443C261.24 175.057 257.737 177.795 254.346 180.643C236.021 196.034 220.571 215.831 207.583 235.064C201.15 244.589 195.713 254.958 191.522 265.782C188.573 273.399 185.901 281.345 183.873 289.549C183.177 291.953 182.497 294.26 181.835 296.505C177.193 312.242 173.454 324.92 171.541 346.1C167.321 392.808 175.112 441.773 185.856 466.047C191.808 479.498 200.736 488.789 211.701 494.436C222.485 499.989 234.552 501.67 246.441 501.218C269.973 500.322 295.108 490.954 314.136 482.404C328.23 476.071 343.77 462.777 356.981 449.879C357.235 449.662 357.489 449.445 357.743 449.227C362.068 445.513 367.66 439.603 373.191 433.196C379.014 426.925 384.061 421.223 387.828 416.954C387.284 421.728 386.753 427.091 386.342 432.717C385.639 442.338 385.268 452.921 385.816 462.728C386.349 472.27 387.797 482.182 391.399 489.783C393.764 494.773 399.727 496.902 404.718 494.537C409.709 492.171 411.837 486.208 409.472 481.217C407.581 477.228 406.282 470.504 405.785 461.612C405.303 452.986 405.619 443.337 406.289 434.175C406.956 425.047 407.96 416.595 408.799 410.414C409.218 407.329 409.595 404.824 409.864 403.099C409.999 402.237 410.107 401.571 410.181 401.126C410.218 400.904 410.246 400.737 410.264 400.628L410.284 400.51L410.289 400.484L410.289 400.482L410.289 400.48L410.435 399.636V398.848C410.436 398.822 410.438 398.773 410.441 398.702C410.449 398.506 410.47 398.139 410.517 397.601C410.612 396.526 410.814 394.768 411.245 392.332C412.106 387.462 413.884 379.869 417.552 369.6C418.491 366.97 419.368 364.519 420.182 362.243L420.183 362.239C423.199 353.807 425.357 347.771 426.692 343.876C427.114 342.645 427.504 341.486 427.825 340.463C432.497 329.83 436.867 318.662 440.422 307.377C442.623 307.129 445.377 306.852 448.929 306.521C454.428 306.008 458.47 301.134 457.957 295.635C457.444 290.136 452.57 286.094 447.071 286.607C446.671 286.645 446.28 286.681 445.896 286.718C452.22 257.074 453.517 220.519 438.746 192.086C430.93 177.043 417.934 160.26 401.437 151.772C387.609 144.658 371.531 141.098 356.425 141.003C330.092 140.836 304.506 148.672 281.837 161.512C279.786 157.115 277.581 152.766 275.198 148.517C278.472 146.906 281.505 145.429 284.417 144.011L284.42 144.01C296.316 138.218 306.217 133.397 322.447 124.3C353.447 106.926 378.015 89.8407 395.635 76.1049C412.996 62.5705 424.133 51.8811 427.835 47.214C431.267 42.8868 430.541 36.5969 426.214 33.165C421.887 29.7332 415.597 30.4589 412.165 34.786C410.02 37.4903 400.47 46.9767 383.339 60.3315C366.466 73.485 342.736 90.0023 312.669 106.854C296.898 115.693 287.757 120.14 276.234 125.746L276.233 125.746C272.501 127.562 268.518 129.5 263.98 131.747C252.982 119.235 238.182 113.732 221.052 115.189C215.377 115.672 209.143 116.733 202.931 118.602C203.543 115.745 204.141 112.886 204.725 110.025C205.953 104.003 207.385 97.7039 208.849 91.2597L208.849 91.2592C211.739 78.5427 214.758 65.2605 216.6 52.4251C216.703 51.7088 216.827 51.1779 217.015 50.3693L217.015 50.3676L217.016 50.3671L217.016 50.3645C217.155 49.7696 217.328 49.0243 217.554 47.9449C217.958 46.0144 218.512 42.9888 218.162 39.7168C218.105 39.1885 217.976 38.2015 217.599 37.0848L217.594 37.0696C217.376 36.4226 216.26 33.1115 212.623 31.1941C207.689 28.5929 203.367 30.8855 201.831 32.0207C200.366 33.1027 199.527 34.3342 199.246 34.756C198.187 36.3429 197.408 38.4502 197.061 39.3876L197.025 39.4854C196.741 40.2534 196.397 41.2288 196.087 42.1061L196.087 42.1074C195.909 42.6109 195.743 43.0821 195.606 43.4631C195.387 44.0715 195.197 44.5841 195.031 45.0032C194.95 45.2095 194.884 45.3703 194.831 45.4911C194.785 45.5973 194.762 45.647 194.759 45.6522C193.813 47.5495 192.775 49.428 191.615 51.5287L191.615 51.5292L191.614 51.5299L191.516 51.7081C190.352 53.8157 189.066 56.1493 187.872 58.5863C175.868 83.0912 163.468 104.418 144.896 123.387C144.134 124.165 143.391 124.93 142.662 125.68C138.208 130.261 134.293 134.288 129.956 137.493C125.155 141.04 120.648 142.924 115.684 142.942C111.995 142.956 109.493 142.506 106.982 141.356C97.7624 137.134 90.973 127.914 89.9517 118.359C89.3647 112.867 84.4354 108.875 78.9418 109.442C73.4481 110.009 69.4705 114.921 70.0574 120.413C71.8721 137.391 83.398 152.518 98.6989 159.526C104.624 162.239 110.216 162.956 115.83 162.935C126.407 162.895 134.966 158.697 141.889 153.582C147.652 149.323 152.841 143.971 157.208 139.464L157.212 139.46L157.213 139.46L157.213 139.459C157.903 138.747 158.573 138.056 159.222 137.394ZM411.15 328.664C413.334 323.545 415.423 318.328 417.357 313.058C415.896 313.472 414.282 313.92 412.486 314.404C380.778 322.956 351.357 336.404 325.352 355.927C328.215 362.937 332.055 369.3 338.519 377.893C342.368 383.01 349.822 385 357.899 385C363.758 385 367.58 381.755 371.381 378.529L371.381 378.528C372.439 377.631 373.495 376.734 374.592 375.91L374.587 375.914L374.578 375.92C374.577 375.921 374.577 375.921 374.576 375.921C374.576 375.921 374.729 375.798 375.072 375.476C375.443 375.129 375.921 374.658 376.508 374.058C377.682 372.856 379.138 371.289 380.799 369.447C384.116 365.77 388.063 361.211 391.881 356.728C395.69 352.256 399.329 347.91 402.018 344.678C402.357 344.271 402.68 343.883 402.986 343.514C403.207 343.081 403.424 342.657 403.636 342.242C403.99 341.551 404.337 340.87 404.676 340.205L404.686 340.185C407.03 335.588 408.991 331.743 410.052 330.122C410.209 329.882 410.596 329.295 411.15 328.664ZM358.264 419.88C359.683 418.233 361.124 416.519 362.563 414.766C366.3 410.213 369.797 405.67 372.656 401.653C368.558 403.552 363.599 405 357.899 405C348.212 405 332.289 402.882 322.536 389.916C316.831 382.332 312.654 375.872 309.353 369.111C308.475 369.904 307.602 370.705 306.733 371.514C302.387 375.564 298.147 379.737 294.033 384.035C293.992 384.079 293.951 384.124 293.909 384.167C293.886 384.192 293.863 384.216 293.84 384.24C293.8 384.282 293.759 384.323 293.718 384.364C279.898 398.844 267.509 414.729 257.289 432.024C254.456 436.818 247.979 448.167 242.805 459.457C240.203 465.133 238.079 470.477 236.871 474.808C236.711 475.381 236.572 475.917 236.454 476.416C250.832 479.559 262.397 476.234 279.368 471.356C280.33 471.079 281.31 470.797 282.309 470.512C308.458 460.338 325.889 450.006 343.492 435.095C344.296 434.308 345.097 433.515 345.897 432.718C350.263 428.364 354.428 424.006 358.264 419.88ZM216.523 473.991C216.815 472.46 217.189 470.93 217.607 469.432C219.225 463.633 221.84 457.198 224.623 451.124C230.219 438.914 237.096 426.882 240.07 421.849C245.215 413.143 250.848 404.797 256.881 396.808C256.423 396.86 255.966 396.907 255.508 396.951C242.891 398.166 229.185 396.73 218.095 390.004C206.391 382.905 197.055 373.769 190.553 362.398C189.146 401.793 196.106 439.79 204.144 457.953C207.424 465.364 211.678 470.475 216.523 473.991ZM203.191 294.75C199.975 307.936 198.887 321.068 201.341 334.123C204.637 351.651 213.843 364.034 228.467 372.904C234.523 376.577 243.375 378.027 253.592 377.043C263.127 376.126 272.813 373.175 280.547 369.205C284.633 364.972 288.824 360.865 293.1 356.881C295.996 354.182 298.94 351.569 301.927 349.039C297.435 334.268 293.665 318.626 291.605 303.17C290.787 297.031 289.968 290.606 289.13 284.033L289.13 284.027L289.129 284.023L289.129 284.023L289.129 284.022L289.129 284.022C287.396 270.426 285.582 256.198 283.532 242.567C280.473 222.222 277.034 204.291 272.939 192.765C272.808 192.396 272.676 192.028 272.544 191.659C270.738 193.054 268.959 194.488 267.209 195.957C250.946 209.617 236.708 227.672 224.158 246.256C218.558 254.549 213.819 263.586 210.173 273.003C208.188 278.131 206.405 283.253 204.908 288.367C204.846 288.812 204.753 289.257 204.628 289.701C204.137 291.452 203.658 293.131 203.191 294.75ZM311.43 300.529C312.985 312.198 315.636 324.16 318.914 335.869C345.776 316.838 375.635 303.629 407.278 295.094C412.674 293.639 416.295 292.548 419.052 291.693C419.59 291.527 420.114 291.363 420.625 291.203L420.649 291.196L420.65 291.195L420.65 291.195C422.036 290.762 423.335 290.356 424.597 289.991C431.979 260.994 433.818 225.983 420.998 201.306C414.168 188.16 403.648 175.402 392.287 169.556C381.499 164.006 368.554 161.08 356.298 161.002C333.194 160.856 310.206 168.025 289.608 180.113C290.358 182.106 291.083 184.093 291.785 186.069C296.598 199.616 300.258 219.294 303.31 239.593C305.392 253.442 307.259 268.082 309.008 281.802L309.009 281.805L309.01 281.813C309.84 288.32 310.643 294.62 311.43 300.529ZM193.721 157.408C195.005 152.487 196.247 147.555 197.446 142.615C204.559 138.336 213.723 135.884 222.747 135.117C231.685 134.357 239.05 136.304 245.112 141.228C234.203 146.646 224.122 151.21 212.753 154.507C210.016 155.301 206.843 156.067 204.127 156.63C202.773 156.911 201.602 157.127 200.708 157.267C200.148 157.355 199.83 157.392 199.702 157.407C199.657 157.412 199.635 157.415 199.635 157.416C199.635 157.416 199.636 157.416 199.637 157.416C199.319 157.419 198.949 157.429 198.534 157.441C197.271 157.476 195.591 157.522 193.721 157.408Z" fill="#001E28"/>
<path d="M185.473 104.249L185.963 104.351L185.053 103.978L185.473 104.249ZM159.222 137.394L158.864 137.044L158.864 137.044L159.222 137.394ZM185.12 105.965L185.61 106.065L185.61 106.065L185.12 105.965ZM179.669 130.85L179.995 131.229L180.118 131.122L180.155 130.964L179.669 130.85ZM176.592 133.736L176.95 134.086L176.95 134.086L176.592 133.736ZM169.39 142.95L169.822 143.203L169.822 143.203L169.39 142.95ZM166 155.947L166.5 155.943L166.5 155.943L166 155.947ZM166.002 156.047L166.502 156.057L166.502 156.047L166.502 156.037L166.002 156.047ZM166.02 156.895L166.519 156.864L166.519 156.864L166.02 156.895ZM170.149 167.852L170.631 167.987L170.699 167.742L170.542 167.542L170.149 167.852ZM157.828 207.966L158.303 208.125L158.303 208.125L157.828 207.966ZM108.316 328.365L108.75 328.613L108.75 328.613L108.316 328.365ZM106.136 332.282L105.698 332.041L105.698 332.041L106.136 332.282ZM100.355 341.62L100.748 341.929L100.748 341.929L100.355 341.62ZM94.1048 346.024L94.0911 345.524L94.0911 345.524L94.1048 346.024ZM84.4149 356.29L83.9152 356.305L84.4149 356.29ZM94.7229 366.009L94.7093 365.509L94.7093 365.509L94.7229 366.009ZM116.109 354L115.715 353.691L115.715 353.691L116.109 354ZM124.27 340.907L124.708 341.147L124.708 341.147L124.27 340.907ZM125.701 338.321L125.267 338.073L125.267 338.073L125.701 338.321ZM176.808 214.36L177.282 214.518L177.282 214.518L176.808 214.36ZM188.385 176.951L188.455 176.456L188.024 176.395L187.905 176.814L188.385 176.951ZM195.147 177.471L195.137 177.971L195.137 177.971L195.147 177.471ZM208.188 176.213L208.29 176.703L208.29 176.703L208.188 176.213ZM218.323 173.716L218.462 174.196L218.462 174.196L218.323 173.716ZM257.3 157.495L257.735 157.248L257.5 156.835L257.075 157.049L257.3 157.495ZM264.847 172.443L265.14 172.848L265.47 172.609L265.303 172.238L264.847 172.443ZM254.346 180.643L254.025 180.26L254.025 180.26L254.346 180.643ZM207.583 235.064L207.997 235.343L207.997 235.343L207.583 235.064ZM191.522 265.782L191.989 265.963L191.989 265.963L191.522 265.782ZM183.873 289.549L184.354 289.688L184.357 289.679L184.359 289.669L183.873 289.549ZM181.835 296.505L181.355 296.364L181.355 296.364L181.835 296.505ZM171.541 346.1L172.039 346.145L172.039 346.145L171.541 346.1ZM185.856 466.047L186.313 465.845L186.313 465.845L185.856 466.047ZM211.701 494.436L211.472 494.88L211.472 494.88L211.701 494.436ZM246.441 501.218L246.422 500.718L246.422 500.718L246.441 501.218ZM314.136 482.404L314.341 482.86L314.341 482.86L314.136 482.404ZM356.981 449.879L356.657 449.498L356.644 449.509L356.631 449.521L356.981 449.879ZM357.743 449.227L358.068 449.606L358.068 449.606L357.743 449.227ZM373.191 433.196L372.825 432.855L372.818 432.862L372.813 432.869L373.191 433.196ZM387.828 416.954L388.325 417.01L388.505 415.431L387.453 416.623L387.828 416.954ZM386.342 432.717L385.843 432.68L385.843 432.68L386.342 432.717ZM385.816 462.728L385.317 462.756L385.317 462.756L385.816 462.728ZM391.399 489.783L390.947 489.997L390.947 489.997L391.399 489.783ZM409.472 481.217L409.924 481.003L409.924 481.003L409.472 481.217ZM405.785 461.612L406.284 461.584L406.284 461.584L405.785 461.612ZM406.289 434.175L405.79 434.139L405.79 434.139L406.289 434.175ZM408.799 410.414L409.295 410.482L409.295 410.482L408.799 410.414ZM409.864 403.099L410.358 403.177L410.358 403.177L409.864 403.099ZM410.181 401.126L410.674 401.208L410.674 401.208L410.181 401.126ZM410.264 400.628L409.771 400.545L409.771 400.545L410.264 400.628ZM410.284 400.51L409.791 400.426L409.791 400.426L410.284 400.51ZM410.289 400.484L410.781 400.568L410.781 400.568L410.289 400.484ZM410.289 400.482L409.797 400.393L409.796 400.398L410.289 400.482ZM410.289 400.48L410.781 400.569L410.782 400.565L410.289 400.48ZM410.435 399.636L410.928 399.721L410.935 399.679V399.636H410.435ZM410.435 398.848L409.935 398.834V398.848H410.435ZM410.441 398.702L410.94 398.724L410.94 398.724L410.441 398.702ZM410.517 397.601L411.015 397.645L411.015 397.645L410.517 397.601ZM411.245 392.332L411.737 392.419L411.737 392.419L411.245 392.332ZM417.552 369.6L417.081 369.432L417.081 369.432L417.552 369.6ZM420.182 362.243L420.653 362.411L420.653 362.41L420.182 362.243ZM420.183 362.239L419.713 362.07L419.712 362.071L420.183 362.239ZM426.692 343.876L427.165 344.038L427.165 344.038L426.692 343.876ZM427.825 340.463L427.368 340.262L427.357 340.287L427.348 340.313L427.825 340.463ZM440.422 307.377L440.366 306.88L440.043 306.916L439.945 307.226L440.422 307.377ZM448.929 306.521L448.976 307.019L448.976 307.019L448.929 306.521ZM457.957 295.635L457.459 295.681L457.459 295.681L457.957 295.635ZM447.071 286.607L447.117 287.105L447.117 287.105L447.071 286.607ZM445.896 286.718L445.407 286.613L445.265 287.279L445.943 287.215L445.896 286.718ZM438.746 192.086L439.189 191.855L439.189 191.855L438.746 192.086ZM401.437 151.772L401.208 152.217L401.208 152.217L401.437 151.772ZM356.425 141.003L356.428 140.503L356.428 140.503L356.425 141.003ZM281.837 161.512L281.383 161.723L281.612 162.213L282.083 161.947L281.837 161.512ZM275.198 148.517L274.977 148.069L274.504 148.302L274.762 148.762L275.198 148.517ZM284.417 144.011L284.2 143.561L284.198 143.562L284.417 144.011ZM284.42 144.01L284.636 144.461L284.638 144.46L284.42 144.01ZM322.447 124.3L322.203 123.864L322.203 123.864L322.447 124.3ZM395.635 76.1049L395.942 76.4992L395.942 76.4992L395.635 76.1049ZM427.835 47.214L428.227 47.5247L427.835 47.214ZM412.165 34.786L412.557 35.0967L412.557 35.0967L412.165 34.786ZM383.339 60.3315L383.646 60.7258L383.646 60.7258L383.339 60.3315ZM312.669 106.854L312.425 106.417L312.425 106.417L312.669 106.854ZM276.234 125.746L276.015 125.297L276.01 125.299L276.234 125.746ZM276.233 125.746L276.452 126.196L276.457 126.193L276.233 125.746ZM263.98 131.747L263.604 132.078L263.858 132.366L264.202 132.196L263.98 131.747ZM221.052 115.189L221.094 115.687L221.094 115.687L221.052 115.189ZM202.931 118.602L202.443 118.498L202.265 119.325L203.076 119.081L202.931 118.602ZM204.725 110.025L205.215 110.125L205.215 110.125L204.725 110.025ZM208.849 91.2597L208.366 91.1309L208.364 91.1398L208.362 91.1489L208.849 91.2597ZM208.849 91.2592L209.333 91.388L209.335 91.379L209.337 91.37L208.849 91.2592ZM216.6 52.4251L217.095 52.4961L217.095 52.4961L216.6 52.4251ZM217.015 50.3693L216.529 50.2511L216.528 50.2558L217.015 50.3693ZM217.015 50.3676L216.531 50.2426L216.53 50.2494L217.015 50.3676ZM217.016 50.3671L217.5 50.492L217.502 50.4813L217.016 50.3671ZM217.016 50.3645L217.503 50.4788L217.503 50.4779L217.016 50.3645ZM217.554 47.9449L218.044 48.0474L218.044 48.0474L217.554 47.9449ZM218.162 39.7168L217.665 39.7699L217.665 39.7699L218.162 39.7168ZM217.599 37.0848L217.125 37.2444L217.125 37.2446L217.599 37.0848ZM217.594 37.0696L218.068 36.91L218.068 36.9099L217.594 37.0696ZM212.623 31.1941L212.39 31.6364L212.39 31.6364L212.623 31.1941ZM201.831 32.0207L201.533 31.6185L201.533 31.6185L201.831 32.0207ZM199.246 34.756L199.662 35.0336L199.662 35.0336L199.246 34.756ZM197.061 39.3876L197.53 39.561L197.53 39.5609L197.061 39.3876ZM197.025 39.4854L197.494 39.659L197.494 39.6588L197.025 39.4854ZM196.087 42.1061L196.558 42.2741L196.558 42.2725L196.087 42.1061ZM196.087 42.1074L195.616 41.9394L195.615 41.941L196.087 42.1074ZM195.606 43.4631L196.076 43.6323L196.076 43.6323L195.606 43.4631ZM195.031 45.0032L195.496 45.1867L195.496 45.1867L195.031 45.0032ZM194.831 45.4911L194.372 45.2929L194.372 45.2929L194.831 45.4911ZM194.759 45.6522L195.207 45.8754L195.211 45.8658L194.759 45.6522ZM191.615 51.5287L192.052 51.772L192.053 51.7705L191.615 51.5287ZM191.615 51.5292L191.178 51.2859L191.176 51.2888L191.615 51.5292ZM191.614 51.5299L192.052 51.7716L192.053 51.7703L191.614 51.5299ZM191.516 51.7081L191.078 51.4663L191.078 51.4663L191.516 51.7081ZM187.872 58.5863L187.423 58.3663L187.423 58.3663L187.872 58.5863ZM144.896 123.387L144.539 123.037L144.539 123.037L144.896 123.387ZM142.662 125.68L143.02 126.028L143.02 126.028L142.662 125.68ZM129.956 137.493L129.659 137.091L129.659 137.091L129.956 137.493ZM115.684 142.942L115.686 143.442L115.686 143.442L115.684 142.942ZM106.982 141.356L107.19 140.902L107.19 140.902L106.982 141.356ZM89.9517 118.359L89.4545 118.412L89.4545 118.412L89.9517 118.359ZM78.9418 109.442L78.8904 108.945L78.8904 108.945L78.9418 109.442ZM70.0574 120.413L70.5546 120.359L70.5546 120.359L70.0574 120.413ZM98.6989 159.526L98.4907 159.98L98.4907 159.98L98.6989 159.526ZM115.83 162.935L115.828 162.435L115.828 162.435L115.83 162.935ZM141.889 153.582L141.591 153.18L141.591 153.18L141.889 153.582ZM157.208 139.464L156.849 139.116L156.849 139.116L157.208 139.464ZM157.212 139.46L157.571 139.809L157.572 139.807L157.212 139.46ZM157.213 139.46L157.573 139.807L157.575 139.804L157.213 139.46ZM157.213 139.459L156.854 139.111L156.851 139.115L157.213 139.459ZM417.357 313.058L417.826 313.23L418.164 312.31L417.22 312.577L417.357 313.058ZM411.15 328.664L411.525 328.994L411.578 328.934L411.609 328.86L411.15 328.664ZM412.486 314.404L412.616 314.887L412.616 314.887L412.486 314.404ZM325.352 355.927L325.051 355.527L324.743 355.759L324.889 356.116L325.352 355.927ZM338.519 377.893L338.918 377.593L338.918 377.593L338.519 377.893ZM371.381 378.529L371.704 378.91L371.72 378.897L371.734 378.882L371.381 378.529ZM371.381 378.528L371.057 378.147L371.042 378.16L371.028 378.175L371.381 378.528ZM374.592 375.91L374.892 376.309L374.293 375.509L374.592 375.91ZM374.587 375.914L374.288 375.513L374.287 375.514L374.587 375.914ZM374.578 375.92L374.876 376.322L374.879 376.32L374.578 375.92ZM374.576 375.921L374.197 376.247L374.209 376.261L374.223 376.275L374.576 375.921ZM375.072 375.476L374.73 375.111L374.73 375.111L375.072 375.476ZM376.508 374.058L376.866 374.407L376.866 374.407L376.508 374.058ZM380.799 369.447L380.428 369.112L380.428 369.112L380.799 369.447ZM391.881 356.728L391.501 356.404L391.501 356.404L391.881 356.728ZM402.018 344.678L401.634 344.358L401.634 344.358L402.018 344.678ZM402.986 343.514L403.371 343.833L403.406 343.791L403.431 343.742L402.986 343.514ZM403.636 342.242L404.081 342.47L404.081 342.47L403.636 342.242ZM404.676 340.205L405.121 340.432L405.121 340.432L404.676 340.205ZM404.686 340.185L404.241 339.957L404.241 339.958L404.686 340.185ZM410.052 330.122L409.633 329.848L409.633 329.848L410.052 330.122ZM358.264 419.88L358.63 420.221L358.637 420.214L358.643 420.206L358.264 419.88ZM362.563 414.766L362.949 415.083L362.949 415.083L362.563 414.766ZM372.656 401.653L373.063 401.943L374.157 400.407L372.446 401.199L372.656 401.653ZM322.536 389.916L322.136 390.217L322.136 390.217L322.536 389.916ZM309.353 369.111L309.803 368.891L309.511 368.294L309.018 368.74L309.353 369.111ZM306.733 371.514L307.074 371.88L307.074 371.88L306.733 371.514ZM294.033 384.035L293.671 383.689L293.663 383.698L294.033 384.035ZM293.909 384.167L294.272 384.511L294.273 384.511L293.909 384.167ZM293.84 384.24L293.48 383.892L293.48 383.893L293.84 384.24ZM293.718 384.364L293.364 384.011L293.356 384.019L293.718 384.364ZM257.289 432.024L257.719 432.279L257.719 432.279L257.289 432.024ZM242.805 459.457L242.35 459.248L242.35 459.248L242.805 459.457ZM236.871 474.808L236.389 474.673L236.389 474.673L236.871 474.808ZM236.454 476.416L235.967 476.3L235.85 476.795L236.347 476.904L236.454 476.416ZM279.368 471.356L279.23 470.875L279.23 470.875L279.368 471.356ZM282.309 470.512L282.446 470.992L282.468 470.986L282.49 470.978L282.309 470.512ZM343.492 435.095L343.815 435.477L343.829 435.465L343.842 435.453L343.492 435.095ZM345.897 432.718L345.544 432.364L345.544 432.364L345.897 432.718ZM216.523 473.991L216.229 474.396L216.866 474.858L217.014 474.085L216.523 473.991ZM217.607 469.432L217.125 469.297L217.125 469.297L217.607 469.432ZM224.623 451.124L224.169 450.916L224.169 450.916L224.623 451.124ZM240.07 421.849L240.501 422.104L240.501 422.104L240.07 421.849ZM256.881 396.808L257.28 397.11L257.98 396.182L256.825 396.312L256.881 396.808ZM255.508 396.951L255.556 397.449L255.556 397.449L255.508 396.951ZM218.095 390.004L217.836 390.432L217.836 390.432L218.095 390.004ZM190.553 362.398L190.987 362.15L190.116 360.626L190.054 362.38L190.553 362.398ZM204.144 457.953L203.687 458.155L203.687 458.155L204.144 457.953ZM203.191 294.75L202.711 294.612L202.708 294.622L202.706 294.632L203.191 294.75ZM201.341 334.123L201.833 334.031L201.833 334.031L201.341 334.123ZM228.467 372.904L228.208 373.331L228.208 373.331L228.467 372.904ZM253.592 377.043L253.544 376.546L253.544 376.546L253.592 377.043ZM280.547 369.205L280.775 369.65L280.849 369.612L280.906 369.552L280.547 369.205ZM293.1 356.881L292.759 356.515L292.759 356.515L293.1 356.881ZM301.927 349.039L302.251 349.42L302.501 349.208L302.406 348.893L301.927 349.039ZM291.605 303.17L292.101 303.104L292.101 303.104L291.605 303.17ZM289.13 284.033L289.626 283.97L289.626 283.969L289.13 284.033ZM289.13 284.027L288.633 284.089L288.634 284.091L289.13 284.027ZM289.129 284.023L288.631 284.069L288.632 284.077L288.633 284.086L289.129 284.023ZM289.129 284.023L289.627 283.978L289.626 283.965L289.624 283.952L289.129 284.023ZM289.129 284.022L289.624 283.951L289.62 283.925L289.614 283.9L289.129 284.022ZM289.129 284.022L288.633 284.085L288.637 284.114L288.644 284.143L289.129 284.022ZM283.532 242.567L284.027 242.493L284.027 242.493L283.532 242.567ZM272.939 192.765L272.468 192.933L272.468 192.933L272.939 192.765ZM272.544 191.659L273.015 191.49L272.782 190.843L272.238 191.263L272.544 191.659ZM267.209 195.957L267.531 196.34L267.531 196.34L267.209 195.957ZM224.158 246.256L224.572 246.536L224.158 246.256ZM210.173 273.003L209.707 272.823L209.707 272.823L210.173 273.003ZM204.908 288.367L204.428 288.227L204.417 288.262L204.412 288.298L204.908 288.367ZM204.628 289.701L205.11 289.837L205.11 289.837L204.628 289.701ZM318.914 335.869L318.433 336.004L318.624 336.688L319.203 336.277L318.914 335.869ZM311.43 300.529L310.935 300.595L310.935 300.595L311.43 300.529ZM407.278 295.094L407.148 294.611L407.148 294.611L407.278 295.094ZM419.052 291.693L418.904 291.216L418.904 291.216L419.052 291.693ZM420.625 291.203L420.775 291.68L420.775 291.68L420.625 291.203ZM420.649 291.196L420.512 290.715L420.499 290.719L420.649 291.196ZM420.65 291.195L420.528 290.71L420.52 290.712L420.512 290.715L420.65 291.195ZM420.65 291.195L420.772 291.68L420.786 291.677L420.8 291.673L420.65 291.195ZM424.597 289.991L424.736 290.471L425.011 290.392L425.081 290.114L424.597 289.991ZM420.998 201.306L421.442 201.076L421.442 201.076L420.998 201.306ZM392.287 169.556L392.058 170.001L392.058 170.001L392.287 169.556ZM356.298 161.002L356.295 161.502L356.295 161.502L356.298 161.002ZM289.608 180.113L289.355 179.682L288.992 179.895L289.14 180.289L289.608 180.113ZM291.785 186.069L292.256 185.902L292.256 185.902L291.785 186.069ZM303.31 239.593L303.804 239.519L303.804 239.519L303.31 239.593ZM309.008 281.802L309.505 281.741L309.504 281.739L309.008 281.802ZM309.009 281.805L308.513 281.866L308.513 281.868L309.009 281.805ZM309.01 281.813L308.514 281.876L308.514 281.877L309.01 281.813ZM197.446 142.615L197.189 142.187L197.01 142.295L196.961 142.497L197.446 142.615ZM193.721 157.408L193.237 157.282L193.084 157.87L193.691 157.907L193.721 157.408ZM222.747 135.117L222.789 135.615L222.789 135.615L222.747 135.117ZM245.112 141.228L245.334 141.676L246.031 141.33L245.427 140.84L245.112 141.228ZM212.753 154.507L212.613 154.027L212.613 154.027L212.753 154.507ZM204.127 156.63L204.026 156.14L204.026 156.14L204.127 156.63ZM200.708 157.267L200.63 156.773L200.63 156.773L200.708 157.267ZM199.702 157.407L199.76 157.904L199.76 157.904L199.702 157.407ZM199.635 157.416L199.137 157.452L199.137 157.461L199.139 157.471L199.635 157.416ZM199.637 157.416L199.641 157.916L199.696 156.92L199.637 157.416ZM198.534 157.441L198.547 157.94L198.547 157.94L198.534 157.441ZM185.053 103.978C177.604 115.521 169.12 126.569 158.864 137.044L159.579 137.744C169.889 127.213 178.413 116.111 185.893 104.52L185.053 103.978ZM185.61 106.065C185.727 105.492 185.844 104.92 185.963 104.351L184.984 104.147C184.865 104.718 184.747 105.291 184.63 105.865L185.61 106.065ZM180.155 130.964C182.094 122.685 183.913 114.383 185.61 106.065L184.63 105.865C182.935 114.173 181.119 122.466 179.182 130.736L180.155 130.964ZM176.95 134.086C177.928 133.085 178.944 132.134 179.995 131.229L179.342 130.471C178.271 131.394 177.233 132.365 176.235 133.387L176.95 134.086ZM169.822 143.203C171.537 140.278 174.898 136.186 176.95 134.086L176.235 133.387C174.145 135.526 170.727 139.681 168.959 142.697L169.822 143.203ZM166.5 155.853C166.5 150.143 168.566 145.344 169.822 143.203L168.959 142.697C167.639 144.948 165.5 149.921 165.5 155.853H166.5ZM166.5 155.943C166.5 155.913 166.5 155.883 166.5 155.853H165.5C165.5 155.886 165.5 155.919 165.5 155.952L166.5 155.943ZM166.502 156.037C166.501 156.006 166.501 155.974 166.5 155.943L165.5 155.952C165.501 155.987 165.501 156.021 165.502 156.056L166.502 156.037ZM166.519 156.864C166.502 156.593 166.496 156.324 166.502 156.057L165.502 156.036C165.496 156.331 165.502 156.628 165.521 156.927L166.519 156.864ZM170.542 167.542C168.306 164.713 166.789 161.146 166.519 156.864L165.521 156.927C165.804 161.419 167.4 165.179 169.757 168.162L170.542 167.542ZM158.303 208.125C162.735 194.865 166.845 181.474 170.631 167.987L169.668 167.717C165.886 181.188 161.781 194.564 157.354 207.808L158.303 208.125ZM108.75 328.613C130.092 291.251 144.388 249.753 158.303 208.125L157.354 207.808C143.437 249.445 129.168 290.853 107.882 328.117L108.75 328.613ZM106.575 332.522C107.262 331.269 107.976 329.968 108.75 328.613L107.882 328.117C107.103 329.481 106.385 330.789 105.698 332.041L106.575 332.522ZM100.748 341.929C102.96 339.114 104.67 335.994 106.575 332.522L105.698 332.041C103.785 335.528 102.114 338.572 99.9617 341.311L100.748 341.929ZM94.1185 346.523C95.8326 346.476 97.9062 345.546 100.748 341.929L99.9617 341.311C97.2038 344.821 95.3776 345.489 94.0911 345.524L94.1185 346.523ZM84.9147 356.274C84.7526 351.033 88.8727 346.667 94.1185 346.523L94.0911 345.524C88.2924 345.682 83.7359 350.51 83.9152 356.305L84.9147 356.274ZM94.7093 365.509C89.4621 365.652 85.0769 361.517 84.9147 356.274L83.9152 356.305C84.0944 362.099 88.9393 366.667 94.7366 366.508L94.7093 365.509ZM115.715 353.691C111.412 359.169 104.663 365.236 94.7093 365.509L94.7366 366.508C105.126 366.224 112.122 359.883 116.502 354.309L115.715 353.691ZM123.831 340.668C121.795 344.394 118.992 349.521 115.715 353.691L116.502 354.309C119.838 350.062 122.679 344.861 124.708 341.147L123.831 340.668ZM125.267 338.073C124.845 338.812 124.363 339.693 123.831 340.668L124.708 341.147C125.242 340.17 125.719 339.298 126.135 338.569L125.267 338.073ZM176.333 214.201C162.473 255.669 147.661 298.871 125.267 338.073L126.135 338.569C148.585 299.269 163.424 255.977 177.282 214.518L176.333 214.201ZM187.905 176.814C184.323 189.367 180.466 201.839 176.333 214.201L177.282 214.518C181.419 202.142 185.281 189.656 188.866 177.088L187.905 176.814ZM195.157 176.971C193.291 176.934 190.959 176.809 188.455 176.456L188.316 177.446C190.871 177.806 193.244 177.933 195.137 177.971L195.157 176.971ZM199.803 177.915C199.827 177.915 199.845 177.915 199.859 177.915C199.866 177.916 199.872 177.916 199.876 177.916C199.878 177.916 199.88 177.916 199.881 177.916C199.882 177.916 199.882 177.916 199.882 177.916C199.882 177.916 199.882 177.916 199.882 177.916C199.881 177.916 199.88 177.916 199.879 177.916C199.878 177.916 199.874 177.915 199.869 177.915C199.864 177.915 199.853 177.913 199.838 177.911C199.83 177.91 199.817 177.908 199.8 177.904C199.788 177.901 199.751 177.892 199.707 177.872C199.684 177.86 199.63 177.827 199.6 177.804C199.557 177.764 199.472 177.646 199.439 177.564C199.336 177.228 199.596 177.032 199.629 177.009C199.69 176.966 199.747 176.947 199.759 176.943C199.781 176.936 199.799 176.932 199.808 176.93C199.826 176.926 199.84 176.924 199.845 176.923C199.851 176.923 199.855 176.922 199.858 176.922C199.863 176.921 199.852 176.922 199.81 176.924C199.774 176.926 199.725 176.928 199.664 176.93C199.419 176.938 198.997 176.948 198.488 176.958C197.468 176.977 196.115 176.99 195.157 176.971L195.137 177.971C196.115 177.991 197.484 177.977 198.506 177.958C199.018 177.948 199.446 177.938 199.697 177.929C199.812 177.925 199.914 177.921 199.961 177.917C199.964 177.916 199.991 177.914 200.023 177.907C200.033 177.904 200.051 177.9 200.073 177.893C200.086 177.889 200.143 177.87 200.205 177.827C200.237 177.804 200.498 177.607 200.395 177.271C200.362 177.19 200.277 177.071 200.234 177.031C200.203 177.008 200.149 176.975 200.126 176.963C200.082 176.943 200.045 176.934 200.032 176.931C200.015 176.927 200.001 176.924 199.993 176.923C199.976 176.921 199.963 176.919 199.956 176.919C199.942 176.917 199.929 176.917 199.922 176.917C199.894 176.916 199.852 176.915 199.803 176.915V177.915ZM208.087 175.724C205.376 176.286 201.966 176.915 199.803 176.915V177.915C202.086 177.915 205.598 177.261 208.29 176.703L208.087 175.724ZM218.184 173.236C214.883 174.193 211.21 175.076 208.087 175.724L208.29 176.703C211.434 176.051 215.133 175.162 218.462 174.196L218.184 173.236ZM257.075 157.049C244.708 163.276 232.403 169.112 218.184 173.236L218.462 174.196C232.774 170.046 245.147 164.174 257.525 157.942L257.075 157.049ZM265.303 172.238C262.979 167.08 260.469 162.056 257.735 157.248L256.865 157.742C259.582 162.519 262.078 167.514 264.391 172.648L265.303 172.238ZM254.668 181.025C258.049 178.185 261.544 175.454 265.14 172.848L264.553 172.038C260.937 174.659 257.424 177.405 254.025 180.26L254.668 181.025ZM207.997 235.343C220.974 216.127 236.394 196.373 254.668 181.025L254.025 180.26C235.648 195.694 220.167 215.535 207.169 234.784L207.997 235.343ZM191.989 265.963C196.166 255.174 201.585 244.838 207.997 235.343L207.169 234.784C200.715 244.34 195.26 254.742 191.056 265.602L191.989 265.963ZM184.359 289.669C186.38 281.491 189.045 273.566 191.989 265.963L191.056 265.602C188.101 273.233 185.422 281.199 183.388 289.429L184.359 289.669ZM182.314 296.647C182.976 294.402 183.657 292.093 184.354 289.688L183.393 289.41C182.697 291.812 182.017 294.119 181.355 296.364L182.314 296.647ZM172.039 346.145C173.948 325.016 177.675 312.377 182.314 296.647L181.355 296.364C176.712 312.107 172.961 324.824 171.043 346.055L172.039 346.145ZM186.313 465.845C175.613 441.668 167.824 392.793 172.039 346.145L171.043 346.055C166.818 392.824 174.612 441.878 185.398 466.249L186.313 465.845ZM211.929 493.991C201.073 488.4 192.223 479.198 186.313 465.845L185.398 466.249C191.394 479.797 200.399 489.178 211.472 494.88L211.929 493.991ZM246.422 500.718C234.589 501.169 222.615 499.494 211.929 493.991L211.472 494.88C222.355 500.485 234.515 502.172 246.46 501.718L246.422 500.718ZM313.931 481.948C294.915 490.493 269.853 499.827 246.422 500.718L246.46 501.718C270.093 500.818 295.301 491.416 314.341 482.86L313.931 481.948ZM356.631 449.521C343.424 462.416 327.938 475.654 313.931 481.948L314.341 482.86C328.523 476.488 344.116 463.138 357.33 450.237L356.631 449.521ZM357.417 448.848C357.164 449.065 356.91 449.282 356.657 449.498L357.305 450.259C357.559 450.043 357.814 449.825 358.068 449.606L357.417 448.848ZM372.813 432.869C367.287 439.271 361.714 445.158 357.417 448.848L358.068 449.606C362.423 445.868 368.034 439.936 373.57 433.522L372.813 432.869ZM387.453 416.623C383.686 420.892 378.643 426.589 372.825 432.855L373.557 433.536C379.385 427.26 384.435 421.555 388.203 417.285L387.453 416.623ZM386.841 432.753C387.252 427.135 387.781 421.779 388.325 417.01L387.331 416.897C386.786 421.677 386.255 427.047 385.843 432.68L386.841 432.753ZM386.315 462.7C385.769 452.923 386.138 442.363 386.841 432.753L385.843 432.68C385.139 442.313 384.767 452.919 385.317 462.756L386.315 462.7ZM391.85 489.568C388.291 482.058 386.848 472.225 386.315 462.7L385.317 462.756C385.851 472.314 387.302 482.306 390.947 489.997L391.85 489.568ZM404.504 494.085C399.762 496.332 394.097 494.31 391.85 489.568L390.947 489.997C393.43 495.237 399.692 497.472 404.932 494.988L404.504 494.085ZM409.02 481.432C411.267 486.173 409.245 491.838 404.504 494.085L404.932 494.988C410.172 492.505 412.407 486.244 409.924 481.003L409.02 481.432ZM405.286 461.64C405.783 470.548 407.086 477.351 409.02 481.432L409.924 481.003C408.076 477.104 406.78 470.46 406.284 461.584L405.286 461.64ZM405.79 434.139C405.12 443.312 404.802 452.984 405.286 461.64L406.284 461.584C405.804 452.987 406.119 443.362 406.788 434.212L405.79 434.139ZM408.304 410.347C407.463 416.535 406.459 424.998 405.79 434.139L406.788 434.212C407.454 425.097 408.456 416.655 409.295 410.482L408.304 410.347ZM409.37 403.022C409.1 404.75 408.723 407.258 408.304 410.347L409.295 410.482C409.713 407.4 410.089 404.898 410.358 403.177L409.37 403.022ZM409.688 401.045C409.614 401.491 409.506 402.159 409.37 403.022L410.358 403.177C410.493 402.316 410.601 401.651 410.674 401.208L409.688 401.045ZM409.771 400.545C409.753 400.654 409.724 400.822 409.688 401.045L410.674 401.208C410.711 400.986 410.739 400.82 410.757 400.712L409.771 400.545ZM409.791 400.426L409.771 400.545L410.757 400.712L410.777 400.594L409.791 400.426ZM409.796 400.4L409.791 400.426L410.777 400.594L410.781 400.568L409.796 400.4ZM409.796 400.398L409.796 400.4L410.781 400.568L410.782 400.566L409.796 400.398ZM409.797 400.391L409.797 400.393L410.781 400.57L410.781 400.569L409.797 400.391ZM409.943 399.551L409.797 400.395L410.782 400.565L410.928 399.721L409.943 399.551ZM409.935 398.848V399.636H410.935V398.848H409.935ZM409.941 398.68C409.938 398.754 409.936 398.805 409.935 398.834L410.935 398.862C410.936 398.838 410.937 398.792 410.94 398.724L409.941 398.68ZM410.019 397.557C409.971 398.102 409.95 398.477 409.941 398.68L410.94 398.724C410.948 398.535 410.968 398.176 411.015 397.645L410.019 397.557ZM410.752 392.245C410.319 394.695 410.115 396.468 410.019 397.557L411.015 397.645C411.108 396.585 411.309 394.841 411.737 392.419L410.752 392.245ZM417.081 369.432C413.404 379.726 411.619 387.347 410.752 392.245L411.737 392.419C412.594 387.578 414.364 380.012 418.023 369.768L417.081 369.432ZM419.711 362.074C418.897 364.35 418.021 366.801 417.081 369.432L418.023 369.768C418.962 367.138 419.839 364.687 420.653 362.411L419.711 362.074ZM419.712 362.071L419.711 362.075L420.653 362.41L420.655 362.406L419.712 362.071ZM426.219 343.714C424.886 347.605 422.729 353.637 419.713 362.07L420.654 362.407C423.669 353.977 425.829 347.938 427.165 344.038L426.219 343.714ZM427.348 340.313C427.029 341.33 426.641 342.484 426.219 343.714L427.165 344.038C427.587 342.806 427.979 341.642 428.302 340.614L427.348 340.313ZM439.945 307.226C436.397 318.49 432.034 329.641 427.368 340.262L428.283 340.665C432.96 330.019 437.337 318.833 440.899 307.527L439.945 307.226ZM448.883 306.023C445.33 306.355 442.572 306.631 440.366 306.88L440.478 307.874C442.674 307.626 445.425 307.35 448.976 307.019L448.883 306.023ZM457.459 295.681C457.946 300.905 454.107 305.535 448.883 306.023L448.976 307.019C454.75 306.48 458.993 301.362 458.455 295.588L457.459 295.681ZM447.117 287.105C452.341 286.618 456.971 290.457 457.459 295.681L458.455 295.588C457.916 289.815 452.798 285.571 447.024 286.109L447.117 287.105ZM445.943 287.215C446.327 287.179 446.718 287.142 447.117 287.105L447.024 286.109C446.625 286.147 446.233 286.184 445.849 286.22L445.943 287.215ZM438.302 192.316C452.994 220.597 451.722 257.013 445.407 286.613L446.385 286.822C452.718 257.135 454.04 220.44 439.189 191.855L438.302 192.316ZM401.208 152.217C417.577 160.638 430.511 177.321 438.302 192.316L439.189 191.855C431.349 176.765 418.291 159.881 401.666 151.328L401.208 152.217ZM356.422 141.503C371.456 141.598 387.457 145.142 401.208 152.217L401.666 151.328C387.762 144.174 371.605 140.599 356.428 140.503L356.422 141.503ZM282.083 161.947C304.69 149.143 330.191 141.336 356.422 141.503L356.428 140.503C329.994 140.335 304.323 148.201 281.59 161.076L282.083 161.947ZM274.762 148.762C277.138 152.999 279.338 157.337 281.383 161.723L282.29 161.3C280.235 156.894 278.024 152.534 275.634 148.273L274.762 148.762ZM284.198 143.562C281.286 144.98 278.253 146.457 274.977 148.069L275.419 148.966C278.692 147.355 281.723 145.879 284.636 144.461L284.198 143.562ZM284.203 143.56L284.2 143.561L284.634 144.462L284.636 144.461L284.203 143.56ZM322.203 123.864C305.985 132.954 296.094 137.769 284.201 143.561L284.638 144.46C296.537 138.666 306.448 133.84 322.692 124.736L322.203 123.864ZM395.327 75.7106C377.726 89.4318 353.179 106.503 322.203 123.864L322.692 124.736C353.715 107.349 378.304 90.2496 395.942 76.4992L395.327 75.7106ZM427.443 46.9033C423.781 51.5214 412.683 62.1807 395.327 75.7106L395.942 76.4992C413.31 62.9603 424.486 52.2408 428.227 47.5247L427.443 46.9033ZM425.903 33.5568C430.014 36.8171 430.704 42.7925 427.443 46.9033L428.227 47.5247C431.83 42.9812 431.068 36.3768 426.525 32.7733L425.903 33.5568ZM412.557 35.0967C415.817 30.986 421.792 30.2965 425.903 33.5568L426.525 32.7733C421.981 29.1698 415.377 29.9319 411.773 34.4753L412.557 35.0967ZM383.646 60.7258C400.783 47.3666 410.373 37.8501 412.557 35.0967L411.773 34.4753C409.667 37.1305 400.157 46.5867 383.031 59.9372L383.646 60.7258ZM312.914 107.29C343.004 90.4254 366.754 73.8939 383.646 60.7258L383.031 59.9372C366.177 73.0761 342.468 89.5792 312.425 106.417L312.914 107.29ZM276.452 126.196C287.979 120.588 297.13 116.136 312.914 107.29L312.425 106.417C296.666 115.249 287.536 119.692 276.015 125.297L276.452 126.196ZM276.457 126.193L276.457 126.193L276.01 125.299L276.01 125.299L276.457 126.193ZM264.202 132.196C268.739 129.949 272.72 128.012 276.452 126.196L276.015 125.297C272.282 127.113 268.298 129.051 263.758 131.299L264.202 132.196ZM221.094 115.687C238.08 114.242 252.72 119.694 263.604 132.078L264.355 131.417C253.245 118.776 238.285 113.221 221.009 114.691L221.094 115.687ZM203.076 119.081C209.249 117.223 215.449 116.167 221.094 115.687L221.009 114.691C215.305 115.176 209.036 116.243 202.787 118.123L203.076 119.081ZM204.235 109.925C203.651 112.784 203.054 115.642 202.443 118.498L203.42 118.707C204.033 115.848 204.631 112.987 205.215 110.125L204.235 109.925ZM208.362 91.1489C206.898 97.592 205.465 103.896 204.235 109.925L205.215 110.125C206.442 104.109 207.872 97.8158 209.337 91.3705L208.362 91.1489ZM208.366 91.1303L208.366 91.1309L209.332 91.3885L209.333 91.388L208.366 91.1303ZM216.105 52.3541C214.266 65.1659 211.253 78.4281 208.362 91.1484L209.337 91.37C212.226 78.6574 215.249 65.3551 217.095 52.4961L216.105 52.3541ZM216.528 50.2558C216.34 51.0629 216.212 51.6135 216.105 52.3541L217.095 52.4961C217.194 51.8041 217.313 51.2929 217.502 50.4827L216.528 50.2558ZM216.53 50.2494L216.529 50.2511L217.501 50.4875L217.501 50.4858L216.53 50.2494ZM216.531 50.2421L216.531 50.2426L217.5 50.4925L217.5 50.492L216.531 50.2421ZM216.529 50.2502L216.529 50.2528L217.502 50.4813L217.503 50.4788L216.529 50.2502ZM217.065 47.8425C216.84 48.9162 216.668 49.6571 216.529 50.2511L217.503 50.4779C217.642 49.8821 217.817 49.1324 218.044 48.0474L217.065 47.8425ZM217.665 39.7699C218.006 42.9604 217.467 45.9223 217.065 47.8425L218.044 48.0474C218.45 46.1064 219.017 43.0171 218.659 39.6636L217.665 39.7699ZM217.125 37.2446C217.485 38.3117 217.61 39.2578 217.665 39.7699L218.659 39.6636C218.601 39.1192 218.466 38.0913 218.073 36.925L217.125 37.2446ZM217.12 37.2291L217.125 37.2444L218.073 36.9252L218.068 36.91L217.12 37.2291ZM212.39 31.6364C215.849 33.4598 216.911 36.6101 217.12 37.2293L218.068 36.9099C217.84 36.2352 216.671 32.7631 212.856 30.7518L212.39 31.6364ZM202.128 32.4229C203.599 31.3359 207.705 29.1668 212.39 31.6364L212.856 30.7518C207.672 28.019 203.136 30.435 201.533 31.6185L202.128 32.4229ZM199.662 35.0336C199.932 34.628 200.733 33.4534 202.128 32.4229L201.533 31.6185C199.999 32.7519 199.122 34.0403 198.83 34.4785L199.662 35.0336ZM197.53 39.5609C197.88 38.6157 198.64 36.5638 199.662 35.0336L198.83 34.4785C197.733 36.122 196.936 38.2847 196.592 39.2142L197.53 39.5609ZM197.494 39.6588L197.53 39.561L196.592 39.2141L196.556 39.312L197.494 39.6588ZM196.558 42.2725C196.869 41.3941 197.211 40.4227 197.494 39.659L196.556 39.3118C196.27 40.0842 195.925 41.0635 195.616 41.9397L196.558 42.2725ZM196.557 42.2754L196.558 42.2741L195.616 41.9381L195.616 41.9394L196.557 42.2754ZM196.076 43.6323C196.214 43.2496 196.38 42.7769 196.558 42.2738L195.615 41.941C195.437 42.445 195.271 42.9146 195.135 43.2939L196.076 43.6323ZM195.496 45.1867C195.665 44.7607 195.857 44.2426 196.076 43.6323L195.135 43.2939C194.917 43.9003 194.729 44.4075 194.566 44.8197L195.496 45.1867ZM195.29 45.6894C195.345 45.5625 195.414 45.3966 195.496 45.1867L194.566 44.8197C194.486 45.0224 194.422 45.1781 194.372 45.2929L195.29 45.6894ZM195.211 45.8658C195.211 45.8662 195.214 45.8598 195.218 45.8515C195.222 45.843 195.227 45.8314 195.234 45.8167C195.247 45.7873 195.266 45.7453 195.29 45.6893L194.372 45.2929C194.329 45.3924 194.308 45.4368 194.307 45.4386L195.211 45.8658ZM192.053 51.7705C193.212 49.6717 194.255 47.7837 195.207 45.8753L194.312 45.429C193.371 47.3153 192.339 49.1844 191.177 51.287L192.053 51.7705ZM192.052 51.7725L192.052 51.772L191.178 51.2854L191.178 51.2859L192.052 51.7725ZM192.053 51.7703L192.053 51.7696L191.176 51.2888L191.176 51.2895L192.053 51.7703ZM191.954 51.9498L192.052 51.7716L191.177 51.2881L191.078 51.4663L191.954 51.9498ZM188.321 58.8062C189.509 56.3818 190.789 54.0584 191.954 51.9498L191.078 51.4663C189.915 53.573 188.623 55.9168 187.423 58.3663L188.321 58.8062ZM145.253 123.737C163.88 104.712 176.309 83.3289 188.321 58.8062L187.423 58.3663C175.428 82.8534 163.055 104.125 144.539 123.037L145.253 123.737ZM143.02 126.028C143.749 125.279 144.492 124.515 145.253 123.737L144.539 123.037C143.776 123.816 143.032 124.582 142.303 125.331L143.02 126.028ZM130.253 137.895C134.629 134.662 138.573 130.603 143.02 126.028L142.303 125.331C137.843 129.919 133.957 133.915 129.659 137.091L130.253 137.895ZM115.686 143.442C120.79 143.423 125.398 141.482 130.253 137.895L129.659 137.091C124.911 140.599 120.506 142.424 115.682 142.442L115.686 143.442ZM106.774 141.811C109.37 143 111.949 143.456 115.686 143.442L115.682 142.442C112.042 142.456 109.617 142.013 107.19 140.902L106.774 141.811ZM89.4545 118.412C90.4956 128.152 97.4028 137.519 106.774 141.811L107.19 140.902C98.122 136.749 91.4504 127.676 90.4489 118.305L89.4545 118.412ZM78.9931 109.94C84.2128 109.401 88.8968 113.194 89.4545 118.412L90.4489 118.305C89.8326 112.54 84.6581 108.349 78.8904 108.945L78.9931 109.94ZM70.5546 120.359C69.9971 115.143 73.7749 110.478 78.9931 109.94L78.8904 108.945C73.1214 109.541 68.9439 114.699 69.5603 120.466L70.5546 120.359ZM98.9071 159.071C83.757 152.133 72.3495 137.152 70.5546 120.359L69.5603 120.466C71.3948 137.629 83.0389 152.904 98.4907 159.98L98.9071 159.071ZM115.828 162.435C110.262 162.456 104.747 161.746 98.9071 159.071L98.4907 159.98C104.501 162.733 110.17 163.456 115.832 163.435L115.828 162.435ZM141.591 153.18C134.722 158.256 126.265 162.396 115.828 162.435L115.832 163.435C126.549 163.394 135.21 159.139 142.186 153.984L141.591 153.18ZM156.849 139.116C152.477 143.627 147.317 148.95 141.591 153.18L142.186 153.984C147.988 149.697 153.204 144.314 157.567 139.812L156.849 139.116ZM156.853 139.112L156.849 139.116L157.567 139.812L157.571 139.809L156.853 139.112ZM156.853 139.113L156.852 139.114L157.572 139.807L157.573 139.807L156.853 139.113ZM156.851 139.115L156.85 139.116L157.575 139.804L157.576 139.804L156.851 139.115ZM158.864 137.044C158.215 137.707 157.544 138.399 156.854 139.111L157.572 139.807C158.263 139.095 158.931 138.405 159.579 137.744L158.864 137.044ZM416.887 312.886C414.957 318.146 412.871 323.356 410.69 328.468L411.609 328.86C413.797 323.735 415.889 318.509 417.826 313.23L416.887 312.886ZM412.616 314.887C414.414 314.402 416.03 313.954 417.493 313.539L417.22 312.577C415.761 312.991 414.149 313.438 412.355 313.922L412.616 314.887ZM325.652 356.327C351.6 336.847 380.961 323.424 412.616 314.887L412.355 313.922C380.596 322.487 351.115 335.961 325.051 355.527L325.652 356.327ZM338.918 377.593C332.469 369.019 328.656 362.695 325.815 355.738L324.889 356.116C327.774 363.18 331.64 369.58 338.119 378.194L338.918 377.593ZM357.899 384.5C349.864 384.5 342.62 382.514 338.918 377.593L338.119 378.194C342.115 383.506 349.78 385.5 357.899 385.5V384.5ZM371.057 378.148C367.242 381.386 363.551 384.5 357.899 384.5V385.5C363.965 385.5 367.918 382.124 371.704 378.91L371.057 378.148ZM371.028 378.175L371.027 378.175L371.734 378.882L371.735 378.882L371.028 378.175ZM374.292 375.51C373.18 376.345 372.113 377.251 371.057 378.147L371.705 378.91C372.764 378.01 373.809 377.124 374.892 376.309L374.292 375.51ZM374.886 376.314L374.891 376.311L374.293 375.509L374.288 375.513L374.886 376.314ZM374.879 376.32L374.887 376.313L374.287 375.514L374.278 375.521L374.879 376.32ZM374.223 376.275C374.337 376.389 374.467 376.414 374.531 376.419C374.598 376.425 374.65 376.416 374.675 376.411C374.726 376.401 374.763 376.385 374.775 376.38C374.803 376.368 374.824 376.356 374.829 376.353C374.844 376.344 374.855 376.336 374.858 376.334C374.867 376.329 374.873 376.324 374.876 376.322L374.28 375.519C374.282 375.518 374.288 375.513 374.296 375.508C374.298 375.506 374.309 375.498 374.324 375.49C374.329 375.487 374.35 375.475 374.378 375.462C374.39 375.457 374.427 375.441 374.478 375.431C374.503 375.426 374.555 375.417 374.622 375.423C374.686 375.429 374.816 375.454 374.93 375.568L374.223 376.275ZM374.73 375.111C374.562 375.269 374.442 375.376 374.366 375.443C374.327 375.477 374.3 375.5 374.282 375.515C374.273 375.523 374.266 375.528 374.261 375.533C374.259 375.535 374.255 375.538 374.251 375.542C374.25 375.543 374.244 375.547 374.238 375.553C374.236 375.555 374.226 375.564 374.214 375.577C374.21 375.581 374.191 375.601 374.171 375.628C374.164 375.639 374.136 375.677 374.113 375.733C374.102 375.765 374.082 375.848 374.077 375.899C374.08 375.979 374.136 376.158 374.197 376.247L374.956 375.596C375.017 375.685 375.073 375.863 375.076 375.943C375.071 375.995 375.051 376.078 375.04 376.109C375.017 376.165 374.989 376.204 374.982 376.214C374.962 376.242 374.943 376.261 374.939 376.265C374.927 376.278 374.917 376.287 374.916 376.289C374.912 376.292 374.91 376.294 374.908 376.295C374.907 376.296 374.906 376.297 374.905 376.298C374.904 376.299 374.904 376.299 374.906 376.297C374.91 376.294 374.919 376.287 374.929 376.278C374.95 376.26 374.982 376.233 375.025 376.195C375.11 376.12 375.238 376.006 375.414 375.841L374.73 375.111ZM376.151 373.708C375.567 374.306 375.094 374.77 374.73 375.111L375.414 375.841C375.792 375.487 376.276 375.011 376.866 374.407L376.151 373.708ZM380.428 369.112C378.768 370.952 377.318 372.513 376.151 373.708L376.866 374.407C378.046 373.199 379.507 371.626 381.171 369.782L380.428 369.112ZM391.501 356.404C387.684 360.885 383.74 365.441 380.428 369.112L381.171 369.782C384.492 366.1 388.443 361.536 392.262 357.052L391.501 356.404ZM401.634 344.358C398.945 347.589 395.308 351.934 391.501 356.404L392.262 357.052C396.072 352.579 399.712 348.23 402.403 344.998L401.634 344.358ZM402.601 343.194C402.295 343.563 401.972 343.952 401.634 344.358L402.403 344.998C402.741 344.591 403.064 344.202 403.371 343.833L402.601 343.194ZM403.431 343.742C403.653 343.309 403.869 342.885 404.081 342.47L403.191 342.015C402.979 342.429 402.762 342.853 402.541 343.286L403.431 343.742ZM404.081 342.47C404.435 341.778 404.782 341.097 405.121 340.432L404.23 339.978C403.891 340.643 403.544 341.323 403.191 342.015L404.081 342.47ZM405.121 340.432L405.132 340.411L404.241 339.958L404.23 339.978L405.121 340.432ZM405.132 340.412C407.484 335.798 409.428 331.988 410.47 330.396L409.633 329.848C408.553 331.499 406.576 335.379 404.241 339.957L405.132 340.412ZM410.47 330.396C410.624 330.161 410.995 329.598 411.525 328.994L410.774 328.334C410.196 328.992 409.794 329.602 409.633 329.848L410.47 330.396ZM358.643 420.206C360.064 418.556 361.508 416.839 362.949 415.083L362.176 414.449C360.74 416.198 359.301 417.909 357.885 419.554L358.643 420.206ZM362.949 415.083C366.693 410.523 370.196 405.971 373.063 401.943L372.249 401.363C369.397 405.369 365.908 409.903 362.176 414.449L362.949 415.083ZM372.446 401.199C368.399 403.074 363.512 404.5 357.899 404.5V405.5C363.685 405.5 368.716 404.03 372.866 402.107L372.446 401.199ZM357.899 404.5C348.252 404.5 332.541 402.385 322.936 389.616L322.136 390.217C332.037 403.379 348.173 405.5 357.899 405.5V404.5ZM322.936 389.616C317.242 382.047 313.085 375.615 309.803 368.891L308.904 369.33C312.223 376.129 316.42 382.618 322.136 390.217L322.936 389.616ZM309.018 368.74C308.138 369.534 307.263 370.337 306.392 371.148L307.074 371.88C307.941 371.072 308.812 370.273 309.688 369.482L309.018 368.74ZM306.392 371.148C302.039 375.204 297.792 379.384 293.671 383.689L294.394 384.381C298.501 380.09 302.734 375.923 307.074 371.88L306.392 371.148ZM293.663 383.698C293.625 383.74 293.586 383.782 293.546 383.824L294.273 384.511C294.316 384.465 294.359 384.419 294.402 384.372L293.663 383.698ZM293.546 383.824C293.524 383.847 293.502 383.87 293.48 383.892L294.199 384.588C294.224 384.562 294.248 384.537 294.272 384.511L293.546 383.824ZM293.48 383.893C293.442 383.932 293.403 383.972 293.364 384.011L294.071 384.718C294.114 384.675 294.157 384.631 294.2 384.587L293.48 383.893ZM293.356 384.019C279.514 398.523 267.1 414.438 256.858 431.77L257.719 432.279C267.918 415.02 280.283 399.165 294.079 384.71L293.356 384.019ZM256.858 431.77C254.022 436.57 247.535 447.936 242.35 459.248L243.259 459.665C248.423 448.398 254.89 437.066 257.719 432.279L256.858 431.77ZM242.35 459.248C239.744 464.934 237.608 470.306 236.389 474.673L237.352 474.942C238.55 470.648 240.663 465.331 243.259 459.665L242.35 459.248ZM236.389 474.673C236.227 475.252 236.087 475.794 235.967 476.3L236.94 476.531C237.057 476.039 237.194 475.509 237.352 474.942L236.389 474.673ZM236.347 476.904C250.867 480.078 262.554 476.709 279.506 471.836L279.23 470.875C262.241 475.759 250.796 479.039 236.561 475.927L236.347 476.904ZM279.506 471.836C280.468 471.56 281.448 471.278 282.446 470.992L282.171 470.031C281.172 470.317 280.192 470.599 279.23 470.875L279.506 471.836ZM282.49 470.978C308.685 460.787 326.165 450.427 343.815 435.477L343.169 434.714C325.613 449.584 308.231 459.89 282.127 470.046L282.49 470.978ZM343.842 435.453C344.647 434.664 345.449 433.87 346.25 433.072L345.544 432.364C344.745 433.16 343.945 433.952 343.142 434.738L343.842 435.453ZM346.25 433.072C350.621 428.712 354.791 424.35 358.63 420.221L357.898 419.54C354.065 423.662 349.904 428.015 345.544 432.364L346.25 433.072ZM217.014 474.085C217.303 472.571 217.673 471.054 218.088 469.566L217.125 469.297C216.704 470.806 216.327 472.35 216.032 473.897L217.014 474.085ZM218.088 469.566C219.696 463.804 222.299 457.396 225.078 451.332L224.169 450.916C221.381 456.999 218.754 463.462 217.125 469.297L218.088 469.566ZM225.078 451.332C230.663 439.145 237.53 427.13 240.501 422.104L239.64 421.595C236.662 426.634 229.775 438.683 224.169 450.916L225.078 451.332ZM240.501 422.104C245.636 413.414 251.258 405.084 257.28 397.11L256.482 396.507C250.438 404.51 244.795 412.871 239.64 421.595L240.501 422.104ZM256.825 396.312C256.37 396.362 255.915 396.41 255.46 396.454L255.556 397.449C256.016 397.405 256.476 397.357 256.937 397.305L256.825 396.312ZM255.46 396.454C242.903 397.662 229.318 396.226 218.355 389.577L217.836 390.432C229.051 397.234 242.879 398.669 255.556 397.449L255.46 396.454ZM218.355 389.577C206.714 382.516 197.442 373.439 190.987 362.15L190.119 362.646C196.668 374.1 206.068 383.294 217.836 390.432L218.355 389.577ZM190.054 362.38C188.645 401.823 195.608 439.901 203.687 458.155L204.602 457.751C196.603 439.678 189.647 401.763 191.053 362.416L190.054 362.38ZM203.687 458.155C206.999 465.639 211.306 470.823 216.229 474.396L216.816 473.587C212.051 470.128 207.85 465.09 204.602 457.751L203.687 458.155ZM202.706 294.632C199.477 307.866 198.379 321.072 200.85 334.216L201.833 334.031C199.395 321.064 200.473 308.007 203.677 294.869L202.706 294.632ZM200.85 334.216C204.173 351.891 213.47 364.392 228.208 373.331L228.727 372.476C214.217 363.675 205.101 351.411 201.833 334.031L200.85 334.216ZM228.208 373.331C234.389 377.08 243.363 378.53 253.64 377.541L253.544 376.546C243.388 377.523 234.657 376.073 228.727 372.476L228.208 373.331ZM253.64 377.541C263.238 376.617 272.986 373.648 280.775 369.65L280.318 368.76C272.64 372.702 263.015 375.634 253.544 376.546L253.64 377.541ZM280.906 369.552C284.987 365.326 289.171 361.225 293.441 357.247L292.759 356.515C288.477 360.505 284.28 364.619 280.187 368.857L280.906 369.552ZM293.441 357.247C296.331 354.554 299.269 351.945 302.251 349.42L301.604 348.657C298.61 351.192 295.661 353.811 292.759 356.515L293.441 357.247ZM302.406 348.893C297.918 334.141 294.156 318.526 292.101 303.104L291.11 303.236C293.173 318.726 296.951 334.395 301.449 349.184L302.406 348.893ZM292.101 303.104C291.283 296.967 290.464 290.543 289.626 283.97L288.634 284.096C289.472 290.669 290.292 297.096 291.11 303.236L292.101 303.104ZM289.626 283.969L289.625 283.963L288.634 284.091L288.634 284.097L289.626 283.969ZM289.626 283.965L289.625 283.961L288.633 284.086L288.633 284.089L289.626 283.965ZM289.627 283.978L289.627 283.978L288.631 284.068L288.631 284.069L289.627 283.978ZM289.624 283.952L289.624 283.951L288.634 284.092L288.634 284.094L289.624 283.952ZM289.614 283.9L289.614 283.9L288.644 284.143L288.644 284.143L289.614 283.9ZM289.625 283.958C287.892 270.363 286.077 256.13 284.027 242.493L283.038 242.642C285.086 256.266 286.899 270.488 288.633 284.085L289.625 283.958ZM284.027 242.493C280.968 222.149 277.523 204.174 273.41 192.598L272.468 192.933C276.545 204.407 279.978 222.295 283.038 242.642L284.027 242.493ZM273.41 192.598C273.279 192.228 273.147 191.859 273.015 191.49L272.073 191.828C272.206 192.196 272.337 192.564 272.468 192.933L273.41 192.598ZM272.238 191.263C270.427 192.663 268.642 194.101 266.888 195.574L267.531 196.34C269.275 194.875 271.049 193.446 272.85 192.055L272.238 191.263ZM266.888 195.574C250.572 209.278 236.304 227.376 223.743 245.977L224.572 246.536C237.111 227.968 251.319 209.957 267.531 196.34L266.888 195.574ZM223.743 245.977C218.123 254.3 213.366 263.37 209.707 272.823L210.639 273.184C214.272 263.802 218.993 254.798 224.572 246.536L223.743 245.977ZM209.707 272.823C207.717 277.961 205.93 283.097 204.428 288.227L205.387 288.508C206.88 283.41 208.658 278.302 210.639 273.184L209.707 272.823ZM204.412 288.298C204.354 288.721 204.266 289.144 204.147 289.566L205.11 289.837C205.241 289.371 205.338 288.903 205.403 288.436L204.412 288.298ZM204.147 289.566C203.656 291.315 203.178 292.993 202.711 294.612L203.672 294.889C204.139 293.269 204.618 291.588 205.11 289.837L204.147 289.566ZM319.396 335.734C316.122 324.042 313.477 312.104 311.926 300.463L310.935 300.595C312.493 312.292 315.149 324.278 318.433 336.004L319.396 335.734ZM407.148 294.611C375.455 303.159 345.541 316.392 318.625 335.461L319.203 336.277C346.01 317.285 375.814 304.098 407.408 295.577L407.148 294.611ZM418.904 291.216C416.152 292.069 412.537 293.158 407.148 294.611L407.408 295.577C412.812 294.12 416.439 293.027 419.2 292.171L418.904 291.216ZM420.476 290.726C419.964 290.886 419.441 291.049 418.904 291.216L419.2 292.171C419.739 292.004 420.263 291.84 420.775 291.68L420.476 290.726ZM420.499 290.719L420.476 290.726L420.775 291.68L420.799 291.673L420.499 290.719ZM420.512 290.715L420.512 290.715L420.786 291.676L420.787 291.676L420.512 290.715ZM420.529 290.71L420.528 290.71L420.771 291.681L420.772 291.68L420.529 290.71ZM424.458 289.51C423.19 289.877 421.885 290.285 420.501 290.718L420.8 291.673C422.186 291.239 423.48 290.834 424.736 290.471L424.458 289.51ZM420.554 201.537C433.289 226.05 431.485 260.911 424.112 289.867L425.081 290.114C432.474 261.077 434.347 225.917 421.442 201.076L420.554 201.537ZM392.058 170.001C403.291 175.78 413.749 188.438 420.554 201.537L421.442 201.076C414.587 187.882 404.005 175.023 392.516 169.112L392.058 170.001ZM356.295 161.502C368.479 161.58 381.346 164.489 392.058 170.001L392.516 169.112C381.651 163.522 368.628 160.58 356.301 160.502L356.295 161.502ZM289.861 180.544C310.396 168.493 333.296 161.356 356.295 161.502L356.301 160.502C333.092 160.355 310.016 167.556 289.355 179.682L289.861 180.544ZM292.256 185.902C291.553 183.923 290.827 181.933 290.076 179.937L289.14 180.289C289.889 182.279 290.613 184.263 291.314 186.237L292.256 185.902ZM303.804 239.519C300.752 219.22 297.087 199.499 292.256 185.902L291.314 186.237C296.109 199.733 299.763 219.367 302.815 239.668L303.804 239.519ZM309.504 281.739C307.755 268.02 305.888 253.374 303.804 239.519L302.815 239.668C304.897 253.509 306.763 268.144 308.512 281.865L309.504 281.739ZM309.505 281.744L309.505 281.741L308.512 281.863L308.513 281.866L309.505 281.744ZM309.506 281.75L309.505 281.742L308.513 281.868L308.514 281.876L309.506 281.75ZM311.926 300.463C311.139 294.555 310.336 288.257 309.506 281.75L308.514 281.877C309.344 288.383 310.147 294.684 310.935 300.595L311.926 300.463ZM196.961 142.497C195.762 147.435 194.521 152.363 193.237 157.282L194.205 157.534C195.49 152.61 196.732 147.676 197.932 142.733L196.961 142.497ZM222.704 134.619C213.628 135.391 204.384 137.858 197.189 142.187L197.704 143.044C204.734 138.814 213.818 136.378 222.789 135.615L222.704 134.619ZM245.427 140.84C239.246 135.82 231.746 133.85 222.704 134.619L222.789 135.615C231.624 134.864 238.853 136.788 244.797 141.616L245.427 140.84ZM212.892 154.988C224.305 151.678 234.416 147.098 245.334 141.676L244.889 140.78C233.989 146.194 223.94 150.743 212.613 154.027L212.892 154.988ZM204.229 157.119C206.955 156.554 210.141 155.785 212.892 154.988L212.613 154.027C209.891 154.817 206.731 155.579 204.026 156.14L204.229 157.119ZM200.785 157.761C201.69 157.619 202.869 157.401 204.229 157.119L204.026 156.14C202.677 156.42 201.514 156.634 200.63 156.773L200.785 157.761ZM199.76 157.904C199.892 157.888 200.217 157.851 200.785 157.761L200.63 156.773C200.078 156.86 199.768 156.896 199.645 156.91L199.76 157.904ZM200.134 157.38C200.151 157.609 200.013 157.749 199.969 157.788C199.916 157.835 199.866 157.86 199.848 157.868C199.807 157.887 199.773 157.896 199.765 157.898C199.743 157.904 199.725 157.907 199.723 157.907C199.715 157.909 199.71 157.909 199.715 157.909C199.722 157.908 199.735 157.906 199.76 157.904L199.645 156.91C199.624 156.913 199.603 156.915 199.589 156.917C199.583 156.918 199.569 156.919 199.556 156.922C199.551 156.922 199.531 156.926 199.507 156.932C199.499 156.934 199.464 156.943 199.423 156.963C199.405 156.971 199.355 156.996 199.302 157.043C199.258 157.082 199.12 157.222 199.137 157.452L200.134 157.38ZM199.696 156.92C199.704 156.92 199.737 156.924 199.778 156.937C199.796 156.942 199.846 156.957 199.903 156.993C199.944 157.019 200.107 157.13 200.132 157.36L199.139 157.471C199.164 157.701 199.327 157.812 199.369 157.838C199.425 157.874 199.475 157.89 199.493 157.895C199.535 157.907 199.569 157.911 199.577 157.912L199.696 156.92ZM198.547 157.94C198.964 157.929 199.33 157.919 199.641 157.916L199.632 156.916C199.309 156.919 198.934 156.929 198.52 156.941L198.547 157.94ZM193.691 157.907C195.585 158.023 197.285 157.975 198.547 157.94L198.52 156.941C197.257 156.976 195.597 157.021 193.752 156.909L193.691 157.907Z" fill="#001E28"/>
</svg>
