<svg width="411" height="143" viewBox="0 0 411 143" fill="none" xmlns="http://www.w3.org/2000/svg">
<rect width="411" height="143" fill="white"/>
<path fill-rule="evenodd" clip-rule="evenodd" d="M107.344 14.8729C108.378 13.5785 108.167 11.6908 106.873 10.6565C105.578 9.62216 103.691 9.83296 102.656 11.1273C102.136 11.7781 99.7045 14.1835 95.2857 17.6024C90.945 20.9609 84.8355 25.182 77.0916 29.4896C73.0288 31.7496 70.684 32.8817 67.7165 34.3145C66.8255 34.7447 65.8784 35.202 64.8119 35.725C61.9032 32.5795 58.0336 31.2015 53.5986 31.5759C52.1653 31.6969 50.5864 31.9586 49.0026 32.4179C49.1029 31.9414 49.2017 31.4648 49.2989 30.9879C49.6086 29.4692 49.9718 27.8698 50.3447 26.228C51.0853 22.9667 51.864 19.5378 52.337 16.2407C52.3611 16.0728 52.3878 15.9586 52.4317 15.7712C52.4665 15.6225 52.5122 15.4277 52.5759 15.1233C52.6809 14.6215 52.835 13.7915 52.7379 12.8827C52.722 12.7339 52.6846 12.4452 52.5734 12.1155L52.5717 12.1104C52.5076 11.92 52.1747 10.9314 51.0875 10.3579C49.6092 9.57823 48.3149 10.2661 47.8568 10.6046C47.4205 10.9271 47.1722 11.2929 47.0913 11.4141C46.7905 11.8651 46.5756 12.4482 46.4887 12.6837L46.4773 12.7147C46.4038 12.9131 46.3128 13.1711 46.2327 13.3982L46.2302 13.4054C46.1862 13.53 46.1456 13.645 46.1132 13.7353C46.0579 13.889 46.0111 14.0152 45.9712 14.1163C45.9395 14.1968 45.9218 14.2366 45.9173 14.2469L45.9161 14.2496C45.6788 14.7255 45.4184 15.1972 45.1206 15.7366L45.0975 15.7785C44.8006 16.3163 44.4671 16.9217 44.1566 17.5557C41.0977 23.8031 37.9545 29.2049 33.259 34.0032C33.0629 34.2036 32.8725 34.3995 32.6865 34.5909L32.6854 34.5919L32.6846 34.5928L32.6839 34.5935C31.5443 35.766 30.5722 36.7662 29.4958 37.562C28.3165 38.4338 27.2556 38.8634 26.1131 38.8676C25.2137 38.871 24.6436 38.7621 24.0781 38.503C21.8585 37.4859 20.2288 35.2606 19.9855 32.9826C19.8095 31.3351 18.3307 30.1376 16.6827 30.3078C15.0346 30.4781 13.8412 31.9516 14.0172 33.5991C14.4983 38.1026 17.5475 42.1003 21.5918 43.9535C23.1815 44.6819 24.6791 44.871 26.1561 44.8654C28.9836 44.8548 31.2607 43.7302 33.0763 42.388C34.5808 41.2756 35.9348 39.8776 37.0485 38.7278C37.2242 38.5463 37.394 38.371 37.5574 38.204C39.64 36.0758 41.4385 33.8574 43.0449 31.5608C42.7062 33.1555 42.3501 34.7475 41.9766 36.3361C41.9381 36.3742 41.8999 36.4125 41.8619 36.4512C41.3112 37.0106 40.411 38.0951 39.9378 38.8963C39.5768 39.5075 39 40.8386 39 42.4326L39.0001 42.4537L39.0004 42.4811C38.9989 42.5629 39.0008 42.6454 39.006 42.7285C39.0641 43.6434 39.3241 44.4457 39.72 45.1302C38.7225 48.7129 37.6354 52.2695 36.4594 55.7897C32.9032 66.4343 29.2667 76.9893 23.8464 86.4828C23.638 86.8479 23.4496 87.1914 23.2712 87.5166C22.7906 88.3931 22.3823 89.1376 21.8488 89.8169C21.1677 90.6843 20.7794 90.7676 20.5899 90.7728C18.9332 90.8182 17.6316 92.1971 17.6827 93.8527C17.7337 95.5084 19.1181 96.8137 20.7748 96.7684C23.5671 96.6919 25.4323 94.9854 26.5756 93.5295C27.4463 92.4208 28.1938 91.0513 28.712 90.1021L28.7128 90.1007C28.8448 89.8589 28.9619 89.6444 29.0623 89.4685C34.8147 79.3932 38.6142 68.3001 42.1533 57.7064C43.1967 54.5832 44.1718 51.4329 45.078 48.2623C46.6732 48.4899 48.1503 48.3955 48.146 48.3955C48.7679 48.3955 49.7027 48.221 50.3913 48.0793C51.2089 47.911 52.1708 47.6816 53.0383 47.4319C56.6241 46.3998 59.7408 44.955 62.8265 43.42C63.341 44.339 63.8244 45.289 64.2807 46.2612C63.2369 47.005 62.2259 47.7889 61.2517 48.6077C56.5245 52.58 52.5506 57.6786 49.2231 62.6086C47.5612 65.0707 46.1568 67.7503 45.0742 70.548C43.828 73.7683 42.7661 77.2365 42.3225 80.8654C41.0288 87.0097 39.7785 94.5279 39.3573 99.2004C38.7937 105.451 38.6184 112.339 40.9794 119.809C42.45 124.462 44.911 127.725 48.1675 129.707C51.3756 131.659 55.0206 132.162 58.5225 131.958C65.3979 131.557 72.6821 128.346 77.409 126.218L77.4949 126.179L77.5783 126.135C84.8391 122.3 89.0755 118.215 91.9227 114.783C92.9594 113.534 93.8334 112.341 94.5374 111.38C94.7679 111.065 94.9803 110.775 95.1741 110.516C95.2944 110.355 95.4062 110.209 95.5105 110.075C95.4131 111.013 95.3215 112.018 95.2457 113.057C95.0651 115.532 94.9692 118.264 95.1107 120.802C95.2478 123.261 95.6211 125.869 96.5791 127.895C97.2875 129.393 99.076 130.033 100.574 129.324C102.072 128.616 102.711 126.828 102.003 125.33C101.557 124.386 101.228 122.732 101.101 120.468C100.98 118.283 101.059 115.831 101.23 113.494C101.4 111.167 101.655 109.01 101.869 107.433C101.976 106.645 102.071 106.006 102.14 105.567C102.174 105.347 102.202 105.178 102.22 105.065L102.241 104.939L102.246 104.91L102.247 104.903L102.291 104.65V104.418L102.292 104.393C102.294 104.349 102.299 104.261 102.31 104.129C102.333 103.867 102.384 103.429 102.492 102.817C102.707 101.594 103.156 99.6717 104.086 97.0628C104.325 96.3904 104.549 95.7635 104.757 95.1809C105.529 93.019 106.082 91.468 106.425 90.4667C106.626 89.8785 106.807 89.3292 106.896 88.9527C106.904 88.9202 106.915 88.8721 106.928 88.8121C106.967 88.7119 107.004 88.6168 107.039 88.5269L107.129 88.2973L107.242 88.0037L107.297 87.8627C107.328 87.7838 107.347 87.7375 107.356 87.7149L107.362 87.7001C107.512 87.3781 107.599 87.0423 107.629 86.7064C108.285 85.0519 108.897 83.3642 109.437 81.665C109.989 81.6579 110.602 81.6265 111.288 81.5623C112.938 81.4083 114.15 79.9461 113.996 78.2964C113.852 76.7465 112.552 75.5824 111.027 75.5752C112.548 68.0517 112.785 58.8787 109.041 51.6678C107.022 47.781 103.647 43.4019 99.3187 41.1737C95.7185 39.3205 91.5411 38.3966 87.6184 38.3717C81.2149 38.331 74.9923 40.1188 69.4125 43.0836C69.0308 42.2964 68.629 41.5158 68.2048 40.7465C68.8881 40.4137 69.5328 40.1021 70.1568 39.8006C73.2357 38.3126 75.808 37.0694 80.0082 34.733C88.0314 30.27 94.3923 25.8799 98.9574 22.3478C103.445 18.876 106.354 16.1111 107.344 14.8729ZM100.519 88.1337C100.351 88.4585 100.171 88.812 99.9835 89.1813C99.8953 89.3548 99.8051 89.5319 99.7138 89.7109C98.9388 91.2308 97.9076 93.241 96.6512 95.5684C96.4718 95.9006 96.3073 96.2197 96.1547 96.528C95.3001 97.7091 94.3797 98.7846 93.4051 99.6678C91.8181 101.106 90.2644 101.878 88.7455 101.995C87.6729 102.077 85.2352 101.264 83.0948 98.9421C81.8858 97.6304 81.2888 96.6924 80.8873 95.8509C80.5312 95.1044 80.3055 94.4042 79.9708 93.3659L79.9545 93.3151C83.7189 89.8331 86.5627 87.5912 89.5874 85.8848C92.7133 84.1213 96.1749 82.8498 101.282 81.4717C102.194 81.2257 102.846 81.1026 103.326 81.0454C102.507 83.457 101.542 85.8424 100.519 88.1337ZM51.3203 124.601C51.3089 124.595 51.2976 124.588 51.2862 124.581C49.4953 123.491 47.8201 121.544 46.7004 118.001C44.6967 111.661 44.7945 105.713 45.333 99.7391C45.41 98.8856 45.5172 97.926 45.6491 96.8907C47.2822 99.2834 49.4409 101.256 52.0465 102.837C54.8641 104.547 58.2899 104.956 61.4506 104.712C59.8786 106.74 58.5067 108.68 57.508 110.371C56.7451 111.663 54.9794 114.753 53.5406 117.894C52.8254 119.456 52.1466 121.124 51.7241 122.639C51.547 123.274 51.3979 123.941 51.3203 124.601ZM48.2497 81.835C48.0134 83.9342 48.0463 86.0199 48.4359 88.0932C49.2532 92.442 51.5249 95.502 55.1593 97.7074C56.594 98.578 58.747 98.9489 61.3032 98.7027C63.8156 98.4608 66.3727 97.6514 68.3453 96.5788C70.0338 94.7267 71.6967 92.9878 73.1907 91.4965C72.475 88.4543 72.0714 85.2511 71.7099 82.3822L71.7095 82.3795C71.6168 81.6432 71.5268 80.9289 71.435 80.245C71.223 78.6657 71.011 77.0154 70.7943 75.3287C70.3472 71.8473 69.88 68.2107 69.3516 64.7224C68.5616 59.5078 67.6787 54.9525 66.6378 52.0448L66.6189 51.992C66.1079 52.3831 65.6052 52.7864 65.1117 53.2012C61.0028 56.6539 57.3926 61.2297 54.1962 65.9653C52.7842 68.0574 51.5891 70.3377 50.6698 72.7133C50.3564 73.5233 50.0634 74.3312 49.7958 75.137C49.7854 75.3599 49.7499 75.585 49.6872 75.809C49.2396 77.4075 48.7438 79.5055 48.2497 81.835ZM62.6742 113.423C65.1687 109.199 70.6057 102.834 75.2574 97.9643C75.3259 98.1211 75.3973 98.2778 75.4719 98.4343C76.1758 99.9097 77.1427 101.337 78.683 103.008C81.5961 106.169 85.7032 108.245 89.2037 107.977L89.2723 107.972C89.1296 108.149 88.985 108.327 88.8388 108.505C87.1131 110.608 85.3872 112.474 84.3333 113.379C79.7757 117.294 75.3213 119.971 68.5392 122.613C68.3014 122.681 68.0681 122.748 67.8389 122.814C63.6691 124.012 60.8691 124.817 57.5176 124.201C57.8196 123.135 58.3452 121.813 58.9955 120.393C60.3079 117.528 61.9536 114.643 62.6742 113.423ZM77.6869 81.8043C77.8975 83.4608 78.1053 85.0955 78.36 86.6791C81.2255 84.1833 83.8195 82.2498 86.6393 80.659C90.3854 78.5456 94.387 77.1176 99.7187 75.6789C101.268 75.2608 102.509 75.0494 103.609 75.0087C104.128 74.9896 104.59 75.0096 105.007 75.0519C106.521 68.0677 106.669 60.1202 103.716 54.4329C101.993 51.1148 99.3604 47.9435 96.5726 46.5084C93.8844 45.1246 90.6475 44.391 87.5803 44.3716C82.1408 44.337 76.7139 45.9171 71.7739 48.6261C71.9502 49.0936 72.121 49.5594 72.2868 50.0227C73.5459 53.54 74.4959 58.6225 75.2839 63.8236C75.8223 67.3774 76.3055 71.1389 76.7576 74.6576L76.7582 74.6617C76.9721 76.3271 77.1791 77.938 77.3816 79.4468C77.4875 80.2352 77.5875 81.0225 77.6869 81.8043ZM47.7925 42.4022C47.8957 42.3995 47.9904 42.3969 48.0748 42.3959L48.085 42.3947C48.1138 42.3913 48.1874 42.3827 48.3178 42.3624C48.5407 42.3276 48.8366 42.2735 49.1819 42.2024C49.8747 42.0598 50.6838 41.866 51.3788 41.666C54.0536 40.8961 56.451 39.8533 59.009 38.6108C57.6454 37.7292 56.0308 37.3919 54.1034 37.5546C51.6292 37.7635 49.159 38.4644 47.3552 39.6656C47.1324 40.5778 46.9039 41.4889 46.6698 42.3986C47.0965 42.4209 47.4835 42.4105 47.7925 42.4022Z" fill="#001E28"/>
<path d="M57.264 125.588C57.2638 125.588 57.2634 125.584 57.263 125.576M106.873 10.6565C108.167 11.6908 108.378 13.5785 107.344 14.8729C106.354 16.1111 103.445 18.876 98.9574 22.3478C94.3923 25.8799 88.0314 30.27 80.0082 34.733C75.808 37.0694 73.2357 38.3126 70.1568 39.8006C69.5328 40.1021 68.8881 40.4137 68.2048 40.7465C68.629 41.5158 69.0308 42.2964 69.4125 43.0836C74.9923 40.1188 81.2149 38.331 87.6184 38.3717C91.5411 38.3966 95.7185 39.3205 99.3187 41.1737C103.647 43.4019 107.022 47.781 109.041 51.6678C112.785 58.8787 112.548 68.0517 111.027 75.5752C112.552 75.5824 113.852 76.7465 113.996 78.2964C114.15 79.9461 112.938 81.4083 111.288 81.5623C110.602 81.6265 109.989 81.6579 109.437 81.665C108.897 83.3642 108.285 85.0519 107.629 86.7064C107.599 87.0423 107.512 87.3781 107.362 87.7001L107.356 87.7149C107.347 87.7375 107.328 87.7838 107.297 87.8627L107.242 88.0037L107.129 88.2973L107.039 88.5269C107.004 88.6168 106.967 88.7119 106.928 88.8121C106.915 88.8721 106.904 88.9202 106.896 88.9527C106.807 89.3292 106.626 89.8785 106.425 90.4667C106.082 91.468 105.529 93.019 104.757 95.1809C104.549 95.7635 104.325 96.3904 104.086 97.0628C103.156 99.6717 102.707 101.594 102.492 102.817C102.384 103.429 102.333 103.867 102.31 104.129C102.299 104.261 102.294 104.349 102.292 104.393L102.291 104.418V104.65L102.247 104.903L102.246 104.91L102.241 104.939L102.22 105.065C102.202 105.178 102.174 105.347 102.14 105.567C102.071 106.006 101.976 106.645 101.869 107.433C101.655 109.01 101.4 111.167 101.23 113.494C101.059 115.831 100.98 118.283 101.101 120.468C101.228 122.732 101.557 124.386 102.003 125.33C102.711 126.828 102.072 128.616 100.574 129.324C99.076 130.033 97.2875 129.393 96.5791 127.895C95.6211 125.869 95.2478 123.261 95.1107 120.802C94.9692 118.264 95.0651 115.532 95.2457 113.057C95.3215 112.018 95.4131 111.013 95.5105 110.075C95.4062 110.209 95.2944 110.355 95.1741 110.516C94.9803 110.775 94.7679 111.065 94.5374 111.38C93.8334 112.341 92.9594 113.534 91.9227 114.783C89.0755 118.215 84.8391 122.3 77.5783 126.135L77.4949 126.179L77.409 126.218C72.6821 128.346 65.3979 131.557 58.5225 131.958C55.0206 132.162 51.3756 131.659 48.1675 129.707C44.911 127.725 42.45 124.462 40.9794 119.809C38.6184 112.339 38.7937 105.451 39.3573 99.2004C39.7785 94.5279 41.0288 87.0097 42.3225 80.8654C42.7661 77.2365 43.828 73.7683 45.0742 70.548C46.1568 67.7503 47.5612 65.0707 49.2231 62.6086C52.5506 57.6786 56.5245 52.58 61.2517 48.6077C62.2259 47.7889 63.2369 47.005 64.2807 46.2612C63.8244 45.289 63.341 44.339 62.8265 43.42C59.7408 44.955 56.6241 46.3998 53.0383 47.4319C52.1708 47.6816 51.2089 47.911 50.3913 48.0793C49.7027 48.221 48.7679 48.3955 48.146 48.3955C48.1503 48.3955 46.6732 48.4899 45.078 48.2623C44.1718 51.4329 43.1967 54.5832 42.1533 57.7064C38.6142 68.3001 34.8147 79.3932 29.0623 89.4685C28.9619 89.6444 28.8448 89.8589 28.7128 90.1007L28.712 90.1021C28.1938 91.0513 27.4463 92.4208 26.5756 93.5295C25.4323 94.9854 23.5671 96.6919 20.7748 96.7684C19.1181 96.8137 17.7337 95.5084 17.6827 93.8527C17.6316 92.1971 18.9332 90.8182 20.5899 90.7728C20.7794 90.7676 21.1677 90.6843 21.8488 89.8169C22.3823 89.1376 22.7906 88.3931 23.2712 87.5166C23.4496 87.1914 23.638 86.8479 23.8464 86.4828C29.2667 76.9893 32.9032 66.4343 36.4594 55.7897C37.6354 52.2695 38.7225 48.7129 39.72 45.1302C39.3241 44.4457 39.0641 43.6434 39.006 42.7285C39.0008 42.6454 38.9989 42.5629 39.0004 42.4811L39.0001 42.4537L39 42.4326C39 40.8386 39.5768 39.5075 39.9378 38.8963C40.411 38.0951 41.3112 37.0106 41.8619 36.4512C41.8999 36.4125 41.9381 36.3742 41.9766 36.3361C42.3501 34.7475 42.7062 33.1555 43.0449 31.5608C41.4385 33.8574 39.64 36.0758 37.5574 38.204C37.394 38.371 37.2242 38.5463 37.0485 38.7278C35.9348 39.8776 34.5808 41.2756 33.0763 42.388C31.2607 43.7302 28.9836 44.8548 26.1561 44.8654C24.6791 44.871 23.1815 44.6819 21.5918 43.9535C17.5475 42.1003 14.4983 38.1026 14.0172 33.5991C13.8412 31.9516 15.0346 30.4781 16.6827 30.3078C18.3307 30.1376 19.8095 31.3351 19.9855 32.9826C20.2288 35.2606 21.8585 37.4859 24.0781 38.503C24.6436 38.7621 25.2137 38.871 26.1131 38.8676C27.2556 38.8634 28.3165 38.4338 29.4958 37.562C30.5722 36.7662 31.5443 35.766 32.6839 34.5935L32.6846 34.5928L32.6854 34.5919L32.6865 34.5909C32.8725 34.3995 33.0629 34.2036 33.259 34.0032C37.9545 29.2049 41.0977 23.8031 44.1566 17.5557C44.4671 16.9217 44.8006 16.3163 45.0975 15.7785L45.1206 15.7366C45.4184 15.1972 45.6788 14.7255 45.9161 14.2496L45.9173 14.2469C45.9218 14.2366 45.9395 14.1968 45.9712 14.1163C46.0111 14.0152 46.0579 13.889 46.1132 13.7353C46.1456 13.645 46.1862 13.53 46.2302 13.4054L46.2327 13.3982C46.3128 13.1711 46.4038 12.9131 46.4773 12.7147L46.4887 12.6837C46.5756 12.4482 46.7905 11.8651 47.0913 11.4141C47.1722 11.2929 47.4205 10.9271 47.8568 10.6046C48.3149 10.2661 49.6092 9.57823 51.0875 10.3579C52.1747 10.9314 52.5076 11.92 52.5717 12.1104L52.5734 12.1155C52.6846 12.4452 52.722 12.7339 52.7379 12.8827C52.835 13.7915 52.6809 14.6215 52.5759 15.1233C52.5122 15.4277 52.4665 15.6225 52.4317 15.7712C52.3878 15.9586 52.3611 16.0728 52.337 16.2407C51.864 19.5378 51.0853 22.9667 50.3447 26.228C49.9718 27.8698 49.6086 29.4692 49.2989 30.9879C49.2017 31.4648 49.1029 31.9414 49.0026 32.4179C50.5864 31.9586 52.1653 31.6969 53.5986 31.5759C58.0336 31.2015 61.9032 32.5795 64.8119 35.725C65.8784 35.202 66.8255 34.7447 67.7165 34.3145C70.684 32.8817 73.0288 31.7496 77.0916 29.4896C84.8355 25.182 90.945 20.9609 95.2857 17.6024C99.7045 14.1835 102.136 11.7781 102.656 11.1273C103.691 9.83296 105.578 9.62216 106.873 10.6565ZM99.9835 89.1813C100.171 88.812 100.351 88.4585 100.519 88.1337C101.542 85.8424 102.507 83.457 103.326 81.0454C102.846 81.1026 102.194 81.2257 101.282 81.4717C96.1749 82.8498 92.7133 84.1213 89.5874 85.8848C86.5627 87.5912 83.7189 89.8331 79.9545 93.3151L79.9708 93.3659C80.3055 94.4042 80.5312 95.1044 80.8873 95.8509C81.2888 96.6924 81.8858 97.6304 83.0948 98.9421C85.2352 101.264 87.6729 102.077 88.7455 101.995C90.2644 101.878 91.8181 101.106 93.4051 99.6678C94.3797 98.7846 95.3001 97.7091 96.1547 96.528C96.3073 96.2197 96.4718 95.9006 96.6512 95.5684C97.9076 93.241 98.9388 91.2308 99.7138 89.7109C99.8051 89.5319 99.8953 89.3548 99.9835 89.1813ZM51.2862 124.581C51.2976 124.588 51.3089 124.595 51.3203 124.601C51.3979 123.941 51.547 123.274 51.7241 122.639C52.1466 121.124 52.8254 119.456 53.5406 117.894C54.9794 114.753 56.7451 111.663 57.508 110.371C58.5067 108.68 59.8786 106.74 61.4506 104.712C58.2899 104.956 54.8641 104.547 52.0465 102.837C49.4409 101.256 47.2822 99.2834 45.6491 96.8907C45.5172 97.926 45.41 98.8856 45.333 99.7391C44.7945 105.713 44.6967 111.661 46.7004 118.001C47.8201 121.544 49.4953 123.491 51.2862 124.581ZM48.2497 81.835C48.0134 83.9342 48.0463 86.0199 48.4359 88.0932C49.2532 92.442 51.5249 95.502 55.1593 97.7074C56.594 98.578 58.747 98.9489 61.3032 98.7027C63.8156 98.4608 66.3727 97.6514 68.3453 96.5788C70.0338 94.7267 71.6967 92.9878 73.1907 91.4965C72.475 88.4543 72.0714 85.2511 71.7099 82.3822L71.7095 82.3795C71.6168 81.6432 71.5268 80.9289 71.435 80.245C71.223 78.6657 71.011 77.0154 70.7943 75.3287C70.3472 71.8473 69.88 68.2107 69.3516 64.7224C68.5616 59.5078 67.6787 54.9525 66.6378 52.0448L66.6189 51.992C66.1079 52.3831 65.6052 52.7864 65.1117 53.2012C61.0028 56.6539 57.3926 61.2297 54.1962 65.9653C52.7842 68.0574 51.5891 70.3377 50.6698 72.7133C50.3564 73.5233 50.0634 74.3312 49.7958 75.137C49.7854 75.3599 49.7499 75.585 49.6872 75.809C49.2396 77.4075 48.7438 79.5055 48.2497 81.835ZM75.2574 97.9643C70.6057 102.834 65.1687 109.199 62.6742 113.423C61.9536 114.643 60.3079 117.528 58.9955 120.393C58.3452 121.813 57.8196 123.135 57.5176 124.201C60.8691 124.817 63.6691 124.012 67.8389 122.814C68.0681 122.748 68.3014 122.681 68.5392 122.613C75.3213 119.971 79.7757 117.294 84.3333 113.379C85.3872 112.474 87.1131 110.608 88.8388 108.505C88.985 108.327 89.1296 108.149 89.2723 107.972L89.2037 107.977C85.7032 108.245 81.5961 106.169 78.683 103.008C77.1427 101.337 76.1758 99.9097 75.4719 98.4343C75.3973 98.2778 75.3259 98.1211 75.2574 97.9643ZM78.36 86.6791C78.1053 85.0955 77.8975 83.4608 77.6869 81.8043C77.5875 81.0225 77.4875 80.2352 77.3816 79.4468C77.1791 77.938 76.9721 76.3271 76.7582 74.6617L76.7576 74.6576C76.3055 71.1389 75.8223 67.3774 75.2839 63.8236C74.4959 58.6225 73.5459 53.54 72.2868 50.0227C72.121 49.5594 71.9502 49.0936 71.7739 48.6261C76.7139 45.9171 82.1408 44.337 87.5803 44.3716C90.6475 44.391 93.8844 45.1246 96.5726 46.5084C99.3604 47.9435 101.993 51.1148 103.716 54.4329C106.669 60.1202 106.521 68.0677 105.007 75.0519C104.59 75.0096 104.128 74.9896 103.609 75.0087C102.509 75.0494 101.268 75.2608 99.7187 75.6789C94.387 77.1176 90.3854 78.5456 86.6393 80.659C83.8195 82.2498 81.2255 84.1833 78.36 86.6791ZM47.7925 42.4022C47.8957 42.3995 47.9904 42.3969 48.0748 42.3959L48.085 42.3947C48.1138 42.3913 48.1874 42.3827 48.3178 42.3624C48.5407 42.3276 48.8366 42.2735 49.1819 42.2024C49.8747 42.0598 50.6838 41.866 51.3788 41.666C54.0536 40.8961 56.451 39.8533 59.009 38.6108C57.6454 37.7292 56.0308 37.3919 54.1034 37.5546C51.6292 37.7635 49.159 38.4644 47.3552 39.6656C47.1324 40.5778 46.9039 41.4889 46.6698 42.3986C47.0965 42.4209 47.4835 42.4105 47.7925 42.4022Z" stroke="#001E28" stroke-linecap="round"/>
<path d="M129.312 102.906V76.9062C129.312 75.7604 129.833 75.1875 130.875 75.1875H133.75C134.792 75.1875 135.312 75.7604 135.312 76.9062V101.969C135.312 107.802 136.135 111.615 137.781 113.406C139.448 115.177 142.156 116.062 145.906 116.062C149.656 116.062 152.354 115.177 154 113.406C155.667 111.615 156.5 107.802 156.5 101.969V76.9062C156.5 75.7604 157.021 75.1875 158.062 75.1875H160.938C161.979 75.1875 162.5 75.7604 162.5 76.9062V102.906C162.5 109.51 160.979 114.167 157.938 116.875C154.917 119.583 150.906 120.938 145.906 120.938C140.906 120.938 136.885 119.583 133.844 116.875C130.823 114.167 129.312 109.51 129.312 102.906ZM174.688 120C173.646 120 173.125 119.427 173.125 118.281V76.9062C173.125 75.7604 173.646 75.1875 174.688 75.1875H177.562C178.604 75.1875 179.125 75.7604 179.125 76.9062V118.281C179.125 119.427 178.604 120 177.562 120H174.688ZM212.625 120C211.583 120 211.062 119.427 211.062 118.281V76.9062C211.062 75.7604 211.583 75.1875 212.625 75.1875H224.156C232.99 75.1875 239.125 77.1458 242.562 81.0625C246.021 84.9583 247.75 90.4479 247.75 97.5312C247.75 104.615 246.021 110.135 242.562 114.094C239.125 118.031 232.99 120 224.156 120H212.625ZM217.062 114.875H223.875C230.75 114.875 235.375 113.417 237.75 110.5C240.146 107.583 241.344 103.26 241.344 97.5312C241.344 91.8021 240.146 87.4896 237.75 84.5938C235.375 81.6979 230.75 80.25 223.875 80.25H217.062V114.875ZM253.281 103.594C253.281 98.4271 254.573 94.3125 257.156 91.25C259.74 88.1875 263.438 86.6562 268.25 86.6562C272.25 86.6562 275.562 88.0625 278.188 90.875C280.833 93.6667 282.156 98.1354 282.156 104.281C282.156 105.219 281.729 105.688 280.875 105.688H259.094C259.448 109.708 260.531 112.51 262.344 114.094C264.156 115.656 266.208 116.438 268.5 116.438C270.917 116.438 272.771 116.031 274.062 115.219C275.354 114.406 276.302 113.604 276.906 112.812C277.573 111.938 278.219 111.771 278.844 112.312L280.688 113.906C281.167 114.323 281.167 114.896 280.688 115.625C280.292 116.229 279.156 117.198 277.281 118.531C275.427 119.865 272.5 120.531 268.5 120.531C263.292 120.531 259.448 119 256.969 115.938C254.51 112.875 253.281 108.76 253.281 103.594ZM258.969 101.625H276.625C276.542 98.7083 275.792 96.1562 274.375 93.9688C272.958 91.7604 270.875 90.6562 268.125 90.6562C265.708 90.6562 263.656 91.4688 261.969 93.0938C260.281 94.6979 259.281 97.5417 258.969 101.625ZM288.094 116.938C287.448 116.333 287.312 115.771 287.688 115.25L289.094 113.281C289.552 112.656 290.229 112.688 291.125 113.375C292.354 114.312 293.719 115.062 295.219 115.625C296.74 116.188 298.469 116.469 300.406 116.469C301.552 116.469 302.573 116.333 303.469 116.062C304.365 115.771 305.146 115.24 305.812 114.469C306.5 113.698 306.844 112.667 306.844 111.375C306.844 110.625 306.677 109.917 306.344 109.25C306.031 108.583 305.531 108.052 304.844 107.656C304.177 107.24 303.521 106.917 302.875 106.688C301.812 106.292 300.75 105.969 299.688 105.719C298.646 105.448 297.271 105.042 295.562 104.5C294.417 104.146 293.333 103.646 292.312 103C291.292 102.333 290.396 101.438 289.625 100.312C288.875 99.1875 288.5 97.6354 288.5 95.6562C288.5 93.6354 289.115 91.8958 290.344 90.4375C291.573 88.9792 293.115 87.9896 294.969 87.4688C296.823 86.9271 298.625 86.6562 300.375 86.6562C302.958 86.6562 305.031 86.9583 306.594 87.5625C308.177 88.1458 309.542 88.8438 310.688 89.6562C311.354 90.1354 311.448 90.6875 310.969 91.3125L309.562 93.1875C309.125 93.7917 308.448 93.7708 307.531 93.125C306.76 92.5833 305.667 92.0729 304.25 91.5938C302.833 91.1146 301.594 90.875 300.531 90.875C299.219 90.875 298.094 91.0208 297.156 91.3125C296.219 91.6042 295.458 92.1042 294.875 92.8125C294.292 93.5208 294 94.3542 294 95.3125C294 96.0417 294.115 96.6979 294.344 97.2812C294.573 97.8438 295 98.3646 295.625 98.8438C296.25 99.3229 297.125 99.7083 298.25 100C300 100.458 301.594 100.875 303.031 101.25C304.49 101.625 305.802 102.083 306.969 102.625C308.49 103.333 309.656 104.115 310.469 104.969C311.302 105.823 311.875 106.75 312.188 107.75C312.5 108.729 312.656 109.823 312.656 111.031C312.656 113.26 311.99 115.146 310.656 116.688C309.344 118.229 307.875 119.26 306.25 119.781C304.625 120.281 302.667 120.531 300.375 120.531C297.271 120.531 294.604 120.094 292.375 119.219C290.167 118.323 288.74 117.562 288.094 116.938ZM320.281 120C319.344 120 318.875 119.531 318.875 118.594V88.5938C318.875 87.6562 319.344 87.1875 320.281 87.1875H322.969C323.906 87.1875 324.375 87.6562 324.375 88.5938V118.594C324.375 119.531 323.906 120 322.969 120H320.281ZM320.281 81.25C319.344 81.25 318.875 80.7812 318.875 79.8438V77.1562C318.875 76.2188 319.344 75.75 320.281 75.75H322.969C323.906 75.75 324.375 76.2188 324.375 77.1562V79.8438C324.375 80.7812 323.906 81.25 322.969 81.25H320.281ZM331.469 103.594C331.469 99.1146 332.552 95.1771 334.719 91.7812C336.885 88.3646 340.052 86.6562 344.219 86.6562C346.615 86.6562 348.531 87.0521 349.969 87.8438C351.406 88.6354 352.698 89.7188 353.844 91.0938H353.906L354.094 88.5938C354.156 87.6562 354.562 87.1875 355.312 87.1875H357.938C358.875 87.1875 359.344 87.6562 359.344 88.5938V120.25C359.344 124.25 358.417 127.375 356.562 129.625C354.729 131.896 351.094 133.031 345.656 133.031C342.01 133.031 339.281 132.615 337.469 131.781C335.656 130.969 334.365 130.104 333.594 129.188C333.031 128.5 333 127.917 333.5 127.438L335.219 125.75C335.698 125.292 336.365 125.438 337.219 126.188C338.323 127.188 339.385 127.896 340.406 128.312C341.427 128.75 343.188 128.969 345.688 128.969C348.521 128.969 350.583 128.365 351.875 127.156C353.188 125.948 353.844 123.448 353.844 119.656V117.781C353.844 117.135 353.865 116.5 353.906 115.875H353.844C352.76 117.312 351.479 118.448 350 119.281C348.542 120.115 346.615 120.531 344.219 120.531C340.052 120.531 336.885 118.833 334.719 115.438C332.552 112.021 331.469 108.073 331.469 103.594ZM337.281 103.594C337.281 107.427 337.938 110.531 339.25 112.906C340.583 115.281 342.833 116.469 346 116.469C348.25 116.469 350.115 115.708 351.594 114.188C353.094 112.646 353.844 110.312 353.844 107.188V100C353.844 96.875 353.094 94.5521 351.594 93.0312C350.115 91.4896 348.25 90.7188 346 90.7188C342.833 90.7188 340.583 91.9062 339.25 94.2812C337.938 96.6562 337.281 99.7604 337.281 103.594ZM369.656 120C368.719 120 368.25 119.531 368.25 118.594V88.5938C368.25 87.6562 368.719 87.1875 369.656 87.1875H372.281C373.219 87.1875 373.688 87.6562 373.688 88.5938V91.0938H373.812C375.167 89.5938 376.625 88.4792 378.188 87.75C379.75 87.0208 381.698 86.6562 384.031 86.6562C387.823 86.6562 390.542 87.7292 392.188 89.875C393.854 92 394.688 94.9167 394.688 98.625V118.594C394.688 119.531 394.219 120 393.281 120H390.594C389.656 120 389.188 119.531 389.188 118.594V100.125C389.188 96.0417 388.51 93.4583 387.156 92.375C385.802 91.2708 384.083 90.7188 382 90.7188C379.292 90.7188 377.24 91.5312 375.844 93.1562C374.448 94.7604 373.75 97.5208 373.75 101.438V118.594C373.75 119.531 373.281 120 372.344 120H369.656Z" fill="#001F28"/>
<path d="M131.008 41C130.552 41 130.324 40.7493 130.324 40.248V22.1465C130.324 21.6452 130.552 21.3945 131.008 21.3945H132.266C132.721 21.3945 132.949 21.6452 132.949 22.1465V30.1855C132.949 30.5501 132.94 30.9147 132.922 31.2793H132.977L142.109 21.9277C142.456 21.5723 142.775 21.3945 143.066 21.3945H144.721C145.477 21.3945 145.559 21.6953 144.967 22.2969L138.021 29.3789L145.336 40.0977C145.737 40.6992 145.655 41 145.09 41H143.422C143.021 41 142.702 40.8223 142.465 40.4668L136.217 31.2383L132.949 34.5605V40.248C132.949 40.7493 132.721 41 132.266 41H131.008ZM147.318 37.1719C147.318 35.5495 148.075 34.36 149.588 33.6035C151.11 32.847 153.38 32.4049 156.396 32.2773V31.3477C156.396 30.4909 156.201 29.7526 155.809 29.1328C155.426 28.5039 154.66 28.1895 153.512 28.1895C152.783 28.1895 152.199 28.2624 151.762 28.4082C151.324 28.5449 150.923 28.7318 150.559 28.9688C150.203 29.1966 149.861 29.4928 149.533 29.8574C149.287 30.1309 149.055 30.1445 148.836 29.8984L148.125 29.0781C147.924 28.8503 147.993 28.5768 148.33 28.2578C148.813 27.8021 149.283 27.4603 149.738 27.2324C150.194 27.0046 150.759 26.8132 151.434 26.6582C152.117 26.4941 152.81 26.4121 153.512 26.4121C155.417 26.4121 156.775 26.9043 157.586 27.8887C158.397 28.8639 158.803 30.2038 158.803 31.9082V40.3848C158.803 40.7949 158.598 41 158.188 41H156.957C156.602 41 156.424 40.7949 156.424 40.3848V39.7148H156.396C155.676 40.2799 154.97 40.6764 154.277 40.9043C153.594 41.123 152.828 41.2324 151.98 41.2324C150.486 41.2324 149.333 40.877 148.521 40.166C147.719 39.446 147.318 38.4479 147.318 37.1719ZM149.807 37.2266C149.807 37.7917 149.925 38.2474 150.162 38.5938C150.399 38.931 150.727 39.1497 151.146 39.25C151.566 39.3411 152.003 39.3867 152.459 39.3867C153.161 39.3867 153.826 39.3184 154.455 39.1816C155.084 39.0449 155.731 38.6849 156.396 38.1016V34.0684C154.555 34.2051 153.243 34.3737 152.459 34.5742C151.675 34.7656 151.037 35.1029 150.545 35.5859C150.053 36.0599 149.807 36.6068 149.807 37.2266ZM162.002 28.4492C161.592 28.4492 161.387 28.2897 161.387 27.9707V27.123C161.387 26.804 161.592 26.6445 162.002 26.6445H163.615V25.4141C163.615 25.2318 163.661 25.0586 163.752 24.8945L164.709 23.1582C164.882 22.8392 165.023 22.6797 165.133 22.6797H165.611C165.885 22.6797 166.021 22.8392 166.021 23.1582V26.6445H168.934C169.344 26.6445 169.549 26.804 169.549 27.123V27.9707C169.549 28.2897 169.344 28.4492 168.934 28.4492H166.021V37.1582C166.021 38.1152 166.163 38.7396 166.445 39.0312C166.737 39.3138 167.083 39.4551 167.484 39.4551C167.794 39.4551 168.163 39.3639 168.592 39.1816C169.029 38.9993 169.33 38.8444 169.494 38.7168C169.658 38.5892 169.786 38.6302 169.877 38.8398L170.328 39.8926C170.401 40.0749 170.346 40.2207 170.164 40.3301C169.809 40.5397 169.289 40.7448 168.605 40.9453C167.922 41.1367 167.238 41.2324 166.555 41.2324C165.607 41.2324 164.878 40.8906 164.367 40.207C163.866 39.5234 163.615 38.5573 163.615 37.3086V28.4492H162.002ZM173.678 41C173.268 41 173.062 40.7949 173.062 40.3848V27.2598C173.062 26.8496 173.268 26.6445 173.678 26.6445H174.826C175.236 26.6445 175.441 26.8496 175.441 27.2598V28.9004H175.496C175.934 28.0801 176.449 27.4603 177.041 27.041C177.633 26.6217 178.372 26.4121 179.256 26.4121C179.839 26.4121 180.249 26.4622 180.486 26.5625C180.696 26.6445 180.773 26.7812 180.719 26.9727L180.404 28.0938C180.359 28.2578 180.24 28.3216 180.049 28.2852C179.73 28.2214 179.429 28.1895 179.146 28.1895C178.08 28.1895 177.201 28.6725 176.508 29.6387C175.815 30.5957 175.469 31.9036 175.469 33.5625V40.3848C175.469 40.7949 175.264 41 174.854 41H173.678ZM183.549 41C183.139 41 182.934 40.7949 182.934 40.3848V27.2598C182.934 26.8496 183.139 26.6445 183.549 26.6445H184.725C185.135 26.6445 185.34 26.8496 185.34 27.2598V40.3848C185.34 40.7949 185.135 41 184.725 41H183.549ZM183.549 24.0469C183.139 24.0469 182.934 23.8418 182.934 23.4316V22.2559C182.934 21.8457 183.139 21.6406 183.549 21.6406H184.725C185.135 21.6406 185.34 21.8457 185.34 22.2559V23.4316C185.34 23.8418 185.135 24.0469 184.725 24.0469H183.549ZM189.838 41C189.428 41 189.223 40.7949 189.223 40.3848V27.2598C189.223 26.8496 189.428 26.6445 189.838 26.6445H190.986C191.396 26.6445 191.602 26.8496 191.602 27.2598V28.3535H191.656C192.249 27.6973 192.887 27.2096 193.57 26.8906C194.254 26.5716 195.106 26.4121 196.127 26.4121C197.786 26.4121 198.975 26.8815 199.695 27.8203C200.424 28.75 200.789 30.026 200.789 31.6484V40.3848C200.789 40.7949 200.584 41 200.174 41H198.998C198.588 41 198.383 40.7949 198.383 40.3848V32.3047C198.383 30.5182 198.087 29.388 197.494 28.9141C196.902 28.431 196.15 28.1895 195.238 28.1895C194.053 28.1895 193.156 28.5449 192.545 29.2559C191.934 29.9577 191.629 31.1654 191.629 32.8789V40.3848C191.629 40.7949 191.424 41 191.014 41H189.838ZM203.865 37.1719C203.865 35.5495 204.622 34.36 206.135 33.6035C207.657 32.847 209.926 32.4049 212.943 32.2773V31.3477C212.943 30.4909 212.747 29.7526 212.355 29.1328C211.973 28.5039 211.207 28.1895 210.059 28.1895C209.329 28.1895 208.746 28.2624 208.309 28.4082C207.871 28.5449 207.47 28.7318 207.105 28.9688C206.75 29.1966 206.408 29.4928 206.08 29.8574C205.834 30.1309 205.602 30.1445 205.383 29.8984L204.672 29.0781C204.471 28.8503 204.54 28.5768 204.877 28.2578C205.36 27.8021 205.829 27.4603 206.285 27.2324C206.741 27.0046 207.306 26.8132 207.98 26.6582C208.664 26.4941 209.357 26.4121 210.059 26.4121C211.964 26.4121 213.322 26.9043 214.133 27.8887C214.944 28.8639 215.35 30.2038 215.35 31.9082V40.3848C215.35 40.7949 215.145 41 214.734 41H213.504C213.148 41 212.971 40.7949 212.971 40.3848V39.7148H212.943C212.223 40.2799 211.517 40.6764 210.824 40.9043C210.141 41.123 209.375 41.2324 208.527 41.2324C207.033 41.2324 205.88 40.877 205.068 40.166C204.266 39.446 203.865 38.4479 203.865 37.1719ZM206.354 37.2266C206.354 37.7917 206.472 38.2474 206.709 38.5938C206.946 38.931 207.274 39.1497 207.693 39.25C208.113 39.3411 208.55 39.3867 209.006 39.3867C209.708 39.3867 210.373 39.3184 211.002 39.1816C211.631 39.0449 212.278 38.6849 212.943 38.1016V34.0684C211.102 34.2051 209.79 34.3737 209.006 34.5742C208.222 34.7656 207.584 35.1029 207.092 35.5859C206.6 36.0599 206.354 36.6068 206.354 37.2266ZM227.791 40.6035C227.372 40.3757 227.244 40.0794 227.408 39.7148L227.859 38.7441C228.06 38.3066 228.393 38.2428 228.857 38.5527C229.596 39.0358 230.334 39.2773 231.072 39.2773C231.956 39.2773 232.531 38.9811 232.795 38.3887C233.059 37.7871 233.191 36.9349 233.191 35.832V22.1465C233.191 21.6452 233.419 21.3945 233.875 21.3945H235.133C235.589 21.3945 235.816 21.6452 235.816 22.1465V35.5176C235.816 37.3223 235.534 38.7578 234.969 39.8242C234.404 40.8815 233.082 41.4102 231.004 41.4102C229.865 41.4102 228.794 41.1413 227.791 40.6035ZM239.809 35.9961V27.2598C239.809 26.8496 240.014 26.6445 240.424 26.6445H241.6C242.01 26.6445 242.215 26.8496 242.215 27.2598V35.3398C242.215 37.1263 242.511 38.2611 243.104 38.7441C243.696 39.2181 244.43 39.4551 245.305 39.4551C246.453 39.4551 247.333 39.1042 247.943 38.4023C248.554 37.6914 248.859 36.4792 248.859 34.7656V27.2598C248.859 26.8496 249.064 26.6445 249.475 26.6445H250.65C251.061 26.6445 251.266 26.8496 251.266 27.2598V40.3848C251.266 40.7949 251.061 41 250.65 41H249.502C249.092 41 248.887 40.7949 248.887 40.3848V39.291H248.832C248.24 39.9473 247.602 40.4349 246.918 40.7539C246.234 41.0729 245.4 41.2324 244.416 41.2324C242.821 41.2324 241.654 40.7676 240.916 39.8379C240.178 38.8991 239.809 37.6185 239.809 35.9961ZM255.764 41C255.354 41 255.148 40.7949 255.148 40.3848V27.2598C255.148 26.8496 255.354 26.6445 255.764 26.6445H256.912C257.322 26.6445 257.527 26.8496 257.527 27.2598V28.3535H257.582C258.174 27.6973 258.812 27.2096 259.496 26.8906C260.18 26.5716 261.032 26.4121 262.053 26.4121C263.712 26.4121 264.901 26.8815 265.621 27.8203C266.35 28.75 266.715 30.026 266.715 31.6484V40.3848C266.715 40.7949 266.51 41 266.1 41H264.924C264.514 41 264.309 40.7949 264.309 40.3848V32.3047C264.309 30.5182 264.012 29.388 263.42 28.9141C262.827 28.431 262.076 28.1895 261.164 28.1895C259.979 28.1895 259.081 28.5449 258.471 29.2559C257.86 29.9577 257.555 31.1654 257.555 32.8789V40.3848C257.555 40.7949 257.35 41 256.939 41H255.764ZM269.791 33.8223C269.791 31.5618 270.356 29.7617 271.486 28.4219C272.617 27.082 274.234 26.4121 276.34 26.4121C278.09 26.4121 279.539 27.0273 280.688 28.2578C281.845 29.4792 282.424 31.4342 282.424 34.123C282.424 34.5332 282.237 34.7383 281.863 34.7383H272.334C272.489 36.4974 272.963 37.7233 273.756 38.416C274.549 39.0996 275.447 39.4414 276.449 39.4414C277.507 39.4414 278.318 39.2637 278.883 38.9082C279.448 38.5527 279.863 38.2018 280.127 37.8555C280.419 37.4727 280.701 37.3997 280.975 37.6367L281.781 38.334C281.991 38.5163 281.991 38.7669 281.781 39.0859C281.608 39.3503 281.111 39.7741 280.291 40.3574C279.48 40.9408 278.199 41.2324 276.449 41.2324C274.171 41.2324 272.489 40.5625 271.404 39.2227C270.329 37.8828 269.791 36.0827 269.791 33.8223ZM272.279 32.9609H280.004C279.967 31.6849 279.639 30.5684 279.02 29.6113C278.4 28.6452 277.488 28.1621 276.285 28.1621C275.228 28.1621 274.33 28.5176 273.592 29.2285C272.854 29.9303 272.416 31.1745 272.279 32.9609ZM294.305 41C293.831 41 293.708 40.6992 293.936 40.0977L300.744 22.2285C300.954 21.6725 301.255 21.3945 301.646 21.3945H303.561C303.952 21.3945 304.253 21.6725 304.463 22.2285L311.271 40.0977C311.499 40.6992 311.376 41 310.902 41H309.508C309.025 41 308.697 40.7767 308.523 40.3301L306.814 35.8047H298.393L296.684 40.3301C296.51 40.7767 296.182 41 295.699 41H294.305ZM299.254 33.5625H305.953L303.861 28.0938C303.67 27.5833 303.479 27.0182 303.287 26.3984C303.105 25.7786 302.886 24.8991 302.631 23.7598H302.576C302.321 24.8991 302.098 25.7786 301.906 26.3984C301.724 27.0182 301.537 27.5833 301.346 28.0938L299.254 33.5625ZM314.115 41C313.705 41 313.5 40.7949 313.5 40.3848V23.3223C313.5 23.14 313.546 22.9668 313.637 22.8027L314.594 21.0664C314.767 20.7474 314.908 20.5879 315.018 20.5879H315.496C315.77 20.5879 315.906 20.7474 315.906 21.0664V40.3848C315.906 40.7949 315.701 41 315.291 41H314.115ZM319.01 33.8223C319.01 31.5618 319.575 29.7617 320.705 28.4219C321.835 27.082 323.453 26.4121 325.559 26.4121C327.309 26.4121 328.758 27.0273 329.906 28.2578C331.064 29.4792 331.643 31.4342 331.643 34.123C331.643 34.5332 331.456 34.7383 331.082 34.7383H321.553C321.708 36.4974 322.182 37.7233 322.975 38.416C323.768 39.0996 324.665 39.4414 325.668 39.4414C326.725 39.4414 327.536 39.2637 328.102 38.9082C328.667 38.5527 329.081 38.2018 329.346 37.8555C329.637 37.4727 329.92 37.3997 330.193 37.6367L331 38.334C331.21 38.5163 331.21 38.7669 331 39.0859C330.827 39.3503 330.33 39.7741 329.51 40.3574C328.699 40.9408 327.418 41.2324 325.668 41.2324C323.389 41.2324 321.708 40.5625 320.623 39.2227C319.548 37.8828 319.01 36.0827 319.01 33.8223ZM321.498 32.9609H329.223C329.186 31.6849 328.858 30.5684 328.238 29.6113C327.618 28.6452 326.707 28.1621 325.504 28.1621C324.447 28.1621 323.549 28.5176 322.811 29.2285C322.072 29.9303 321.635 31.1745 321.498 32.9609ZM333.707 27.3145C333.552 26.8678 333.675 26.6445 334.076 26.6445H335.566C335.858 26.6445 336.063 26.8223 336.182 27.1777L339.08 36.2012C339.317 36.9395 339.477 37.4499 339.559 37.7324C339.65 38.0059 339.732 38.3477 339.805 38.7578H339.859C339.932 38.3477 340.01 38.0059 340.092 37.7324C340.183 37.4499 340.347 36.9395 340.584 36.2012L343.482 27.1777C343.601 26.8223 343.806 26.6445 344.098 26.6445H345.588C345.989 26.6445 346.112 26.8678 345.957 27.3145L341.473 40.166C341.281 40.722 341.035 41 340.734 41H338.93C338.629 41 338.383 40.722 338.191 40.166L333.707 27.3145ZM348.896 41C348.486 41 348.281 40.7949 348.281 40.3848V27.2598C348.281 26.8496 348.486 26.6445 348.896 26.6445H350.072C350.482 26.6445 350.688 26.8496 350.688 27.2598V40.3848C350.688 40.7949 350.482 41 350.072 41H348.896ZM348.896 24.0469C348.486 24.0469 348.281 23.8418 348.281 23.4316V22.2559C348.281 21.8457 348.486 21.6406 348.896 21.6406H350.072C350.482 21.6406 350.688 21.8457 350.688 22.2559V23.4316C350.688 23.8418 350.482 24.0469 350.072 24.0469H348.896ZM353.996 41C353.586 41 353.381 40.8405 353.381 40.5215V39.8242C353.381 39.5143 353.54 39.1497 353.859 38.7305L361.762 28.4492V28.4219C361.488 28.4401 361.215 28.4492 360.941 28.4492H354.324C353.914 28.4492 353.709 28.2897 353.709 27.9707V27.123C353.709 26.804 353.914 26.6445 354.324 26.6445H363.922C364.332 26.6445 364.537 26.804 364.537 27.123V27.7656C364.537 28.0391 364.368 28.3945 364.031 28.832L356.074 39.1953V39.2227C356.348 39.2044 356.621 39.1953 356.895 39.1953H364.25C364.66 39.1953 364.865 39.3548 364.865 39.6738V40.5215C364.865 40.8405 364.66 41 364.25 41H353.996ZM366.779 33.8223C366.779 31.6803 367.344 29.9121 368.475 28.5176C369.614 27.1139 371.277 26.4121 373.465 26.4121C375.652 26.4121 377.311 27.1139 378.441 28.5176C379.581 29.9121 380.15 31.6803 380.15 33.8223C380.15 35.9642 379.581 37.737 378.441 39.1406C377.311 40.5352 375.652 41.2324 373.465 41.2324C371.277 41.2324 369.614 40.5352 368.475 39.1406C367.344 37.737 366.779 35.9642 366.779 33.8223ZM369.322 33.8223C369.322 35.7363 369.701 37.1536 370.457 38.0742C371.214 38.9948 372.216 39.4551 373.465 39.4551C374.714 39.4551 375.716 38.9948 376.473 38.0742C377.229 37.1536 377.607 35.7363 377.607 33.8223C377.607 31.9082 377.229 30.4909 376.473 29.5703C375.716 28.6497 374.714 28.1895 373.465 28.1895C372.216 28.1895 371.214 28.6497 370.457 29.5703C369.701 30.4909 369.322 31.9082 369.322 33.8223ZM382.693 39.6602C382.411 39.3958 382.352 39.1497 382.516 38.9219L383.131 38.0605C383.331 37.7871 383.628 37.8008 384.02 38.1016C384.557 38.5117 385.154 38.8398 385.811 39.0859C386.476 39.332 387.232 39.4551 388.08 39.4551C388.581 39.4551 389.028 39.3958 389.42 39.2773C389.812 39.1497 390.154 38.9173 390.445 38.5801C390.746 38.2428 390.896 37.7917 390.896 37.2266C390.896 36.8984 390.824 36.5885 390.678 36.2969C390.541 36.0052 390.322 35.7728 390.021 35.5996C389.73 35.4173 389.443 35.276 389.16 35.1758C388.695 35.0026 388.23 34.8613 387.766 34.752C387.31 34.6335 386.708 34.4557 385.961 34.2188C385.46 34.0638 384.986 33.8451 384.539 33.5625C384.092 33.2708 383.701 32.8789 383.363 32.3867C383.035 31.8945 382.871 31.2155 382.871 30.3496C382.871 29.4655 383.14 28.7044 383.678 28.0664C384.215 27.4284 384.89 26.9954 385.701 26.7676C386.512 26.5306 387.301 26.4121 388.066 26.4121C389.197 26.4121 390.104 26.5443 390.787 26.8086C391.48 27.0638 392.077 27.3691 392.578 27.7246C392.87 27.9342 392.911 28.1758 392.701 28.4492L392.086 29.2695C391.895 29.5339 391.598 29.5247 391.197 29.2422C390.86 29.0052 390.382 28.7819 389.762 28.5723C389.142 28.3626 388.6 28.2578 388.135 28.2578C387.561 28.2578 387.068 28.3216 386.658 28.4492C386.248 28.5768 385.915 28.7956 385.66 29.1055C385.405 29.4154 385.277 29.7799 385.277 30.1992C385.277 30.5182 385.327 30.8053 385.428 31.0605C385.528 31.3066 385.715 31.5345 385.988 31.7441C386.262 31.9538 386.645 32.1224 387.137 32.25C387.902 32.4505 388.6 32.6328 389.229 32.7969C389.867 32.9609 390.441 33.1615 390.951 33.3984C391.617 33.7083 392.127 34.0501 392.482 34.4238C392.847 34.7975 393.098 35.2031 393.234 35.6406C393.371 36.069 393.439 36.5475 393.439 37.0762C393.439 38.0514 393.148 38.8763 392.564 39.5508C391.99 40.2253 391.348 40.6764 390.637 40.9043C389.926 41.123 389.069 41.2324 388.066 41.2324C386.708 41.2324 385.542 41.041 384.566 40.6582C383.6 40.2663 382.976 39.9336 382.693 39.6602Z" fill="#001F28"/>
<line x1="124" y1="58" x2="400" y2="58" stroke="#016F92" stroke-width="8"/>
</svg>
