<svg width="120" height="180" viewBox="0 0 120 180" fill="none" xmlns="http://www.w3.org/2000/svg">
<rect width="120" height="180" fill="white"/>
<path fill-rule="evenodd" clip-rule="evenodd" d="M38.1045 35.0078C38.45 33.5282 38.7805 32.0457 39.0958 30.5609C37.4836 32.8667 35.6782 35.0937 33.5867 37.23C33.4238 37.3963 33.2547 37.5709 33.0796 37.7515L33.0782 37.7529L33.0769 37.7543C31.9614 38.9055 30.6055 40.3047 29.0989 41.418C27.2809 42.7614 25.0014 43.8865 22.1711 43.8971C20.6924 43.9027 19.1933 43.7135 17.6019 42.9847C13.5527 41.1302 10.4991 37.1292 10.0172 32.6212C9.84115 30.9737 11.0344 29.5002 12.6825 29.3301C14.3306 29.1599 15.8094 30.3575 15.9855 32.005C16.2293 34.2861 17.862 36.5149 20.0868 37.5338C20.6541 37.7936 21.2261 37.9028 22.1275 37.8994C23.2737 37.8951 24.3375 37.4643 25.5191 36.5911C26.5976 35.7942 27.5716 34.7926 28.713 33.6189L28.7134 33.6185C28.9004 33.4262 29.0918 33.2293 29.289 33.0279C33.9925 28.2238 37.141 22.8157 40.2048 16.5613C40.5157 15.9267 40.8497 15.3207 41.1471 14.7823L41.1701 14.7406C41.4688 14.1997 41.7305 13.726 41.9685 13.2487L41.9671 13.2515L41.9683 13.2488L41.9683 13.2488L41.9683 13.2487C41.973 13.2382 41.9907 13.1983 42.0224 13.1179C42.0623 13.0167 42.1092 12.8903 42.1646 12.7364C42.1977 12.6444 42.2392 12.5268 42.2841 12.3995L42.2842 12.3993C42.3645 12.1719 42.4557 11.9135 42.5293 11.7147L42.5407 11.6837L42.5408 11.6836L42.5408 11.6836C42.6278 11.4477 42.8429 10.8644 43.144 10.4133C43.2249 10.292 43.4733 9.92641 43.9097 9.60403C44.3677 9.26567 45.6614 8.57848 47.1393 9.35756C48.2269 9.93092 48.56 10.9197 48.6242 11.1102L48.6242 11.1102L48.6259 11.1152C48.7372 11.4451 48.7746 11.734 48.7906 11.8829C48.8878 12.7924 48.7334 13.6231 48.6283 14.1254C48.5645 14.4299 48.5188 14.625 48.4839 14.7739L48.4839 14.7739L48.4839 14.7739L48.4839 14.774C48.4399 14.9616 48.4131 15.076 48.389 15.2441C47.9153 18.5446 47.1354 21.977 46.3936 25.2417L46.3936 25.2418L46.3936 25.2419L46.3935 25.2421C46.0201 26.8858 45.6563 28.487 45.3461 30.0075C45.2452 30.5017 45.1428 30.9957 45.0387 31.4894C46.4256 31.1234 47.7961 30.9065 49.0537 30.7995C53.457 30.425 57.2953 31.8017 60.1793 34.9321C61.2249 34.4156 62.1546 33.9633 63.0297 33.5376C65.9697 32.1073 68.2921 30.9776 72.3175 28.7215C79.99 24.4213 86.0433 20.2076 90.344 16.8549C94.7223 13.4417 97.131 11.041 97.6454 10.3924C98.675 9.09424 100.562 8.87652 101.86 9.90608C103.158 10.9356 103.376 12.8226 102.346 14.1208C101.365 15.3582 98.4803 18.1199 94.0329 21.5869C89.5081 25.1143 83.2034 29.4985 75.2509 33.9555C71.0877 36.2888 68.5373 37.5307 65.4855 39.0168L65.4855 39.0168C64.8687 39.3171 64.2314 39.6274 63.5563 39.9587C64.0095 40.7866 64.4371 41.6277 64.8416 42.4759C70.5966 39.2956 77.0666 37.3606 83.7321 37.4029C87.6601 37.4278 91.8434 38.3526 95.4485 40.2074C99.7828 42.4374 103.163 46.8205 105.184 50.7114C108.935 57.9308 108.697 67.1152 107.173 74.6475C108.7 74.6519 110.003 75.817 110.148 77.3689C110.302 79.0186 109.089 80.4807 107.439 80.6347C106.678 80.7057 106.063 80.7667 105.555 80.8215C104.659 83.6235 103.572 86.3934 102.413 89.0341C102.329 89.2988 102.23 89.5924 102.126 89.8963C101.783 90.8962 101.23 92.4448 100.458 94.6033L100.458 94.6037L100.455 94.6098C100.248 95.19 100.025 95.8143 99.7855 96.4837C98.855 99.0887 98.4066 101.008 98.1907 102.229C98.0826 102.839 98.0326 103.276 98.0095 103.539C97.9979 103.67 97.9931 103.757 97.9912 103.801L97.9903 103.826V104.058L97.9465 104.312L97.9465 104.312L97.9464 104.312L97.9463 104.312L97.9453 104.319L97.9403 104.348L97.9193 104.474C97.9007 104.586 97.8732 104.756 97.8389 104.975C97.7703 105.414 97.6744 106.052 97.5677 106.838C97.3537 108.413 97.0981 110.566 96.9282 112.89C96.7575 115.224 96.6779 117.673 96.7997 119.854C96.926 122.115 97.2552 123.765 97.7012 124.706C98.4108 126.203 97.7723 127.992 96.275 128.701C94.7778 129.411 92.9889 128.773 92.2793 127.275C91.3199 125.251 90.9463 122.644 90.8091 120.188C90.6674 117.653 90.7634 114.925 90.9441 112.453C91.0118 111.527 91.092 110.629 91.1777 109.781C90.3663 110.694 89.4079 111.76 88.3488 112.901C86.9273 114.548 85.4822 116.076 84.354 117.044C84.2924 117.097 84.2308 117.15 84.1692 117.202C80.785 120.506 76.7664 123.949 73.0899 125.601C68.3594 127.726 61.0713 130.932 54.1927 131.333C50.6896 131.537 47.0437 131.034 43.8344 129.085C40.5762 127.107 38.1126 123.848 36.6403 119.199C34.2772 111.738 34.4527 104.857 35.0167 98.6143C35.6144 91.9979 37.88 79.6686 39.5723 73.637C39.6699 73.2892 39.8249 72.9731 40.0242 72.6959C40.3642 71.6456 40.7353 70.6168 41.1242 69.6121C42.2085 66.8116 43.6152 64.1292 45.2795 61.6646C48.6123 56.7292 52.5924 51.6253 57.3267 47.6489C58.1103 46.9908 58.9176 46.3551 59.7466 45.7446C59.2599 44.6831 58.7419 43.6471 58.1875 42.6476C55.1406 44.174 52.0593 45.6108 48.5158 46.6384C47.6548 46.8881 46.7005 47.1174 45.8893 47.2856C45.208 47.4269 44.2766 47.6024 43.6543 47.6024C43.6616 47.6024 42.4587 47.6798 41.0541 47.5254C40.1646 50.6237 39.2095 53.7023 38.1891 56.7552C34.6443 67.3606 30.8388 78.4657 25.0773 88.5518C24.9767 88.7278 24.8595 88.9424 24.7275 89.1842L24.7264 89.186L24.7263 89.1863C24.2073 90.1366 23.4587 91.5072 22.5869 92.6169C21.442 94.0742 19.575 95.7809 16.781 95.8574C15.1243 95.9027 13.7398 94.5973 13.6886 92.9417C13.6374 91.2861 14.9389 89.9072 16.5956 89.8618C16.7881 89.8566 17.1784 89.7715 17.8608 88.9029C18.3953 88.2226 18.8044 87.477 19.2859 86.5994L19.2862 86.5989C19.4648 86.2735 19.6533 85.9299 19.8619 85.5647C25.2911 76.0604 28.9335 65.4935 32.4953 54.8371C33.6033 51.5224 34.6324 48.1755 35.5822 44.8048C35.0191 44.0268 34.6409 43.0677 34.5697 41.9384C34.5645 41.8558 34.5627 41.7738 34.5641 41.6925L34.5639 41.6721L34.5638 41.644C34.5638 40.0566 35.1339 38.7298 35.4918 38.1193C35.9609 37.3192 36.8533 36.2358 37.3997 35.6766C37.6272 35.4437 37.8624 35.2209 38.1045 35.0078ZM41.4092 95.5432C41.2307 96.8717 41.0881 98.0947 40.9924 99.1542C40.4535 105.119 40.3558 111.058 42.3603 117.387L39.7418 118.217L42.3603 117.387C43.4802 120.924 45.1557 122.868 46.9485 123.957C47.0763 124.034 47.2063 124.109 47.3387 124.18C47.3404 124.154 47.3421 124.129 47.344 124.104C47.4021 123.321 47.5736 122.518 47.7849 121.761C48.208 120.244 48.8879 118.574 49.6042 117.011C51.0453 113.866 52.8138 110.773 53.5778 109.48C54.7336 107.524 55.9847 105.639 57.3159 103.825C54.2087 104.036 50.8659 103.607 48.1062 101.933C45.3394 100.255 43.0756 98.1369 41.4092 95.5432ZM83.8707 108.906C82.8943 109.956 81.8347 111.065 80.7239 112.173C80.5238 112.372 80.3233 112.571 80.1225 112.767C75.6682 116.538 71.2576 119.154 64.6242 121.737C64.3858 121.805 64.1519 121.872 63.9221 121.938C59.7441 123.138 56.9378 123.945 53.5774 123.326C53.8798 122.259 54.4067 120.933 55.0586 119.511C56.3732 116.642 58.0216 113.754 58.7433 112.532C61.3376 108.142 64.484 104.107 67.9967 100.425C68.029 100.393 68.0604 100.36 68.091 100.326C69.1353 99.2358 70.2118 98.1763 71.3156 97.1479C71.3944 97.0746 71.4733 97.0014 71.5524 96.9286C72.3678 98.5012 73.379 100.036 74.7052 101.799C77.3309 105.29 81.5921 105.834 84.1062 105.834C85.0298 105.834 85.8798 105.693 86.6488 105.47C86.1277 106.159 85.5563 106.884 84.9587 107.612C84.5939 108.056 84.2292 108.49 83.8707 108.906ZM97.3528 85.6249C97.2152 85.7888 97.1202 85.9333 97.0815 85.9925C96.7958 86.4292 96.2807 87.4395 95.6861 88.6057L95.6861 88.6058C95.5977 88.779 95.5076 88.9557 95.4163 89.1345C95.3694 89.2262 95.3216 89.3197 95.2729 89.4149C95.2036 89.4983 95.1311 89.5855 95.0557 89.6762C94.3682 90.5023 93.4383 91.6131 92.4652 92.7556C91.4894 93.9013 90.4826 95.0643 89.638 96.0005C89.2147 96.4697 88.8466 96.8658 88.552 97.1675C88.2941 97.4316 88.159 97.5538 88.1212 97.5881C88.1147 97.594 88.111 97.5973 88.1101 97.5983C88.1099 97.5985 88.1098 97.5986 88.1099 97.5986C88.1101 97.5985 88.1104 97.5983 88.1109 97.5979L88.1123 97.5969C87.9072 97.751 87.5795 98.0378 87.3577 98.232L87.3571 98.2324L87.3568 98.2327C87.3362 98.2508 87.3165 98.268 87.2979 98.2842C87.2754 98.3039 87.2545 98.3222 87.2355 98.3387C87.2232 98.3494 87.2118 98.3593 87.2012 98.3684C87.1938 98.3747 87.1869 98.3807 87.1804 98.3862C86.8886 98.6353 86.5775 98.8832 86.2353 99.1066C85.5429 99.5588 84.841 99.8344 84.1062 99.8344C82.075 99.8344 80.3545 99.328 79.5 98.192C77.9622 96.1477 77.0202 94.6151 76.3187 92.9845C82.8548 88.1376 90.2346 84.7837 98.1885 82.6385C98.3311 82.6 98.4693 82.5625 98.6032 82.5258C98.2064 83.5701 97.7872 84.605 97.3528 85.6249ZM61.1856 52.2434C61.4722 52.0026 61.7619 51.7658 62.0545 51.5329C63.0419 54.4454 63.8848 58.8643 64.6416 63.8971C65.1653 67.3802 65.6282 71.0116 66.0714 74.4877C66.2861 76.1719 66.4961 77.8195 66.7062 79.3962C67.2241 83.2834 68.161 87.2111 69.2787 90.9256C68.5848 91.5187 67.9003 92.1294 67.2255 92.758C66.1439 93.7657 65.0833 94.8045 64.0482 95.8746C62.1299 96.8482 59.733 97.5736 57.3753 97.8006C54.8141 98.0471 52.6562 97.6758 51.2178 96.8033C47.5764 94.5947 45.3006 91.5305 44.4819 87.1764C43.5317 82.1221 44.7001 76.9945 46.7195 71.7784C47.6404 69.4 48.8374 67.117 50.2519 65.0224C53.4534 60.2815 57.0697 55.7003 61.1856 52.2434ZM72.6536 78.6039C73.0217 81.3664 73.6324 84.1973 74.3902 86.9843C81.1764 82.2745 88.6864 78.9868 96.6261 76.8455C98.0006 76.4748 98.9218 76.1972 99.6231 75.9799C99.7598 75.9375 99.8938 75.8956 100.026 75.8544L100.027 75.854C100.295 75.7702 100.553 75.6893 100.806 75.6136C102.633 68.2852 103.031 59.5816 99.86 53.4776C98.1342 50.1557 95.497 46.98 92.7035 45.5427C90.0101 44.1569 86.7671 43.4223 83.694 43.4028C77.9927 43.3666 72.3055 45.1001 67.1765 48.046C67.3232 48.4413 67.4661 48.8354 67.6054 49.2277C68.8527 52.7384 69.794 57.8119 70.5749 63.0049C71.1083 66.553 71.5872 70.3082 72.0352 73.8213L72.0352 73.8216L72.0354 73.823C72.2476 75.4868 72.4528 77.0964 72.6536 78.6039ZM43.3007 41.6091H43.3009H43.301C43.4029 41.6064 43.4966 41.6039 43.5805 41.6028L43.589 41.6018C43.6168 41.5986 43.6888 41.5901 43.8171 41.5699C44.037 41.5353 44.3294 41.4815 44.6711 41.4106C45.3567 41.2684 46.1573 41.0752 46.8447 40.8758C49.4921 40.1081 51.8651 39.0681 54.399 37.8281C53.0525 36.9501 51.4606 36.6165 49.5622 36.7779C47.3561 36.9656 45.1545 37.5517 43.4364 38.5422C43.1862 39.5692 42.9288 40.5948 42.6643 41.6187C42.8989 41.62 43.1138 41.6142 43.3007 41.6091ZM53.3241 124.713C53.324 124.713 53.3235 124.709 53.3231 124.7C53.3241 124.708 53.3243 124.712 53.3241 124.713Z" fill="#001E28"/>
<path d="M39.0958 30.5609L39.5849 30.6648L38.6861 30.2744L39.0958 30.5609ZM38.1045 35.0078L38.4349 35.383L38.555 35.2773L38.5914 35.1215L38.1045 35.0078ZM33.5867 37.23L33.9439 37.5798L33.9439 37.5798L33.5867 37.23ZM33.0796 37.7515L33.4383 38.0999L33.4386 38.0995L33.0796 37.7515ZM33.0782 37.7529L32.7195 37.4046L32.7189 37.4052L33.0782 37.7529ZM33.0769 37.7543L33.4359 38.1023L33.4362 38.102L33.0769 37.7543ZM29.0989 41.418L28.8017 41.0159L28.8017 41.0159L29.0989 41.418ZM22.1711 43.8971L22.173 44.3971L22.173 44.3971L22.1711 43.8971ZM17.6019 42.9847L17.3937 43.4393L17.3937 43.4393L17.6019 42.9847ZM10.0172 32.6212L9.52007 32.6743L9.52007 32.6743L10.0172 32.6212ZM12.6825 29.3301L12.7339 29.8274L12.7339 29.8274L12.6825 29.3301ZM15.9855 32.005L16.4827 31.9519L16.4827 31.9519L15.9855 32.005ZM20.0868 37.5338L19.8786 37.9884L19.8786 37.9884L20.0868 37.5338ZM22.1275 37.8994L22.1256 37.3994L22.1256 37.3994L22.1275 37.8994ZM25.5191 36.5911L25.222 36.189L25.222 36.189L25.5191 36.5911ZM28.713 33.6189L28.3547 33.2701L28.3545 33.2703L28.713 33.6189ZM28.7134 33.6185L29.0716 33.9673L29.0718 33.967L28.7134 33.6185ZM29.289 33.0279L29.6463 33.3777L29.6463 33.3777L29.289 33.0279ZM40.2048 16.5613L39.7558 16.3414L39.7558 16.3414L40.2048 16.5613ZM41.1471 14.7823L40.7094 14.5405L40.7094 14.5406L41.1471 14.7823ZM41.1701 14.7406L40.7324 14.4989L40.7324 14.4989L41.1701 14.7406ZM41.9685 13.2487L42.416 13.4718L41.5224 13.0229L41.9685 13.2487ZM41.9671 13.2515L41.5088 13.0516L42.4132 13.4773L41.9671 13.2515ZM41.9683 13.2488L41.5159 13.0359L41.5128 13.0423L41.51 13.0489L41.9683 13.2488ZM41.9683 13.2488L42.4208 13.4617L42.4242 13.4539L41.9683 13.2488ZM41.9683 13.2487L42.4243 13.4539L42.4253 13.4516L41.9683 13.2487ZM42.0224 13.1179L41.5573 12.9344L41.5573 12.9344L42.0224 13.1179ZM42.1646 12.7364L42.6351 12.9056L42.6351 12.9056L42.1646 12.7364ZM42.2841 12.3995L41.8142 12.2287L41.8126 12.2331L42.2841 12.3995ZM42.2842 12.3993L42.7541 12.5702L42.7557 12.5658L42.2842 12.3993ZM42.5293 11.7147L42.9982 11.8883L42.9983 11.8879L42.5293 11.7147ZM42.5407 11.6837L43.0098 11.8569L43.0106 11.8546L42.5407 11.6837ZM42.5408 11.6836L43.0107 11.8545L43.0119 11.8511L42.5408 11.6836ZM42.5408 11.6836L42.0716 11.5106L42.0697 11.5161L42.5408 11.6836ZM43.144 10.4133L43.5599 10.6909L43.5599 10.6909L43.144 10.4133ZM43.9097 9.60403L44.2068 10.0062L44.2068 10.0062L43.9097 9.60403ZM47.1393 9.35756L46.9061 9.79987L46.9061 9.79987L47.1393 9.35756ZM48.6242 11.1102L49.0985 10.9521L49.098 10.9505L48.6242 11.1102ZM48.6242 11.1102L48.1499 11.2683L48.1503 11.2697L48.6242 11.1102ZM48.6259 11.1152L48.152 11.2747L48.1521 11.2751L48.6259 11.1152ZM48.7906 11.8829L49.2877 11.8298L49.2877 11.8298L48.7906 11.8829ZM48.6283 14.1254L49.1177 14.2278L49.1177 14.2278L48.6283 14.1254ZM48.4839 14.7739L47.9971 14.6598L47.9965 14.6624L48.4839 14.7739ZM48.4839 14.7739L48.9633 14.9159L48.9678 14.9008L48.9714 14.8853L48.4839 14.7739ZM48.4839 14.7739L48.0045 14.6319L48.0005 14.6456L47.9972 14.6594L48.4839 14.7739ZM48.4839 14.774L47.9972 14.6595L47.9971 14.6599L48.4839 14.774ZM48.389 15.2441L48.8839 15.3151L48.8839 15.3151L48.389 15.2441ZM46.3936 25.2417L46.868 25.3998L46.8758 25.3765L46.8812 25.3525L46.3936 25.2417ZM46.3936 25.2418L45.9193 25.0836L45.9123 25.1045L45.9072 25.1259L46.3936 25.2418ZM46.3936 25.2419L45.9072 25.1261L45.9058 25.1321L46.3936 25.2419ZM46.3935 25.2421L46.8811 25.3529L46.8814 25.3519L46.3935 25.2421ZM45.3461 30.0075L44.8561 29.9075L44.8561 29.9075L45.3461 30.0075ZM45.0387 31.4894L44.5494 31.3863L44.3821 32.1798L45.1663 31.9729L45.0387 31.4894ZM49.0537 30.7995L49.0961 31.2977L49.0961 31.2977L49.0537 30.7995ZM60.1793 34.9321L59.8115 35.2709L60.0651 35.5462L60.4007 35.3804L60.1793 34.9321ZM63.0297 33.5376L62.8109 33.088L62.8109 33.088L63.0297 33.5376ZM72.3175 28.7215L72.5619 29.1577L72.5619 29.1577L72.3175 28.7215ZM90.344 16.8549L90.0366 16.4605L90.0366 16.4605L90.344 16.8549ZM97.6454 10.3924L97.2537 10.0817L97.2537 10.0817L97.6454 10.3924ZM101.86 9.90608L102.171 9.51433L102.171 9.51433L101.86 9.90608ZM102.346 14.1208L101.955 13.8101L101.955 13.8101L102.346 14.1208ZM94.0329 21.5869L93.7255 21.1925L93.7255 21.1925L94.0329 21.5869ZM75.2509 33.9555L75.0065 33.5193L75.0065 33.5193L75.2509 33.9555ZM65.4855 39.0168L65.2666 38.5672L65.2619 38.5696L65.4855 39.0168ZM65.4855 39.0168L65.7044 39.4663L65.7091 39.464L65.4855 39.0168ZM63.5563 39.9587L63.336 39.5098L62.8666 39.7402L63.1177 40.1988L63.5563 39.9587ZM64.8416 42.4759L64.3903 42.6911L64.6188 43.1703L65.0834 42.9136L64.8416 42.4759ZM83.7321 37.4029L83.7353 36.9029L83.7353 36.9029L83.7321 37.4029ZM95.4485 40.2074L95.6772 39.7628L95.6772 39.7628L95.4485 40.2074ZM105.184 50.7114L105.628 50.4809L105.628 50.4809L105.184 50.7114ZM107.173 74.6475L106.683 74.5483L106.562 75.1457L107.172 75.1475L107.173 74.6475ZM110.148 77.3689L109.65 77.4153L109.65 77.4153L110.148 77.3689ZM107.439 80.6347L107.393 80.1368L107.393 80.1368L107.439 80.6347ZM105.555 80.8215L105.502 80.3244L105.178 80.3593L105.079 80.6692L105.555 80.8215ZM102.413 89.0341L101.955 88.8331L101.944 88.8578L101.936 88.8835L102.413 89.0341ZM102.126 89.8963L102.599 90.0584L102.599 90.0584L102.126 89.8963ZM100.458 94.6033L99.9869 94.435L99.9862 94.4369L100.458 94.6033ZM100.458 94.6037L100.929 94.7713L100.929 94.7701L100.458 94.6037ZM100.455 94.6098L100.926 94.7782L100.926 94.7774L100.455 94.6098ZM99.7855 96.4837L100.256 96.6519L100.256 96.6519L99.7855 96.4837ZM98.1907 102.229L97.6983 102.141L97.6983 102.141L98.1907 102.229ZM98.0095 103.539L98.5076 103.582L98.5076 103.582L98.0095 103.539ZM97.9912 103.801L97.4917 103.779L97.4916 103.781L97.9912 103.801ZM97.9903 103.826L97.4906 103.806L97.4903 103.816V103.826H97.9903ZM97.9903 104.058L98.483 104.144L98.4903 104.101V104.058H97.9903ZM97.9465 104.312L97.4538 104.226L97.4522 104.236L97.4509 104.245L97.9465 104.312ZM97.9465 104.312L98.4403 104.391L98.4421 104.378L97.9465 104.312ZM97.9464 104.312L98.4367 104.41L98.4385 104.401L98.44 104.392L97.9464 104.312ZM97.9463 104.312L97.4559 104.214L97.4536 104.228L97.9463 104.312ZM97.9453 104.319L97.4525 104.234L97.4523 104.235L97.9453 104.319ZM97.9403 104.348L97.4473 104.264L97.4471 104.266L97.9403 104.348ZM97.9193 104.474L97.4261 104.391L97.426 104.392L97.9193 104.474ZM97.8389 104.975L98.3329 105.052L98.3329 105.052L97.8389 104.975ZM97.5677 106.838L97.0722 106.77L97.0722 106.77L97.5677 106.838ZM96.9282 112.89L97.4268 112.927L97.4268 112.927L96.9282 112.89ZM96.7997 119.854L97.2989 119.826L97.2989 119.826L96.7997 119.854ZM97.7012 124.706L98.1531 124.492L98.1531 124.492L97.7012 124.706ZM96.275 128.701L96.4892 129.153L96.4892 129.153L96.275 128.701ZM92.2793 127.275L92.7311 127.061L92.7311 127.061L92.2793 127.275ZM90.8091 120.188L91.3083 120.161L91.3083 120.161L90.8091 120.188ZM90.9441 112.453L91.4428 112.489L91.4428 112.489L90.9441 112.453ZM91.1777 109.781L91.6752 109.831L91.8304 108.293L90.8039 109.449L91.1777 109.781ZM88.3488 112.901L87.9824 112.561L87.9763 112.568L87.9704 112.574L88.3488 112.901ZM84.354 117.044L84.6797 117.424L84.6797 117.424L84.354 117.044ZM84.1692 117.202L83.8448 116.822L83.832 116.833L83.8199 116.845L84.1692 117.202ZM73.0899 125.601L72.885 125.145L72.885 125.145L73.0899 125.601ZM54.1927 131.333L54.2218 131.832L54.2218 131.832L54.1927 131.333ZM43.8344 129.085L43.5749 129.513L43.5749 129.513L43.8344 129.085ZM36.6403 119.199L37.117 119.048L37.117 119.048L36.6403 119.199ZM35.0167 98.6143L35.5147 98.6593L35.5147 98.6593L35.0167 98.6143ZM39.5723 73.637L39.0909 73.5019L39.0909 73.5019L39.5723 73.637ZM40.0242 72.6959L40.4302 72.9878L40.4758 72.9243L40.4999 72.8499L40.0242 72.6959ZM41.1242 69.6121L41.5905 69.7927L41.5905 69.7927L41.1242 69.6121ZM45.2795 61.6646L44.8651 61.3847L44.8651 61.3847L45.2795 61.6646ZM57.3267 47.6489L57.6483 48.0318L57.6483 48.0318L57.3267 47.6489ZM59.7466 45.7446L60.0431 46.1472L60.3707 45.906L60.2011 45.5362L59.7466 45.7446ZM58.1875 42.6476L58.6248 42.4051L58.3922 41.9858L57.9636 42.2006L58.1875 42.6476ZM48.5158 46.6384L48.3766 46.1582L48.3766 46.1582L48.5158 46.6384ZM45.8893 47.2856L45.9908 47.7752L45.9908 47.7752L45.8893 47.2856ZM41.0541 47.5254L41.1087 47.0283L40.6898 46.9823L40.5735 47.3874L41.0541 47.5254ZM38.1891 56.7552L38.6633 56.9137L38.1891 56.7552ZM25.0773 88.5518L25.5114 88.7998L25.5114 88.7998L25.0773 88.5518ZM24.7275 89.1842L24.2886 88.9445L24.2886 88.9446L24.7275 89.1842ZM24.7264 89.186L24.2876 88.9464L24.2858 88.9496L24.7264 89.186ZM24.7263 89.1863L25.1651 89.426L25.1669 89.4227L24.7263 89.1863ZM22.5869 92.6169L22.1937 92.308L22.1937 92.308L22.5869 92.6169ZM16.781 95.8574L16.7947 96.3572L16.7947 96.3572L16.781 95.8574ZM13.6886 92.9417L13.1888 92.9572L13.1888 92.9572L13.6886 92.9417ZM16.5956 89.8618L16.6092 90.3617L16.6092 90.3617L16.5956 89.8618ZM17.8608 88.9029L17.4676 88.594L17.4676 88.594L17.8608 88.9029ZM19.2859 86.5994L19.7243 86.8399L19.725 86.8385L19.2859 86.5994ZM19.2862 86.5989L18.8478 86.3584L18.8471 86.3597L19.2862 86.5989ZM19.8619 85.5647L19.4277 85.3167L19.4277 85.3167L19.8619 85.5647ZM32.4953 54.8371L32.9695 54.9956L32.9695 54.9956L32.4953 54.8371ZM35.5822 44.8048L36.0634 44.9404L36.129 44.7076L35.9872 44.5117L35.5822 44.8048ZM34.5697 41.9384L35.0687 41.9069L35.0687 41.9069L34.5697 41.9384ZM34.5641 41.6925L35.0641 41.7014L35.0642 41.6938L35.0641 41.6862L34.5641 41.6925ZM34.5639 41.6721L34.0639 41.6744L34.0639 41.6784L34.5639 41.6721ZM34.5638 41.644L34.0637 41.644L34.0638 41.6463L34.5638 41.644ZM35.4918 38.1193L35.0605 37.8664L35.0605 37.8664L35.4918 38.1193ZM37.3997 35.6766L37.042 35.3271L37.042 35.3271L37.3997 35.6766ZM41.4092 95.5432L41.8298 95.273L41.0948 94.1289L40.9136 95.4766L41.4092 95.5432ZM40.9924 99.1542L40.4944 99.1092L40.4944 99.1092L40.9924 99.1542ZM42.3603 117.387L42.5113 117.864L42.9879 117.713L42.837 117.236L42.3603 117.387ZM39.7418 118.217L39.5909 117.74L39.8928 118.693L39.7418 118.217ZM42.3603 117.387L42.837 117.237L42.686 116.76L42.2094 116.911L42.3603 117.387ZM46.9485 123.957L46.689 124.384L46.689 124.384L46.9485 123.957ZM47.3387 124.18L47.1024 124.62L47.7872 124.988L47.8377 124.212L47.3387 124.18ZM47.344 124.104L47.8426 124.141L47.8426 124.141L47.344 124.104ZM47.7849 121.761L48.2665 121.895L48.2665 121.895L47.7849 121.761ZM49.6042 117.011L50.0587 117.219L50.0587 117.219L49.6042 117.011ZM53.5778 109.48L53.1474 109.225L53.1474 109.225L53.5778 109.48ZM57.3159 103.825L57.719 104.121L58.3556 103.253L57.2821 103.326L57.3159 103.825ZM48.1062 101.933L47.8469 102.361L47.8469 102.361L48.1062 101.933ZM80.7239 112.173L81.0769 112.527L81.0769 112.527L80.7239 112.173ZM83.8707 108.906L84.2369 109.247L84.2434 109.24L84.2496 109.233L83.8707 108.906ZM80.1225 112.767L80.4455 113.149L80.4594 113.137L80.4724 113.125L80.1225 112.767ZM64.6242 121.737L64.7618 122.218L64.7841 122.211L64.8056 122.203L64.6242 121.737ZM63.9221 121.938L63.784 121.458L63.784 121.458L63.9221 121.938ZM53.5774 123.326L53.0963 123.19L52.9466 123.718L53.4869 123.818L53.5774 123.326ZM55.0586 119.511L54.6041 119.302L54.6041 119.302L55.0586 119.511ZM58.7433 112.532L59.1738 112.787L59.1738 112.787L58.7433 112.532ZM67.9967 100.425L67.6432 100.071L67.635 100.08L67.9967 100.425ZM68.091 100.326L67.7297 99.9806L67.7217 99.9894L68.091 100.326ZM71.3156 97.1479L70.9748 96.7821L70.9748 96.7821L71.3156 97.1479ZM71.5524 96.9286L71.9962 96.6984L71.6949 96.1173L71.2136 96.5609L71.5524 96.9286ZM74.7052 101.799L75.1047 101.498L75.1047 101.498L74.7052 101.799ZM86.6488 105.47L87.0476 105.772L87.9557 104.571L86.5095 104.99L86.6488 105.47ZM84.9587 107.612L84.5722 107.295L84.5722 107.295L84.9587 107.612ZM97.0815 85.9925L96.663 85.7188L96.663 85.7188L97.0815 85.9925ZM97.3528 85.6249L97.7357 85.9465L97.7837 85.8894L97.8129 85.8208L97.3528 85.6249ZM95.6861 88.6057L96.1021 88.883L96.1183 88.8588L96.1316 88.8328L95.6861 88.6057ZM95.6861 88.6058L95.27 88.3284L95.2539 88.3527L95.2406 88.3786L95.6861 88.6058ZM95.4163 89.1345L95.8615 89.362L95.8615 89.362L95.4163 89.1345ZM95.2729 89.4149L95.6575 89.7344L95.6928 89.6919L95.718 89.6427L95.2729 89.4149ZM95.0557 89.6762L94.6714 89.3563L94.6714 89.3563L95.0557 89.6762ZM92.4652 92.7556L92.0845 92.4314L92.0845 92.4314L92.4652 92.7556ZM89.638 96.0005L89.2667 95.6656L89.2667 95.6656L89.638 96.0005ZM88.552 97.1675L88.9097 97.5169L88.9097 97.5169L88.552 97.1675ZM88.1212 97.5881L88.4567 97.9588L88.4568 97.9588L88.1212 97.5881ZM88.1101 97.5983L88.4749 97.9403L88.4777 97.9372L88.1101 97.5983ZM88.1099 97.5986L87.9435 97.1271L87.9338 97.1305L87.9243 97.1343L88.1099 97.5986ZM88.1109 97.5979L88.404 98.0031L88.4078 98.0003L88.1109 97.5979ZM88.1123 97.5969L88.4127 97.9967L87.8155 97.1945L88.1123 97.5969ZM87.3577 98.232L87.6858 98.6093L87.687 98.6082L87.3577 98.232ZM87.3571 98.2324L87.029 97.8551L87.022 97.8614L87.3571 98.2324ZM87.3568 98.2327L87.6861 98.609L87.6919 98.6038L87.3568 98.2327ZM87.2979 98.2842L87.627 98.6607L87.627 98.6607L87.2979 98.2842ZM87.2355 98.3387L87.5634 98.7162L87.5635 98.7161L87.2355 98.3387ZM87.2012 98.3684L86.8748 97.9896L86.8747 97.9897L87.2012 98.3684ZM87.1804 98.3862L86.8559 98.0059L86.8558 98.0059L87.1804 98.3862ZM86.2353 99.1066L86.5087 99.5253L86.5087 99.5253L86.2353 99.1066ZM79.5 98.192L79.8996 97.8915L79.8996 97.8915L79.5 98.192ZM76.3187 92.9845L76.0209 92.5829L75.703 92.8186L75.8594 93.1821L76.3187 92.9845ZM98.1885 82.6385L98.3187 83.1212L98.3187 83.1212L98.1885 82.6385ZM98.6032 82.5258L99.0706 82.7034L99.4202 81.7836L98.4712 82.0435L98.6032 82.5258ZM62.0545 51.5329L62.5281 51.3723L62.2997 50.6987L61.7432 51.1417L62.0545 51.5329ZM61.1856 52.2434L60.864 51.8605L60.864 51.8605L61.1856 52.2434ZM64.6416 63.8971L65.136 63.8227L65.136 63.8227L64.6416 63.8971ZM66.0714 74.4877L66.5674 74.4245L66.5674 74.4245L66.0714 74.4877ZM66.7062 79.3962L67.2018 79.3302L67.2018 79.3302L66.7062 79.3962ZM69.2787 90.9256L69.6036 91.3057L69.8515 91.0939L69.7575 90.7816L69.2787 90.9256ZM67.2255 92.758L67.5664 93.1238L67.5664 93.1238L67.2255 92.758ZM64.0482 95.8746L64.2745 96.3204L64.3493 96.2825L64.4076 96.2222L64.0482 95.8746ZM57.3753 97.8006L57.3274 97.3029L57.3274 97.3029L57.3753 97.8006ZM51.2178 96.8033L51.4771 96.3758L51.4771 96.3758L51.2178 96.8033ZM44.4819 87.1764L44.9733 87.084L44.4819 87.1764ZM46.7195 71.7784L46.2532 71.5979L46.7195 71.7784ZM50.2519 65.0224L49.8375 64.7426L49.8375 64.7426L50.2519 65.0224ZM74.3902 86.9843L73.9077 87.1155L74.0935 87.7988L74.6753 87.395L74.3902 86.9843ZM72.6536 78.6039L72.158 78.6699L72.158 78.6699L72.6536 78.6039ZM96.6261 76.8455L96.7563 77.3282L96.7563 77.3282L96.6261 76.8455ZM99.6231 75.9799L99.4752 75.5023L99.4751 75.5023L99.6231 75.9799ZM100.026 75.8544L99.8785 75.3765L99.8763 75.3772L100.026 75.8544ZM100.027 75.854L100.174 76.3319L100.176 76.3312L100.027 75.854ZM100.806 75.6136L100.95 76.0926L101.222 76.0109L101.291 75.7346L100.806 75.6136ZM99.86 53.4776L99.4163 53.7081L99.4163 53.7081L99.86 53.4776ZM92.7035 45.5427L92.4747 45.9873L92.4747 45.9873L92.7035 45.5427ZM83.694 43.4028L83.6972 42.9028L83.6972 42.9028L83.694 43.4028ZM67.1765 48.046L66.9274 47.6124L66.5605 47.8232L66.7077 48.2199L67.1765 48.046ZM67.6054 49.2277L68.0766 49.0603L68.0766 49.0603L67.6054 49.2277ZM70.5749 63.0049L71.0693 62.9306L71.0693 62.9306L70.5749 63.0049ZM72.0352 73.8213L72.5313 73.7593L72.5312 73.758L72.0352 73.8213ZM72.0352 73.8216L71.5391 73.8836L71.5393 73.8855L72.0352 73.8216ZM72.0354 73.823L72.5314 73.7597L72.5313 73.759L72.0354 73.823ZM43.3007 41.6091L43.3007 41.109L43.2873 41.1093L43.3007 41.6091ZM43.301 41.6091L43.301 42.1093L43.3144 42.109L43.301 41.6091ZM43.5805 41.6028L43.5867 42.1028L43.6132 42.1025L43.6396 42.0993L43.5805 41.6028ZM43.589 41.6018L43.5305 41.1053L43.5299 41.1053L43.589 41.6018ZM43.8171 41.5699L43.8948 42.0638L43.8948 42.0638L43.8171 41.5699ZM44.6711 41.4106L44.5696 40.921L44.5696 40.921L44.6711 41.4106ZM46.8447 40.8758L46.7055 40.3956L46.7055 40.3956L46.8447 40.8758ZM54.399 37.8281L54.6188 38.2772L55.4096 37.8902L54.6721 37.4093L54.399 37.8281ZM49.5622 36.7779L49.5198 36.2797L49.5198 36.2797L49.5622 36.7779ZM43.4364 38.5422L43.1867 38.109L43.0013 38.2159L42.9506 38.4238L43.4364 38.5422ZM42.6643 41.6187L42.1802 41.4936L42.0197 42.1151L42.6616 42.1187L42.6643 41.6187ZM53.3231 124.7L53.8196 124.641L52.8237 124.724L53.3231 124.7ZM38.6067 30.457C38.2921 31.9385 37.9624 33.4178 37.6176 34.8941L38.5914 35.1215C38.9377 33.6386 39.2689 32.1528 39.5849 30.6648L38.6067 30.457ZM33.9439 37.5798C36.0567 35.4219 37.8793 33.1732 39.5056 30.8474L38.6861 30.2744C37.0878 32.5601 35.2997 34.7656 33.2294 36.8802L33.9439 37.5798ZM33.4386 38.0995C33.6139 37.9186 33.7821 37.745 33.9439 37.5798L33.2294 36.8802C33.0655 37.0476 32.8954 37.2231 32.7205 37.4036L33.4386 38.0995ZM33.4369 38.1012L33.4383 38.0999L32.7209 37.4032L32.7195 37.4046L33.4369 38.1012ZM33.4362 38.102L33.4375 38.1006L32.7189 37.4052L32.7176 37.4066L33.4362 38.102ZM29.396 41.8201C30.9412 40.6784 32.3249 39.2489 33.4359 38.1023L32.7178 37.4064C31.5979 38.5621 30.2698 39.9311 28.8017 41.0159L29.396 41.8201ZM22.173 44.3971C25.1438 44.386 27.5248 43.2028 29.396 41.8201L28.8017 41.0159C27.0369 42.32 24.859 43.387 22.1693 43.3971L22.173 44.3971ZM17.3937 43.4393C19.0701 44.207 20.6462 44.4028 22.173 44.3971L22.1693 43.3971C20.7385 43.4025 19.3165 43.22 17.8101 42.5301L17.3937 43.4393ZM9.52007 32.6743C10.0217 37.3679 13.1936 41.5157 17.3937 43.4393L17.8101 42.5301C13.9117 40.7447 10.9764 36.8904 10.5144 32.5681L9.52007 32.6743ZM12.6312 28.8327C10.7077 29.0313 9.31456 30.7516 9.52007 32.6743L10.5144 32.5681C10.3677 31.1959 11.3612 29.9692 12.7339 29.8274L12.6312 28.8327ZM16.4827 31.9519C16.2773 30.0305 14.5533 28.6343 12.6312 28.8327L12.7339 29.8274C14.108 29.6856 15.3415 30.6845 15.4883 32.0581L16.4827 31.9519ZM20.295 37.0792C18.2217 36.1297 16.7067 34.048 16.4827 31.9519L15.4883 32.0581C15.7519 34.5241 17.5023 36.9001 19.8786 37.9884L20.295 37.0792ZM22.1256 37.3994C21.2724 37.4026 20.7774 37.3001 20.295 37.0792L19.8786 37.9884C20.5308 38.2871 21.1797 38.403 22.1294 38.3994L22.1256 37.3994ZM25.222 36.189C24.0941 37.0224 23.1319 37.3956 22.1256 37.3994L22.1294 38.3994C23.4155 38.3946 24.5808 37.9062 25.8163 36.9933L25.222 36.189ZM28.3545 33.2703C27.2063 34.4511 26.2614 35.421 25.222 36.189L25.8163 36.9933C26.9338 36.1675 27.937 35.1341 29.0714 33.9675L28.3545 33.2703ZM28.3551 33.2697L28.3547 33.2701L29.0712 33.9677L29.0716 33.9673L28.3551 33.2697ZM28.9317 32.6781C28.7339 32.8802 28.5418 33.0777 28.3549 33.2699L29.0718 33.967C29.2589 33.7747 29.4498 33.5784 29.6463 33.3777L28.9317 32.6781ZM39.7558 16.3414C36.7006 22.578 33.5801 27.9304 28.9317 32.6781L29.6463 33.3777C34.4049 28.5173 37.5813 23.0535 40.6538 16.7813L39.7558 16.3414ZM40.7094 14.5406C40.4125 15.078 40.0728 15.6942 39.7558 16.3414L40.6538 16.7813C40.9585 16.1592 41.2869 15.5633 41.5847 15.024L40.7094 14.5406ZM40.7324 14.4989L40.7094 14.5405L41.5847 15.024L41.6078 14.9824L40.7324 14.4989ZM41.5211 13.0256C41.2886 13.4918 41.0322 13.956 40.7324 14.4989L41.6078 14.9824C41.9054 14.4434 42.1724 13.9603 42.416 13.4718L41.5211 13.0256ZM42.4132 13.4773L42.4146 13.4745L41.5224 13.0229L41.5209 13.0258L42.4132 13.4773ZM41.51 13.0489L41.5088 13.0516L42.4254 13.4515L42.4266 13.4487L41.51 13.0489ZM41.5159 13.0359L41.5159 13.0359L42.4207 13.4617L42.4207 13.4617L41.5159 13.0359ZM41.5124 13.0435L41.5123 13.0436L42.4242 13.4539L42.4243 13.4539L41.5124 13.0435ZM41.5573 12.9344C41.5285 13.0075 41.5135 13.0409 41.5113 13.0458L42.4253 13.4516C42.4324 13.4356 42.4529 13.3891 42.4875 13.3014L41.5573 12.9344ZM41.6941 12.5672C41.6394 12.7192 41.5945 12.8401 41.5573 12.9344L42.4875 13.3014C42.5302 13.1933 42.5791 13.0614 42.6351 12.9056L41.6941 12.5672ZM41.8126 12.2331C41.7675 12.3609 41.7266 12.4769 41.6941 12.5672L42.6351 12.9056C42.6688 12.8119 42.7108 12.6928 42.7556 12.566L41.8126 12.2331ZM41.8143 12.2285L41.8142 12.2287L42.754 12.5704L42.7541 12.5702L41.8143 12.2285ZM42.0604 11.5411C41.9852 11.7442 41.8926 12.0066 41.8127 12.2329L42.7557 12.5658C42.8364 12.3372 42.9262 12.0827 42.9982 11.8883L42.0604 11.5411ZM42.0717 11.5105L42.0602 11.5415L42.9983 11.8879L43.0098 11.8569L42.0717 11.5105ZM42.0709 11.5128L42.0708 11.5128L43.0106 11.8546L43.0107 11.8545L42.0709 11.5128ZM42.0697 11.5161L42.0697 11.5161L43.0119 11.8511L43.0119 11.8511L42.0697 11.5161ZM42.7281 10.1358C42.3895 10.6431 42.1565 11.2807 42.0717 11.5106L43.0099 11.8566C43.0991 11.6147 43.2964 11.0857 43.5599 10.6909L42.7281 10.1358ZM43.6126 9.20186C43.1066 9.57568 42.8199 9.99816 42.7281 10.1358L43.5599 10.6909C43.6299 10.5859 43.84 10.2771 44.2068 10.0062L43.6126 9.20186ZM47.3724 8.91526C45.645 8.00458 44.1359 8.81525 43.6126 9.20186L44.2068 10.0062C44.5995 9.71609 45.6779 9.15237 46.9061 9.79987L47.3724 8.91526ZM49.098 10.9505C49.0244 10.7319 48.638 9.58245 47.3724 8.91526L46.9061 9.79987C47.8157 10.2794 48.0957 11.1075 48.1504 11.2698L49.098 10.9505ZM49.0985 10.9521L49.0985 10.9521L48.1499 11.2683L48.1499 11.2683L49.0985 10.9521ZM49.0998 10.9557L49.0981 10.9507L48.1503 11.2697L48.152 11.2747L49.0998 10.9557ZM49.2877 11.8298C49.2701 11.6646 49.2277 11.3349 49.0997 10.9554L48.1521 11.2751C48.2467 11.5553 48.2792 11.8033 48.2934 11.9361L49.2877 11.8298ZM49.1177 14.2278C49.225 13.715 49.3936 12.8206 49.2877 11.8298L48.2934 11.9361C48.3819 12.7641 48.2418 13.5311 48.1389 14.0229L49.1177 14.2278ZM48.9707 14.8879C49.006 14.7377 49.0527 14.5382 49.1177 14.2278L48.1389 14.0229C48.0763 14.3217 48.0317 14.5123 47.9971 14.6598L48.9707 14.8879ZM48.9714 14.8853L48.9714 14.8853L47.9965 14.6624L47.9965 14.6625L48.9714 14.8853ZM48.9633 14.916L48.9633 14.9159L48.0045 14.6319L48.0045 14.6319L48.9633 14.916ZM48.9706 14.8885L48.9706 14.8885L47.9972 14.6594L47.9972 14.6595L48.9706 14.8885ZM48.8839 15.3151C48.9046 15.1713 48.9266 15.0764 48.9707 14.8881L47.9971 14.6599C47.9533 14.8468 47.9217 14.9807 47.8941 15.173L48.8839 15.3151ZM46.8812 25.3525C47.6221 22.0916 48.4068 18.6392 48.8839 15.3151L47.8941 15.173C47.4237 18.45 46.6487 21.8624 45.9061 25.131L46.8812 25.3525ZM46.868 25.3999L46.868 25.3998L45.9193 25.0836L45.9193 25.0836L46.868 25.3999ZM46.88 25.3577L46.88 25.3576L45.9072 25.1259L45.9072 25.1261L46.88 25.3577ZM46.8814 25.3519L46.8814 25.3516L45.9058 25.1321L45.9057 25.1323L46.8814 25.3519ZM45.836 30.1074C46.1449 28.5934 46.5074 26.9977 46.8811 25.3529L45.906 25.1313C45.5328 26.7739 45.1677 28.3806 44.8561 29.9075L45.836 30.1074ZM45.5279 31.5926C45.6322 31.0977 45.7349 30.6027 45.836 30.1074L44.8561 29.9075C44.7555 30.4006 44.6533 30.8936 44.5494 31.3863L45.5279 31.5926ZM49.0113 30.3013C47.7281 30.4105 46.3288 30.6318 44.9111 31.006L45.1663 31.9729C46.5223 31.615 47.864 31.4025 49.0961 31.2977L49.0113 30.3013ZM60.547 34.5934C57.5495 31.3397 53.5551 29.9148 49.0113 30.3013L49.0961 31.2977C53.3589 30.9351 57.0412 32.2638 59.8115 35.2709L60.547 34.5934ZM62.8109 33.088C61.936 33.5136 61.005 33.9666 59.9578 34.4838L60.4007 35.3804C61.4448 34.8647 62.3733 34.413 63.2484 33.9872L62.8109 33.088ZM72.073 28.2853C68.0603 30.5343 65.7482 31.6591 62.8109 33.088L63.2484 33.9872C66.1913 32.5556 68.5239 31.4208 72.5619 29.1577L72.073 28.2853ZM90.0366 16.4605C85.7545 19.7987 79.7223 23.9982 72.073 28.2853L72.5619 29.1577C80.2578 24.8444 86.332 20.6165 90.6514 17.2492L90.0366 16.4605ZM97.2537 10.0817C96.7782 10.6812 94.4092 13.0518 90.0366 16.4605L90.6514 17.2492C95.0353 13.8317 97.4838 11.4008 98.0372 10.7031L97.2537 10.0817ZM102.171 9.51433C100.656 8.31318 98.4548 8.56719 97.2537 10.0817L98.0371 10.7031C98.8951 9.6213 100.468 9.43986 101.549 10.2978L102.171 9.51433ZM102.738 14.4315C103.939 12.917 103.685 10.7155 102.171 9.51433L101.549 10.2978C102.631 11.1558 102.813 12.7283 101.955 13.8101L102.738 14.4315ZM94.3403 21.9812C98.7936 18.5096 101.718 15.718 102.738 14.4315L101.955 13.8101C101.012 14.9985 98.167 17.7301 93.7255 21.1925L94.3403 21.9812ZM75.4954 34.3917C83.4712 29.9216 89.7968 25.5232 94.3403 21.9812L93.7255 21.1925C89.2193 24.7054 82.9356 29.0754 75.0065 33.5193L75.4954 34.3917ZM65.7044 39.4663C68.7586 37.9791 71.3194 36.7322 75.4954 34.3917L75.0065 33.5193C70.8561 35.8455 68.3159 37.0824 65.2666 38.5672L65.7044 39.4663ZM65.7091 39.464L65.7091 39.464L65.2619 38.5696L65.2618 38.5696L65.7091 39.464ZM63.7765 40.4076C64.4509 40.0767 65.0875 39.7667 65.7043 39.4663L65.2666 38.5672C64.6499 38.8675 64.012 39.1781 63.336 39.5098L63.7765 40.4076ZM65.2929 42.2607C64.8848 41.4048 64.453 40.5554 63.9949 39.7186L63.1177 40.1988C63.5661 41.0178 63.9895 41.8505 64.3903 42.6911L65.2929 42.2607ZM83.7353 36.9029C76.9707 36.86 70.417 38.8236 64.5998 42.0383L65.0834 42.9136C70.7762 39.7676 77.1626 37.8613 83.7289 37.9029L83.7353 36.9029ZM95.6772 39.7628C91.9961 37.8689 87.7345 36.9283 83.7353 36.9029L83.7289 37.9029C87.5857 37.9274 91.6906 38.8363 95.2197 40.652L95.6772 39.7628ZM105.628 50.4809C103.582 46.5426 100.14 42.0589 95.6772 39.7628L95.2197 40.652C99.4256 42.8159 102.744 47.0983 104.741 50.9419L105.628 50.4809ZM107.663 74.7466C109.196 67.17 109.456 57.8494 105.628 50.4809L104.741 50.9419C108.414 58.0122 108.198 67.0604 106.683 74.5483L107.663 74.7466ZM110.645 77.3224C110.476 75.5116 108.957 74.1527 107.174 74.1475L107.172 75.1475C108.444 75.1512 109.529 76.1224 109.65 77.4153L110.645 77.3224ZM107.486 81.1325C109.41 80.9529 110.825 79.2471 110.645 77.3224L109.65 77.4153C109.778 78.7901 108.768 80.0085 107.393 80.1368L107.486 81.1325ZM105.609 81.3186C106.113 81.2641 106.726 81.2034 107.486 81.1325L107.393 80.1368C106.631 80.208 106.012 80.2692 105.502 80.3244L105.609 81.3186ZM102.871 89.235C104.035 86.5824 105.129 83.796 106.032 80.9738L105.079 80.6692C104.19 83.4511 103.109 86.2044 101.955 88.8331L102.871 89.235ZM101.936 88.8835C101.854 89.1423 101.757 89.4313 101.653 89.7343L102.599 90.0584C102.704 89.7536 102.804 89.4554 102.89 89.1846L101.936 88.8835ZM101.653 89.7343C101.312 90.7302 100.759 92.2747 99.9869 94.435L100.928 94.7717C101.7 92.615 102.255 91.0623 102.599 90.0584L101.653 89.7343ZM99.9862 94.4369L99.9861 94.4373L100.929 94.7701L100.929 94.7697L99.9862 94.4369ZM99.9865 94.4361L99.9843 94.4422L100.926 94.7774L100.929 94.7713L99.9865 94.4361ZM99.9846 94.4414C99.7771 95.0217 99.5538 95.646 99.3146 96.3155L100.256 96.6519C100.495 95.9826 100.719 95.3584 100.926 94.7782L99.9846 94.4414ZM99.3146 96.3155C98.3751 98.946 97.9193 100.892 97.6983 102.141L98.683 102.316C98.8939 101.123 99.335 99.2315 100.256 96.6519L99.3146 96.3155ZM97.6983 102.141C97.5878 102.766 97.5358 103.218 97.5114 103.495L98.5076 103.582C98.5294 103.335 98.5775 102.912 98.683 102.316L97.6983 102.141ZM97.5114 103.495C97.4992 103.633 97.494 103.728 97.4917 103.779L98.4907 103.823C98.4923 103.787 98.4967 103.706 98.5076 103.582L97.5114 103.495ZM97.4916 103.781L97.4906 103.806L98.4899 103.845L98.4908 103.821L97.4916 103.781ZM97.4903 103.826V104.058H98.4903V103.826H97.4903ZM97.4976 103.973L97.4538 104.226L98.4392 104.397L98.483 104.144L97.4976 103.973ZM97.4509 104.245L97.4509 104.246L98.4421 104.378L98.4421 104.378L97.4509 104.245ZM97.4529 104.232L97.4528 104.232L98.44 104.392L98.4401 104.391L97.4529 104.232ZM97.4561 104.214L97.4561 104.214L98.4366 104.41L98.4367 104.41L97.4561 104.214ZM97.4536 104.228L97.4525 104.234L98.4381 104.403L98.4391 104.397L97.4536 104.228ZM97.4523 104.235L97.4473 104.264L98.4333 104.432L98.4383 104.402L97.4523 104.235ZM97.4471 104.266L97.4261 104.391L98.4125 104.556L98.4335 104.43L97.4471 104.266ZM97.426 104.392C97.4072 104.506 97.3795 104.677 97.3449 104.898L98.3329 105.052C98.367 104.834 98.3942 104.667 98.4126 104.555L97.426 104.392ZM97.3449 104.898C97.2758 105.339 97.1795 105.981 97.0722 106.77L98.0631 106.905C98.1694 106.123 98.2647 105.488 98.3329 105.052L97.3449 104.898ZM97.0722 106.77C96.8573 108.353 96.6004 110.517 96.4295 112.854L97.4268 112.927C97.5958 110.616 97.8501 108.473 98.0631 106.905L97.0722 106.77ZM96.4295 112.854C96.258 115.199 96.177 117.671 96.3005 119.882L97.2989 119.826C97.1787 117.674 97.257 115.249 97.4268 112.927L96.4295 112.854ZM96.3005 119.882C96.4277 122.158 96.7605 123.888 97.2494 124.92L98.1531 124.492C97.7499 123.641 97.4244 122.071 97.2989 119.826L96.3005 119.882ZM97.2494 124.92C97.8407 126.168 97.3086 127.658 96.0609 128.25L96.4892 129.153C98.2359 128.325 98.9809 126.238 98.1531 124.492L97.2494 124.92ZM96.0609 128.25C94.8132 128.841 93.3224 128.309 92.7311 127.061L91.8275 127.489C92.6553 129.236 94.7424 129.981 96.4892 129.153L96.0609 128.25ZM92.7311 127.061C91.8144 125.127 91.4446 122.6 91.3083 120.161L90.3098 120.216C90.448 122.689 90.8253 125.375 91.8275 127.489L92.7311 127.061ZM91.3083 120.161C91.1683 117.655 91.2629 114.95 91.4428 112.489L90.4455 112.416C90.2639 114.9 90.1665 117.652 90.3098 120.216L91.3083 120.161ZM91.4428 112.489C91.5101 111.569 91.5899 110.675 91.6752 109.831L90.6802 109.73C90.5942 110.583 90.5135 111.485 90.4455 112.416L91.4428 112.489ZM90.8039 109.449C89.994 110.36 89.0381 111.424 87.9824 112.561L88.7152 113.241C89.7776 112.097 90.7387 111.028 91.5515 110.113L90.8039 109.449ZM84.6797 117.424C85.8364 116.431 87.3006 114.88 88.7273 113.228L87.9704 112.574C86.554 114.215 85.1281 115.721 84.0283 116.665L84.6797 117.424ZM84.4935 117.583C84.5556 117.53 84.6176 117.477 84.6797 117.424L84.0283 116.665C83.9671 116.717 83.906 116.77 83.8448 116.822L84.4935 117.583ZM83.8199 116.845C80.439 120.145 76.4743 123.532 72.885 125.145L73.2948 126.057C77.0585 124.366 81.1311 120.867 84.5184 117.56L83.8199 116.845ZM72.885 125.145C68.142 127.276 60.9359 130.439 54.1637 130.834L54.2218 131.832C61.2066 131.425 68.5768 128.177 73.2948 126.057L72.885 125.145ZM54.1637 130.834C50.7243 131.034 47.1891 130.537 44.0939 128.658L43.5749 129.513C46.8982 131.531 50.655 132.04 54.2218 131.832L54.1637 130.834ZM44.0939 128.658C40.958 126.754 38.56 123.604 37.117 119.048L36.1637 119.35C37.6652 124.091 40.1944 127.46 43.5749 129.513L44.0939 128.658ZM37.117 119.048C34.7838 111.681 34.9528 104.879 35.5147 98.6593L34.5187 98.5693C33.9527 104.835 33.7707 111.794 36.1637 119.35L37.117 119.048ZM35.5147 98.6593C36.1097 92.0727 38.3698 79.7736 40.0538 73.7721L39.0909 73.5019C37.3901 79.5636 35.1192 91.9231 34.5187 98.5693L35.5147 98.6593ZM40.0538 73.7721C40.1353 73.4814 40.2645 73.2182 40.4302 72.9878L39.6183 72.404C39.3853 72.7279 39.2045 73.0971 39.0909 73.5019L40.0538 73.7721ZM40.658 69.4316C40.2662 70.4436 39.8918 71.4813 39.5485 72.5419L40.4999 72.8499C40.8366 71.8099 41.2043 70.7901 41.5905 69.7927L40.658 69.4316ZM44.8651 61.3847C43.18 63.8802 41.7559 66.5959 40.658 69.4316L41.5905 69.7927C42.6612 67.0273 44.0503 64.3782 45.6939 61.9444L44.8651 61.3847ZM57.0051 47.2661C52.2193 51.2857 48.2089 56.4332 44.8651 61.3847L45.6939 61.9444C49.0157 57.0253 52.9655 51.9649 57.6483 48.0318L57.0051 47.2661ZM59.4502 45.342C58.6125 45.9588 57.7968 46.6011 57.0051 47.2661L57.6483 48.0318C58.4238 47.3804 59.2228 46.7513 60.0431 46.1472L59.4502 45.342ZM57.7503 42.8901C58.2977 43.8771 58.81 44.9016 59.2921 45.953L60.2011 45.5362C59.7098 44.4647 59.1861 43.4171 58.6248 42.4051L57.7503 42.8901ZM48.6551 47.1186C52.2434 46.078 55.3576 44.6245 58.4115 43.0947L57.9636 42.2006C54.9237 43.7234 51.8752 45.1436 48.3766 46.1582L48.6551 47.1186ZM45.9908 47.7752C46.8125 47.6048 47.7796 47.3725 48.6551 47.1186L48.3766 46.1582C47.53 46.4037 46.5885 46.63 45.7878 46.7961L45.9908 47.7752ZM43.6543 48.1024C44.3367 48.1024 45.3189 47.9145 45.9908 47.7752L45.7878 46.7961C45.0972 46.9392 44.2165 47.1024 43.6543 47.1024V48.1024ZM40.9995 48.0224C41.7249 48.1021 42.3959 48.1218 42.8837 48.1218C43.1281 48.1217 43.3277 48.1167 43.4667 48.1117C43.5362 48.1092 43.5907 48.1067 43.6282 48.1047C43.647 48.1037 43.6616 48.1029 43.6719 48.1023C43.677 48.102 43.6815 48.1017 43.6851 48.1014C43.6866 48.1013 43.6893 48.1012 43.6924 48.1009C43.6932 48.1009 43.6946 48.1007 43.6962 48.1006C43.6974 48.1005 43.701 48.1002 43.7055 48.0997C43.7081 48.0995 43.7149 48.0987 43.7192 48.0981C43.7278 48.0969 43.7629 48.0904 43.789 48.0839C44.1087 47.8111 43.9471 47.197 43.7125 47.1058C43.6911 47.1037 43.662 47.1024 43.6543 47.1024V48.1024C43.6467 48.1023 43.6176 48.101 43.5962 48.099C43.3616 48.0077 43.2 47.3936 43.5197 47.1208C43.5458 47.1143 43.5809 47.1078 43.5895 47.1066C43.5937 47.1061 43.6005 47.1053 43.603 47.105C43.6075 47.1045 43.6109 47.1043 43.6119 47.1042C43.6134 47.104 43.6146 47.104 43.6152 47.1039C43.6173 47.1037 43.6185 47.1037 43.6179 47.1037C43.6173 47.1037 43.6153 47.1039 43.6116 47.1041C43.6044 47.1045 43.5926 47.1052 43.5764 47.1061C43.544 47.1077 43.4947 47.11 43.4305 47.1124C43.3021 47.117 43.1146 47.1217 42.8836 47.1218C42.4207 47.1218 41.7879 47.103 41.1087 47.0283L40.9995 48.0224ZM38.6633 56.9137C39.686 53.854 40.6433 50.7684 41.5347 47.6633L40.5735 47.3874C39.686 50.4789 38.733 53.5507 37.7149 56.5967L38.6633 56.9137ZM25.5114 88.7998C31.3007 78.665 35.1199 67.5149 38.6633 56.9137L37.7149 56.5967C34.1686 67.2063 30.3768 78.2664 24.6431 88.3038L25.5114 88.7998ZM25.1663 89.4238C25.2991 89.1806 25.4138 88.9708 25.5114 88.7998L24.6431 88.3038C24.5397 88.4848 24.42 88.7041 24.2886 88.9445L25.1663 89.4238ZM25.1653 89.4256L25.1663 89.4238L24.2886 88.9446L24.2876 88.9464L25.1653 89.4256ZM25.1669 89.4227L25.1671 89.4224L24.2858 88.9496L24.2857 88.9499L25.1669 89.4227ZM22.9801 92.9258C23.8819 91.778 24.6494 90.3702 25.1651 89.4259L24.2875 88.9466C23.7652 89.903 23.0356 91.2364 22.1937 92.308L22.9801 92.9258ZM16.7947 96.3572C19.8067 96.2747 21.7972 94.4313 22.9801 92.9258L22.1937 92.308C21.0867 93.717 19.3434 95.287 16.7673 95.3575L16.7947 96.3572ZM13.1888 92.9572C13.2486 94.8883 14.8629 96.41 16.7947 96.3572L16.7673 95.3575C15.3857 95.3954 14.231 94.3063 14.1883 92.9262L13.1888 92.9572ZM16.5819 89.362C14.6487 89.4149 13.1291 91.0246 13.1888 92.9572L14.1883 92.9262C14.1457 91.5476 15.229 90.3994 16.6092 90.3617L16.5819 89.362ZM17.4676 88.594C17.1474 89.0016 16.92 89.1935 16.7778 89.2832C16.6489 89.3645 16.591 89.3618 16.5819 89.362L16.6092 90.3617C17.014 90.3506 17.5281 90.1357 18.2539 89.2118L17.4676 88.594ZM18.8476 86.3589C18.3621 87.2437 17.9722 87.9518 17.4676 88.594L18.2539 89.2118C18.8183 88.4935 19.2467 87.7103 19.7243 86.8399L18.8476 86.3589ZM18.8471 86.3597L18.8468 86.3602L19.725 86.8385L19.7253 86.8381L18.8471 86.3597ZM19.4277 85.3167C19.2167 85.6861 19.0262 86.0333 18.8478 86.3584L19.7245 86.8394C19.9033 86.5136 20.0899 86.1736 20.296 85.8127L19.4277 85.3167ZM32.0211 54.6786C28.4578 65.3393 24.829 75.8612 19.4277 85.3167L20.296 85.8127C25.7531 76.2597 29.4091 65.6476 32.9695 54.9956L32.0211 54.6786ZM35.1009 44.6692C34.1533 48.0323 33.1265 51.3716 32.0211 54.6786L32.9695 54.9956C34.08 51.6733 35.1116 48.3187 36.0634 44.9404L35.1009 44.6692ZM34.0707 41.9698C34.148 43.1962 34.5602 44.2456 35.1771 45.098L35.9872 44.5117C35.4779 43.808 35.1338 42.9391 35.0687 41.9069L34.0707 41.9698ZM34.0642 41.6835C34.0625 41.7783 34.0646 41.8738 34.0707 41.9698L35.0687 41.9069C35.0643 41.8378 35.0628 41.7693 35.0641 41.7014L34.0642 41.6835ZM34.0639 41.6784L34.0642 41.6987L35.0641 41.6862L35.0638 41.6659L34.0639 41.6784ZM34.0638 41.6463L34.0639 41.6744L35.0639 41.6698L35.0637 41.6417L34.0638 41.6463ZM35.0605 37.8664C34.6704 38.5318 34.0638 39.9455 34.0638 41.644H35.0638C35.0638 40.1678 35.5975 38.9278 35.9232 38.3722L35.0605 37.8664ZM37.042 35.3271C36.4769 35.9056 35.5561 37.021 35.0605 37.8664L35.9232 38.3722C36.3657 37.6174 37.2296 36.5661 37.7573 36.026L37.042 35.3271ZM37.774 34.6325C37.5229 34.8537 37.2785 35.0851 37.042 35.3271L37.7573 36.026C37.9759 35.8023 38.202 35.5881 38.4349 35.383L37.774 34.6325ZM40.9136 95.4766C40.7345 96.8098 40.591 98.0404 40.4944 99.1092L41.4903 99.1992C41.5852 98.149 41.7268 96.9335 41.9047 95.6098L40.9136 95.4766ZM40.4944 99.1092C39.9534 105.097 39.8492 111.115 41.8837 117.538L42.837 117.236C40.8624 111.002 40.9535 105.141 41.4903 99.1992L40.4944 99.1092ZM42.2094 116.911L39.5909 117.74L39.8928 118.693L42.5113 117.864L42.2094 116.911ZM39.8928 118.693L42.5113 117.864L42.2094 116.911L39.5909 117.74L39.8928 118.693ZM41.8837 117.538C43.033 121.168 44.7743 123.222 46.689 124.384L47.208 123.529C45.5371 122.515 43.9274 120.68 42.837 117.237L41.8837 117.538ZM46.689 124.384C46.8244 124.466 46.9623 124.545 47.1024 124.62L47.575 123.739C47.4504 123.672 47.3281 123.602 47.208 123.529L46.689 124.384ZM46.8454 124.067C46.8434 124.093 46.8415 124.12 46.8398 124.147L47.8377 124.212C47.8392 124.188 47.8409 124.164 47.8426 124.141L46.8454 124.067ZM47.3033 121.626C47.0869 122.402 46.9067 123.239 46.8454 124.067L47.8426 124.141C47.8974 123.402 48.0603 122.634 48.2665 121.895L47.3033 121.626ZM49.1496 116.803C48.4288 118.375 47.7367 120.073 47.3033 121.626L48.2665 121.895C48.6794 120.415 49.347 118.772 50.0587 117.219L49.1496 116.803ZM53.1474 109.225C52.3798 110.524 50.6013 113.635 49.1496 116.803L50.0587 117.219C51.4893 114.098 53.2478 111.021 54.0083 109.734L53.1474 109.225ZM56.9128 103.529C55.5722 105.356 54.312 107.255 53.1474 109.225L54.0083 109.734C55.1553 107.793 56.3971 105.922 57.719 104.121L56.9128 103.529ZM47.8469 102.361C50.7251 104.107 54.1823 104.539 57.3498 104.324L57.2821 103.326C54.2351 103.533 51.0067 103.108 48.3655 101.506L47.8469 102.361ZM40.9885 95.8135C42.7007 98.4784 45.0228 100.648 47.8469 102.361L48.3655 101.506C45.6559 99.8625 43.4505 97.7954 41.8298 95.273L40.9885 95.8135ZM81.0769 112.527C82.1932 111.414 83.2572 110.3 84.2369 109.247L83.5045 108.566C82.5314 109.612 81.4762 110.716 80.3708 111.819L81.0769 112.527ZM80.4724 113.125C80.6743 112.927 80.8759 112.727 81.0769 112.527L80.3708 111.819C80.1718 112.017 79.9723 112.215 79.7726 112.41L80.4724 113.125ZM64.8056 122.203C71.4842 119.603 75.9441 116.96 80.4455 113.149L79.7994 112.386C75.3923 116.117 71.0311 118.706 64.4428 121.271L64.8056 122.203ZM64.0601 122.419C64.29 122.353 64.5237 122.286 64.7618 122.218L64.4867 121.256C64.248 121.324 64.0138 121.392 63.784 121.458L64.0601 122.419ZM53.4869 123.818C56.9822 124.461 59.9032 123.613 64.0601 122.419L63.784 121.458C59.5849 122.664 56.8934 123.428 53.6679 122.834L53.4869 123.818ZM54.6041 119.302C53.9476 120.735 53.4088 122.087 53.0963 123.19L54.0584 123.462C54.3508 122.43 54.8658 121.132 55.5131 119.719L54.6041 119.302ZM58.3129 112.278C57.5876 113.505 55.9292 116.411 54.6041 119.302L55.5131 119.719C56.8172 116.874 58.4556 114.002 59.1738 112.787L58.3129 112.278ZM67.635 100.08C64.0994 103.785 60.9288 107.851 58.3129 112.278L59.1738 112.787C61.7463 108.433 64.8686 104.428 68.3585 100.77L67.635 100.08ZM67.7217 99.9894C67.6962 100.017 67.6701 100.045 67.6433 100.071L68.3501 100.779C68.3878 100.741 68.4245 100.703 68.4602 100.664L67.7217 99.9894ZM70.9748 96.7821C69.8643 97.8167 68.781 98.8829 67.7298 99.9807L68.4521 100.672C69.4896 99.5887 70.5594 98.5359 71.6564 97.5138L70.9748 96.7821ZM71.2136 96.5609C71.1338 96.6343 71.0542 96.7081 70.9748 96.7821L71.6564 97.5138C71.7345 97.441 71.8128 97.3685 71.8912 97.2963L71.2136 96.5609ZM75.1047 101.498C73.7888 99.7489 72.7947 98.2383 71.9962 96.6984L71.1085 97.1587C71.9408 98.764 72.9693 100.323 74.3056 102.099L75.1047 101.498ZM84.1062 105.334C81.6312 105.334 77.5825 104.792 75.1047 101.498L74.3056 102.099C77.0794 105.787 81.5531 106.334 84.1062 106.334V105.334ZM86.5095 104.99C85.7813 105.201 84.9782 105.334 84.1062 105.334V106.334C85.0814 106.334 85.9782 106.185 86.788 105.95L86.5095 104.99ZM85.3451 107.929C85.9468 107.196 86.5223 106.466 87.0476 105.772L86.2499 105.169C85.7332 105.852 85.1659 106.571 84.5722 107.295L85.3451 107.929ZM84.2496 109.233C84.6107 108.813 84.9779 108.377 85.3452 107.929L84.5722 107.295C84.2099 107.736 83.8477 108.167 83.4918 108.58L84.2496 109.233ZM97.4999 86.2662C97.5352 86.2122 97.6174 86.0874 97.7357 85.9465L96.9699 85.3034C96.813 85.4903 96.7052 85.6544 96.663 85.7188L97.4999 86.2662ZM96.1316 88.8328C96.7347 87.6499 97.2333 86.6738 97.4999 86.2662L96.663 85.7188C96.3583 86.1846 95.8267 87.2292 95.2407 88.3786L96.1316 88.8328ZM96.1021 88.8831L96.1021 88.883L95.2701 88.3283L95.27 88.3284L96.1021 88.8831ZM95.8615 89.362C95.953 89.183 96.0432 89.0061 96.1315 88.8329L95.2406 88.3786C95.1523 88.5519 95.0623 88.7284 94.971 88.907L95.8615 89.362ZM95.718 89.6427C95.7668 89.5473 95.8146 89.4538 95.8615 89.362L94.971 88.907C94.9242 88.9986 94.8764 89.0921 94.8278 89.1872L95.718 89.6427ZM94.8883 89.0954C94.8191 89.1787 94.7467 89.2658 94.6714 89.3563L95.44 89.996C95.5156 89.9052 95.5881 89.8179 95.6575 89.7344L94.8883 89.0954ZM94.6714 89.3563C93.9846 90.1816 93.056 91.2908 92.0845 92.4314L92.8458 93.0798C93.8206 91.9354 94.7518 90.823 95.44 89.996L94.6714 89.3563ZM92.0845 92.4314C91.1099 93.5757 90.1066 94.7346 89.2667 95.6656L90.0092 96.3355C90.8585 95.3941 91.8689 94.2269 92.8458 93.0798L92.0845 92.4314ZM89.2667 95.6656C88.8456 96.1324 88.4825 96.5231 88.1943 96.8181L88.9097 97.5169C89.2108 97.2085 89.5838 96.8071 90.0092 96.3354L89.2667 95.6656ZM88.1943 96.8181C87.9443 97.074 87.8168 97.1892 87.7856 97.2175L88.4568 97.9588C88.5013 97.9184 88.6438 97.7891 88.9097 97.5169L88.1943 96.8181ZM87.7856 97.2174C87.7829 97.2199 87.779 97.2234 87.7757 97.2264C87.7741 97.2279 87.7712 97.2306 87.7678 97.2338C87.7675 97.234 87.7557 97.2451 87.7425 97.2594L88.4777 97.9372C88.4733 97.942 88.4697 97.9457 88.4673 97.9482C88.4648 97.9507 88.4627 97.9528 88.4612 97.9543C88.4582 97.9572 88.4559 97.9594 88.4548 97.9605C88.4535 97.9617 88.4526 97.9625 88.4521 97.9629C88.4517 97.9634 88.4514 97.9637 88.4513 97.9637C88.4513 97.9637 88.4514 97.9636 88.4517 97.9634C88.4519 97.9631 88.4523 97.9628 88.4528 97.9624C88.4538 97.9615 88.455 97.9604 88.4567 97.9588L87.7856 97.2174ZM87.7453 97.2563C87.742 97.2599 87.7351 97.2673 87.7269 97.2771C87.723 97.2818 87.6999 97.3088 87.6774 97.3477C87.6687 97.3626 87.6371 97.4173 87.6206 97.4954C87.6062 97.564 87.5758 97.8131 87.7991 97.9902C87.9739 98.129 88.1623 98.0964 88.1864 98.0927C88.2409 98.0843 88.2812 98.0686 88.2956 98.0628L87.9243 97.1343C87.9386 97.1286 87.979 97.1129 88.0334 97.1045C88.0575 97.1007 88.2459 97.0682 88.4207 97.2069C88.6439 97.3841 88.6136 97.6332 88.5991 97.7017C88.5827 97.7799 88.551 97.8345 88.5424 97.8494C88.5199 97.8883 88.4969 97.9152 88.493 97.9198C88.4849 97.9295 88.4781 97.9368 88.4749 97.9403L87.7453 97.2563ZM88.2764 98.0701C88.321 98.0543 88.3533 98.0354 88.3596 98.0318C88.3716 98.0249 88.3809 98.0189 88.3854 98.0159C88.3947 98.0098 88.4018 98.0046 88.404 98.003L87.8179 97.1928C87.8195 97.1916 87.8262 97.1868 87.8352 97.1809C87.8395 97.178 87.8486 97.1721 87.8606 97.1652C87.8667 97.1617 87.876 97.1565 87.8876 97.1507C87.8981 97.1455 87.9178 97.1362 87.9435 97.1271L88.2764 98.0701ZM88.4078 98.0003L88.4092 97.9993L87.8155 97.1945L87.8141 97.1956L88.4078 98.0003ZM87.812 97.1971C87.5882 97.3653 87.2438 97.6672 87.0284 97.8557L87.687 98.6082C87.9152 98.4084 88.2261 98.1368 88.4127 97.9967L87.812 97.1971ZM87.0296 97.8547L87.029 97.8551L87.6852 98.6097L87.6858 98.6093L87.0296 97.8547ZM87.022 97.8614L87.0216 97.8617L87.6919 98.6038L87.6923 98.6035L87.022 97.8614ZM87.0275 97.8565C87.0068 97.8746 86.9873 97.8917 86.9689 97.9078L87.627 98.6607C87.6457 98.6443 87.6655 98.627 87.6861 98.609L87.0275 97.8565ZM86.9689 97.9078C86.9464 97.9274 86.9259 97.9453 86.9074 97.9614L87.5635 98.7161C87.583 98.6991 87.6043 98.6805 87.627 98.6607L86.9689 97.9078ZM86.9076 97.9612C86.8957 97.9716 86.8847 97.9811 86.8748 97.9896L87.5276 98.7471C87.5388 98.7375 87.5508 98.7271 87.5634 98.7162L86.9076 97.9612ZM86.8747 97.9897C86.8679 97.9955 86.8616 98.0009 86.8559 98.0059L87.505 98.7666C87.5121 98.7604 87.5197 98.7539 87.5277 98.747L86.8747 97.9897ZM86.8558 98.0059C86.5723 98.2479 86.2792 98.4808 85.9619 98.688L86.5087 99.5253C86.8758 99.2855 87.205 99.0226 87.505 98.7665L86.8558 98.0059ZM85.9619 98.688C85.3184 99.1083 84.7113 99.3344 84.1062 99.3344V100.334C84.9707 100.334 85.7675 100.009 86.5087 99.5253L85.9619 98.688ZM84.1062 99.3344C82.1177 99.3344 80.6073 98.8323 79.8996 97.8915L79.1005 98.4926C80.1017 99.8236 82.0322 100.334 84.1062 100.334V99.3344ZM79.8996 97.8915C78.3753 95.8651 77.4582 94.3679 76.778 92.7869L75.8594 93.1821C76.5823 94.8623 77.5491 96.4302 79.1005 98.4926L79.8996 97.8915ZM76.6165 93.3861C83.0957 88.5815 90.4166 85.2525 98.3187 83.1212L98.0583 82.1557C90.0525 84.3149 82.614 87.6937 76.0209 92.5829L76.6165 93.3861ZM98.3187 83.1212C98.4619 83.0826 98.6008 83.0449 98.7353 83.008L98.4712 82.0435C98.3378 82.08 98.2003 82.1174 98.0583 82.1557L98.3187 83.1212ZM98.1359 82.3481C97.7415 83.3857 97.3248 84.4146 96.8928 85.429L97.8129 85.8208C98.2495 84.7955 98.6712 83.7544 99.0706 82.7034L98.1359 82.3481ZM61.7432 51.1417C61.4471 51.3773 61.154 51.617 60.864 51.8605L61.5072 52.6263C61.7904 52.3883 62.0767 52.1542 62.3659 51.9241L61.7432 51.1417ZM65.136 63.8227C64.3792 58.7897 63.5312 54.3313 62.5281 51.3723L61.581 51.6934C62.5526 54.5596 63.3904 58.9389 64.1471 63.9714L65.136 63.8227ZM66.5674 74.4245C66.1244 70.9494 65.6607 67.3124 65.136 63.8227L64.1471 63.9714C64.6699 67.4481 65.1321 71.0738 65.5754 74.5509L66.5674 74.4245ZM67.2018 79.3302C66.992 77.7552 66.7821 76.1089 66.5674 74.4245L65.5754 74.5509C65.7901 76.2348 66.0003 77.8839 66.2106 79.4623L67.2018 79.3302ZM69.7575 90.7816C68.6452 87.0851 67.7153 83.1843 67.2018 79.3302L66.2106 79.4623C66.7329 83.3826 67.6767 87.3371 68.7999 91.0697L69.7575 90.7816ZM67.5664 93.1238C68.2359 92.5001 68.915 91.8942 69.6036 91.3057L68.9539 90.5455C68.2545 91.1432 67.5647 91.7587 66.8847 92.3922L67.5664 93.1238ZM64.4076 96.2222C65.4365 95.1586 66.4909 94.1259 67.5664 93.1238L66.8847 92.3922C65.797 93.4056 64.7302 94.4504 63.6889 95.5269L64.4076 96.2222ZM57.4232 98.2983C59.8442 98.0653 62.3015 97.3218 64.2745 96.3204L63.8219 95.4287C61.9584 96.3745 59.6218 97.082 57.3274 97.3029L57.4232 98.2983ZM50.9585 97.2308C52.5225 98.1795 54.8017 98.5506 57.4232 98.2983L57.3274 97.3029C54.8265 97.5436 52.7898 97.172 51.4771 96.3758L50.9585 97.2308ZM43.9905 87.2688C44.837 91.7708 47.2031 94.9531 50.9585 97.2308L51.4771 96.3758C47.9498 94.2364 45.7642 91.2902 44.9733 87.084L43.9905 87.2688ZM46.2532 71.5979C44.2206 76.8479 43.0149 82.0798 43.9905 87.2688L44.9733 87.084C44.0484 82.1644 45.1795 77.141 47.1858 71.959L46.2532 71.5979ZM49.8375 64.7426C48.4023 66.868 47.1877 69.1843 46.2532 71.5979L47.1858 71.959C48.093 69.6157 49.2726 67.366 50.6663 65.3022L49.8375 64.7426ZM60.864 51.8605C56.6966 55.3608 53.05 59.9855 49.8375 64.7426L50.6663 65.3022C53.8569 60.5775 57.4428 56.0399 61.5072 52.6263L60.864 51.8605ZM74.8727 86.8531C74.1194 84.0824 73.5138 81.2737 73.1493 78.5378L72.158 78.6699C72.5296 81.459 73.1455 84.3121 73.9077 87.1155L74.8727 86.8531ZM96.4959 76.3627C88.5083 78.517 80.9444 81.8269 74.1051 86.5735L74.6753 87.395C81.4084 82.7221 88.8645 79.4567 96.7563 77.3282L96.4959 76.3627ZM99.4751 75.5023C98.7784 75.7182 97.8633 75.9939 96.4959 76.3627L96.7563 77.3282C98.138 76.9556 99.0651 76.6762 99.7711 76.4575L99.4751 75.5023ZM99.8763 75.3772C99.7444 75.4185 99.6111 75.4602 99.4752 75.5023L99.7711 76.4575C99.9085 76.4149 100.043 76.3728 100.175 76.3316L99.8763 75.3772ZM99.88 75.3761L99.8785 75.3765L100.173 76.3323L100.174 76.3319L99.88 75.3761ZM100.663 75.1347C100.407 75.2114 100.145 75.2931 99.8777 75.3768L100.176 76.3312C100.445 76.2472 100.7 76.1673 100.95 76.0926L100.663 75.1347ZM99.4163 53.7081C102.503 59.6492 102.138 68.2047 100.321 75.4927L101.291 75.7346C103.128 68.3658 103.559 59.5139 100.304 53.247L99.4163 53.7081ZM92.4747 45.9873C95.14 47.3585 97.7152 50.4338 99.4163 53.7081L100.304 53.247C98.5532 49.8777 95.8541 46.6014 92.9322 45.0981L92.4747 45.9873ZM83.6909 43.9028C86.6926 43.9218 89.8573 44.6406 92.4747 45.9873L92.9322 45.0981C90.1629 43.6732 86.8415 42.9228 83.6972 42.9028L83.6909 43.9028ZM67.4255 48.4796C72.4916 45.5698 78.0926 43.8673 83.6909 43.9028L83.6972 42.9028C77.8927 42.866 72.1194 44.6304 66.9274 47.6124L67.4255 48.4796ZM68.0766 49.0603C67.9365 48.666 67.7928 48.2697 67.6452 47.872L66.7077 48.2199C66.8535 48.613 66.9957 49.0049 67.1343 49.3951L68.0766 49.0603ZM71.0693 62.9306C70.2886 57.7385 69.3418 52.6215 68.0766 49.0603L67.1343 49.3951C68.3637 52.8553 69.2994 57.8852 70.0804 63.0793L71.0693 62.9306ZM72.5312 73.758C72.0833 70.246 71.6038 66.4851 71.0693 62.9306L70.0804 63.0793C70.6129 66.6208 71.0911 70.3704 71.5392 73.8845L72.5312 73.758ZM72.5313 73.7595L72.5313 73.7593L71.539 73.8833L71.5391 73.8836L72.5313 73.7595ZM72.5313 73.759L72.5311 73.7576L71.5393 73.8855L71.5395 73.887L72.5313 73.759ZM73.1493 78.5378C72.9486 77.032 72.7436 75.4239 72.5314 73.7597L71.5394 73.8862C71.7515 75.5498 71.957 77.1608 72.158 78.6699L73.1493 78.5378ZM43.3009 41.1091H43.3007V42.1091H43.3009V41.1091ZM43.301 41.1091H43.3009V42.1091H43.301V41.1091ZM43.5744 41.1029C43.4861 41.104 43.3885 41.1066 43.2875 41.1093L43.3144 42.109C43.4174 42.1062 43.5071 42.1038 43.5867 42.1028L43.5744 41.1029ZM43.5299 41.1053L43.5215 41.1063L43.6396 42.0993L43.648 42.0983L43.5299 41.1053ZM43.7394 41.076C43.6192 41.0949 43.5538 41.1025 43.5305 41.1053L43.6475 42.0984C43.6797 42.0946 43.7584 42.0853 43.8948 42.0638L43.7394 41.076ZM44.5696 40.921C44.2333 40.9907 43.9491 41.043 43.7393 41.076L43.8948 42.0638C44.1248 42.0276 44.4255 41.9722 44.7726 41.9002L44.5696 40.921ZM46.7055 40.3956C46.0325 40.5908 45.2447 40.781 44.5696 40.921L44.7726 41.9002C45.4687 41.7559 46.2821 41.5596 46.984 41.356L46.7055 40.3956ZM54.1792 37.379C51.6564 38.6136 49.3128 39.6395 46.7055 40.3956L46.984 41.356C49.6713 40.5767 52.0739 39.5227 54.6188 38.2772L54.1792 37.379ZM49.6046 37.2761C51.4173 37.1219 52.8921 37.4425 54.1259 38.247L54.6721 37.4093C53.2129 36.4578 51.5039 36.111 49.5198 36.2797L49.6046 37.2761ZM43.6862 38.9754C45.3247 38.0307 47.4507 37.4593 49.6046 37.2761L49.5198 36.2797C47.2616 36.4718 44.9842 37.0728 43.1867 38.109L43.6862 38.9754ZM43.1484 41.7437C43.4135 40.7176 43.6714 39.6898 43.9222 38.6606L42.9506 38.4238C42.7009 39.4486 42.4441 40.472 42.1802 41.4936L43.1484 41.7437ZM43.2873 41.1093C43.0998 41.1144 42.8925 41.1199 42.6671 41.1187L42.6616 42.1187C42.9053 42.12 43.1278 42.114 43.3142 42.109L43.2873 41.1093ZM53.0839 124.274C53.2087 124.206 53.3568 124.194 53.491 124.241C53.6033 124.281 53.6709 124.35 53.7001 124.383C53.7571 124.448 53.7823 124.512 53.7872 124.524C53.8034 124.564 53.8106 124.597 53.8118 124.602C53.8164 124.623 53.8186 124.639 53.8191 124.642C53.8207 124.653 53.8215 124.662 53.8217 124.664C53.8223 124.671 53.8225 124.675 53.8225 124.676L52.8237 124.724C52.8241 124.733 52.8248 124.744 52.8258 124.755C52.8262 124.759 52.8271 124.769 52.8288 124.781C52.8294 124.785 52.8317 124.802 52.8364 124.822C52.8376 124.828 52.8448 124.861 52.861 124.901C52.8659 124.913 52.8911 124.977 52.9481 125.042C52.9773 125.075 53.0449 125.144 53.1572 125.184C53.2915 125.231 53.4396 125.219 53.5644 125.151L53.0839 124.274ZM52.8266 124.759C52.8264 124.757 52.8259 124.753 52.8254 124.746C52.8252 124.743 52.8246 124.735 52.8244 124.725C52.8243 124.721 52.8239 124.708 52.8246 124.691C52.8249 124.685 52.8258 124.663 52.8303 124.634C52.8322 124.622 52.8377 124.589 52.8518 124.549C52.8588 124.528 52.8729 124.491 52.899 124.449C52.9221 124.412 52.978 124.332 53.0839 124.274L53.5644 125.151C53.6703 125.093 53.7262 125.013 53.7493 124.976C53.7753 124.934 53.7895 124.897 53.7965 124.876C53.8106 124.836 53.8161 124.803 53.818 124.791C53.8225 124.762 53.8235 124.74 53.8237 124.733C53.8245 124.716 53.8241 124.703 53.824 124.698C53.8237 124.687 53.8231 124.678 53.8227 124.673C53.8219 124.662 53.8208 124.651 53.8196 124.641L52.8266 124.759Z" fill="#001E28"/>
<path d="M14.8262 162.124V153.187C14.8262 152.793 15.0052 152.596 15.3633 152.596H16.3516C16.7096 152.596 16.8887 152.793 16.8887 153.187V161.802C16.8887 163.807 17.1715 165.118 17.7373 165.733C18.3102 166.342 19.2412 166.646 20.5303 166.646C21.8193 166.646 22.7467 166.342 23.3125 165.733C23.8854 165.118 24.1719 163.807 24.1719 161.802V153.187C24.1719 152.793 24.3509 152.596 24.709 152.596H25.6973C26.0553 152.596 26.2344 152.793 26.2344 153.187V162.124C26.2344 164.394 25.7116 165.995 24.666 166.926C23.6276 167.857 22.249 168.322 20.5303 168.322C18.8115 168.322 17.4294 167.857 16.3838 166.926C15.3454 165.995 14.8262 164.394 14.8262 162.124ZM30.4238 168C30.0658 168 29.8867 167.803 29.8867 167.409V153.187C29.8867 152.793 30.0658 152.596 30.4238 152.596H31.4121C31.7702 152.596 31.9492 152.793 31.9492 153.187V167.409C31.9492 167.803 31.7702 168 31.4121 168H30.4238ZM43.4648 168C43.1068 168 42.9277 167.803 42.9277 167.409V153.187C42.9277 152.793 43.1068 152.596 43.4648 152.596H47.4287C50.4652 152.596 52.5742 153.269 53.7559 154.615C54.9447 155.954 55.5391 157.841 55.5391 160.276C55.5391 162.711 54.9447 164.609 53.7559 165.97C52.5742 167.323 50.4652 168 47.4287 168H43.4648ZM44.9902 166.238H47.332C49.6953 166.238 51.2852 165.737 52.1016 164.734C52.9251 163.732 53.3369 162.246 53.3369 160.276C53.3369 158.307 52.9251 156.825 52.1016 155.829C51.2852 154.834 49.6953 154.336 47.332 154.336H44.9902V166.238ZM57.4404 162.36C57.4404 160.584 57.8844 159.17 58.7725 158.117C59.6605 157.064 60.9316 156.538 62.5859 156.538C63.9609 156.538 65.0996 157.021 66.002 157.988C66.9115 158.948 67.3662 160.484 67.3662 162.597C67.3662 162.919 67.2194 163.08 66.9258 163.08H59.4385C59.5602 164.462 59.9326 165.425 60.5557 165.97C61.1787 166.507 61.8841 166.775 62.6719 166.775C63.5026 166.775 64.14 166.636 64.584 166.356C65.028 166.077 65.3538 165.801 65.5615 165.529C65.7907 165.229 66.0127 165.171 66.2275 165.357L66.8613 165.905C67.026 166.049 67.026 166.245 66.8613 166.496C66.7253 166.704 66.335 167.037 65.6904 167.495C65.0531 167.953 64.0469 168.183 62.6719 168.183C60.8815 168.183 59.5602 167.656 58.708 166.604C57.863 165.551 57.4404 164.136 57.4404 162.36ZM59.3955 161.684H65.4648C65.4362 160.681 65.1784 159.804 64.6914 159.052C64.2044 158.293 63.4883 157.913 62.543 157.913C61.7122 157.913 61.0068 158.192 60.4268 158.751C59.8467 159.302 59.5029 160.28 59.3955 161.684ZM69.4072 166.947C69.1852 166.74 69.1387 166.546 69.2676 166.367L69.751 165.69C69.9085 165.476 70.1413 165.486 70.4492 165.723C70.8717 166.045 71.3408 166.303 71.8564 166.496C72.3792 166.689 72.9736 166.786 73.6396 166.786C74.0335 166.786 74.3844 166.74 74.6924 166.646C75.0003 166.546 75.2689 166.364 75.498 166.099C75.7344 165.834 75.8525 165.479 75.8525 165.035C75.8525 164.777 75.7952 164.534 75.6807 164.305C75.5732 164.076 75.4014 163.893 75.165 163.757C74.9359 163.614 74.7103 163.503 74.4883 163.424C74.123 163.288 73.7578 163.177 73.3926 163.091C73.0345 162.998 72.5618 162.858 71.9746 162.672C71.5807 162.55 71.2083 162.378 70.8574 162.156C70.5065 161.927 70.1986 161.619 69.9336 161.232C69.6758 160.846 69.5469 160.312 69.5469 159.632C69.5469 158.937 69.7581 158.339 70.1807 157.838C70.6032 157.337 71.1331 156.996 71.7705 156.817C72.4079 156.631 73.0273 156.538 73.6289 156.538C74.5169 156.538 75.2295 156.642 75.7666 156.85C76.3109 157.05 76.7799 157.29 77.1738 157.569C77.403 157.734 77.4352 157.924 77.2705 158.139L76.7871 158.783C76.6367 158.991 76.404 158.984 76.0889 158.762C75.8239 158.576 75.4479 158.4 74.9609 158.235C74.474 158.071 74.0479 157.988 73.6826 157.988C73.2314 157.988 72.8447 158.038 72.5225 158.139C72.2002 158.239 71.9388 158.411 71.7383 158.654C71.5378 158.898 71.4375 159.184 71.4375 159.514C71.4375 159.764 71.4769 159.99 71.5557 160.19C71.6344 160.384 71.7812 160.563 71.9961 160.728C72.2109 160.892 72.5117 161.025 72.8984 161.125C73.5 161.283 74.0479 161.426 74.542 161.555C75.0433 161.684 75.4945 161.841 75.8955 162.027C76.4183 162.271 76.8193 162.539 77.0986 162.833C77.3851 163.127 77.582 163.445 77.6895 163.789C77.7969 164.126 77.8506 164.502 77.8506 164.917C77.8506 165.683 77.6214 166.331 77.1631 166.861C76.7119 167.391 76.207 167.746 75.6484 167.925C75.0898 168.097 74.4167 168.183 73.6289 168.183C72.5618 168.183 71.6452 168.032 70.8789 167.731C70.1198 167.424 69.6292 167.162 69.4072 166.947ZM80.4717 168C80.1494 168 79.9883 167.839 79.9883 167.517V157.204C79.9883 156.882 80.1494 156.721 80.4717 156.721H81.3955C81.7178 156.721 81.8789 156.882 81.8789 157.204V167.517C81.8789 167.839 81.7178 168 81.3955 168H80.4717ZM80.4717 154.68C80.1494 154.68 79.9883 154.519 79.9883 154.196V153.272C79.9883 152.95 80.1494 152.789 80.4717 152.789H81.3955C81.7178 152.789 81.8789 152.95 81.8789 153.272V154.196C81.8789 154.519 81.7178 154.68 81.3955 154.68H80.4717ZM84.3174 162.36C84.3174 160.821 84.6898 159.467 85.4346 158.3C86.1794 157.125 87.2679 156.538 88.7002 156.538C89.5238 156.538 90.1826 156.674 90.6768 156.946C91.1709 157.218 91.6149 157.591 92.0088 158.063H92.0303L92.0947 157.204C92.1162 156.882 92.2559 156.721 92.5137 156.721H93.416C93.7383 156.721 93.8994 156.882 93.8994 157.204V168.086C93.8994 169.461 93.5807 170.535 92.9434 171.309C92.3132 172.089 91.0635 172.479 89.1943 172.479C87.9411 172.479 87.0029 172.336 86.3799 172.05C85.7568 171.771 85.3128 171.473 85.0479 171.158C84.8545 170.922 84.8438 170.721 85.0156 170.557L85.6064 169.977C85.7712 169.819 86.0003 169.869 86.2939 170.127C86.6735 170.471 87.0387 170.714 87.3896 170.857C87.7406 171.008 88.3457 171.083 89.2051 171.083C90.179 171.083 90.888 170.875 91.332 170.46C91.7832 170.045 92.0088 169.185 92.0088 167.882V167.237C92.0088 167.015 92.016 166.797 92.0303 166.582H92.0088C91.6364 167.076 91.196 167.466 90.6875 167.753C90.1862 168.039 89.5238 168.183 88.7002 168.183C87.2679 168.183 86.1794 167.599 85.4346 166.432C84.6898 165.257 84.3174 163.9 84.3174 162.36ZM86.3154 162.36C86.3154 163.678 86.541 164.745 86.9922 165.562C87.4505 166.378 88.224 166.786 89.3125 166.786C90.0859 166.786 90.7269 166.525 91.2354 166.002C91.751 165.472 92.0088 164.67 92.0088 163.596V161.125C92.0088 160.051 91.751 159.252 91.2354 158.729C90.7269 158.2 90.0859 157.935 89.3125 157.935C88.224 157.935 87.4505 158.343 86.9922 159.159C86.541 159.976 86.3154 161.043 86.3154 162.36ZM97.4443 168C97.1221 168 96.9609 167.839 96.9609 167.517V157.204C96.9609 156.882 97.1221 156.721 97.4443 156.721H98.3467C98.6689 156.721 98.8301 156.882 98.8301 157.204V158.063H98.873C99.3385 157.548 99.8398 157.165 100.377 156.914C100.914 156.663 101.584 156.538 102.386 156.538C103.689 156.538 104.624 156.907 105.189 157.645C105.762 158.375 106.049 159.378 106.049 160.652V167.517C106.049 167.839 105.888 168 105.565 168H104.642C104.319 168 104.158 167.839 104.158 167.517V161.168C104.158 159.764 103.925 158.876 103.46 158.504C102.994 158.124 102.404 157.935 101.688 157.935C100.757 157.935 100.051 158.214 99.5713 158.772C99.0915 159.324 98.8516 160.273 98.8516 161.619V167.517C98.8516 167.839 98.6904 168 98.3682 168H97.4443Z" fill="#001F28"/>
<line x1="14" y1="141.806" x2="107" y2="141.806" stroke="#016F92" stroke-width="8"/>
</svg>
