<svg width="528" height="528" viewBox="0 0 528 528" fill="none" xmlns="http://www.w3.org/2000/svg">
<rect width="528" height="528" fill="white"/>
<path d="M51.3594 277C47.0625 277 44.9141 274.637 44.9141 269.91V99.2383C44.9141 94.5117 47.0625 92.1484 51.3594 92.1484H63.2188C67.5156 92.1484 69.6641 94.5117 69.6641 99.2383V175.035C69.6641 178.473 69.5781 181.91 69.4062 185.348H69.9219L156.031 97.1758C159.297 93.8242 162.305 92.1484 165.055 92.1484H180.652C187.785 92.1484 188.559 94.9844 182.973 100.656L117.488 167.43L186.453 268.492C190.234 274.164 189.461 277 184.133 277H168.406C164.625 277 161.617 275.324 159.383 271.973L100.473 184.961L69.6641 216.285V269.91C69.6641 274.637 67.5156 277 63.2188 277H51.3594ZM205.145 273.262C201.191 271.113 199.988 268.32 201.535 264.883L205.789 255.73C207.68 251.605 210.816 251.004 215.199 253.926C222.16 258.48 229.121 260.758 236.082 260.758C244.418 260.758 249.832 257.965 252.324 252.379C254.816 246.707 256.062 238.672 256.062 228.273V99.2383C256.062 94.5117 258.211 92.1484 262.508 92.1484H274.367C278.664 92.1484 280.812 94.5117 280.812 99.2383V225.309C280.812 242.324 278.148 255.859 272.82 265.914C267.492 275.883 255.031 280.867 235.438 280.867C224.695 280.867 214.598 278.332 205.145 273.262ZM313.039 277C308.57 277 307.41 274.164 309.559 268.492L373.754 100.012C375.73 94.7695 378.566 92.1484 382.262 92.1484H400.309C404.004 92.1484 406.84 94.7695 408.816 100.012L473.012 268.492C475.16 274.164 474 277 469.531 277H456.383C451.828 277 448.734 274.895 447.102 270.684L430.988 228.016H351.582L335.469 270.684C333.836 274.895 330.742 277 326.188 277H313.039ZM359.703 206.875H422.867L403.145 155.312C401.34 150.5 399.535 145.172 397.73 139.328C396.012 133.484 393.949 125.191 391.543 114.449H391.027C388.621 125.191 386.516 133.484 384.711 139.328C382.992 145.172 381.23 150.5 379.426 155.312L359.703 206.875Z" fill="#001F28"/>
<path d="M69.4062 185.348L68.4075 185.298L68.355 186.348H69.4062V185.348ZM69.9219 185.348V186.348H70.343L70.6373 186.046L69.9219 185.348ZM156.031 97.1758L156.747 97.8745L156.747 97.8736L156.031 97.1758ZM182.973 100.656L182.26 99.9546L182.259 99.9561L182.973 100.656ZM117.488 167.43L116.774 166.73L116.2 167.315L116.662 167.993L117.488 167.43ZM186.453 268.492L187.285 267.937L187.279 267.929L186.453 268.492ZM159.383 271.973L160.215 271.418L160.211 271.412L159.383 271.973ZM100.473 184.961L101.301 184.4L100.616 183.389L99.7597 184.26L100.473 184.961ZM69.6641 216.285L68.9511 215.584L68.6641 215.876V216.285H69.6641ZM51.3594 276C49.3909 276 48.091 275.463 47.2653 274.555C46.4233 273.629 45.9141 272.142 45.9141 269.91H43.9141C43.9141 272.405 44.4791 274.463 45.7855 275.9C47.1083 277.355 49.0309 278 51.3594 278V276ZM45.9141 269.91V99.2383H43.9141V269.91H45.9141ZM45.9141 99.2383C45.9141 97.0068 46.4233 95.5199 47.2653 94.5936C48.091 93.6854 49.3909 93.1484 51.3594 93.1484V91.1484C49.0309 91.1484 47.1083 91.7931 45.7855 93.2482C44.4791 94.6852 43.9141 96.7432 43.9141 99.2383H45.9141ZM51.3594 93.1484H63.2188V91.1484H51.3594V93.1484ZM63.2188 93.1484C65.1872 93.1484 66.4872 93.6854 67.3128 94.5936C68.1549 95.5199 68.6641 97.0068 68.6641 99.2383H70.6641C70.6641 96.7432 70.099 94.6852 68.7927 93.2482C67.4699 91.7931 65.5472 91.1484 63.2188 91.1484V93.1484ZM68.6641 99.2383V175.035H70.6641V99.2383H68.6641ZM68.6641 175.035C68.6641 178.456 68.5785 181.877 68.4075 185.298L70.405 185.398C70.5777 181.943 70.6641 178.489 70.6641 175.035H68.6641ZM69.4062 186.348H69.9219V184.348H69.4062V186.348ZM70.6373 186.046L156.747 97.8745L155.316 96.4771L69.2065 184.649L70.6373 186.046ZM156.747 97.8736C159.949 94.5878 162.712 93.1484 165.055 93.1484V91.1484C161.898 91.1484 158.645 93.0607 155.315 96.4779L156.747 97.8736ZM165.055 93.1484H180.652V91.1484H165.055V93.1484ZM180.652 93.1484C182.389 93.1484 183.642 93.3237 184.472 93.6215C185.294 93.9163 185.543 94.2654 185.617 94.5385C185.707 94.8689 185.652 95.464 185.099 96.4417C184.559 97.3962 183.628 98.5652 182.26 99.9546L183.685 101.358C185.11 99.9113 186.177 98.5989 186.84 97.4264C187.49 96.2772 187.843 95.0998 187.547 94.0123C187.235 92.8674 186.302 92.153 185.147 91.7389C184.001 91.3277 182.482 91.1484 180.652 91.1484V93.1484ZM182.259 99.9561L116.774 166.73L118.202 168.13L183.687 101.356L182.259 99.9561ZM116.662 167.993L185.627 269.056L187.279 267.929L118.314 166.866L116.662 167.993ZM185.621 269.047C186.541 270.427 187.154 271.591 187.492 272.548C187.834 273.515 187.862 274.177 187.744 274.61C187.64 274.992 187.392 275.311 186.853 275.561C186.278 275.829 185.395 276 184.133 276V278C185.535 278 186.747 277.816 187.696 277.375C188.683 276.917 189.391 276.172 189.674 275.136C189.942 274.151 189.788 273.041 189.378 271.881C188.964 270.711 188.256 269.393 187.285 267.937L185.621 269.047ZM184.133 276H168.406V278H184.133V276ZM168.406 276C164.985 276 162.278 274.513 160.215 271.418L158.551 272.527C160.956 276.135 164.265 278 168.406 278V276ZM160.211 271.412L101.301 184.4L99.6446 185.522L158.555 272.533L160.211 271.412ZM99.7597 184.26L68.9511 215.584L70.377 216.986L101.186 185.662L99.7597 184.26ZM68.6641 216.285V269.91H70.6641V216.285H68.6641ZM68.6641 269.91C68.6641 272.142 68.1549 273.629 67.3128 274.555C66.4872 275.463 65.1872 276 63.2188 276V278C65.5472 278 67.4699 277.355 68.7927 275.9C70.099 274.463 70.6641 272.405 70.6641 269.91H68.6641ZM63.2188 276H51.3594V278H63.2188V276ZM205.145 273.262L204.667 274.14L204.672 274.143L205.145 273.262ZM201.535 264.883L200.628 264.461L200.623 264.472L201.535 264.883ZM205.789 255.73L206.696 256.152L206.698 256.147L205.789 255.73ZM215.199 253.926L214.644 254.758L214.652 254.763L215.199 253.926ZM252.324 252.379L253.237 252.786L253.24 252.781L252.324 252.379ZM272.82 265.914L273.702 266.385L273.704 266.382L272.82 265.914ZM205.622 272.383C203.752 271.367 202.675 270.273 202.196 269.16C201.731 268.081 201.759 266.822 202.447 265.293L200.623 264.472C199.764 266.381 199.621 268.238 200.359 269.951C201.083 271.632 202.584 273.008 204.667 274.14L205.622 272.383ZM202.442 265.304L206.696 256.152L204.882 255.309L200.628 264.461L202.442 265.304ZM206.698 256.147C207.569 254.246 208.617 253.385 209.748 253.168C210.934 252.94 212.537 253.353 214.645 254.758L215.754 253.094C213.478 251.577 211.321 250.829 209.371 251.203C207.365 251.588 205.899 253.09 204.88 255.314L206.698 256.147ZM214.652 254.763C221.743 259.403 228.891 261.758 236.082 261.758V259.758C229.351 259.758 222.577 257.558 215.747 253.089L214.652 254.763ZM236.082 261.758C244.643 261.758 250.525 258.866 253.237 252.786L251.411 251.971C249.139 257.064 244.193 259.758 236.082 259.758V261.758ZM253.24 252.781C255.813 246.925 257.062 238.729 257.062 228.273H255.062C255.062 238.615 253.82 246.489 251.409 251.977L253.24 252.781ZM257.062 228.273V99.2383H255.062V228.273H257.062ZM257.062 99.2383C257.062 97.0068 257.572 95.5199 258.414 94.5936C259.239 93.6854 260.539 93.1484 262.508 93.1484V91.1484C260.179 91.1484 258.257 91.7931 256.934 93.2482C255.628 94.6852 255.062 96.7432 255.062 99.2383H257.062ZM262.508 93.1484H274.367V91.1484H262.508V93.1484ZM274.367 93.1484C276.336 93.1484 277.636 93.6854 278.461 94.5936C279.303 95.5199 279.812 97.0068 279.812 99.2383H281.812C281.812 96.7432 281.247 94.6852 279.941 93.2482C278.618 91.7931 276.696 91.1484 274.367 91.1484V93.1484ZM279.812 99.2383V225.309H281.812V99.2383H279.812ZM279.812 225.309C279.812 242.235 277.16 255.589 271.937 265.446L273.704 266.382C279.137 256.129 281.812 242.413 281.812 225.309H279.812ZM271.938 265.443C266.885 274.897 254.942 279.867 235.438 279.867V281.867C255.12 281.867 268.099 276.868 273.702 266.385L271.938 265.443ZM235.438 279.867C224.86 279.867 214.925 277.373 205.617 272.38L204.672 274.143C214.271 279.291 224.531 281.867 235.438 281.867V279.867ZM309.559 268.492L308.624 268.136L308.623 268.138L309.559 268.492ZM373.754 100.012L374.688 100.368L374.69 100.365L373.754 100.012ZM408.816 100.012L407.881 100.365L407.882 100.368L408.816 100.012ZM473.012 268.492L473.947 268.138L473.946 268.136L473.012 268.492ZM447.102 270.684L446.166 271.037L446.169 271.045L447.102 270.684ZM430.988 228.016L431.924 227.662L431.68 227.016H430.988V228.016ZM351.582 228.016V227.016H350.891L350.647 227.662L351.582 228.016ZM335.469 270.684L336.401 271.045L336.404 271.037L335.469 270.684ZM359.703 206.875L358.769 206.518L358.25 207.875H359.703V206.875ZM422.867 206.875V207.875H424.32L423.801 206.518L422.867 206.875ZM403.145 155.312L402.208 155.664L402.211 155.67L403.145 155.312ZM397.73 139.328L396.771 139.61L396.775 139.623L397.73 139.328ZM391.543 114.449L392.519 114.231L392.344 113.449H391.543V114.449ZM391.027 114.449V113.449H390.227L390.052 114.231L391.027 114.449ZM384.711 139.328L383.755 139.033L383.752 139.046L384.711 139.328ZM379.426 155.312L380.36 155.67L380.362 155.664L379.426 155.312ZM313.039 276C310.993 276 310.101 275.369 309.743 274.494C309.317 273.453 309.433 271.646 310.494 268.846L308.623 268.138C307.535 271.01 307.158 273.457 307.892 275.252C308.694 277.213 310.617 278 313.039 278V276ZM310.493 268.848L374.688 100.368L372.819 99.6557L308.624 268.136L310.493 268.848ZM374.69 100.365C376.608 95.2769 379.187 93.1484 382.262 93.1484V91.1484C377.946 91.1484 374.853 94.2621 372.818 99.6589L374.69 100.365ZM382.262 93.1484H400.309V91.1484H382.262V93.1484ZM400.309 93.1484C403.383 93.1484 405.962 95.2769 407.881 100.365L409.752 99.6589C407.717 94.2621 404.625 91.1484 400.309 91.1484V93.1484ZM407.882 100.368L472.077 268.848L473.946 268.136L409.751 99.6557L407.882 100.368ZM472.077 268.846C473.137 271.646 473.253 273.453 472.827 274.494C472.47 275.369 471.578 276 469.531 276V278C471.954 278 473.876 277.213 474.678 275.252C475.413 273.457 475.035 271.01 473.947 268.138L472.077 268.846ZM469.531 276H456.383V278H469.531V276ZM456.383 276C454.262 276 452.557 275.512 451.209 274.594C449.862 273.677 448.792 272.278 448.034 270.322L446.169 271.045C447.043 273.3 448.337 275.059 450.084 276.248C451.83 277.436 453.949 278 456.383 278V276ZM448.037 270.33L431.924 227.662L430.053 228.369L446.166 271.037L448.037 270.33ZM430.988 227.016H351.582V229.016H430.988V227.016ZM350.647 227.662L334.533 270.33L336.404 271.037L352.518 228.369L350.647 227.662ZM334.536 270.322C333.778 272.278 332.708 273.677 331.361 274.594C330.013 275.512 328.308 276 326.188 276V278C328.621 278 330.741 277.436 332.486 276.248C334.233 275.059 335.527 273.3 336.401 271.045L334.536 270.322ZM326.188 276H313.039V278H326.188V276ZM359.703 207.875H422.867V205.875H359.703V207.875ZM423.801 206.518L404.079 154.955L402.211 155.67L421.933 207.232L423.801 206.518ZM404.081 154.961C402.284 150.17 400.486 144.861 398.686 139.033L396.775 139.623C398.584 145.482 400.395 150.83 402.208 155.664L404.081 154.961ZM398.69 139.046C396.98 133.234 394.923 124.966 392.519 114.231L390.567 114.668C392.975 125.417 395.043 133.735 396.771 139.61L398.69 139.046ZM391.543 113.449H391.027V115.449H391.543V113.449ZM390.052 114.231C387.647 124.964 385.549 133.227 383.755 139.033L385.666 139.623C387.483 133.742 389.595 125.419 392.003 114.668L390.052 114.231ZM383.752 139.046C382.038 144.871 380.284 150.175 378.489 154.961L380.362 155.664C382.177 150.825 383.946 145.473 385.67 139.61L383.752 139.046ZM378.492 154.955L358.769 206.518L360.637 207.232L380.36 155.67L378.492 154.955Z" fill="#101702"/>
<path d="M32.2969 406.086V360.586C32.2969 358.581 33.2083 357.578 35.0312 357.578H40.0625C41.8854 357.578 42.7969 358.581 42.7969 360.586V404.445C42.7969 414.654 44.237 421.326 47.1172 424.461C50.0339 427.56 54.7734 429.109 61.3359 429.109C67.8984 429.109 72.6198 427.56 75.5 424.461C78.4167 421.326 79.875 414.654 79.875 404.445V360.586C79.875 358.581 80.7865 357.578 82.6094 357.578H87.6406C89.4635 357.578 90.375 358.581 90.375 360.586V406.086C90.375 417.643 87.7135 425.792 82.3906 430.531C77.1042 435.271 70.0859 437.641 61.3359 437.641C52.5859 437.641 45.5495 435.271 40.2266 430.531C34.9401 425.792 32.2969 417.643 32.2969 406.086ZM111.703 436C109.88 436 108.969 434.997 108.969 432.992V360.586C108.969 358.581 109.88 357.578 111.703 357.578H116.734C118.557 357.578 119.469 358.581 119.469 360.586V432.992C119.469 434.997 118.557 436 116.734 436H111.703ZM178.094 436C176.271 436 175.359 434.997 175.359 432.992V360.586C175.359 358.581 176.271 357.578 178.094 357.578H198.273C213.732 357.578 224.469 361.005 230.484 367.859C236.536 374.677 239.562 384.284 239.562 396.68C239.562 409.076 236.536 418.737 230.484 425.664C224.469 432.555 213.732 436 198.273 436H178.094ZM185.859 427.031H197.781C209.812 427.031 217.906 424.479 222.062 419.375C226.255 414.271 228.352 406.706 228.352 396.68C228.352 386.654 226.255 379.107 222.062 374.039C217.906 368.971 209.812 366.438 197.781 366.438H185.859V427.031ZM249.242 407.289C249.242 398.247 251.503 391.047 256.023 385.688C260.544 380.328 267.016 377.648 275.438 377.648C282.438 377.648 288.234 380.109 292.828 385.031C297.458 389.917 299.773 397.737 299.773 408.492C299.773 410.133 299.026 410.953 297.531 410.953H259.414C260.034 417.99 261.93 422.893 265.102 425.664C268.273 428.398 271.865 429.766 275.875 429.766C280.104 429.766 283.349 429.055 285.609 427.633C287.87 426.211 289.529 424.807 290.586 423.422C291.753 421.891 292.883 421.599 293.977 422.547L297.203 425.336C298.042 426.065 298.042 427.068 297.203 428.344C296.51 429.401 294.523 431.096 291.242 433.43C287.997 435.763 282.875 436.93 275.875 436.93C266.76 436.93 260.034 434.25 255.695 428.891C251.393 423.531 249.242 416.331 249.242 407.289ZM259.195 403.844H290.094C289.948 398.74 288.635 394.273 286.156 390.445C283.677 386.581 280.031 384.648 275.219 384.648C270.99 384.648 267.398 386.07 264.445 388.914C261.492 391.721 259.742 396.698 259.195 403.844ZM310.164 430.641C309.034 429.583 308.797 428.599 309.453 427.688L311.914 424.242C312.716 423.148 313.901 423.203 315.469 424.406C317.62 426.047 320.008 427.359 322.633 428.344C325.294 429.328 328.32 429.82 331.711 429.82C333.716 429.82 335.503 429.583 337.07 429.109C338.638 428.599 340.005 427.669 341.172 426.32C342.375 424.971 342.977 423.167 342.977 420.906C342.977 419.594 342.685 418.354 342.102 417.188C341.555 416.021 340.68 415.091 339.477 414.398C338.31 413.669 337.161 413.104 336.031 412.703C334.172 412.01 332.312 411.445 330.453 411.008C328.63 410.534 326.224 409.823 323.234 408.875C321.229 408.255 319.333 407.38 317.547 406.25C315.76 405.083 314.193 403.516 312.844 401.547C311.531 399.578 310.875 396.862 310.875 393.398C310.875 389.862 311.951 386.818 314.102 384.266C316.253 381.714 318.951 379.982 322.195 379.07C325.44 378.122 328.594 377.648 331.656 377.648C336.177 377.648 339.805 378.177 342.539 379.234C345.31 380.255 347.698 381.477 349.703 382.898C350.87 383.737 351.034 384.703 350.195 385.797L347.734 389.078C346.969 390.135 345.784 390.099 344.18 388.969C342.831 388.021 340.917 387.128 338.438 386.289C335.958 385.451 333.789 385.031 331.93 385.031C329.633 385.031 327.664 385.286 326.023 385.797C324.383 386.307 323.052 387.182 322.031 388.422C321.01 389.661 320.5 391.12 320.5 392.797C320.5 394.073 320.701 395.221 321.102 396.242C321.503 397.227 322.25 398.138 323.344 398.977C324.438 399.815 325.969 400.49 327.938 401C331 401.802 333.789 402.531 336.305 403.188C338.857 403.844 341.154 404.646 343.195 405.594C345.857 406.833 347.898 408.201 349.32 409.695C350.779 411.19 351.781 412.812 352.328 414.562C352.875 416.276 353.148 418.19 353.148 420.305C353.148 424.206 351.982 427.505 349.648 430.203C347.352 432.901 344.781 434.706 341.938 435.617C339.094 436.492 335.667 436.93 331.656 436.93C326.224 436.93 321.557 436.164 317.656 434.633C313.792 433.065 311.294 431.734 310.164 430.641ZM366.492 436C364.852 436 364.031 435.18 364.031 433.539V381.039C364.031 379.398 364.852 378.578 366.492 378.578H371.195C372.836 378.578 373.656 379.398 373.656 381.039V433.539C373.656 435.18 372.836 436 371.195 436H366.492ZM366.492 368.188C364.852 368.188 364.031 367.367 364.031 365.727V361.023C364.031 359.383 364.852 358.562 366.492 358.562H371.195C372.836 358.562 373.656 359.383 373.656 361.023V365.727C373.656 367.367 372.836 368.188 371.195 368.188H366.492ZM386.07 407.289C386.07 399.451 387.966 392.56 391.758 386.617C395.549 380.638 401.091 377.648 408.383 377.648C412.576 377.648 415.93 378.341 418.445 379.727C420.961 381.112 423.221 383.008 425.227 385.414H425.336L425.664 381.039C425.773 379.398 426.484 378.578 427.797 378.578H432.391C434.031 378.578 434.852 379.398 434.852 381.039V436.438C434.852 443.438 433.229 448.906 429.984 452.844C426.776 456.818 420.414 458.805 410.898 458.805C404.518 458.805 399.742 458.076 396.57 456.617C393.398 455.195 391.138 453.682 389.789 452.078C388.805 450.875 388.75 449.854 389.625 449.016L392.633 446.062C393.471 445.26 394.638 445.516 396.133 446.828C398.065 448.578 399.924 449.818 401.711 450.547C403.497 451.312 406.578 451.695 410.953 451.695C415.911 451.695 419.521 450.638 421.781 448.523C424.078 446.409 425.227 442.034 425.227 435.398V432.117C425.227 430.987 425.263 429.875 425.336 428.781H425.227C423.331 431.297 421.089 433.284 418.5 434.742C415.948 436.201 412.576 436.93 408.383 436.93C401.091 436.93 395.549 433.958 391.758 428.016C387.966 422.036 386.07 415.128 386.07 407.289ZM396.242 407.289C396.242 413.997 397.391 419.43 399.688 423.586C402.021 427.742 405.958 429.82 411.5 429.82C415.438 429.82 418.701 428.49 421.289 425.828C423.914 423.13 425.227 419.047 425.227 413.578V401C425.227 395.531 423.914 391.466 421.289 388.805C418.701 386.107 415.438 384.758 411.5 384.758C405.958 384.758 402.021 386.836 399.688 390.992C397.391 395.148 396.242 400.581 396.242 407.289ZM452.898 436C451.258 436 450.438 435.18 450.438 433.539V381.039C450.438 379.398 451.258 378.578 452.898 378.578H457.492C459.133 378.578 459.953 379.398 459.953 381.039V385.414H460.172C462.542 382.789 465.094 380.839 467.828 379.562C470.562 378.286 473.971 377.648 478.055 377.648C484.69 377.648 489.448 379.526 492.328 383.281C495.245 387 496.703 392.104 496.703 398.594V433.539C496.703 435.18 495.883 436 494.242 436H489.539C487.898 436 487.078 435.18 487.078 433.539V401.219C487.078 394.073 485.893 389.552 483.523 387.656C481.154 385.724 478.146 384.758 474.5 384.758C469.76 384.758 466.169 386.18 463.727 389.023C461.284 391.831 460.062 396.661 460.062 403.516V433.539C460.062 435.18 459.242 436 457.602 436H452.898Z" fill="#001F28"/>
<line x1="31" y1="320" x2="496" y2="320" stroke="#016F92" stroke-width="8"/>
</svg>
