<svg width="528" height="528" viewBox="0 0 528 528" fill="none" xmlns="http://www.w3.org/2000/svg">
<rect width="528" height="528" fill="white"/>
<path fill-rule="evenodd" clip-rule="evenodd" d="M198.264 104.065C198.797 101.78 199.317 99.4928 199.824 97.2032C195.98 102.305 191.764 107.271 187.054 112.082C186.583 112.563 186.091 113.071 185.58 113.598L185.58 113.599L185.579 113.599L185.579 113.6C182.324 116.959 178.282 121.131 173.79 124.451C168.345 128.474 161.433 131.905 152.815 131.937C148.374 131.954 143.803 131.385 138.941 129.158C126.731 123.566 117.515 111.508 116.057 97.8752C115.47 92.3837 119.448 87.472 124.942 86.9048C130.435 86.3376 135.365 90.3296 135.952 95.8212C136.615 102.031 141.096 108.182 147.224 110.989C148.672 111.652 150.153 111.954 152.67 111.945C155.674 111.934 158.534 110.817 161.857 108.361C164.923 106.096 167.692 103.249 171.033 99.8141L171.034 99.8133L171.035 99.8123C171.583 99.249 172.146 98.6699 172.728 98.075C186.341 84.1715 195.475 68.501 204.409 50.2641C205.332 48.3784 206.323 46.582 207.191 45.0109L207.252 44.9004C208.13 43.3103 208.884 41.9457 209.568 40.5741C209.567 40.5754 209.567 40.5754 209.567 40.574C209.568 40.5718 209.571 40.566 209.575 40.5562L209.575 40.5557C209.611 40.4692 209.77 40.083 210.084 39.209C210.175 38.9554 210.294 38.6208 210.423 38.254L210.423 38.2529L210.424 38.2515L210.425 38.2481C210.662 37.5764 210.937 36.7978 211.154 36.2118L211.191 36.1115C211.441 35.4321 212.116 33.5996 213.081 32.1534C213.342 31.7615 214.162 30.552 215.61 29.4826C217.129 28.36 221.435 26.0707 226.356 28.6647C229.973 30.5715 231.079 33.8568 231.29 34.4831L231.296 34.5009C231.663 35.5881 231.785 36.5338 231.835 37.0078C232.141 39.8675 231.654 42.4533 231.342 43.9447C231.138 44.9171 231.002 45.4941 230.903 45.9149L230.903 45.9151L230.903 45.9153C230.787 46.4084 230.721 46.6873 230.656 47.1373C229.265 56.8307 226.964 66.9587 224.789 76.5318C223.701 81.3212 222.645 85.9716 221.75 90.3593C221.586 91.1642 221.42 91.9689 221.253 92.7734C224.728 91.9657 228.128 91.465 231.275 91.1973C244.199 90.0981 255.551 94.0368 264.169 102.996C266.916 101.642 269.388 100.44 271.724 99.3031C280.294 95.1345 287.036 91.8548 298.773 85.2765C321.141 72.74 338.782 60.4589 351.307 50.6953C364.089 40.7303 371.032 33.7875 372.44 32.0125C375.872 27.6854 382.162 26.9596 386.489 30.3915C390.816 33.8234 391.542 40.1133 388.11 44.4405C385.145 48.1783 376.616 56.3241 363.603 66.4687C350.332 76.8146 331.853 89.6638 308.551 102.723C296.355 109.559 288.852 113.212 279.911 117.567L279.91 117.567L279.897 117.573C278.464 118.271 276.994 118.987 275.462 119.737C276.366 121.427 277.236 123.133 278.071 124.85C294.764 115.838 313.464 110.371 332.745 110.493C344.402 110.567 356.821 113.309 367.546 118.827C380.53 125.508 390.562 138.566 396.531 150.056C407.448 171.068 406.968 197.561 402.728 219.466C407.161 220.141 410.736 223.758 411.172 228.424C411.685 233.923 407.643 238.797 402.144 239.31C400.305 239.482 398.761 239.633 397.449 239.77C394.872 247.72 391.781 255.571 388.493 263.064C388.246 263.845 387.959 264.695 387.665 265.554C386.661 268.484 385.039 273.018 382.784 279.325L382.779 279.337C382.172 281.036 381.518 282.863 380.818 284.823C378.121 292.374 376.829 297.916 376.21 301.414C375.9 303.164 375.759 304.406 375.694 305.137C375.662 305.502 375.649 305.74 375.645 305.85L375.643 305.889V306.654L375.497 307.497L375.497 307.497L375.497 307.499L375.494 307.516L375.48 307.6C375.466 307.678 375.446 307.799 375.419 307.963C375.365 308.289 375.285 308.78 375.186 309.417C374.986 310.692 374.707 312.549 374.397 314.837C373.774 319.425 373.03 325.692 372.535 332.452C372.039 339.246 371.809 346.344 372.161 352.646C372.528 359.214 373.481 363.84 374.68 366.369C377.045 371.36 374.916 377.323 369.926 379.688C364.935 382.053 358.972 379.925 356.606 374.934C353.697 368.795 352.596 360.98 352.192 353.762C351.774 346.279 352.058 338.246 352.589 330.993C352.69 329.601 352.802 328.231 352.92 326.89C351.155 328.855 349.218 330.986 347.149 333.214C342.977 338.047 338.714 342.555 335.357 345.438C335.187 345.584 335.017 345.729 334.847 345.875C324.944 355.539 313.078 365.72 302.137 370.636C288.342 376.835 266.837 386.31 246.47 387.496C236.074 388.101 225.145 386.616 215.484 380.75C205.66 374.785 198.297 364.989 193.922 351.173C186.941 329.132 187.47 308.829 189.124 290.525C190.878 271.113 197.513 235.002 202.48 217.298C202.786 216.206 203.263 215.207 203.873 214.323C204.859 211.288 205.932 208.319 207.053 205.422C210.256 197.15 214.41 189.228 219.326 181.948C229.094 167.483 240.802 152.458 254.767 140.729C256.822 139.004 258.932 137.33 261.094 135.714C259.976 133.317 258.802 130.969 257.566 128.686C248.981 132.96 240.198 136.988 230.15 139.902C227.598 140.642 224.777 141.319 222.38 141.816C220.417 142.224 217.566 142.768 215.598 142.768C215.696 142.768 212.665 142.962 208.9 142.636C206.376 151.377 203.673 160.065 200.793 168.682C190.435 199.669 179.279 232.238 162.371 261.838C162.093 262.323 161.764 262.928 161.387 263.617C159.875 266.388 157.613 270.532 154.991 273.868C151.55 278.248 145.79 283.57 137.09 283.808C131.568 283.959 126.952 279.608 126.782 274.089C126.611 268.57 130.949 263.974 136.472 263.823L136.475 263.823C136.542 263.825 137.385 263.847 139.238 261.489C140.734 259.584 141.865 257.523 143.251 254.997L143.251 254.997L143.251 254.997L143.251 254.996C143.781 254.031 144.348 252.998 144.986 251.881C160.787 224.221 171.399 193.446 181.813 162.289C184.984 152.803 187.933 143.227 190.66 133.584C189.079 131.227 188.025 128.373 187.816 125.059C187.799 124.79 187.793 124.524 187.797 124.259C187.796 124.213 187.796 124.167 187.796 124.121C187.796 119.208 189.552 115.116 190.678 113.196C192.114 110.746 194.793 107.5 196.436 105.819C197.029 105.211 197.639 104.627 198.264 104.065ZM209.841 285.017C209.512 287.657 209.242 290.113 209.043 292.324C207.473 309.702 207.203 326.868 212.989 345.135C216.075 354.881 220.589 360.264 225.336 363.325C225.587 361.496 226.004 359.676 226.484 357.957C227.746 353.435 229.763 348.485 231.868 343.893C236.106 334.645 241.299 325.561 243.541 321.767C246.501 316.758 249.673 311.909 253.027 307.218C244.528 307.454 235.552 305.988 227.97 301.39C220.704 296.982 214.594 291.547 209.841 285.017ZM332.222 319.899C329.383 322.952 326.303 326.173 323.075 329.393C322.503 329.963 321.931 330.529 321.358 331.091C308.477 341.99 295.723 349.56 276.495 357.051C275.849 357.235 275.214 357.418 274.591 357.596C262.905 360.951 255.121 363.186 246.184 361.879C247.075 359.093 248.42 355.779 250.049 352.225C253.865 343.898 258.659 335.497 260.76 331.942C268.284 319.209 277.415 307.494 287.617 296.798C287.724 296.691 287.829 296.582 287.93 296.471C290.808 293.467 293.77 290.543 296.804 287.7C299.086 291.877 301.859 296.017 305.37 300.684C313.408 311.37 326.385 312.97 333.832 312.97C335.344 312.97 336.813 312.834 338.228 312.593C337.31 313.763 336.353 314.955 335.371 316.153C334.313 317.441 333.258 318.696 332.222 319.899ZM371.486 252.022C371.099 252.499 370.834 252.903 370.725 253.07C369.85 254.408 368.306 257.436 366.581 260.82C366.321 261.329 366.058 261.847 365.792 262.367C365.674 262.597 365.554 262.831 365.433 263.069C365.258 263.279 365.077 263.497 364.889 263.723C362.881 266.136 360.166 269.378 357.326 272.713C354.477 276.058 351.543 279.448 349.086 282.171C347.854 283.537 346.79 284.681 345.945 285.546C345.304 286.203 344.948 286.533 344.821 286.651C344.754 286.712 344.75 286.716 344.801 286.677C344.197 287.132 343.604 287.65 343.254 287.955C343.13 288.064 343.013 288.166 342.9 288.266C342.606 288.524 342.335 288.761 342.018 289.032C341.185 289.743 340.32 290.43 339.381 291.044C337.477 292.287 335.659 292.97 333.832 292.97C327.994 292.97 323.487 291.498 321.353 288.661C317.189 283.126 314.558 278.921 312.595 274.586C331.053 261.064 351.814 251.597 374.178 245.439C373.31 247.652 372.41 249.849 371.486 252.022ZM267.63 156.044C268.005 155.729 268.382 155.416 268.76 155.106C271.375 163.482 273.653 175.584 275.722 189.346C277.251 199.513 278.601 210.101 279.895 220.253L279.895 220.254C280.523 225.181 281.138 230.004 281.754 234.627C283.242 245.8 285.905 257.072 289.084 267.749C287.251 269.329 285.44 270.952 283.652 272.617C280.526 275.53 277.459 278.531 274.464 281.622C269.026 284.351 262.247 286.39 255.583 287.031C248.245 287.737 242.236 286.651 238.342 284.289C227.98 278.004 221.55 269.339 219.226 256.977C216.511 242.536 219.834 227.805 225.704 212.643C228.362 205.778 231.818 199.187 235.901 193.141C245.231 179.324 255.727 166.042 267.63 156.044ZM301.579 231.986C302.572 239.444 304.177 247.083 306.172 254.64C325.755 241.314 347.337 231.96 370.104 225.82C374.104 224.741 376.781 223.934 378.82 223.303C379.21 223.182 379.596 223.061 379.978 222.941C380.532 222.768 381.077 222.598 381.614 222.433C386.779 201.279 387.753 176.54 378.784 159.276C373.8 149.684 366.245 140.649 358.396 136.611C350.711 132.657 341.425 130.549 332.618 130.493C316.537 130.391 300.457 135.182 285.866 143.387C286.171 144.218 286.47 145.048 286.763 145.875C290.453 156.26 293.218 171.197 295.5 186.372C297.061 196.756 298.464 207.758 299.774 218.034L299.775 218.039C300.395 222.898 300.994 227.594 301.579 231.986ZM214.3 122.793L214.483 122.788C214.775 122.781 215.049 122.773 215.302 122.77C215.386 122.76 215.571 122.737 215.882 122.688C216.5 122.591 217.334 122.437 218.32 122.233C220.298 121.823 222.606 121.265 224.58 120.693C231.492 118.689 237.761 116.041 244.352 112.883C241.087 111.311 237.335 110.754 232.97 111.125C226.815 111.649 220.773 113.247 216.033 115.864C215.467 118.177 214.89 120.486 214.3 122.793ZM245.089 366.866C245.089 366.866 245.089 366.866 245.089 366.864C245.088 366.858 245.086 366.836 245.086 366.796C245.09 366.841 245.09 366.865 245.089 366.866Z" fill="#001E28"/>
<path d="M199.824 97.2032L200.312 97.3115L199.425 96.9024L199.824 97.2032ZM198.264 104.065L198.599 104.437L198.716 104.332L198.751 104.179L198.264 104.065ZM187.054 112.082L186.697 111.732L187.054 112.082ZM185.58 113.598L185.934 113.952L185.939 113.946L185.58 113.598ZM185.58 113.599L185.226 113.245L185.22 113.251L185.58 113.599ZM185.579 113.599L185.932 113.953L185.938 113.947L185.579 113.599ZM185.579 113.6L185.225 113.246L185.22 113.252L185.579 113.6ZM173.79 124.451L173.492 124.049V124.049L173.79 124.451ZM152.815 131.937L152.817 132.437L152.815 131.937ZM138.941 129.158L138.733 129.613L138.941 129.158ZM116.057 97.8752L116.555 97.8221L116.057 97.8752ZM124.942 86.9048L124.993 87.4022H124.993L124.942 86.9048ZM135.952 95.8212L135.455 95.8743L135.952 95.8212ZM147.224 110.989L147.432 110.534L147.224 110.989ZM152.67 111.945L152.672 112.445L152.67 111.945ZM161.857 108.361L161.56 107.959L161.857 108.361ZM171.033 99.8141L171.392 100.163L171.392 100.163L171.033 99.8141ZM171.034 99.8133L170.676 99.4638L170.675 99.4647L171.034 99.8133ZM171.035 99.8123L171.392 100.162L171.393 100.161L171.035 99.8123ZM172.728 98.075L173.086 98.4248L172.728 98.075ZM204.409 50.2641L203.96 50.0441L204.409 50.2641ZM207.191 45.0109L207.628 45.2526V45.2526L207.191 45.0109ZM207.252 44.9004L206.814 44.6586L206.814 44.6586L207.252 44.9004ZM209.568 40.5741L210.015 40.7973L209.121 40.35L209.568 40.5741ZM209.567 40.574L209.1 40.3955L209.1 40.3966L209.567 40.574ZM209.575 40.5562L209.113 40.3631L209.112 40.3656L209.575 40.5562ZM209.575 40.5557L210.036 40.7489L210.037 40.7464L209.575 40.5557ZM210.084 39.209L210.555 39.3781V39.3781L210.084 39.209ZM210.423 38.254L209.953 38.0839L209.952 38.0875L210.423 38.254ZM210.423 38.2529L210.894 38.423L210.895 38.4192L210.423 38.2529ZM210.424 38.2515L210.895 38.4178L210.896 38.4172L210.424 38.2515ZM210.425 38.2481L209.954 38.0817L209.953 38.0824L210.425 38.2481ZM211.154 36.2118L211.623 36.3854L211.623 36.3847L211.154 36.2118ZM211.191 36.1115L211.66 36.2845L211.66 36.2842L211.191 36.1115ZM213.081 32.1534L213.497 32.4309L213.497 32.4309L213.081 32.1534ZM215.61 29.4826L215.313 29.0804V29.0804L215.61 29.4826ZM226.356 28.6647L226.589 28.2224V28.2224L226.356 28.6647ZM231.29 34.4831L230.816 34.6427L230.817 34.6428L231.29 34.4831ZM231.296 34.5009L230.823 34.6606L230.823 34.6607L231.296 34.5009ZM231.835 37.0078L232.333 36.9547V36.9547L231.835 37.0078ZM231.342 43.9447L230.853 43.8422V43.8422L231.342 43.9447ZM230.903 45.9149L230.416 45.8001L230.413 45.8127L230.411 45.8255L230.903 45.9149ZM230.903 45.9151L231.387 46.0413L231.392 46.023L231.395 46.0045L230.903 45.9151ZM230.903 45.9153L230.419 45.7891L230.416 45.8005L230.903 45.9153ZM230.656 47.1373L231.151 47.2084L230.656 47.1373ZM224.789 76.5318L225.277 76.6426V76.6426L224.789 76.5318ZM221.75 90.3593L222.24 90.4592L221.75 90.3593ZM221.253 92.7734L220.763 92.6717L220.604 93.4375L221.366 93.2604L221.253 92.7734ZM231.275 91.1973L231.317 91.6955L231.275 91.1973ZM264.169 102.996L263.809 103.342L264.062 103.606L264.39 103.444L264.169 102.996ZM271.724 99.3031L271.505 98.8535L271.724 99.3031ZM298.773 85.2765L299.018 85.7126L298.773 85.2765ZM351.307 50.6953L351.614 51.0896L351.307 50.6953ZM372.44 32.0125L372.048 31.7018V31.7018L372.44 32.0125ZM386.489 30.3915L386.178 30.7833V30.7833L386.489 30.3915ZM388.11 44.4405L388.501 44.7512L388.11 44.4405ZM363.603 66.4687L363.911 66.863L363.603 66.4687ZM308.551 102.723L308.796 103.159L308.551 102.723ZM279.911 117.567L279.692 117.117L279.687 117.119L279.911 117.567ZM279.91 117.567L280.129 118.016L280.134 118.014L279.91 117.567ZM279.897 117.573L280.116 118.023L280.116 118.023L279.897 117.573ZM275.462 119.737L275.242 119.288L274.776 119.516L275.021 119.973L275.462 119.737ZM278.071 124.85L277.622 125.069L277.85 125.538L278.309 125.29L278.071 124.85ZM332.745 110.493L332.742 110.993L332.745 110.493ZM367.546 118.827L367.775 118.382L367.546 118.827ZM396.531 150.056L396.975 149.825L396.531 150.056ZM402.728 219.466L402.237 219.371L402.138 219.882L402.652 219.96L402.728 219.466ZM411.172 228.424L411.669 228.378L411.172 228.424ZM402.144 239.31L402.098 238.812L402.144 239.31ZM397.449 239.77L397.397 239.273L397.074 239.307L396.974 239.616L397.449 239.77ZM388.493 263.064L388.035 262.863L388.025 262.888L388.017 262.913L388.493 263.064ZM387.665 265.554L387.192 265.392L387.665 265.554ZM382.784 279.325L382.313 279.157L382.312 279.158L382.784 279.325ZM382.779 279.337L383.25 279.505L383.251 279.504L382.779 279.337ZM380.818 284.823L381.289 284.991L380.818 284.823ZM376.21 301.414L375.717 301.327L376.21 301.414ZM375.694 305.137L375.196 305.093V305.093L375.694 305.137ZM375.645 305.85L375.145 305.828L375.145 305.829L375.645 305.85ZM375.643 305.889L375.143 305.869L375.143 305.879V305.889H375.643ZM375.643 306.654L376.136 306.739L376.143 306.696V306.654H375.643ZM375.497 307.497L375.986 307.6L375.988 307.591L375.99 307.582L375.497 307.497ZM375.497 307.497L375.008 307.394L375.006 307.405L375.004 307.415L375.497 307.497ZM375.497 307.499L375.99 307.584L375.99 307.581L375.497 307.499ZM375.494 307.516L375.001 307.431L375.001 307.432L375.494 307.516ZM375.48 307.6L374.987 307.516L374.987 307.516L375.48 307.6ZM375.419 307.963L375.912 308.044V308.044L375.419 307.963ZM375.186 309.417L375.68 309.494L375.186 309.417ZM374.397 314.837L373.901 314.77L374.397 314.837ZM372.535 332.452L373.034 332.488L372.535 332.452ZM372.161 352.646L371.662 352.674L372.161 352.646ZM374.68 366.369L374.228 366.583V366.583L374.68 366.369ZM356.606 374.934L356.155 375.148L356.606 374.934ZM352.192 353.762L352.692 353.734L352.192 353.762ZM352.589 330.993L353.087 331.03L352.589 330.993ZM352.92 326.89L353.418 326.934L353.55 325.441L352.548 326.556L352.92 326.89ZM347.149 333.214L346.783 332.874L346.777 332.881L346.771 332.888L347.149 333.214ZM335.357 345.438L335.032 345.058L335.032 345.058L335.357 345.438ZM334.847 345.875L334.522 345.494L334.509 345.505L334.497 345.517L334.847 345.875ZM302.137 370.636L302.342 371.092L302.137 370.636ZM246.47 387.496L246.441 386.997L246.47 387.496ZM215.484 380.75L215.224 381.178L215.484 380.75ZM193.922 351.173L194.399 351.022H194.399L193.922 351.173ZM189.124 290.525L189.622 290.57L189.124 290.525ZM202.48 217.298L202.961 217.434L202.48 217.298ZM203.873 214.323L204.284 214.607L204.326 214.547L204.348 214.477L203.873 214.323ZM207.053 205.422L207.52 205.603L207.053 205.422ZM219.326 181.948L218.912 181.669L219.326 181.948ZM254.767 140.729L254.445 140.346L254.767 140.729ZM261.094 135.714L261.394 136.114L261.719 135.871L261.547 135.502L261.094 135.714ZM257.566 128.686L258.005 128.448L257.775 128.023L257.343 128.238L257.566 128.686ZM230.15 139.902L230.289 140.382L230.15 139.902ZM222.38 141.816L222.279 141.327L222.38 141.816ZM208.9 142.636L208.943 142.138L208.533 142.102L208.419 142.497L208.9 142.636ZM200.793 168.682L200.319 168.523L200.793 168.682ZM162.371 261.838L161.937 261.59H161.937L162.371 261.838ZM161.387 263.617L160.948 263.377L161.387 263.617ZM154.991 273.868L155.385 274.177L154.991 273.868ZM137.09 283.808L137.104 284.308L137.09 283.808ZM126.782 274.089L126.282 274.105L126.782 274.089ZM136.472 263.823L136.478 263.323L136.468 263.323L136.458 263.323L136.472 263.823ZM136.475 263.823L136.489 263.323L136.482 263.323L136.475 263.823ZM139.238 261.489L139.631 261.797H139.631L139.238 261.489ZM143.251 254.997L143.689 255.238L143.694 255.229L143.698 255.221L143.251 254.997ZM143.251 254.997L143.698 255.221L143.702 255.213L143.706 255.205L143.251 254.997ZM143.251 254.997L142.815 254.752L142.805 254.77L142.797 254.788L143.251 254.997ZM143.251 254.996L143.687 255.241L143.69 255.237L143.251 254.996ZM144.986 251.881L144.552 251.633H144.552L144.986 251.881ZM181.813 162.289L182.288 162.447L181.813 162.289ZM190.66 133.584L191.141 133.72L191.204 133.497L191.075 133.305L190.66 133.584ZM187.816 125.059L187.317 125.09L187.816 125.059ZM187.797 124.259L188.297 124.267L188.297 124.26L188.297 124.253L187.797 124.259ZM190.678 113.196L191.109 113.449L190.678 113.196ZM196.436 105.819L196.793 106.168V106.168L196.436 105.819ZM209.841 285.017L210.245 284.723L209.501 283.701L209.345 284.955L209.841 285.017ZM209.043 292.324L208.545 292.279L209.043 292.324ZM212.989 345.135L213.465 344.984H213.465L212.989 345.135ZM225.336 363.325L225.065 363.745L225.725 364.17L225.832 363.392L225.336 363.325ZM226.484 357.957L226.002 357.823L226.484 357.957ZM231.868 343.893L231.413 343.684L231.868 343.893ZM243.541 321.767L243.111 321.513L243.541 321.767ZM253.027 307.218L253.434 307.509L254.019 306.69L253.013 306.718L253.027 307.218ZM227.97 301.39L227.711 301.817L227.97 301.39ZM323.075 329.393L322.722 329.039L323.075 329.393ZM332.222 319.899L332.588 320.24L332.595 320.233L332.601 320.225L332.222 319.899ZM321.358 331.091L321.681 331.473L321.694 331.461L321.708 331.448L321.358 331.091ZM276.495 357.051L276.632 357.531L276.655 357.525L276.676 357.516L276.495 357.051ZM274.591 357.596L274.729 358.077L274.591 357.596ZM246.184 361.879L245.708 361.727L245.528 362.288L246.112 362.374L246.184 361.879ZM250.049 352.225L249.595 352.017L250.049 352.225ZM260.76 331.942L261.19 332.196L260.76 331.942ZM287.617 296.798L287.264 296.445L287.255 296.453L287.617 296.798ZM287.93 296.471L287.569 296.125L287.561 296.134L287.93 296.471ZM296.804 287.7L297.243 287.46L296.934 286.894L296.463 287.335L296.804 287.7ZM305.37 300.684L305.77 300.383L305.37 300.684ZM338.228 312.593L338.622 312.902L339.421 311.883L338.145 312.1L338.228 312.593ZM335.371 316.153L334.984 315.835H334.984L335.371 316.153ZM370.725 253.07L370.306 252.796L370.306 252.796L370.725 253.07ZM371.486 252.022L371.874 252.337L371.919 252.283L371.946 252.218L371.486 252.022ZM366.581 260.82L367.026 261.047L366.581 260.82ZM365.792 262.367L366.237 262.595V262.595L365.792 262.367ZM365.433 263.069L365.818 263.388L365.853 263.346L365.878 263.297L365.433 263.069ZM364.889 263.723L364.504 263.403H364.504L364.889 263.723ZM357.326 272.713L356.946 272.389L357.326 272.713ZM349.086 282.171L348.715 281.836V281.836L349.086 282.171ZM345.945 285.546L345.587 285.197L345.945 285.546ZM344.821 286.651L345.16 287.017L345.16 287.017L344.821 286.651ZM344.801 286.677L345.102 287.077L344.501 286.278L344.801 286.677ZM343.254 287.955L342.925 287.579L342.925 287.579L343.254 287.955ZM342.9 288.266L343.23 288.642L342.9 288.266ZM342.018 289.032L341.693 288.652H341.693L342.018 289.032ZM339.381 291.044L339.108 290.625L339.381 291.044ZM321.353 288.661L321.752 288.361L321.353 288.661ZM312.595 274.586L312.3 274.182L311.972 274.422L312.14 274.792L312.595 274.586ZM374.178 245.439L374.643 245.621L375.008 244.692L374.045 244.957L374.178 245.439ZM268.76 155.106L269.238 154.957L269.017 154.249L268.443 154.719L268.76 155.106ZM267.63 156.044L267.308 155.661H267.308L267.63 156.044ZM275.722 189.346L275.228 189.42L275.722 189.346ZM279.895 220.253L279.399 220.316L279.399 220.318L279.895 220.253ZM279.895 220.254L280.391 220.191L280.391 220.19L279.895 220.254ZM281.754 234.627L282.249 234.561L281.754 234.627ZM289.084 267.749L289.411 268.127L289.656 267.916L289.563 267.606L289.084 267.749ZM283.652 272.617L283.311 272.252L283.652 272.617ZM274.464 281.622L274.689 282.069L274.764 282.031L274.823 281.97L274.464 281.622ZM255.583 287.031L255.535 286.534L255.583 287.031ZM238.342 284.289L238.083 284.717L238.342 284.289ZM219.226 256.977L218.735 257.069L219.226 256.977ZM225.704 212.643L225.238 212.463L225.704 212.643ZM235.901 193.141L235.487 192.861L235.901 193.141ZM306.172 254.64L305.688 254.768L305.869 255.451L306.453 255.054L306.172 254.64ZM301.579 231.986L302.074 231.92L301.579 231.986ZM370.104 225.82L369.973 225.337V225.337L370.104 225.82ZM378.82 223.303L378.672 222.825H378.672L378.82 223.303ZM379.978 222.941L379.828 222.464L379.828 222.464L379.978 222.941ZM381.614 222.433L381.76 222.911L382.032 222.828L382.1 222.552L381.614 222.433ZM378.784 159.276L378.34 159.507L378.784 159.276ZM358.396 136.611L358.625 136.167L358.396 136.611ZM332.618 130.493L332.621 129.993L332.618 130.493ZM285.866 143.387L285.621 142.951L285.25 143.159L285.396 143.559L285.866 143.387ZM286.763 145.875L286.292 146.042L286.763 145.875ZM295.5 186.372L295.005 186.447L295.5 186.372ZM299.774 218.034L299.278 218.097L299.279 218.098L299.774 218.034ZM299.775 218.039L300.271 217.976L300.271 217.975L299.775 218.039ZM214.483 122.788L214.496 123.288L214.497 123.288L214.483 122.788ZM214.3 122.793L213.815 122.669L213.651 123.31L214.313 123.293L214.3 122.793ZM215.302 122.77L215.309 123.27L215.336 123.27L215.362 123.266L215.302 122.77ZM215.882 122.688L215.96 123.182L215.882 122.688ZM218.32 122.233L218.218 121.743L218.32 122.233ZM224.58 120.693L224.719 121.173L224.58 120.693ZM244.352 112.883L244.568 113.334L245.507 112.885L244.569 112.433L244.352 112.883ZM232.97 111.125L233.012 111.624L232.97 111.125ZM216.033 115.864L215.791 115.427L215.599 115.533L215.547 115.746L216.033 115.864ZM245.089 366.864L245.582 366.784L245.582 366.782L245.089 366.864ZM245.089 366.866L245.383 367.27L245.384 367.27L245.089 366.866ZM245.086 366.796L245.584 366.753L244.586 366.796H245.086ZM199.336 97.095C198.829 99.3829 198.309 101.669 197.777 103.952L198.751 104.179C199.284 101.892 199.804 99.6028 200.312 97.3115L199.336 97.095ZM187.411 112.432C192.138 107.604 196.368 102.622 200.224 97.5041L199.425 96.9024C195.593 101.989 191.391 106.938 186.697 111.732L187.411 112.432ZM185.939 113.946C186.45 113.418 186.941 112.912 187.411 112.432L186.697 111.732C186.225 112.214 185.732 112.723 185.221 113.251L185.939 113.946ZM185.933 113.952L185.933 113.952L185.226 113.245L185.226 113.245L185.933 113.952ZM185.938 113.947L185.939 113.947L185.22 113.251L185.22 113.252L185.938 113.947ZM185.932 113.953L185.932 113.953L185.225 113.246L185.225 113.246L185.932 113.953ZM174.087 124.853C178.618 121.505 182.688 117.302 185.938 113.947L185.22 113.252C181.961 116.615 177.947 120.758 173.492 124.049L174.087 124.853ZM152.817 132.437C161.576 132.405 168.589 128.915 174.087 124.853L173.492 124.049C168.101 128.033 161.291 131.406 152.813 131.437L152.817 132.437ZM138.733 129.613C143.68 131.878 148.328 132.454 152.817 132.437L152.813 131.437C148.421 131.454 143.926 130.891 139.149 128.704L138.733 129.613ZM115.56 97.9284C117.037 111.747 126.372 123.952 138.733 129.613L139.149 128.704C127.09 123.181 117.992 111.269 116.555 97.8221L115.56 97.9284ZM124.89 86.4075C119.121 87.0031 114.944 92.1615 115.56 97.9284L116.555 97.8221C115.997 92.6058 119.775 87.941 124.993 87.4022L124.89 86.4075ZM136.449 95.7681C135.833 90.0026 130.658 85.812 124.89 86.4075L124.993 87.4022C130.213 86.8633 134.897 90.6566 135.455 95.8743L136.449 95.7681ZM147.432 110.534C141.456 107.797 137.093 101.793 136.449 95.7681L135.455 95.8743C136.138 102.269 140.736 108.567 147.016 111.443L147.432 110.534ZM152.668 111.445C150.2 111.454 148.795 111.158 147.432 110.534L147.016 111.443C148.549 112.145 150.107 112.455 152.672 112.445L152.668 111.445ZM161.56 107.959C158.291 110.375 155.532 111.434 152.668 111.445L152.672 112.445C155.816 112.433 158.777 111.259 162.154 108.764L161.56 107.959ZM170.675 99.4655C167.326 102.908 164.586 105.723 161.56 107.959L162.154 108.764C165.259 106.47 168.057 103.59 171.392 100.163L170.675 99.4655ZM170.675 99.4647L170.675 99.4655L171.392 100.163L171.392 100.162L170.675 99.4647ZM170.677 99.4628L170.676 99.4638L171.392 100.163L171.392 100.162L170.677 99.4628ZM172.371 97.7252C171.788 98.3208 171.224 98.9004 170.676 99.4636L171.393 100.161C171.941 99.5975 172.504 99.019 173.086 98.4248L172.371 97.7252ZM203.96 50.0441C195.035 68.2633 185.928 83.8781 172.371 97.7252L173.086 98.4248C186.753 84.465 195.915 68.7387 204.858 50.484L203.96 50.0441ZM206.753 44.7691C205.886 46.3393 204.89 48.1459 203.96 50.0441L204.858 50.484C205.775 48.6109 206.76 46.8247 207.628 45.2526L206.753 44.7691ZM206.814 44.6586L206.753 44.7691L207.628 45.2526L207.689 45.1421L206.814 44.6586ZM209.12 40.351C208.442 41.7114 207.693 43.0666 206.814 44.6586L207.689 45.1421C208.566 43.5541 209.326 42.18 210.015 40.7973L209.12 40.351ZM209.1 40.3966C209.099 40.3985 209.096 40.4079 209.092 40.42C209.091 40.4236 209.084 40.4423 209.079 40.4666C209.077 40.4748 209.069 40.5106 209.067 40.5573C209.067 40.5776 209.065 40.635 209.084 40.7052C209.101 40.7656 209.165 40.9518 209.38 41.0386C209.588 41.1228 209.759 41.04 209.808 41.0133C209.868 40.9802 209.907 40.9422 209.921 40.9282C209.953 40.8963 209.973 40.8672 209.978 40.8603C209.992 40.8401 210.001 40.8233 210.003 40.82C210.009 40.809 210.014 40.8001 210.015 40.7983L209.121 40.35C209.121 40.3488 209.125 40.3403 209.131 40.3297C209.133 40.3265 209.143 40.3098 209.156 40.2897C209.161 40.2828 209.181 40.2537 209.213 40.2219C209.227 40.2078 209.266 40.1699 209.326 40.1368C209.375 40.1101 209.546 40.0273 209.755 40.1115C209.969 40.1983 210.034 40.3845 210.05 40.4449C210.069 40.5151 210.067 40.5725 210.067 40.5928C210.065 40.6394 210.057 40.6752 210.055 40.6833C210.05 40.7076 210.044 40.7262 210.043 40.7296C210.039 40.7413 210.035 40.7503 210.035 40.7515L209.1 40.3966ZM209.112 40.3656C209.11 40.3703 209.104 40.3853 209.1 40.3955L210.034 40.7526C210.034 40.7547 210.033 40.7564 210.033 40.7571C210.032 40.7579 210.032 40.7584 210.032 40.7586C210.032 40.7588 210.032 40.7585 210.033 40.7574C210.033 40.7552 210.035 40.752 210.037 40.7469L209.112 40.3656ZM209.114 40.3625L209.113 40.3631L210.036 40.7494L210.036 40.7489L209.114 40.3625ZM209.614 39.0398C209.302 39.9066 209.145 40.2856 209.113 40.365L210.037 40.7464C210.076 40.6528 210.238 40.2594 210.555 39.3781L209.614 39.0398ZM209.952 38.0875C209.822 38.4549 209.704 38.7879 209.614 39.0398L210.555 39.3781C210.646 39.1229 210.765 38.7867 210.894 38.4204L209.952 38.0875ZM209.953 38.0828L209.953 38.0839L210.893 38.424L210.894 38.423L209.953 38.0828ZM209.952 38.0851L209.952 38.0866L210.895 38.4192L210.895 38.4178L209.952 38.0851ZM209.953 38.0824L209.952 38.0857L210.896 38.4172L210.897 38.4139L209.953 38.0824ZM210.685 36.0381C210.467 36.6285 210.19 37.4112 209.954 38.0817L210.897 38.4146C211.134 37.7417 211.408 36.9671 211.623 36.3854L210.685 36.0381ZM210.722 35.9386L210.685 36.0388L211.623 36.3847L211.66 36.2845L210.722 35.9386ZM212.665 31.8758C211.662 33.3779 210.97 35.264 210.722 35.9389L211.66 36.2842C211.912 35.6002 212.569 33.8212 213.497 32.4309L212.665 31.8758ZM215.313 29.0804C213.795 30.2012 212.937 31.4677 212.665 31.8758L213.497 32.4309C213.747 32.0554 214.529 30.9027 215.907 29.8848L215.313 29.0804ZM226.589 28.2224C221.419 25.4968 216.898 27.9096 215.313 29.0804L215.907 29.8848C217.361 28.8104 221.452 26.6446 226.123 29.107L226.589 28.2224ZM231.764 34.3234C231.544 33.6688 230.384 30.223 226.589 28.2224L226.123 29.107C229.562 30.92 230.615 34.0449 230.816 34.6427L231.764 34.3234ZM231.77 34.3411L231.764 34.3233L230.817 34.6428L230.823 34.6606L231.77 34.3411ZM232.333 36.9547C232.28 36.4645 232.154 35.4778 231.77 34.3411L230.823 34.6607C231.173 35.6983 231.289 36.6032 231.338 37.061L232.333 36.9547ZM231.831 44.0471C232.146 42.5452 232.647 39.8958 232.333 36.9547L231.338 37.061C231.635 39.8393 231.163 42.3614 230.853 43.8422L231.831 44.0471ZM231.39 46.0298C231.489 45.607 231.627 45.0255 231.831 44.0471L230.853 43.8422C230.65 44.8088 230.515 45.3812 230.416 45.8001L231.39 46.0298ZM231.395 46.0045L231.395 46.0044L230.411 45.8255L230.411 45.8256L231.395 46.0045ZM231.387 46.0415L231.387 46.0413L230.419 45.7889L230.419 45.7891L231.387 46.0415ZM231.151 47.2084C231.212 46.7826 231.273 46.5229 231.39 46.0301L230.416 45.8005C230.3 46.2939 230.229 46.592 230.161 47.0663L231.151 47.2084ZM225.277 76.6426C227.451 67.0734 229.756 56.9253 231.151 47.2084L230.161 47.0663C228.773 56.7361 226.477 66.8441 224.302 76.4211L225.277 76.6426ZM222.24 90.4592C223.134 86.078 224.189 81.4331 225.277 76.6426L224.302 76.4211C223.214 81.2092 222.156 85.8653 221.26 90.2593L222.24 90.4592ZM221.742 92.8751C221.91 92.07 222.075 91.2647 222.24 90.4592L221.26 90.2593C221.096 91.0636 220.93 91.8677 220.763 92.6717L221.742 92.8751ZM231.232 90.6991C228.064 90.9686 224.64 91.4728 221.14 92.2864L221.366 93.2604C224.816 92.4586 228.192 91.9613 231.317 91.6955L231.232 90.6991ZM264.53 102.649C255.798 93.572 244.293 89.5883 231.232 90.6991L231.317 91.6955C244.104 90.6079 255.305 94.5016 263.809 103.342L264.53 102.649ZM271.505 98.8535C269.169 99.9899 266.696 101.193 263.948 102.547L264.39 103.444C267.135 102.091 269.606 100.889 271.943 99.7527L271.505 98.8535ZM298.529 84.8403C286.804 91.4115 280.072 94.6863 271.505 98.8535L271.943 99.7527C280.515 95.5827 287.268 92.298 299.018 85.7126L298.529 84.8403ZM350.999 50.301C338.494 60.05 320.874 72.3169 298.529 84.8403L299.018 85.7126C321.409 73.1631 339.071 60.8678 351.614 51.0896L350.999 50.301ZM372.048 31.7018C370.679 33.4276 363.776 40.3404 350.999 50.301L351.614 51.0896C364.403 41.1203 371.385 34.1473 372.832 32.3232L372.048 31.7018ZM386.799 29.9998C382.256 26.3963 375.651 27.1583 372.048 31.7018L372.832 32.3232C376.092 28.2124 382.067 27.523 386.178 30.7833L386.799 29.9998ZM388.501 44.7512C392.105 40.2077 391.343 33.6032 386.799 29.9998L386.178 30.7833C390.289 34.0436 390.978 40.019 387.718 44.1298L388.501 44.7512ZM363.911 66.863C376.929 56.7139 385.498 48.538 388.501 44.7512L387.718 44.1298C384.792 47.8186 376.303 55.9344 363.296 66.0743L363.911 66.863ZM308.796 103.159C332.12 90.0869 350.62 77.2235 363.911 66.863L363.296 66.0743C350.043 76.4057 331.585 89.2407 308.307 102.287L308.796 103.159ZM280.129 118.016C289.074 113.661 296.586 110.002 308.796 103.159L308.307 102.287C296.123 109.116 288.631 112.764 279.692 117.117L280.129 118.016ZM280.134 118.014L280.134 118.014L279.687 117.119L279.687 117.12L280.134 118.014ZM280.116 118.023L280.129 118.016L279.691 117.118L279.678 117.124L280.116 118.023ZM275.681 120.186C277.213 119.436 278.683 118.721 280.116 118.023L279.678 117.124C278.245 117.822 276.775 118.538 275.242 119.288L275.681 120.186ZM278.521 124.631C277.682 122.909 276.81 121.197 275.902 119.501L275.021 119.973C275.922 121.657 276.789 123.358 277.622 125.069L278.521 124.631ZM332.748 109.993C313.37 109.871 294.588 115.365 277.834 124.41L278.309 125.29C294.94 116.311 313.558 110.872 332.742 110.993L332.748 109.993ZM367.775 118.382C356.974 112.826 344.476 110.068 332.748 109.993L332.742 110.993C344.327 111.067 356.669 113.793 367.317 119.272L367.775 118.382ZM396.975 149.825C390.981 138.288 380.888 125.129 367.775 118.382L367.317 119.272C380.173 125.886 390.143 138.844 396.088 150.286L396.975 149.825ZM403.219 219.561C407.467 197.611 407.967 170.984 396.975 149.825L396.088 150.286C406.928 171.152 406.468 197.511 402.237 219.371L403.219 219.561ZM411.669 228.378C411.212 223.478 407.457 219.68 402.803 218.972L402.652 219.96C406.864 220.602 410.26 224.038 410.674 228.471L411.669 228.378ZM402.191 239.808C407.964 239.269 412.208 234.152 411.669 228.378L410.674 228.471C411.161 233.695 407.322 238.325 402.098 238.812L402.191 239.808ZM397.501 240.268C398.811 240.131 400.353 239.98 402.191 239.808L402.098 238.812C400.258 238.984 398.711 239.136 397.397 239.273L397.501 240.268ZM388.951 263.265C392.244 255.76 395.341 247.893 397.925 239.924L396.974 239.616C394.403 247.546 391.318 255.381 388.035 262.863L388.951 263.265ZM388.017 262.913C387.771 263.689 387.486 264.533 387.192 265.392L388.138 265.716C388.432 264.856 388.721 264.002 388.97 263.215L388.017 262.913ZM387.192 265.392C386.189 268.317 384.569 272.848 382.313 279.157L383.254 279.493C385.509 273.189 387.133 268.65 388.138 265.716L387.192 265.392ZM382.312 279.158L382.308 279.17L383.251 279.504L383.255 279.492L382.312 279.158ZM382.309 279.169C381.701 280.868 381.047 282.695 380.348 284.654L381.289 284.991C381.989 283.032 382.643 281.204 383.25 279.505L382.309 279.169ZM380.348 284.654C377.641 292.231 376.341 297.8 375.717 301.327L376.702 301.501C377.316 298.032 378.601 292.517 381.289 284.991L380.348 284.654ZM375.717 301.327C375.405 303.091 375.262 304.348 375.196 305.093L376.193 305.18C376.256 304.465 376.395 303.237 376.702 301.501L375.717 301.327ZM375.196 305.093C375.164 305.465 375.15 305.71 375.145 305.828L376.144 305.871C376.149 305.769 376.161 305.538 376.193 305.18L375.196 305.093ZM375.145 305.829L375.143 305.869L376.143 305.91L376.144 305.87L375.145 305.829ZM375.143 305.889V306.654H376.143V305.889H375.143ZM375.15 306.568L375.004 307.412L375.99 307.582L376.136 306.739L375.15 306.568ZM375.008 307.394L375.008 307.394L375.986 307.6L375.986 307.6L375.008 307.394ZM375.004 307.415L375.004 307.417L375.99 307.581L375.99 307.58L375.004 307.415ZM375.004 307.414L375.001 307.431L375.987 307.601L375.99 307.584L375.004 307.414ZM375.001 307.432L374.987 307.516L375.973 307.683L375.987 307.599L375.001 307.432ZM374.987 307.516C374.973 307.595 374.953 307.717 374.926 307.881L375.912 308.044C375.939 307.882 375.96 307.761 375.973 307.683L374.987 307.516ZM374.926 307.881C374.872 308.208 374.792 308.701 374.692 309.34L375.68 309.494C375.779 308.859 375.859 308.369 375.912 308.044L374.926 307.881ZM374.692 309.34C374.492 310.618 374.212 312.478 373.901 314.77L374.892 314.904C375.202 312.62 375.481 310.767 375.68 309.494L374.692 309.34ZM373.901 314.77C373.277 319.364 372.532 325.642 372.037 332.415L373.034 332.488C373.527 325.741 374.27 319.485 374.892 314.904L373.901 314.77ZM372.037 332.415C371.539 339.221 371.308 346.342 371.662 352.674L372.661 352.618C372.31 346.345 372.538 339.271 373.034 332.488L372.037 332.415ZM371.662 352.674C372.03 359.258 372.986 363.964 374.228 366.583L375.131 366.155C373.976 363.717 373.027 359.171 372.661 352.618L371.662 352.674ZM374.228 366.583C376.475 371.325 374.453 376.99 369.711 379.236L370.14 380.14C375.38 377.657 377.615 371.395 375.131 366.155L374.228 366.583ZM369.711 379.236C364.97 381.483 359.305 379.461 357.058 374.72L356.155 375.148C358.638 380.389 364.899 382.624 370.14 380.14L369.711 379.236ZM357.058 374.72C354.191 368.671 353.094 360.935 352.692 353.734L351.693 353.79C352.097 361.024 353.202 368.919 356.155 375.148L357.058 374.72ZM352.692 353.734C352.275 346.281 352.558 338.271 353.087 331.03L352.09 330.957C351.559 338.221 351.273 346.277 351.693 353.79L352.692 353.734ZM353.087 331.03C353.189 329.64 353.3 328.272 353.418 326.934L352.422 326.846C352.304 328.189 352.192 329.562 352.09 330.957L353.087 331.03ZM352.548 326.556C350.785 328.519 348.849 330.648 346.783 332.874L347.516 333.555C349.587 331.324 351.526 329.191 353.292 327.224L352.548 326.556ZM335.683 345.817C339.068 342.91 343.35 338.379 347.528 333.541L346.771 332.888C342.604 337.714 338.36 342.2 335.032 345.058L335.683 345.817ZM335.171 346.255C335.342 346.109 335.512 345.963 335.683 345.817L335.032 345.058C334.862 345.204 334.692 345.349 334.522 345.494L335.171 346.255ZM334.497 345.517C324.598 355.177 312.786 365.303 301.932 370.18L302.342 371.092C313.37 366.137 325.29 355.9 335.196 346.232L334.497 345.517ZM301.932 370.18C288.125 376.384 266.702 385.817 246.441 386.997L246.499 387.995C266.972 386.803 288.559 377.285 302.342 371.092L301.932 370.18ZM246.441 386.997C236.109 387.598 225.29 386.12 215.743 380.323L215.224 381.178C224.999 387.113 236.039 388.604 246.499 387.995L246.441 386.997ZM215.743 380.323C206.042 374.432 198.745 364.746 194.399 351.022L193.445 351.324C197.85 365.232 205.278 375.138 215.224 381.178L215.743 380.323ZM194.399 351.022C187.448 329.076 187.97 308.85 189.622 290.57L188.626 290.48C186.97 308.807 186.435 329.189 193.445 351.324L194.399 351.022ZM189.622 290.57C191.373 271.188 198.003 235.107 202.961 217.434L201.999 217.163C197.023 234.897 190.382 271.038 188.626 290.48L189.622 290.57ZM202.961 217.434C203.253 216.395 203.705 215.446 204.284 214.607L203.461 214.039C202.82 214.968 202.32 216.017 201.999 217.163L202.961 217.434ZM206.587 205.242C205.463 208.145 204.387 211.123 203.397 214.168L204.348 214.477C205.331 211.453 206.401 208.492 207.52 205.603L206.587 205.242ZM218.912 181.669C213.975 188.979 209.803 196.934 206.587 205.242L207.52 205.603C210.709 197.366 214.846 189.477 219.741 182.228L218.912 181.669ZM254.445 140.346C240.429 152.118 228.691 167.187 218.912 181.669L219.741 182.228C229.498 167.779 241.175 152.798 255.088 141.112L254.445 140.346ZM260.795 135.313C258.625 136.935 256.507 138.615 254.445 140.346L255.088 141.112C257.136 139.392 259.239 137.724 261.394 136.114L260.795 135.313ZM257.126 128.924C258.357 131.198 259.527 133.536 260.641 135.925L261.547 135.502C260.425 133.097 259.247 130.741 258.005 128.448L257.126 128.924ZM230.289 140.382C240.381 137.455 249.195 133.412 257.789 129.134L257.343 128.238C248.767 132.508 240.016 136.52 230.011 139.421L230.289 140.382ZM222.482 142.306C224.889 141.807 227.723 141.126 230.289 140.382L230.011 139.421C227.473 140.157 224.665 140.832 222.279 141.327L222.482 142.306ZM215.598 143.268C217.626 143.268 220.527 142.711 222.482 142.306L222.279 141.327C220.306 141.736 217.506 142.268 215.598 142.268V143.268ZM208.857 143.134C210.758 143.299 212.474 143.332 213.701 143.324C214.315 143.32 214.808 143.306 215.142 143.293C215.309 143.286 215.437 143.28 215.522 143.275C215.563 143.272 215.596 143.27 215.618 143.268C215.626 143.268 215.642 143.267 215.658 143.265C215.661 143.264 215.674 143.263 215.691 143.26C215.696 143.259 215.721 143.254 215.752 143.244C215.771 143.238 215.826 143.214 215.86 143.195C215.933 143.141 216.087 142.881 216.09 142.668C216.024 142.503 215.845 142.332 215.782 142.302C215.752 142.291 215.704 142.279 215.686 142.275C215.658 142.27 215.635 142.269 215.63 142.269C215.614 142.268 215.601 142.268 215.598 142.268V143.268C215.596 143.268 215.584 143.268 215.569 143.267C215.565 143.267 215.542 143.265 215.514 143.26C215.496 143.257 215.449 143.244 215.419 143.234C215.355 143.204 215.176 143.033 215.11 142.868C215.113 142.655 215.267 142.395 215.34 142.341C215.374 142.322 215.429 142.298 215.448 142.292C215.479 142.282 215.504 142.277 215.508 142.276C215.524 142.274 215.536 142.272 215.538 142.272C215.548 142.271 215.552 142.271 215.542 142.271C215.529 142.272 215.503 142.274 215.464 142.276C215.386 142.281 215.264 142.287 215.102 142.293C214.778 142.306 214.297 142.32 213.694 142.324C212.49 142.332 210.806 142.299 208.943 142.138L208.857 143.134ZM201.267 168.84C204.149 160.217 206.854 151.523 209.38 142.775L208.419 142.497C205.897 151.232 203.197 159.913 200.319 168.523L201.267 168.84ZM162.805 262.086C179.741 232.438 190.911 199.824 201.267 168.84L200.319 168.523C189.96 199.515 178.817 232.039 161.937 261.59L162.805 262.086ZM161.826 263.857C162.203 263.166 162.53 262.566 162.805 262.086L161.937 261.59C161.656 262.08 161.324 262.689 160.948 263.377L161.826 263.857ZM155.385 274.177C158.036 270.803 160.317 266.621 161.826 263.857L160.948 263.377C159.433 266.154 157.189 270.261 154.598 273.559L155.385 274.177ZM137.104 284.308C146.022 284.064 151.905 278.606 155.385 274.177L154.598 273.559C151.195 277.891 145.559 283.076 137.076 283.308L137.104 284.308ZM126.282 274.105C126.461 279.899 131.306 284.466 137.104 284.308L137.076 283.308C131.829 283.452 127.444 279.317 127.282 274.074L126.282 274.105ZM136.458 263.323C130.659 263.482 126.103 268.309 126.282 274.105L127.282 274.074C127.119 268.832 131.24 264.466 136.485 264.323L136.458 263.323ZM136.482 263.323L136.478 263.323L136.465 264.323L136.469 264.323L136.482 263.323ZM138.845 261.18C137.938 262.333 137.304 262.872 136.917 263.12C136.725 263.243 136.598 263.292 136.533 263.311C136.501 263.32 136.484 263.323 136.48 263.323C136.478 263.323 136.478 263.323 136.482 263.323C136.486 263.323 136.49 263.323 136.489 263.323L136.462 264.323C136.772 264.331 137.748 264.194 139.631 261.797L138.845 261.18ZM142.813 254.757C141.422 257.29 140.311 259.314 138.845 261.18L139.631 261.797C141.157 259.855 142.307 257.757 143.689 255.238L142.813 254.757ZM142.804 254.773L142.804 254.774L143.698 255.221L143.698 255.221L142.804 254.773ZM142.797 254.788L142.797 254.789L143.706 255.205L143.706 255.205L142.797 254.788ZM142.816 254.751L142.815 254.752L143.687 255.242L143.687 255.241L142.816 254.751ZM144.552 251.633C143.911 252.755 143.342 253.791 142.813 254.756L143.69 255.237C144.219 254.272 144.784 253.242 145.42 252.129L144.552 251.633ZM181.339 162.13C170.924 193.291 160.325 224.021 144.552 251.633L145.42 252.129C161.249 224.42 171.875 193.6 182.288 162.447L181.339 162.13ZM190.179 133.448C187.454 143.084 184.507 152.652 181.339 162.13L182.288 162.447C185.461 152.954 188.412 143.371 191.141 133.72L190.179 133.448ZM187.317 125.09C187.531 128.495 188.615 131.433 190.245 133.862L191.075 133.305C189.542 131.02 188.518 128.251 188.315 125.027L187.317 125.09ZM187.297 124.251C187.293 124.529 187.299 124.809 187.317 125.09L188.315 125.027C188.299 124.772 188.293 124.519 188.297 124.267L187.297 124.251ZM187.296 124.121C187.296 124.169 187.296 124.218 187.297 124.266L188.297 124.253C188.296 124.209 188.296 124.165 188.296 124.121H187.296ZM190.246 112.943C189.089 114.918 187.296 119.097 187.296 124.121H188.296C188.296 119.319 190.016 115.314 191.109 113.449L190.246 112.943ZM196.078 105.469C194.416 107.17 191.709 110.448 190.246 112.943L191.109 113.449C192.519 111.044 195.169 107.831 196.793 106.168L196.078 105.469ZM197.93 103.693C197.297 104.262 196.679 104.854 196.078 105.469L196.793 106.168C197.379 105.569 197.981 104.992 198.599 104.437L197.93 103.693ZM209.345 284.955C209.016 287.599 208.745 290.062 208.545 292.279L209.541 292.369C209.74 290.165 210.009 287.714 210.337 285.079L209.345 284.955ZM208.545 292.279C206.973 309.68 206.697 326.924 212.512 345.286L213.465 344.984C207.71 326.811 207.973 309.724 209.541 292.369L208.545 292.279ZM212.512 345.286C215.627 355.121 220.202 360.609 225.065 363.745L225.607 362.904C220.976 359.918 216.524 354.641 213.465 344.984L212.512 345.286ZM226.002 357.823C225.518 359.556 225.095 361.399 224.841 363.257L225.832 363.392C226.078 361.592 226.49 359.796 226.965 358.092L226.002 357.823ZM231.413 343.684C229.304 348.287 227.274 353.264 226.002 357.823L226.965 358.092C228.217 353.606 230.222 348.684 232.322 344.101L231.413 343.684ZM243.111 321.513C240.865 325.313 235.662 334.414 231.413 343.684L232.322 344.101C236.55 334.877 241.733 325.809 243.972 322.021L243.111 321.513ZM252.62 306.927C249.258 311.629 246.078 316.491 243.111 321.513L243.972 322.021C246.924 317.026 250.088 312.189 253.434 307.509L252.62 306.927ZM227.711 301.817C235.401 306.481 244.482 307.956 253.041 307.718L253.013 306.718C244.575 306.953 235.703 305.495 228.229 300.962L227.711 301.817ZM209.437 285.312C214.233 291.9 220.394 297.379 227.711 301.817L228.229 300.962C221.013 296.585 214.955 291.193 210.245 284.723L209.437 285.312ZM323.428 329.747C326.662 326.522 329.746 323.296 332.588 320.24L331.856 319.559C329.02 322.608 325.945 325.824 322.722 329.039L323.428 329.747ZM321.708 331.448C322.282 330.886 322.855 330.318 323.428 329.747L322.722 329.039C322.151 329.608 321.58 330.173 321.008 330.734L321.708 331.448ZM276.676 357.516C295.95 350.008 308.753 342.412 321.681 331.473L321.035 330.709C308.201 341.569 295.497 349.111 276.313 356.585L276.676 357.516ZM274.729 358.077C275.352 357.898 275.986 357.716 276.632 357.531L276.357 356.57C275.711 356.755 275.076 356.937 274.453 357.116L274.729 358.077ZM246.112 362.374C255.175 363.699 263.066 361.425 274.729 358.077L274.453 357.116C262.744 360.477 255.068 362.673 246.257 361.384L246.112 362.374ZM249.595 352.017C247.961 355.581 246.607 358.914 245.708 361.727L246.661 362.031C247.543 359.271 248.879 355.978 250.504 352.434L249.595 352.017ZM260.329 331.688C258.225 335.249 253.421 343.667 249.595 352.017L250.504 352.434C254.309 344.13 259.093 335.745 261.19 332.196L260.329 331.688ZM287.255 296.453C277.03 307.173 267.875 318.918 260.329 331.688L261.19 332.196C268.693 319.5 277.799 307.815 287.979 297.144L287.255 296.453ZM287.561 296.134C287.464 296.24 287.365 296.343 287.264 296.445L287.971 297.152C288.083 297.04 288.193 296.925 288.299 296.808L287.561 296.134ZM296.463 287.335C293.422 290.184 290.453 293.114 287.569 296.125L288.291 296.817C291.162 293.819 294.118 290.902 297.146 288.065L296.463 287.335ZM305.77 300.383C302.268 295.728 299.51 291.609 297.243 287.46L296.366 287.94C298.663 292.144 301.451 296.305 304.97 300.984L305.77 300.383ZM333.832 312.47C326.423 312.47 313.66 310.873 305.77 300.383L304.97 300.984C313.157 311.867 326.346 313.47 333.832 313.47V312.47ZM338.145 312.1C336.755 312.337 335.314 312.47 333.832 312.47V313.47C335.375 313.47 336.871 313.331 338.312 313.086L338.145 312.1ZM335.757 316.47C336.742 315.27 337.701 314.075 338.622 312.902L337.835 312.284C336.919 313.452 335.965 314.641 334.984 315.835L335.757 316.47ZM332.601 320.225C333.639 319.019 334.697 317.761 335.757 316.47L334.984 315.835C333.929 317.121 332.876 318.373 331.843 319.573L332.601 320.225ZM371.143 253.344C371.249 253.182 371.503 252.794 371.874 252.337L371.098 251.707C370.695 252.204 370.418 252.625 370.306 252.796L371.143 253.344ZM367.026 261.047C368.76 257.647 370.287 254.652 371.143 253.344L370.306 252.796C369.412 254.163 367.852 257.226 366.135 260.593L367.026 261.047ZM366.237 262.595C366.503 262.074 366.767 261.556 367.026 261.047L366.135 260.593C365.876 261.102 365.612 261.619 365.346 262.14L366.237 262.595ZM365.878 263.297C366 263.059 366.119 262.825 366.237 262.595L365.346 262.14C365.229 262.37 365.109 262.604 364.988 262.841L365.878 263.297ZM365.048 262.749C364.874 262.96 364.692 263.178 364.504 263.403L365.273 264.043C365.461 263.817 365.643 263.599 365.818 263.388L365.048 262.749ZM364.504 263.403C362.498 265.815 359.784 269.056 356.946 272.389L357.707 273.037C360.549 269.701 363.265 266.456 365.273 264.043L364.504 263.403ZM356.946 272.389C354.098 275.733 351.167 279.118 348.715 281.836L349.457 282.506C351.919 279.777 354.856 276.384 357.707 273.037L356.946 272.389ZM348.715 281.836C347.485 283.199 346.426 284.338 345.587 285.197L346.303 285.896C347.155 285.024 348.223 283.874 349.457 282.506L348.715 281.836ZM345.587 285.197C344.953 285.846 344.603 286.17 344.481 286.284L345.16 287.017C345.292 286.895 345.655 286.559 346.303 285.896L345.587 285.197ZM344.481 286.284C344.465 286.298 344.45 286.312 344.44 286.322C344.434 286.327 344.427 286.334 344.421 286.34C344.417 286.344 344.412 286.349 344.406 286.356C344.402 286.359 344.386 286.376 344.369 286.399C344.363 286.406 344.337 286.44 344.314 286.49C344.304 286.512 344.276 286.573 344.269 286.657C344.26 286.746 344.272 286.931 344.433 287.075C344.575 287.202 344.734 287.204 344.787 287.202C344.85 287.199 344.899 287.185 344.919 287.179C344.962 287.165 344.993 287.148 345.002 287.144C345.024 287.132 345.042 287.12 345.046 287.117C345.053 287.113 345.059 287.108 345.063 287.106C345.075 287.097 345.091 287.085 345.102 287.077L344.501 286.278C344.486 286.289 344.483 286.291 344.484 286.29C344.485 286.289 344.489 286.287 344.494 286.284C344.496 286.282 344.512 286.272 344.534 286.26C344.542 286.256 344.573 286.239 344.615 286.226C344.635 286.219 344.683 286.205 344.747 286.203C344.8 286.201 344.958 286.203 345.1 286.329C345.261 286.473 345.273 286.658 345.265 286.747C345.257 286.831 345.23 286.892 345.219 286.914C345.196 286.963 345.17 286.997 345.165 287.004C345.148 287.026 345.134 287.041 345.132 287.043C345.127 287.048 345.124 287.051 345.123 287.052C345.122 287.054 345.122 287.053 345.125 287.05C345.132 287.043 345.143 287.033 345.16 287.017L344.481 286.284ZM344.501 286.278C343.88 286.744 343.274 287.274 342.925 287.579L343.583 288.332C343.934 288.025 344.514 287.519 345.102 287.077L344.501 286.278ZM342.925 287.579C342.8 287.688 342.683 287.791 342.57 287.89L343.23 288.642C343.343 288.542 343.459 288.44 343.583 288.332L342.925 287.579ZM342.57 287.89C342.276 288.148 342.008 288.383 341.693 288.652L342.342 289.413C342.663 289.139 342.936 288.9 343.23 288.642L342.57 287.89ZM341.693 288.652C340.869 289.355 340.022 290.028 339.108 290.625L339.655 291.462C340.619 290.833 341.502 290.13 342.342 289.413L341.693 288.652ZM339.108 290.625C337.253 291.837 335.53 292.47 333.832 292.47V293.47C335.789 293.47 337.701 292.738 339.655 291.462L339.108 290.625ZM333.832 292.47C328.037 292.47 323.74 291.003 321.752 288.361L320.953 288.962C323.234 291.993 327.951 293.47 333.832 293.47V292.47ZM321.752 288.361C317.601 282.842 314.993 278.669 313.051 274.379L312.14 274.792C314.123 279.172 316.778 283.411 320.953 288.962L321.752 288.361ZM312.891 274.989C331.293 261.507 351.997 252.065 374.311 245.921L374.045 244.957C351.63 251.128 330.813 260.62 312.3 274.182L312.891 274.989ZM373.712 245.256C372.846 247.465 371.948 249.657 371.026 251.827L371.946 252.218C372.872 250.04 373.774 247.839 374.643 245.621L373.712 245.256ZM268.443 154.719C268.063 155.031 267.685 155.345 267.308 155.661L267.951 156.427C268.325 156.113 268.7 155.802 269.077 155.493L268.443 154.719ZM276.217 189.272C274.147 175.507 271.864 163.373 269.238 154.957L268.283 155.255C270.885 163.592 273.159 175.661 275.228 189.42L276.217 189.272ZM280.391 220.19C279.097 210.039 277.746 199.445 276.217 189.272L275.228 189.42C276.755 199.581 278.105 210.164 279.399 220.316L280.391 220.19ZM280.391 220.19L280.391 220.189L279.399 220.318L279.399 220.319L280.391 220.19ZM282.249 234.561C281.634 229.94 281.019 225.118 280.391 220.191L279.399 220.317C280.027 225.244 280.642 230.069 281.258 234.693L282.249 234.561ZM289.563 267.606C286.389 256.948 283.734 245.702 282.249 234.561L281.258 234.693C282.751 245.899 285.42 257.197 288.605 267.891L289.563 267.606ZM283.993 272.983C285.776 271.322 287.582 269.704 289.411 268.127L288.758 267.37C286.919 268.955 285.104 270.582 283.311 272.252L283.993 272.983ZM274.823 281.97C277.812 278.885 280.873 275.89 283.993 272.983L283.311 272.252C280.179 275.17 277.106 278.177 274.105 281.274L274.823 281.97ZM255.631 287.529C262.357 286.882 269.196 284.825 274.689 282.069L274.24 281.175C268.856 283.877 262.136 285.898 255.535 286.534L255.631 287.529ZM238.083 284.717C242.103 287.155 248.232 288.241 255.631 287.529L255.535 286.534C248.257 287.234 242.37 286.148 238.601 283.862L238.083 284.717ZM218.735 257.069C221.087 269.579 227.606 278.362 238.083 284.717L238.601 283.862C228.353 277.646 222.014 269.098 219.717 256.884L218.735 257.069ZM225.238 212.463C219.355 227.659 215.994 242.493 218.735 257.069L219.717 256.884C217.028 242.578 220.313 227.952 226.17 212.824L225.238 212.463ZM235.487 192.861C231.383 198.938 227.91 205.563 225.238 212.463L226.17 212.824C228.815 205.994 232.253 199.436 236.315 193.421L235.487 192.861ZM267.308 155.661C255.353 165.702 244.828 179.028 235.487 192.861L236.315 193.421C245.635 179.62 256.1 166.381 267.951 156.427L267.308 155.661ZM306.655 254.513C304.665 246.971 303.065 239.353 302.074 231.92L301.083 232.052C302.08 239.535 303.69 247.195 305.688 254.768L306.655 254.513ZM369.973 225.337C347.16 231.49 325.526 240.865 305.891 254.227L306.453 255.054C325.984 241.763 347.514 232.43 370.234 226.303L369.973 225.337ZM378.672 222.825C376.638 223.455 373.966 224.26 369.973 225.337L370.234 226.303C374.241 225.222 376.924 224.413 378.968 223.78L378.672 222.825ZM379.828 222.464C379.447 222.584 379.062 222.704 378.672 222.825L378.968 223.78C379.359 223.659 379.746 223.538 380.127 223.419L379.828 222.464ZM381.467 221.955C380.928 222.12 380.382 222.291 379.828 222.464L380.127 223.419C380.681 223.245 381.225 223.075 381.76 222.911L381.467 221.955ZM378.34 159.507C387.225 176.609 386.283 201.201 381.128 222.315L382.1 222.552C387.275 201.357 388.28 176.471 379.227 159.046L378.34 159.507ZM358.167 137.056C365.888 141.028 373.381 149.962 378.34 159.507L379.227 159.046C374.219 149.406 366.602 140.271 358.625 136.167L358.167 137.056ZM332.615 130.993C341.35 131.048 350.558 133.141 358.167 137.056L358.625 136.167C350.863 132.173 341.499 130.049 332.621 129.993L332.615 130.993ZM286.111 143.822C300.64 135.653 316.635 130.892 332.615 130.993L332.621 129.993C316.439 129.89 300.274 134.712 285.621 142.951L286.111 143.822ZM287.234 145.707C286.94 144.879 286.641 144.048 286.335 143.214L285.396 143.559C285.7 144.389 285.999 145.217 286.292 146.042L287.234 145.707ZM295.994 186.298C293.713 171.123 290.942 156.143 287.234 145.707L286.292 146.042C289.964 156.377 292.723 171.27 295.005 186.447L295.994 186.298ZM300.27 217.971C298.96 207.696 297.557 196.688 295.994 186.298L295.005 186.447C296.566 196.824 297.968 207.82 299.278 218.097L300.27 217.971ZM300.271 217.975L300.27 217.97L299.279 218.098L299.279 218.103L300.271 217.975ZM302.074 231.92C301.489 227.53 300.891 222.835 300.271 217.976L299.279 218.102C299.899 222.961 300.498 227.658 301.083 232.052L302.074 231.92ZM214.47 122.289L214.287 122.293L214.313 123.293L214.496 123.288L214.47 122.289ZM215.295 122.27C215.038 122.274 214.761 122.281 214.47 122.289L214.497 123.288C214.789 123.28 215.059 123.273 215.309 123.27L215.295 122.27ZM215.804 122.194C215.5 122.242 215.321 122.264 215.243 122.274L215.362 123.266C215.451 123.256 215.642 123.232 215.96 123.182L215.804 122.194ZM218.218 121.743C217.238 121.947 216.412 122.098 215.804 122.194L215.96 123.182C216.588 123.083 217.43 122.928 218.421 122.723L218.218 121.743ZM224.441 120.213C222.481 120.781 220.186 121.335 218.218 121.743L218.421 122.723C220.41 122.31 222.731 121.75 224.719 121.173L224.441 120.213ZM244.136 112.433C237.559 115.583 231.316 118.219 224.441 120.213L224.719 121.173C231.667 119.158 237.964 116.498 244.568 113.334L244.136 112.433ZM233.012 111.624C237.31 111.258 240.969 111.809 244.135 113.334L244.569 112.433C241.206 110.813 237.36 110.25 232.927 110.627L233.012 111.624ZM216.274 116.302C220.939 113.727 226.909 112.143 233.012 111.624L232.927 110.627C226.721 111.155 220.607 112.767 215.791 115.427L216.274 116.302ZM214.784 122.917C215.374 120.609 215.953 118.297 216.518 115.983L215.547 115.746C214.982 118.056 214.405 120.364 213.815 122.669L214.784 122.917ZM244.595 366.945C244.596 366.951 244.602 366.987 244.617 367.03C244.62 367.04 244.644 367.115 244.708 367.189C244.74 367.228 244.822 367.313 244.963 367.35C245.13 367.394 245.282 367.344 245.383 367.27L244.795 366.462C244.896 366.388 245.048 366.339 245.216 366.382C245.356 366.419 245.438 366.504 245.47 366.543C245.533 366.617 245.558 366.692 245.561 366.702C245.576 366.744 245.581 366.779 245.582 366.784L244.595 366.945ZM244.586 366.796C244.586 366.828 244.586 366.893 244.595 366.947L245.582 366.782C245.583 366.789 245.584 366.795 245.584 366.799C245.585 366.803 245.585 366.807 245.585 366.809C245.586 366.814 245.586 366.818 245.586 366.82C245.587 366.823 245.587 366.825 245.587 366.823C245.586 366.82 245.586 366.811 245.586 366.796H244.586ZM245.384 367.27C245.501 367.185 245.544 367.074 245.551 367.057C245.566 367.021 245.574 366.991 245.577 366.977C245.583 366.948 245.586 366.924 245.587 366.916C245.589 366.896 245.589 366.88 245.589 366.874C245.59 366.858 245.59 366.843 245.589 366.832C245.589 366.81 245.587 366.783 245.584 366.753L244.588 366.838C244.589 366.846 244.589 366.852 244.589 366.856C244.589 366.858 244.59 366.86 244.59 366.861C244.59 366.862 244.59 366.863 244.59 366.863C244.59 366.863 244.59 366.862 244.59 366.86C244.59 366.858 244.59 366.854 244.59 366.849C244.59 366.845 244.59 366.832 244.592 366.813C244.593 366.806 244.595 366.783 244.602 366.754C244.605 366.741 244.612 366.711 244.627 366.674C244.635 366.656 244.648 366.627 244.67 366.594C244.689 366.563 244.728 366.51 244.794 366.462L245.384 367.27Z" fill="#001E28"/>
<path d="M131.312 468.906V442.906C131.312 441.76 131.833 441.188 132.875 441.188H135.75C136.792 441.188 137.312 441.76 137.312 442.906V467.969C137.312 473.802 138.135 477.615 139.781 479.406C141.448 481.177 144.156 482.062 147.906 482.062C151.656 482.062 154.354 481.177 156 479.406C157.667 477.615 158.5 473.802 158.5 467.969V442.906C158.5 441.76 159.021 441.188 160.062 441.188H162.938C163.979 441.188 164.5 441.76 164.5 442.906V468.906C164.5 475.51 162.979 480.167 159.938 482.875C156.917 485.583 152.906 486.938 147.906 486.938C142.906 486.938 138.885 485.583 135.844 482.875C132.823 480.167 131.312 475.51 131.312 468.906ZM176.688 486C175.646 486 175.125 485.427 175.125 484.281V442.906C175.125 441.76 175.646 441.188 176.688 441.188H179.562C180.604 441.188 181.125 441.76 181.125 442.906V484.281C181.125 485.427 180.604 486 179.562 486H176.688ZM214.625 486C213.583 486 213.062 485.427 213.062 484.281V442.906C213.062 441.76 213.583 441.188 214.625 441.188H226.156C234.99 441.188 241.125 443.146 244.562 447.062C248.021 450.958 249.75 456.448 249.75 463.531C249.75 470.615 248.021 476.135 244.562 480.094C241.125 484.031 234.99 486 226.156 486H214.625ZM219.062 480.875H225.875C232.75 480.875 237.375 479.417 239.75 476.5C242.146 473.583 243.344 469.26 243.344 463.531C243.344 457.802 242.146 453.49 239.75 450.594C237.375 447.698 232.75 446.25 225.875 446.25H219.062V480.875ZM255.281 469.594C255.281 464.427 256.573 460.312 259.156 457.25C261.74 454.188 265.438 452.656 270.25 452.656C274.25 452.656 277.562 454.062 280.188 456.875C282.833 459.667 284.156 464.135 284.156 470.281C284.156 471.219 283.729 471.688 282.875 471.688H261.094C261.448 475.708 262.531 478.51 264.344 480.094C266.156 481.656 268.208 482.438 270.5 482.438C272.917 482.438 274.771 482.031 276.062 481.219C277.354 480.406 278.302 479.604 278.906 478.812C279.573 477.938 280.219 477.771 280.844 478.312L282.688 479.906C283.167 480.323 283.167 480.896 282.688 481.625C282.292 482.229 281.156 483.198 279.281 484.531C277.427 485.865 274.5 486.531 270.5 486.531C265.292 486.531 261.448 485 258.969 481.938C256.51 478.875 255.281 474.76 255.281 469.594ZM260.969 467.625H278.625C278.542 464.708 277.792 462.156 276.375 459.969C274.958 457.76 272.875 456.656 270.125 456.656C267.708 456.656 265.656 457.469 263.969 459.094C262.281 460.698 261.281 463.542 260.969 467.625ZM290.094 482.938C289.448 482.333 289.312 481.771 289.688 481.25L291.094 479.281C291.552 478.656 292.229 478.688 293.125 479.375C294.354 480.312 295.719 481.062 297.219 481.625C298.74 482.188 300.469 482.469 302.406 482.469C303.552 482.469 304.573 482.333 305.469 482.062C306.365 481.771 307.146 481.24 307.812 480.469C308.5 479.698 308.844 478.667 308.844 477.375C308.844 476.625 308.677 475.917 308.344 475.25C308.031 474.583 307.531 474.052 306.844 473.656C306.177 473.24 305.521 472.917 304.875 472.688C303.812 472.292 302.75 471.969 301.688 471.719C300.646 471.448 299.271 471.042 297.562 470.5C296.417 470.146 295.333 469.646 294.312 469C293.292 468.333 292.396 467.438 291.625 466.312C290.875 465.188 290.5 463.635 290.5 461.656C290.5 459.635 291.115 457.896 292.344 456.438C293.573 454.979 295.115 453.99 296.969 453.469C298.823 452.927 300.625 452.656 302.375 452.656C304.958 452.656 307.031 452.958 308.594 453.562C310.177 454.146 311.542 454.844 312.688 455.656C313.354 456.135 313.448 456.688 312.969 457.312L311.562 459.188C311.125 459.792 310.448 459.771 309.531 459.125C308.76 458.583 307.667 458.073 306.25 457.594C304.833 457.115 303.594 456.875 302.531 456.875C301.219 456.875 300.094 457.021 299.156 457.312C298.219 457.604 297.458 458.104 296.875 458.812C296.292 459.521 296 460.354 296 461.312C296 462.042 296.115 462.698 296.344 463.281C296.573 463.844 297 464.365 297.625 464.844C298.25 465.323 299.125 465.708 300.25 466C302 466.458 303.594 466.875 305.031 467.25C306.49 467.625 307.802 468.083 308.969 468.625C310.49 469.333 311.656 470.115 312.469 470.969C313.302 471.823 313.875 472.75 314.188 473.75C314.5 474.729 314.656 475.823 314.656 477.031C314.656 479.26 313.99 481.146 312.656 482.688C311.344 484.229 309.875 485.26 308.25 485.781C306.625 486.281 304.667 486.531 302.375 486.531C299.271 486.531 296.604 486.094 294.375 485.219C292.167 484.323 290.74 483.562 290.094 482.938ZM322.281 486C321.344 486 320.875 485.531 320.875 484.594V454.594C320.875 453.656 321.344 453.188 322.281 453.188H324.969C325.906 453.188 326.375 453.656 326.375 454.594V484.594C326.375 485.531 325.906 486 324.969 486H322.281ZM322.281 447.25C321.344 447.25 320.875 446.781 320.875 445.844V443.156C320.875 442.219 321.344 441.75 322.281 441.75H324.969C325.906 441.75 326.375 442.219 326.375 443.156V445.844C326.375 446.781 325.906 447.25 324.969 447.25H322.281ZM333.469 469.594C333.469 465.115 334.552 461.177 336.719 457.781C338.885 454.365 342.052 452.656 346.219 452.656C348.615 452.656 350.531 453.052 351.969 453.844C353.406 454.635 354.698 455.719 355.844 457.094H355.906L356.094 454.594C356.156 453.656 356.562 453.188 357.312 453.188H359.938C360.875 453.188 361.344 453.656 361.344 454.594V486.25C361.344 490.25 360.417 493.375 358.562 495.625C356.729 497.896 353.094 499.031 347.656 499.031C344.01 499.031 341.281 498.615 339.469 497.781C337.656 496.969 336.365 496.104 335.594 495.188C335.031 494.5 335 493.917 335.5 493.438L337.219 491.75C337.698 491.292 338.365 491.438 339.219 492.188C340.323 493.188 341.385 493.896 342.406 494.312C343.427 494.75 345.188 494.969 347.688 494.969C350.521 494.969 352.583 494.365 353.875 493.156C355.188 491.948 355.844 489.448 355.844 485.656V483.781C355.844 483.135 355.865 482.5 355.906 481.875H355.844C354.76 483.312 353.479 484.448 352 485.281C350.542 486.115 348.615 486.531 346.219 486.531C342.052 486.531 338.885 484.833 336.719 481.438C334.552 478.021 333.469 474.073 333.469 469.594ZM339.281 469.594C339.281 473.427 339.938 476.531 341.25 478.906C342.583 481.281 344.833 482.469 348 482.469C350.25 482.469 352.115 481.708 353.594 480.188C355.094 478.646 355.844 476.312 355.844 473.188V466C355.844 462.875 355.094 460.552 353.594 459.031C352.115 457.49 350.25 456.719 348 456.719C344.833 456.719 342.583 457.906 341.25 460.281C339.938 462.656 339.281 465.76 339.281 469.594ZM371.656 486C370.719 486 370.25 485.531 370.25 484.594V454.594C370.25 453.656 370.719 453.188 371.656 453.188H374.281C375.219 453.188 375.688 453.656 375.688 454.594V457.094H375.812C377.167 455.594 378.625 454.479 380.188 453.75C381.75 453.021 383.698 452.656 386.031 452.656C389.823 452.656 392.542 453.729 394.188 455.875C395.854 458 396.688 460.917 396.688 464.625V484.594C396.688 485.531 396.219 486 395.281 486H392.594C391.656 486 391.188 485.531 391.188 484.594V466.125C391.188 462.042 390.51 459.458 389.156 458.375C387.802 457.271 386.083 456.719 384 456.719C381.292 456.719 379.24 457.531 377.844 459.156C376.448 460.76 375.75 463.521 375.75 467.438V484.594C375.75 485.531 375.281 486 374.344 486H371.656Z" fill="#001F28"/>
<line x1="128" y1="415" x2="400" y2="415" stroke="#016F92" stroke-width="8"/>
</svg>
