<?xml version="1.0" standalone="no"?>
<!DOCTYPE svg PUBLIC "-//W3C//DTD SVG 20010904//EN"
 "http://www.w3.org/TR/2001/REC-SVG-20010904/DTD/svg10.dtd">
<svg version="1.0" xmlns="http://www.w3.org/2000/svg"
 width="700.000000pt" height="700.000000pt" viewBox="0 0 700.000000 700.000000"
 preserveAspectRatio="xMidYMid meet">
<metadata>
Created by potrace 1.14, written by Peter Selinger 2001-2017
</metadata>
<g transform="translate(0.000000,700.000000) scale(0.100000,-0.100000)"
fill="#000000" stroke="none">
<path d="M2694 6591 c-35 -16 -46 -29 -70 -81 -16 -34 -76 -155 -133 -268
-240 -478 -378 -679 -643 -938 -162 -158 -215 -189 -323 -189 -56 1 -80 6
-120 27 -104 54 -175 148 -201 267 -20 87 -47 122 -112 141 -37 12 -45 11 -88
-11 -34 -17 -54 -35 -68 -63 -18 -36 -19 -45 -8 -109 40 -230 212 -432 432
-508 49 -16 89 -22 160 -22 109 -1 180 17 281 69 131 69 370 306 549 546 50
66 90 117 90 113 0 -3 -14 -70 -31 -148 l-31 -141 -59 -65 c-33 -36 -71 -89
-85 -117 -49 -99 -50 -212 -4 -291 l19 -32 -54 -179 c-170 -565 -401 -1198
-569 -1560 -86 -185 -241 -473 -293 -545 -39 -53 -52 -61 -105 -71 -105 -19
-148 -135 -82 -223 63 -84 223 -60 343 52 108 101 325 500 497 912 136 326
386 1041 484 1378 l31 110 78 -3 c170 -8 469 81 754 225 38 19 73 31 78 26 4
-4 27 -46 50 -92 l42 -85 -34 -25 c-243 -185 -480 -447 -700 -773 -107 -161
-179 -295 -240 -452 -43 -109 -163 -515 -203 -686 -120 -513 -88 -1292 76
-1810 102 -323 280 -511 558 -590 107 -31 318 -38 467 -16 282 42 706 196 907
330 183 123 411 330 632 574 86 95 159 171 161 169 2 -3 -1 -53 -7 -113 -15
-161 -13 -502 4 -607 19 -117 53 -216 86 -248 76 -76 199 -45 230 58 11 34 9
49 -14 120 -53 169 -55 480 -5 858 10 83 24 186 30 230 5 44 21 123 34 175 26
103 175 527 248 705 24 61 60 153 78 207 l34 96 65 7 c94 10 140 39 161 102
25 77 -29 164 -111 178 -32 5 -40 11 -36 23 14 45 37 223 47 364 36 485 -96
895 -385 1196 -135 140 -237 207 -419 271 -161 56 -272 74 -462 74 -305 -1
-572 -67 -867 -214 l-98 -49 -37 72 c-21 40 -39 76 -41 81 -2 4 65 40 150 81
663 317 1408 810 1784 1181 110 109 127 147 100 219 -26 68 -94 103 -162 84
-26 -7 -71 -42 -153 -121 -369 -355 -955 -744 -1626 -1079 l-250 -126 -60 55
c-75 67 -190 126 -291 149 -92 20 -278 15 -383 -11 -35 -8 -66 -14 -68 -12 -2
2 28 147 67 322 75 338 130 631 130 691 0 112 -106 182 -206 135z m479 -1424
c31 -16 57 -32 57 -36 0 -11 -200 -100 -315 -141 -116 -40 -238 -70 -293 -70
-50 0 -49 -8 -14 123 17 60 19 63 72 89 94 47 201 68 325 65 98 -2 116 -5 168
-30z m1762 -331 c234 -50 388 -146 524 -326 114 -152 180 -301 218 -495 23
-121 23 -436 0 -585 -29 -181 -49 -260 -68 -270 -9 -6 -102 -34 -206 -65 -442
-127 -749 -262 -1057 -461 -75 -49 -113 -69 -118 -61 -23 42 -84 382 -128 717
-99 750 -146 1010 -225 1240 -31 90 -39 79 120 155 179 86 395 149 580 169 75
8 290 -3 360 -18z m-1314 -423 c55 -141 115 -486 204 -1169 50 -381 77 -529
132 -732 l36 -133 -134 -130 c-152 -147 -196 -174 -355 -215 -126 -32 -287
-37 -379 -10 -116 34 -258 147 -339 271 -146 220 -165 542 -53 910 103 335
279 625 596 980 72 81 259 255 274 255 4 0 12 -12 18 -27z m1870 -1655 c-66
-166 -150 -304 -279 -457 -225 -267 -334 -367 -426 -392 -51 -14 -169 2 -225
31 -54 27 -143 146 -210 277 l-31 62 48 34 c216 158 510 312 791 413 124 45
353 115 359 109 1 -1 -11 -36 -27 -77z m-2807 -773 c185 -183 351 -254 593
-255 l112 0 -65 -92 c-156 -220 -364 -613 -428 -807 l-33 -104 -45 46 c-159
163 -269 624 -284 1192 l-6 210 38 -55 c20 -30 73 -91 118 -135z m1440 68 c34
-72 147 -231 200 -281 63 -60 152 -107 243 -128 83 -19 232 -22 292 -5 23 7
45 10 47 8 7 -7 -132 -176 -241 -293 -290 -310 -750 -562 -1205 -660 -76 -16
-259 -22 -298 -10 l-21 7 25 72 c87 242 310 629 505 874 137 172 403 452 430
453 3 0 13 -17 23 -37z"/>
</g>
</svg>
